%TF.GenerationSoftware,KiCad,Pcbnew,9.0.7*%
%TF.CreationDate,2026-03-20T00:38:03-04:00*%
%TF.ProjectId,WallNet_Main,57616c6c-4e65-4745-9f4d-61696e2e6b69,rev?*%
%TF.SameCoordinates,Original*%
%TF.FileFunction,Copper,L4,Bot*%
%TF.FilePolarity,Positive*%
%FSLAX46Y46*%
G04 Gerber Fmt 4.6, Leading zero omitted, Abs format (unit mm)*
G04 Created by KiCad (PCBNEW 9.0.7) date 2026-03-20 00:38:03*
%MOMM*%
%LPD*%
G01*
G04 APERTURE LIST*
%TA.AperFunction,ComponentPad*%
%ADD10C,1.530000*%
%TD*%
%TA.AperFunction,ComponentPad*%
%ADD11R,1.700000X1.700000*%
%TD*%
%TA.AperFunction,ComponentPad*%
%ADD12C,1.700000*%
%TD*%
%TA.AperFunction,HeatsinkPad*%
%ADD13O,1.100000X1.700000*%
%TD*%
%TA.AperFunction,ViaPad*%
%ADD14C,0.580000*%
%TD*%
%TA.AperFunction,Conductor*%
%ADD15C,0.152400*%
%TD*%
%TA.AperFunction,Conductor*%
%ADD16C,0.300000*%
%TD*%
G04 APERTURE END LIST*
D10*
%TO.P,TP6,1,1*%
%TO.N,/P08*%
X89392857Y-39250000D03*
%TD*%
D11*
%TO.P,J1,1,Pin_1*%
%TO.N,/SWDIO*%
X83750000Y-15670000D03*
D12*
%TO.P,J1,2,Pin_2*%
%TO.N,/SWDCLK*%
X83750000Y-18210000D03*
%TO.P,J1,3,Pin_3*%
%TO.N,RESET*%
X83750000Y-20750000D03*
%TO.P,J1,4,Pin_4*%
%TO.N,VDD_nrf*%
X83750000Y-23290000D03*
%TO.P,J1,5,Pin_5*%
%TO.N,GND*%
X83750000Y-25830000D03*
%TD*%
D11*
%TO.P,J202,1,Pin_1*%
%TO.N,VDD_nrf*%
X19920000Y-58500000D03*
D12*
%TO.P,J202,2,Pin_2*%
%TO.N,GND*%
X22460000Y-58500000D03*
%TO.P,J202,3,Pin_3*%
%TO.N,/P12*%
X25000000Y-58500000D03*
%TO.P,J202,4,Pin_4*%
%TO.N,/P08*%
X27540000Y-58500000D03*
%TO.P,J202,5,Pin_5*%
%TO.N,/Sensors/RFID_GPO*%
X30080000Y-58500000D03*
%TD*%
D10*
%TO.P,TP12,1,1*%
%TO.N,/P10*%
X49750000Y-26750000D03*
%TD*%
%TO.P,TP13,1,1*%
%TO.N,/P09*%
X45000000Y-26750000D03*
%TD*%
%TO.P,TP9,1,1*%
%TO.N,/P00*%
X32000000Y-20500000D03*
%TD*%
%TO.P,TP8,1,1*%
%TO.N,/P13*%
X108785714Y-39250000D03*
%TD*%
%TO.P,TP14,1,1*%
%TO.N,/P03*%
X40250000Y-26750000D03*
%TD*%
%TO.P,TP7,1,1*%
%TO.N,/P18*%
X115250000Y-39250000D03*
%TD*%
%TO.P,TP10,1,1*%
%TO.N,/P01*%
X27250000Y-20500000D03*
%TD*%
D13*
%TO.P,J101,S1,SHIELD*%
%TO.N,GND*%
X44180000Y-75250000D03*
X44180000Y-79050000D03*
X52820000Y-75250000D03*
X52820000Y-79050000D03*
%TD*%
D10*
%TO.P,TP2,1,1*%
%TO.N,GND*%
X70000000Y-39250000D03*
%TD*%
%TO.P,TP15,1,1*%
%TO.N,GND*%
X76464286Y-39250000D03*
%TD*%
%TO.P,TP4,1,1*%
%TO.N,/P20*%
X102321429Y-39250000D03*
%TD*%
%TO.P,TP5,1,1*%
%TO.N,/P12*%
X82928571Y-39250000D03*
%TD*%
%TO.P,TP3,1,1*%
%TO.N,/P19*%
X95857143Y-39250000D03*
%TD*%
%TO.P,TP11,1,1*%
%TO.N,/P02*%
X22500000Y-20500000D03*
%TD*%
D14*
%TO.N,GND*%
X42750000Y-34750000D03*
X40000000Y-16500000D03*
X57500000Y-29000000D03*
X41500000Y-68250000D03*
X22500000Y-16500000D03*
X42500000Y-29000000D03*
X99000000Y-31750000D03*
X40250000Y-70750000D03*
X78250000Y-25500000D03*
X106750000Y-15750000D03*
X114500000Y-26000000D03*
X29000000Y-65500000D03*
X74250000Y-21750000D03*
X60000000Y-44250000D03*
X105500000Y-22750000D03*
X23500000Y-70250000D03*
X40000000Y-66750000D03*
X60000000Y-46500000D03*
X114250000Y-15750000D03*
X51000000Y-40500000D03*
X73000000Y-23500000D03*
X105500000Y-24750000D03*
X98500000Y-16000000D03*
X32250000Y-16500000D03*
X106750000Y-26000000D03*
X61500000Y-29000000D03*
X105500000Y-17000000D03*
X57250000Y-39000000D03*
X51000000Y-45000000D03*
X62500000Y-41000000D03*
X60250000Y-39500000D03*
X115750000Y-24750000D03*
X48000000Y-29000000D03*
X106000000Y-30750000D03*
X91000000Y-31750000D03*
X27250000Y-16500000D03*
X43250000Y-65500000D03*
X42750000Y-50750000D03*
X115500000Y-17250000D03*
%TO.N,/Power/REGN*%
X41750000Y-62500000D03*
X47250000Y-69750000D03*
%TO.N,/Sensors/VGH*%
X60000000Y-48750000D03*
X56112500Y-49137500D03*
%TO.N,/Sensors/VGL*%
X60000000Y-50750000D03*
X55750000Y-51000000D03*
%TO.N,RESET*%
X101500000Y-13699000D03*
X101500000Y-12641800D03*
%TO.N,/Sensors/RESE*%
X57250000Y-43000000D03*
X57250000Y-37950000D03*
%TO.N,/Power/BAT*%
X48000000Y-68675000D03*
X47250000Y-72500000D03*
%TO.N,/Power/VBUS_BQ*%
X39000000Y-74000000D03*
X38500000Y-65000000D03*
X30250000Y-75500000D03*
%TO.N,/P07*%
X37897600Y-72262500D03*
X67000000Y-26750000D03*
X67000000Y-36000000D03*
X39500000Y-33250000D03*
%TO.N,/P01*%
X53782029Y-41532029D03*
X54250000Y-22750000D03*
%TO.N,/P09*%
X55750000Y-25500000D03*
X55378116Y-43128116D03*
%TO.N,/P20*%
X77500000Y-23000000D03*
X77500000Y-33842344D03*
X102321429Y-33842344D03*
%TO.N,/P08*%
X37492344Y-69987615D03*
X68500000Y-26750000D03*
X38823152Y-56757667D03*
X110750000Y-36028600D03*
X38827031Y-32913515D03*
X89500000Y-36028600D03*
X68500000Y-36000000D03*
X112400000Y-29250000D03*
%TO.N,/P29*%
X66350000Y-22850000D03*
X54000000Y-70750000D03*
%TO.N,/P13*%
X75250000Y-34971400D03*
X75000000Y-24750000D03*
X108750000Y-34971400D03*
%TO.N,/P04*%
X56750000Y-70750000D03*
X66325000Y-24075000D03*
%TO.N,/P19*%
X82250000Y-13000000D03*
X75000000Y-19250000D03*
X96000000Y-13170400D03*
%TO.N,/P12*%
X38746915Y-32165390D03*
X37250000Y-58278600D03*
X70000000Y-26750000D03*
X83000000Y-35500000D03*
X118750000Y-22750000D03*
X36750000Y-68250000D03*
X70250000Y-35500000D03*
X115500000Y-35500000D03*
%TO.N,/P00*%
X53250000Y-41000000D03*
X53750000Y-21750000D03*
%TO.N,/P28*%
X66250000Y-21750000D03*
X51000000Y-70750000D03*
%TO.N,/P05*%
X66493879Y-25243267D03*
X59500000Y-70750000D03*
%TO.N,/P10*%
X55910145Y-43660145D03*
X56250000Y-26750000D03*
%TO.N,/P18*%
X74471400Y-34370944D03*
X74500000Y-24000000D03*
X115000000Y-34370944D03*
%TO.N,/P03*%
X55250000Y-24500000D03*
X54846087Y-42596087D03*
%TO.N,/P02*%
X54314058Y-42064058D03*
X54750000Y-23750000D03*
%TO.N,VDD_nrf*%
X54750000Y-44500000D03*
X105500000Y-21000000D03*
X61250000Y-42250000D03*
X43500000Y-67175000D03*
X33387500Y-69100000D03*
X130250000Y-36000000D03*
X113712500Y-32425000D03*
X26500000Y-75500000D03*
X105500000Y-19000000D03*
X122250000Y-22750000D03*
X112500000Y-16000000D03*
X46750000Y-15750000D03*
X81750000Y-26700000D03*
%TD*%
D15*
%TO.N,/Power/REGN*%
X41750000Y-63109611D02*
X47250000Y-68609611D01*
X47250000Y-68609611D02*
X47250000Y-69750000D01*
X41750000Y-62500000D02*
X41750000Y-63109611D01*
%TO.N,/Sensors/VGH*%
X60000000Y-48750000D02*
X56500000Y-48750000D01*
X56500000Y-48750000D02*
X56112500Y-49137500D01*
%TO.N,/Sensors/VGL*%
X59250000Y-51500000D02*
X60000000Y-50750000D01*
X56250000Y-51500000D02*
X59250000Y-51500000D01*
X55750000Y-51000000D02*
X56250000Y-51500000D01*
%TO.N,RESET*%
X101500000Y-12641800D02*
X101500000Y-13699000D01*
%TO.N,/Sensors/RESE*%
X56620400Y-38579600D02*
X57250000Y-37950000D01*
X57250000Y-43000000D02*
X56620400Y-42370400D01*
X56620400Y-42370400D02*
X56620400Y-38579600D01*
D16*
%TO.N,/Power/BAT*%
X47250000Y-72500000D02*
X48000000Y-71750000D01*
X48000000Y-71750000D02*
X48000000Y-68675000D01*
%TO.N,/Power/VBUS_BQ*%
X38500000Y-65000000D02*
X38500000Y-73500000D01*
X39000000Y-74000000D02*
X31750000Y-74000000D01*
X31750000Y-74000000D02*
X30250000Y-75500000D01*
X38500000Y-73500000D02*
X39000000Y-74000000D01*
D15*
%TO.N,/P07*%
X39500000Y-59000000D02*
X37750000Y-60750000D01*
X37750000Y-60750000D02*
X37750000Y-65140389D01*
X39500000Y-33250000D02*
X39500000Y-59000000D01*
X67000000Y-26750000D02*
X67000000Y-36000000D01*
X38120400Y-72039700D02*
X37897600Y-72262500D01*
X37750000Y-65140389D02*
X38120400Y-65510789D01*
X38120400Y-65510789D02*
X38120400Y-72039700D01*
%TO.N,/P01*%
X53782029Y-23217971D02*
X53782029Y-41532029D01*
X54250000Y-22750000D02*
X53782029Y-23217971D01*
%TO.N,/P09*%
X55378116Y-25871884D02*
X55750000Y-25500000D01*
X55378116Y-43128116D02*
X55378116Y-25871884D01*
%TO.N,/P20*%
X102321429Y-33842344D02*
X102321429Y-39250000D01*
X77500000Y-33842344D02*
X77500000Y-23000000D01*
%TO.N,/P08*%
X38750000Y-32990546D02*
X38827031Y-32913515D01*
X37814600Y-65637455D02*
X37814600Y-69665359D01*
X37814600Y-69665359D02*
X37492344Y-69987615D01*
X37444200Y-60180800D02*
X37444200Y-65267056D01*
X89500000Y-36028600D02*
X89392857Y-36135743D01*
X110750000Y-30900000D02*
X112400000Y-29250000D01*
X68500000Y-26750000D02*
X68500000Y-36000000D01*
X38823152Y-58801848D02*
X37444200Y-60180800D01*
X110750000Y-36028600D02*
X110750000Y-30900000D01*
X38823152Y-56757667D02*
X38750000Y-56684515D01*
X37444200Y-65267056D02*
X37814600Y-65637455D01*
X89392857Y-36135743D02*
X89392857Y-39250000D01*
X38823152Y-56757667D02*
X38823152Y-58801848D01*
X38750000Y-56684515D02*
X38750000Y-32990546D01*
%TO.N,/P29*%
X65185942Y-24014058D02*
X65185942Y-59564058D01*
X66350000Y-22850000D02*
X65185942Y-24014058D01*
X65185942Y-59564058D02*
X54000000Y-70750000D01*
%TO.N,/P13*%
X108785714Y-35007114D02*
X108785714Y-39250000D01*
X108750000Y-34971400D02*
X108785714Y-35007114D01*
X75000000Y-24750000D02*
X75000000Y-34721400D01*
X75000000Y-34721400D02*
X75250000Y-34971400D01*
%TO.N,/P04*%
X66325000Y-24075000D02*
X65717971Y-24682029D01*
X65717971Y-61782029D02*
X56750000Y-70750000D01*
X65717971Y-24682029D02*
X65717971Y-61782029D01*
%TO.N,/P19*%
X82250000Y-18500000D02*
X81500000Y-19250000D01*
X82250000Y-13000000D02*
X82250000Y-18500000D01*
X95857143Y-13313257D02*
X95857143Y-39250000D01*
X96000000Y-13170400D02*
X95857143Y-13313257D01*
X81500000Y-19250000D02*
X75000000Y-19250000D01*
%TO.N,/P12*%
X70000000Y-26750000D02*
X70000000Y-35250000D01*
X115500000Y-35500000D02*
X118750000Y-32250000D01*
X36750000Y-59920484D02*
X36750000Y-68250000D01*
X38297431Y-56702569D02*
X38297431Y-32614874D01*
X118750000Y-32250000D02*
X118750000Y-22750000D01*
X37250000Y-58278600D02*
X37250000Y-59420484D01*
X70000000Y-35250000D02*
X70250000Y-35500000D01*
X37250000Y-57750000D02*
X38297431Y-56702569D01*
X37250000Y-58278600D02*
X37250000Y-57750000D01*
X82928571Y-35571429D02*
X82928571Y-39250000D01*
X83000000Y-35500000D02*
X82928571Y-35571429D01*
X38297431Y-32614874D02*
X38746915Y-32165390D01*
X37250000Y-59420484D02*
X36750000Y-59920484D01*
%TO.N,/P00*%
X53750000Y-21750000D02*
X53250000Y-22250000D01*
X53250000Y-22250000D02*
X53250000Y-41000000D01*
%TO.N,/P28*%
X66250000Y-21750000D02*
X64500000Y-23500000D01*
X64500000Y-57250000D02*
X51000000Y-70750000D01*
X64500000Y-23500000D02*
X64500000Y-57250000D01*
%TO.N,/P05*%
X66250000Y-25487146D02*
X66250000Y-63750000D01*
X66493879Y-25243267D02*
X66250000Y-25487146D01*
X59500000Y-70500000D02*
X59500000Y-70750000D01*
X66250000Y-63750000D02*
X59500000Y-70500000D01*
%TO.N,/P10*%
X56250000Y-26750000D02*
X56000000Y-27000000D01*
X56000000Y-27000000D02*
X56000000Y-43570290D01*
X56000000Y-43570290D02*
X55910145Y-43660145D01*
%TO.N,/P18*%
X114970400Y-34400544D02*
X114970400Y-38970400D01*
X74470400Y-34369944D02*
X74471400Y-34370944D01*
X74470400Y-24029600D02*
X74470400Y-34369944D01*
X74500000Y-24000000D02*
X74470400Y-24029600D01*
X115000000Y-34370944D02*
X114970400Y-34400544D01*
%TO.N,/P03*%
X55250000Y-24500000D02*
X54846087Y-24903913D01*
X54846087Y-24903913D02*
X54846087Y-42596087D01*
%TO.N,/P02*%
X54750000Y-23750000D02*
X54314058Y-24185942D01*
X54314058Y-24185942D02*
X54314058Y-42064058D01*
%TD*%
%TA.AperFunction,Conductor*%
%TO.N,GND*%
G36*
X50493153Y-11999007D02*
G01*
X50560188Y-12018706D01*
X50605931Y-12071520D01*
X50615859Y-12140681D01*
X50607687Y-12170456D01*
X50604225Y-12178815D01*
X50598536Y-12192549D01*
X50598535Y-12192555D01*
X50574500Y-12313389D01*
X50574500Y-12436610D01*
X50598535Y-12557444D01*
X50598538Y-12557454D01*
X50645687Y-12671283D01*
X50645692Y-12671292D01*
X50714141Y-12773732D01*
X50714144Y-12773736D01*
X50801263Y-12860855D01*
X50801267Y-12860858D01*
X50903707Y-12929307D01*
X50903713Y-12929310D01*
X50903714Y-12929311D01*
X51017548Y-12976463D01*
X51138389Y-13000499D01*
X51138393Y-13000500D01*
X51138394Y-13000500D01*
X51261607Y-13000500D01*
X51261608Y-13000499D01*
X51382452Y-12976463D01*
X51496286Y-12929311D01*
X51598733Y-12860858D01*
X51685858Y-12773733D01*
X51754311Y-12671286D01*
X51801463Y-12557452D01*
X51825500Y-12436606D01*
X51825500Y-12313394D01*
X51801463Y-12192548D01*
X51792443Y-12170771D01*
X51784974Y-12101302D01*
X51816249Y-12038823D01*
X51876338Y-12003171D01*
X51907027Y-11999319D01*
X56625529Y-12000361D01*
X56692562Y-12020060D01*
X56738306Y-12072874D01*
X56749500Y-12124361D01*
X56749500Y-17815891D01*
X56783608Y-17943187D01*
X56816554Y-18000250D01*
X56849500Y-18057314D01*
X56942686Y-18150500D01*
X57056814Y-18216392D01*
X57184108Y-18250500D01*
X57184110Y-18250500D01*
X74723940Y-18250500D01*
X74790979Y-18270185D01*
X74836734Y-18322989D01*
X74846678Y-18392147D01*
X74817653Y-18455703D01*
X74771393Y-18489061D01*
X74769421Y-18489877D01*
X74769420Y-18489878D01*
X74754433Y-18496086D01*
X74625560Y-18549466D01*
X74625551Y-18549471D01*
X74496086Y-18635977D01*
X74496082Y-18635980D01*
X74385980Y-18746082D01*
X74385977Y-18746086D01*
X74299471Y-18875551D01*
X74299466Y-18875560D01*
X74239878Y-19019419D01*
X74239876Y-19019427D01*
X74209500Y-19172138D01*
X74209500Y-19327861D01*
X74239876Y-19480572D01*
X74239878Y-19480580D01*
X74299466Y-19624439D01*
X74299471Y-19624448D01*
X74385977Y-19753913D01*
X74385980Y-19753917D01*
X74496082Y-19864019D01*
X74496086Y-19864022D01*
X74625551Y-19950528D01*
X74625557Y-19950531D01*
X74625558Y-19950532D01*
X74769420Y-20010122D01*
X74922138Y-20040499D01*
X74922142Y-20040500D01*
X74922143Y-20040500D01*
X75077858Y-20040500D01*
X75077859Y-20040499D01*
X75230580Y-20010122D01*
X75374442Y-19950532D01*
X75503914Y-19864022D01*
X75503917Y-19864019D01*
X75504918Y-19863019D01*
X75505571Y-19862662D01*
X75508624Y-19860157D01*
X75509099Y-19860735D01*
X75566241Y-19829534D01*
X75592599Y-19826700D01*
X81575922Y-19826700D01*
X81575924Y-19826700D01*
X81722598Y-19787399D01*
X81854102Y-19711475D01*
X82514510Y-19051065D01*
X82575833Y-19017581D01*
X82645524Y-19022565D01*
X82701458Y-19064436D01*
X82702509Y-19065862D01*
X82719890Y-19089786D01*
X82870213Y-19240109D01*
X83042182Y-19365050D01*
X83050946Y-19369516D01*
X83101742Y-19417491D01*
X83118536Y-19485312D01*
X83095998Y-19551447D01*
X83050946Y-19590484D01*
X83042182Y-19594949D01*
X82870213Y-19719890D01*
X82719890Y-19870213D01*
X82594951Y-20042179D01*
X82498444Y-20231585D01*
X82432753Y-20433760D01*
X82399500Y-20643713D01*
X82399500Y-20856286D01*
X82430097Y-21049471D01*
X82432754Y-21066243D01*
X82455412Y-21135978D01*
X82498444Y-21268414D01*
X82594951Y-21457820D01*
X82719890Y-21629786D01*
X82870213Y-21780109D01*
X83042182Y-21905050D01*
X83050946Y-21909516D01*
X83101742Y-21957491D01*
X83118536Y-22025312D01*
X83095998Y-22091447D01*
X83050946Y-22130484D01*
X83042182Y-22134949D01*
X82870213Y-22259890D01*
X82719890Y-22410213D01*
X82594951Y-22582179D01*
X82498444Y-22771585D01*
X82432753Y-22973760D01*
X82399500Y-23183713D01*
X82399500Y-23396286D01*
X82430592Y-23592598D01*
X82432754Y-23606243D01*
X82495538Y-23799472D01*
X82498444Y-23808414D01*
X82594951Y-23997820D01*
X82719890Y-24169786D01*
X82870213Y-24320109D01*
X83042179Y-24445048D01*
X83042181Y-24445049D01*
X83042184Y-24445051D01*
X83051493Y-24449794D01*
X83102290Y-24497766D01*
X83119087Y-24565587D01*
X83096552Y-24631722D01*
X83051505Y-24670760D01*
X83042446Y-24675376D01*
X83042440Y-24675380D01*
X82988282Y-24714727D01*
X82988282Y-24714728D01*
X83620591Y-25347037D01*
X83557007Y-25364075D01*
X83442993Y-25429901D01*
X83349901Y-25522993D01*
X83284075Y-25637007D01*
X83267037Y-25700591D01*
X82634728Y-25068282D01*
X82634727Y-25068282D01*
X82595380Y-25122439D01*
X82498904Y-25311782D01*
X82433242Y-25513869D01*
X82433242Y-25513872D01*
X82400000Y-25723753D01*
X82400000Y-25936247D01*
X82400382Y-25941098D01*
X82398392Y-25941254D01*
X82390487Y-26002210D01*
X82345468Y-26055642D01*
X82278707Y-26076252D01*
X82211401Y-26057497D01*
X82208100Y-26055366D01*
X82124448Y-25999471D01*
X82124439Y-25999466D01*
X81980580Y-25939878D01*
X81980572Y-25939876D01*
X81827861Y-25909500D01*
X81827857Y-25909500D01*
X81672143Y-25909500D01*
X81672138Y-25909500D01*
X81519427Y-25939876D01*
X81519419Y-25939878D01*
X81375560Y-25999466D01*
X81375551Y-25999471D01*
X81246086Y-26085977D01*
X81246082Y-26085980D01*
X81135980Y-26196082D01*
X81135977Y-26196086D01*
X81049471Y-26325551D01*
X81049466Y-26325560D01*
X80989878Y-26469419D01*
X80989876Y-26469427D01*
X80959500Y-26622138D01*
X80959500Y-26777861D01*
X80989876Y-26930572D01*
X80989878Y-26930580D01*
X81049466Y-27074439D01*
X81049471Y-27074448D01*
X81135977Y-27203913D01*
X81135980Y-27203917D01*
X81246082Y-27314019D01*
X81246086Y-27314022D01*
X81375551Y-27400528D01*
X81375557Y-27400531D01*
X81375558Y-27400532D01*
X81519420Y-27460122D01*
X81672138Y-27490499D01*
X81672142Y-27490500D01*
X81672143Y-27490500D01*
X81827858Y-27490500D01*
X81827859Y-27490499D01*
X81980580Y-27460122D01*
X82124442Y-27400532D01*
X82253914Y-27314022D01*
X82364022Y-27203914D01*
X82450532Y-27074442D01*
X82510122Y-26930580D01*
X82540500Y-26777857D01*
X82540500Y-26711056D01*
X82541377Y-26703722D01*
X82552341Y-26678118D01*
X82560185Y-26651404D01*
X82565901Y-26646450D01*
X82568881Y-26639493D01*
X82591948Y-26623881D01*
X82612989Y-26605649D01*
X82620970Y-26604238D01*
X82624794Y-26601650D01*
X83267037Y-25959408D01*
X83284075Y-26022993D01*
X83349901Y-26137007D01*
X83442993Y-26230099D01*
X83557007Y-26295925D01*
X83620590Y-26312962D01*
X82988282Y-26945269D01*
X82988282Y-26945270D01*
X83042449Y-26984624D01*
X83231782Y-27081095D01*
X83433870Y-27146757D01*
X83643754Y-27180000D01*
X83856246Y-27180000D01*
X84066127Y-27146757D01*
X84066130Y-27146757D01*
X84268217Y-27081095D01*
X84457554Y-26984622D01*
X84511716Y-26945270D01*
X84511717Y-26945270D01*
X83879408Y-26312962D01*
X83942993Y-26295925D01*
X84057007Y-26230099D01*
X84150099Y-26137007D01*
X84215925Y-26022993D01*
X84232962Y-25959408D01*
X84865270Y-26591717D01*
X84865270Y-26591716D01*
X84904622Y-26537554D01*
X85001095Y-26348217D01*
X85066757Y-26146130D01*
X85066757Y-26146127D01*
X85100000Y-25936246D01*
X85100000Y-25723753D01*
X85066757Y-25513872D01*
X85066757Y-25513869D01*
X85001095Y-25311782D01*
X84904624Y-25122449D01*
X84865270Y-25068282D01*
X84865269Y-25068282D01*
X84232962Y-25700590D01*
X84215925Y-25637007D01*
X84150099Y-25522993D01*
X84057007Y-25429901D01*
X83942993Y-25364075D01*
X83879409Y-25347037D01*
X84511716Y-24714728D01*
X84457547Y-24675373D01*
X84457547Y-24675372D01*
X84448500Y-24670763D01*
X84397706Y-24622788D01*
X84380912Y-24554966D01*
X84403451Y-24488832D01*
X84448508Y-24449793D01*
X84457816Y-24445051D01*
X84537007Y-24387515D01*
X84629786Y-24320109D01*
X84629788Y-24320106D01*
X84629792Y-24320104D01*
X84780104Y-24169792D01*
X84780106Y-24169788D01*
X84780109Y-24169786D01*
X84905048Y-23997820D01*
X84905047Y-23997820D01*
X84905051Y-23997816D01*
X85001557Y-23808412D01*
X85067246Y-23606243D01*
X85100500Y-23396287D01*
X85100500Y-23183713D01*
X85067246Y-22973757D01*
X85001557Y-22771588D01*
X84905051Y-22582184D01*
X84905049Y-22582181D01*
X84905048Y-22582179D01*
X84780109Y-22410213D01*
X84629786Y-22259890D01*
X84457820Y-22134951D01*
X84457115Y-22134591D01*
X84449054Y-22130485D01*
X84398259Y-22082512D01*
X84381463Y-22014692D01*
X84403999Y-21948556D01*
X84449054Y-21909515D01*
X84457816Y-21905051D01*
X84564064Y-21827858D01*
X84629786Y-21780109D01*
X84629788Y-21780106D01*
X84629792Y-21780104D01*
X84780104Y-21629792D01*
X84780106Y-21629788D01*
X84780109Y-21629786D01*
X84905048Y-21457820D01*
X84905047Y-21457820D01*
X84905051Y-21457816D01*
X85001557Y-21268412D01*
X85067246Y-21066243D01*
X85100500Y-20856287D01*
X85100500Y-20643713D01*
X85067246Y-20433757D01*
X85001557Y-20231588D01*
X84905051Y-20042184D01*
X84905049Y-20042181D01*
X84905048Y-20042179D01*
X84780109Y-19870213D01*
X84629786Y-19719890D01*
X84457820Y-19594951D01*
X84457115Y-19594591D01*
X84449054Y-19590485D01*
X84398259Y-19542512D01*
X84381463Y-19474692D01*
X84403999Y-19408556D01*
X84449054Y-19369515D01*
X84457816Y-19365051D01*
X84594616Y-19265661D01*
X84629786Y-19240109D01*
X84629788Y-19240106D01*
X84629792Y-19240104D01*
X84780104Y-19089792D01*
X84780106Y-19089788D01*
X84780109Y-19089786D01*
X84905048Y-18917820D01*
X84905047Y-18917820D01*
X84905051Y-18917816D01*
X85001557Y-18728412D01*
X85067246Y-18526243D01*
X85100500Y-18316287D01*
X85100500Y-18103713D01*
X85067246Y-17893757D01*
X85001557Y-17691588D01*
X84905051Y-17502184D01*
X84905049Y-17502181D01*
X84905048Y-17502179D01*
X84780109Y-17330213D01*
X84666569Y-17216673D01*
X84633084Y-17155350D01*
X84638068Y-17085658D01*
X84679940Y-17029725D01*
X84710915Y-17012810D01*
X84842331Y-16963796D01*
X84957546Y-16877546D01*
X85043796Y-16762331D01*
X85094091Y-16627483D01*
X85100500Y-16567873D01*
X85100499Y-14772128D01*
X85094091Y-14712517D01*
X85043796Y-14577669D01*
X85043795Y-14577668D01*
X85043793Y-14577664D01*
X84957547Y-14462455D01*
X84957544Y-14462452D01*
X84842335Y-14376206D01*
X84842328Y-14376202D01*
X84707482Y-14325908D01*
X84707483Y-14325908D01*
X84647883Y-14319501D01*
X84647881Y-14319500D01*
X84647873Y-14319500D01*
X84647865Y-14319500D01*
X82950700Y-14319500D01*
X82883661Y-14299815D01*
X82837906Y-14247011D01*
X82826700Y-14195500D01*
X82826700Y-13592598D01*
X82846385Y-13525559D01*
X82863027Y-13504909D01*
X82864022Y-13503914D01*
X82950532Y-13374442D01*
X83010122Y-13230580D01*
X83040500Y-13077857D01*
X83040500Y-12922143D01*
X83028310Y-12860858D01*
X83010124Y-12769426D01*
X83010122Y-12769422D01*
X83010122Y-12769420D01*
X82950532Y-12625558D01*
X82950531Y-12625557D01*
X82950528Y-12625551D01*
X82864022Y-12496086D01*
X82864019Y-12496082D01*
X82753917Y-12385980D01*
X82753913Y-12385977D01*
X82624448Y-12299471D01*
X82624439Y-12299466D01*
X82514685Y-12254005D01*
X82480580Y-12239878D01*
X82480578Y-12239877D01*
X82478607Y-12239061D01*
X82424204Y-12195220D01*
X82402139Y-12128926D01*
X82419418Y-12061227D01*
X82470555Y-12013616D01*
X82526060Y-12000500D01*
X100745788Y-12000500D01*
X100812827Y-12020185D01*
X100858582Y-12072989D01*
X100868526Y-12142147D01*
X100848891Y-12193390D01*
X100799470Y-12267353D01*
X100799466Y-12267360D01*
X100739878Y-12411219D01*
X100739876Y-12411227D01*
X100709500Y-12563938D01*
X100709500Y-12719661D01*
X100739876Y-12872372D01*
X100739878Y-12872380D01*
X100799466Y-13016239D01*
X100799470Y-13016246D01*
X100856441Y-13101510D01*
X100877318Y-13168188D01*
X100858833Y-13235568D01*
X100856441Y-13239290D01*
X100799470Y-13324553D01*
X100799466Y-13324560D01*
X100739878Y-13468419D01*
X100739876Y-13468427D01*
X100709500Y-13621138D01*
X100709500Y-13776861D01*
X100739876Y-13929572D01*
X100739878Y-13929580D01*
X100799466Y-14073439D01*
X100799471Y-14073448D01*
X100885977Y-14202913D01*
X100885980Y-14202917D01*
X100996082Y-14313019D01*
X100996086Y-14313022D01*
X101125551Y-14399528D01*
X101125557Y-14399531D01*
X101125558Y-14399532D01*
X101269420Y-14459122D01*
X101422138Y-14489499D01*
X101422142Y-14489500D01*
X101422143Y-14489500D01*
X101577858Y-14489500D01*
X101577859Y-14489499D01*
X101730580Y-14459122D01*
X101874442Y-14399532D01*
X102003914Y-14313022D01*
X102114022Y-14202914D01*
X102200532Y-14073442D01*
X102260122Y-13929580D01*
X102290500Y-13776857D01*
X102290500Y-13621143D01*
X102260122Y-13468420D01*
X102200532Y-13324558D01*
X102200529Y-13324553D01*
X102200528Y-13324551D01*
X102143559Y-13239291D01*
X102122681Y-13172613D01*
X102141166Y-13105233D01*
X102143559Y-13101509D01*
X102200528Y-13016248D01*
X102200529Y-13016246D01*
X102200532Y-13016242D01*
X102260122Y-12872380D01*
X102290500Y-12719657D01*
X102290500Y-12563943D01*
X102260122Y-12411220D01*
X102200532Y-12267358D01*
X102161873Y-12209500D01*
X102151109Y-12193390D01*
X102130232Y-12126713D01*
X102148717Y-12059333D01*
X102200696Y-12012643D01*
X102254212Y-12000500D01*
X131375500Y-12000500D01*
X131442539Y-12020185D01*
X131488294Y-12072989D01*
X131499500Y-12124500D01*
X131499500Y-41375500D01*
X131479815Y-41442539D01*
X131427011Y-41488294D01*
X131375500Y-41499500D01*
X69001109Y-41499500D01*
X68934423Y-41499458D01*
X68934266Y-41499500D01*
X68929813Y-41499500D01*
X68922184Y-41500000D01*
X68000000Y-41500000D01*
X68000000Y-81050500D01*
X67980315Y-81117539D01*
X67927511Y-81163294D01*
X67876000Y-81174500D01*
X12674500Y-81174500D01*
X12607461Y-81154815D01*
X12561706Y-81102011D01*
X12550500Y-81050500D01*
X12550500Y-76795186D01*
X14529500Y-76795186D01*
X14529500Y-77064813D01*
X14559686Y-77332719D01*
X14559688Y-77332731D01*
X14619684Y-77595594D01*
X14619687Y-77595602D01*
X14708734Y-77850082D01*
X14825714Y-78092994D01*
X14825716Y-78092997D01*
X14969162Y-78321289D01*
X15137266Y-78532085D01*
X15327915Y-78722734D01*
X15538711Y-78890838D01*
X15767003Y-79034284D01*
X16009921Y-79151267D01*
X16201049Y-79218145D01*
X16264397Y-79240312D01*
X16264405Y-79240315D01*
X16264408Y-79240315D01*
X16264409Y-79240316D01*
X16527268Y-79300312D01*
X16795187Y-79330499D01*
X16795188Y-79330500D01*
X16795191Y-79330500D01*
X17064812Y-79330500D01*
X17064812Y-79330499D01*
X17332732Y-79300312D01*
X17595591Y-79240316D01*
X17850079Y-79151267D01*
X17850087Y-79151263D01*
X17850090Y-79151262D01*
X17879874Y-79136919D01*
X17879876Y-79136918D01*
X17988389Y-79084660D01*
X18092997Y-79034284D01*
X18321289Y-78890838D01*
X18532085Y-78722734D01*
X18608240Y-78646579D01*
X43130000Y-78646579D01*
X43130000Y-78800000D01*
X43880000Y-78800000D01*
X43880000Y-79300000D01*
X43130000Y-79300000D01*
X43130000Y-79453420D01*
X43170348Y-79656266D01*
X43170350Y-79656274D01*
X43249500Y-79847358D01*
X43249505Y-79847368D01*
X43364410Y-80019335D01*
X43364413Y-80019339D01*
X43510660Y-80165586D01*
X43510664Y-80165589D01*
X43682631Y-80280494D01*
X43682641Y-80280499D01*
X43873723Y-80359648D01*
X43873725Y-80359649D01*
X43930000Y-80370842D01*
X43930000Y-79516988D01*
X43939940Y-79534205D01*
X43995795Y-79590060D01*
X44064204Y-79629556D01*
X44140504Y-79650000D01*
X44219496Y-79650000D01*
X44295796Y-79629556D01*
X44364205Y-79590060D01*
X44420060Y-79534205D01*
X44430000Y-79516988D01*
X44430000Y-80370842D01*
X44486274Y-80359649D01*
X44486276Y-80359648D01*
X44677358Y-80280499D01*
X44677368Y-80280494D01*
X44849335Y-80165589D01*
X44849339Y-80165586D01*
X44995586Y-80019339D01*
X44995589Y-80019335D01*
X45110494Y-79847368D01*
X45110499Y-79847358D01*
X45189649Y-79656274D01*
X45189651Y-79656266D01*
X45229999Y-79453420D01*
X45230000Y-79453417D01*
X45230000Y-79300000D01*
X44480000Y-79300000D01*
X44480000Y-78800000D01*
X45230000Y-78800000D01*
X45230000Y-78646583D01*
X45229999Y-78646579D01*
X51770000Y-78646579D01*
X51770000Y-78800000D01*
X52520000Y-78800000D01*
X52520000Y-79300000D01*
X51770000Y-79300000D01*
X51770000Y-79453420D01*
X51810348Y-79656266D01*
X51810350Y-79656274D01*
X51889500Y-79847358D01*
X51889505Y-79847368D01*
X52004410Y-80019335D01*
X52004413Y-80019339D01*
X52150660Y-80165586D01*
X52150664Y-80165589D01*
X52322631Y-80280494D01*
X52322641Y-80280499D01*
X52513723Y-80359648D01*
X52513725Y-80359649D01*
X52570000Y-80370842D01*
X52570000Y-79516988D01*
X52579940Y-79534205D01*
X52635795Y-79590060D01*
X52704204Y-79629556D01*
X52780504Y-79650000D01*
X52859496Y-79650000D01*
X52935796Y-79629556D01*
X53004205Y-79590060D01*
X53060060Y-79534205D01*
X53070000Y-79516988D01*
X53070000Y-80370842D01*
X53126274Y-80359649D01*
X53126276Y-80359648D01*
X53317358Y-80280499D01*
X53317368Y-80280494D01*
X53489335Y-80165589D01*
X53489339Y-80165586D01*
X53635586Y-80019339D01*
X53635589Y-80019335D01*
X53750494Y-79847368D01*
X53750499Y-79847358D01*
X53829649Y-79656274D01*
X53829651Y-79656266D01*
X53869999Y-79453420D01*
X53870000Y-79453417D01*
X53870000Y-79300000D01*
X53120000Y-79300000D01*
X53120000Y-78800000D01*
X53870000Y-78800000D01*
X53870000Y-78646583D01*
X53869999Y-78646579D01*
X53829651Y-78443733D01*
X53829649Y-78443725D01*
X53750499Y-78252641D01*
X53750494Y-78252631D01*
X53635589Y-78080664D01*
X53635586Y-78080660D01*
X53489339Y-77934413D01*
X53489335Y-77934410D01*
X53317368Y-77819505D01*
X53317358Y-77819500D01*
X53126272Y-77740349D01*
X53126267Y-77740347D01*
X53070000Y-77729155D01*
X53070000Y-78583011D01*
X53060060Y-78565795D01*
X53004205Y-78509940D01*
X52935796Y-78470444D01*
X52859496Y-78450000D01*
X52780504Y-78450000D01*
X52704204Y-78470444D01*
X52635795Y-78509940D01*
X52579940Y-78565795D01*
X52570000Y-78583011D01*
X52570000Y-77729156D01*
X52569999Y-77729155D01*
X52513732Y-77740347D01*
X52513727Y-77740349D01*
X52322641Y-77819500D01*
X52322631Y-77819505D01*
X52150664Y-77934410D01*
X52150660Y-77934413D01*
X52004413Y-78080660D01*
X52004410Y-78080664D01*
X51889505Y-78252631D01*
X51889500Y-78252641D01*
X51810350Y-78443725D01*
X51810348Y-78443733D01*
X51770000Y-78646579D01*
X45229999Y-78646579D01*
X45189651Y-78443733D01*
X45189649Y-78443725D01*
X45110499Y-78252641D01*
X45110494Y-78252631D01*
X44995589Y-78080664D01*
X44995586Y-78080660D01*
X44849339Y-77934413D01*
X44849335Y-77934410D01*
X44677368Y-77819505D01*
X44677358Y-77819500D01*
X44486272Y-77740349D01*
X44486267Y-77740347D01*
X44430000Y-77729155D01*
X44430000Y-78583011D01*
X44420060Y-78565795D01*
X44364205Y-78509940D01*
X44295796Y-78470444D01*
X44219496Y-78450000D01*
X44140504Y-78450000D01*
X44064204Y-78470444D01*
X43995795Y-78509940D01*
X43939940Y-78565795D01*
X43930000Y-78583011D01*
X43930000Y-77729156D01*
X43929999Y-77729155D01*
X43873732Y-77740347D01*
X43873727Y-77740349D01*
X43682641Y-77819500D01*
X43682631Y-77819505D01*
X43510664Y-77934410D01*
X43510660Y-77934413D01*
X43364413Y-78080660D01*
X43364410Y-78080664D01*
X43249505Y-78252631D01*
X43249500Y-78252641D01*
X43170350Y-78443725D01*
X43170348Y-78443733D01*
X43130000Y-78646579D01*
X18608240Y-78646579D01*
X18722734Y-78532085D01*
X18890838Y-78321289D01*
X19034284Y-78092997D01*
X19151267Y-77850079D01*
X19240316Y-77595591D01*
X19300312Y-77332732D01*
X19330500Y-77064809D01*
X19330500Y-76865186D01*
X61849500Y-76865186D01*
X61849500Y-77134813D01*
X61879686Y-77402719D01*
X61879688Y-77402731D01*
X61939684Y-77665594D01*
X61939687Y-77665602D01*
X62028734Y-77920082D01*
X62145714Y-78162994D01*
X62145716Y-78162997D01*
X62289162Y-78391289D01*
X62457266Y-78602085D01*
X62647915Y-78792734D01*
X62858711Y-78960838D01*
X63087003Y-79104284D01*
X63329921Y-79221267D01*
X63521049Y-79288145D01*
X63584397Y-79310312D01*
X63584405Y-79310315D01*
X63584408Y-79310315D01*
X63584409Y-79310316D01*
X63847268Y-79370312D01*
X64115187Y-79400499D01*
X64115188Y-79400500D01*
X64115191Y-79400500D01*
X64384812Y-79400500D01*
X64384812Y-79400499D01*
X64652732Y-79370312D01*
X64915591Y-79310316D01*
X65170079Y-79221267D01*
X65412997Y-79104284D01*
X65641289Y-78960838D01*
X65852085Y-78792734D01*
X66042734Y-78602085D01*
X66210838Y-78391289D01*
X66354284Y-78162997D01*
X66471267Y-77920079D01*
X66560316Y-77665591D01*
X66620312Y-77402732D01*
X66650500Y-77134809D01*
X66650500Y-76865191D01*
X66620312Y-76597268D01*
X66560316Y-76334409D01*
X66471267Y-76079921D01*
X66354284Y-75837003D01*
X66210838Y-75608711D01*
X66042734Y-75397915D01*
X65852085Y-75207266D01*
X65641289Y-75039162D01*
X65412997Y-74895716D01*
X65412994Y-74895714D01*
X65170082Y-74778734D01*
X64915602Y-74689687D01*
X64915594Y-74689684D01*
X64714232Y-74643725D01*
X64652732Y-74629688D01*
X64652728Y-74629687D01*
X64652719Y-74629686D01*
X64384813Y-74599500D01*
X64384809Y-74599500D01*
X64115191Y-74599500D01*
X64115186Y-74599500D01*
X63847280Y-74629686D01*
X63847268Y-74629688D01*
X63584405Y-74689684D01*
X63584397Y-74689687D01*
X63329917Y-74778734D01*
X63087005Y-74895714D01*
X62858712Y-75039161D01*
X62647915Y-75207265D01*
X62457265Y-75397915D01*
X62289161Y-75608712D01*
X62145714Y-75837005D01*
X62028734Y-76079917D01*
X61939687Y-76334397D01*
X61939684Y-76334405D01*
X61879688Y-76597268D01*
X61879686Y-76597280D01*
X61849500Y-76865186D01*
X19330500Y-76865186D01*
X19330500Y-76795191D01*
X19300312Y-76527268D01*
X19240316Y-76264409D01*
X19151267Y-76009921D01*
X19034284Y-75767003D01*
X18890838Y-75538711D01*
X18797874Y-75422138D01*
X25709500Y-75422138D01*
X25709500Y-75577861D01*
X25739876Y-75730572D01*
X25739878Y-75730580D01*
X25799466Y-75874439D01*
X25799471Y-75874448D01*
X25885977Y-76003913D01*
X25885980Y-76003917D01*
X25996082Y-76114019D01*
X25996086Y-76114022D01*
X26125551Y-76200528D01*
X26125557Y-76200531D01*
X26125558Y-76200532D01*
X26269420Y-76260122D01*
X26422138Y-76290499D01*
X26422142Y-76290500D01*
X26422143Y-76290500D01*
X26577858Y-76290500D01*
X26577859Y-76290499D01*
X26730580Y-76260122D01*
X26874442Y-76200532D01*
X27003914Y-76114022D01*
X27114022Y-76003914D01*
X27200532Y-75874442D01*
X27260122Y-75730580D01*
X27290500Y-75577857D01*
X27290500Y-75422143D01*
X27260122Y-75269420D01*
X27200532Y-75125558D01*
X27200531Y-75125557D01*
X27200528Y-75125551D01*
X27114022Y-74996086D01*
X27114019Y-74996082D01*
X27003917Y-74885980D01*
X27003913Y-74885977D01*
X26874448Y-74799471D01*
X26874439Y-74799466D01*
X26730580Y-74739878D01*
X26730572Y-74739876D01*
X26577861Y-74709500D01*
X26577857Y-74709500D01*
X26422143Y-74709500D01*
X26422138Y-74709500D01*
X26269427Y-74739876D01*
X26269419Y-74739878D01*
X26125560Y-74799466D01*
X26125551Y-74799471D01*
X25996086Y-74885977D01*
X25996082Y-74885980D01*
X25885980Y-74996082D01*
X25885977Y-74996086D01*
X25799471Y-75125551D01*
X25799466Y-75125560D01*
X25739878Y-75269419D01*
X25739876Y-75269427D01*
X25709500Y-75422138D01*
X18797874Y-75422138D01*
X18722734Y-75327915D01*
X18532085Y-75137266D01*
X18321289Y-74969162D01*
X18163613Y-74870087D01*
X18092994Y-74825714D01*
X17850082Y-74708734D01*
X17595602Y-74619687D01*
X17595594Y-74619684D01*
X17398446Y-74574687D01*
X17332732Y-74559688D01*
X17332728Y-74559687D01*
X17332719Y-74559686D01*
X17064813Y-74529500D01*
X17064809Y-74529500D01*
X16795191Y-74529500D01*
X16795186Y-74529500D01*
X16527280Y-74559686D01*
X16527268Y-74559688D01*
X16264405Y-74619684D01*
X16264397Y-74619687D01*
X16009917Y-74708734D01*
X15767005Y-74825714D01*
X15538712Y-74969161D01*
X15327915Y-75137265D01*
X15137265Y-75327915D01*
X14969161Y-75538712D01*
X14825714Y-75767005D01*
X14708734Y-76009917D01*
X14619687Y-76264397D01*
X14619684Y-76264405D01*
X14559688Y-76527268D01*
X14559686Y-76527280D01*
X14529500Y-76795186D01*
X12550500Y-76795186D01*
X12550500Y-69022138D01*
X32597000Y-69022138D01*
X32597000Y-69177861D01*
X32627376Y-69330572D01*
X32627378Y-69330580D01*
X32686966Y-69474439D01*
X32686971Y-69474448D01*
X32773477Y-69603913D01*
X32773480Y-69603917D01*
X32883582Y-69714019D01*
X32883586Y-69714022D01*
X33013051Y-69800528D01*
X33013057Y-69800531D01*
X33013058Y-69800532D01*
X33156920Y-69860122D01*
X33309638Y-69890499D01*
X33309642Y-69890500D01*
X33309643Y-69890500D01*
X33465358Y-69890500D01*
X33465359Y-69890499D01*
X33618080Y-69860122D01*
X33761942Y-69800532D01*
X33891414Y-69714022D01*
X34001522Y-69603914D01*
X34088032Y-69474442D01*
X34147622Y-69330580D01*
X34178000Y-69177857D01*
X34178000Y-69022143D01*
X34147622Y-68869420D01*
X34088032Y-68725558D01*
X34088031Y-68725557D01*
X34088028Y-68725551D01*
X34001522Y-68596086D01*
X34001519Y-68596082D01*
X33891417Y-68485980D01*
X33891413Y-68485977D01*
X33761948Y-68399471D01*
X33761939Y-68399466D01*
X33618080Y-68339878D01*
X33618072Y-68339876D01*
X33465361Y-68309500D01*
X33465357Y-68309500D01*
X33309643Y-68309500D01*
X33309638Y-68309500D01*
X33156927Y-68339876D01*
X33156919Y-68339878D01*
X33013060Y-68399466D01*
X33013051Y-68399471D01*
X32883586Y-68485977D01*
X32883582Y-68485980D01*
X32773480Y-68596082D01*
X32773477Y-68596086D01*
X32686971Y-68725551D01*
X32686966Y-68725560D01*
X32627378Y-68869419D01*
X32627376Y-68869427D01*
X32597000Y-69022138D01*
X12550500Y-69022138D01*
X12550500Y-57124744D01*
X12570185Y-57057705D01*
X12622989Y-57011950D01*
X12674546Y-57000744D01*
X18726451Y-57003117D01*
X18793480Y-57022828D01*
X18839215Y-57075650D01*
X18849131Y-57144812D01*
X18820081Y-57208356D01*
X18800712Y-57226383D01*
X18712452Y-57292455D01*
X18626206Y-57407664D01*
X18626202Y-57407671D01*
X18575908Y-57542517D01*
X18573048Y-57569125D01*
X18569501Y-57602123D01*
X18569500Y-57602135D01*
X18569500Y-59397870D01*
X18569501Y-59397876D01*
X18575908Y-59457483D01*
X18626202Y-59592328D01*
X18626206Y-59592335D01*
X18712452Y-59707544D01*
X18712455Y-59707547D01*
X18827664Y-59793793D01*
X18827671Y-59793797D01*
X18962517Y-59844091D01*
X18962516Y-59844091D01*
X18966879Y-59844560D01*
X19022127Y-59850500D01*
X20817872Y-59850499D01*
X20877483Y-59844091D01*
X21012331Y-59793796D01*
X21127546Y-59707546D01*
X21213796Y-59592331D01*
X21264091Y-59457483D01*
X21270500Y-59397873D01*
X21270499Y-59373979D01*
X21273330Y-59360963D01*
X21283940Y-59341525D01*
X21290179Y-59320275D01*
X21306803Y-59299643D01*
X21306808Y-59299636D01*
X21306811Y-59299634D01*
X21306818Y-59299626D01*
X21977037Y-58629408D01*
X21994075Y-58692993D01*
X22059901Y-58807007D01*
X22152993Y-58900099D01*
X22267007Y-58965925D01*
X22330590Y-58982962D01*
X21698282Y-59615269D01*
X21698282Y-59615270D01*
X21752449Y-59654624D01*
X21941782Y-59751095D01*
X22143870Y-59816757D01*
X22353754Y-59850000D01*
X22566246Y-59850000D01*
X22776127Y-59816757D01*
X22776130Y-59816757D01*
X22978217Y-59751095D01*
X23167554Y-59654622D01*
X23221716Y-59615270D01*
X23221717Y-59615270D01*
X22589408Y-58982962D01*
X22652993Y-58965925D01*
X22767007Y-58900099D01*
X22860099Y-58807007D01*
X22925925Y-58692993D01*
X22942962Y-58629409D01*
X23575270Y-59261717D01*
X23575270Y-59261716D01*
X23614622Y-59207555D01*
X23619232Y-59198507D01*
X23667205Y-59147709D01*
X23735025Y-59130912D01*
X23801161Y-59153447D01*
X23840204Y-59198504D01*
X23844949Y-59207817D01*
X23969890Y-59379786D01*
X24120213Y-59530109D01*
X24292179Y-59655048D01*
X24292181Y-59655049D01*
X24292184Y-59655051D01*
X24481588Y-59751557D01*
X24683757Y-59817246D01*
X24893713Y-59850500D01*
X24893714Y-59850500D01*
X25106286Y-59850500D01*
X25106287Y-59850500D01*
X25316243Y-59817246D01*
X25518412Y-59751557D01*
X25707816Y-59655051D01*
X25794138Y-59592335D01*
X25879786Y-59530109D01*
X25879788Y-59530106D01*
X25879792Y-59530104D01*
X26030104Y-59379792D01*
X26030106Y-59379788D01*
X26030109Y-59379786D01*
X26155048Y-59207820D01*
X26155050Y-59207817D01*
X26155051Y-59207816D01*
X26159514Y-59199054D01*
X26207488Y-59148259D01*
X26275308Y-59131463D01*
X26341444Y-59153999D01*
X26380486Y-59199056D01*
X26384951Y-59207820D01*
X26509890Y-59379786D01*
X26660213Y-59530109D01*
X26832179Y-59655048D01*
X26832181Y-59655049D01*
X26832184Y-59655051D01*
X27021588Y-59751557D01*
X27223757Y-59817246D01*
X27433713Y-59850500D01*
X27433714Y-59850500D01*
X27646286Y-59850500D01*
X27646287Y-59850500D01*
X27856243Y-59817246D01*
X28058412Y-59751557D01*
X28247816Y-59655051D01*
X28334138Y-59592335D01*
X28419786Y-59530109D01*
X28419788Y-59530106D01*
X28419792Y-59530104D01*
X28570104Y-59379792D01*
X28570106Y-59379788D01*
X28570109Y-59379786D01*
X28695048Y-59207820D01*
X28695050Y-59207817D01*
X28695051Y-59207816D01*
X28699514Y-59199054D01*
X28747488Y-59148259D01*
X28815308Y-59131463D01*
X28881444Y-59153999D01*
X28920486Y-59199056D01*
X28924951Y-59207820D01*
X29049890Y-59379786D01*
X29200213Y-59530109D01*
X29372179Y-59655048D01*
X29372181Y-59655049D01*
X29372184Y-59655051D01*
X29561588Y-59751557D01*
X29763757Y-59817246D01*
X29973713Y-59850500D01*
X29973714Y-59850500D01*
X30186286Y-59850500D01*
X30186287Y-59850500D01*
X30396243Y-59817246D01*
X30598412Y-59751557D01*
X30787816Y-59655051D01*
X30874138Y-59592335D01*
X30959786Y-59530109D01*
X30959788Y-59530106D01*
X30959792Y-59530104D01*
X31110104Y-59379792D01*
X31110106Y-59379788D01*
X31110109Y-59379786D01*
X31235048Y-59207820D01*
X31235050Y-59207817D01*
X31235051Y-59207816D01*
X31331557Y-59018412D01*
X31397246Y-58816243D01*
X31430500Y-58606287D01*
X31430500Y-58393713D01*
X31397246Y-58183757D01*
X31331557Y-57981588D01*
X31235051Y-57792184D01*
X31235049Y-57792181D01*
X31235048Y-57792179D01*
X31110109Y-57620213D01*
X30959786Y-57469890D01*
X30787820Y-57344951D01*
X30598410Y-57248441D01*
X30593919Y-57246582D01*
X30594753Y-57244566D01*
X30544577Y-57210170D01*
X30517454Y-57145780D01*
X30529449Y-57076948D01*
X30576753Y-57025527D01*
X30640707Y-57007789D01*
X36874877Y-57010234D01*
X36896095Y-57016474D01*
X36918159Y-57018052D01*
X36928961Y-57026138D01*
X36941906Y-57029945D01*
X36956383Y-57046666D01*
X36974093Y-57059923D01*
X36978808Y-57072565D01*
X36987641Y-57082767D01*
X36990780Y-57104663D01*
X36998510Y-57125387D01*
X36995641Y-57138571D01*
X36997557Y-57151929D01*
X36988360Y-57172044D01*
X36983659Y-57193660D01*
X36970352Y-57211435D01*
X36968507Y-57215473D01*
X36962511Y-57221911D01*
X36895898Y-57288525D01*
X36895897Y-57288525D01*
X36895896Y-57288526D01*
X36788527Y-57395895D01*
X36788522Y-57395901D01*
X36712602Y-57527398D01*
X36712602Y-57527399D01*
X36712601Y-57527401D01*
X36712601Y-57527402D01*
X36682685Y-57639049D01*
X36673300Y-57674076D01*
X36673300Y-57686001D01*
X36653615Y-57753040D01*
X36636981Y-57773682D01*
X36635980Y-57774682D01*
X36635977Y-57774686D01*
X36549471Y-57904151D01*
X36549466Y-57904160D01*
X36489878Y-58048019D01*
X36489876Y-58048027D01*
X36459500Y-58200738D01*
X36459500Y-58356461D01*
X36489876Y-58509172D01*
X36489878Y-58509180D01*
X36549466Y-58653039D01*
X36549471Y-58653048D01*
X36635977Y-58782513D01*
X36636973Y-58783509D01*
X36637328Y-58784160D01*
X36639843Y-58787224D01*
X36639262Y-58787700D01*
X36670464Y-58844828D01*
X36673300Y-58871198D01*
X36673300Y-59130245D01*
X36653615Y-59197284D01*
X36636981Y-59217926D01*
X36288527Y-59566379D01*
X36288522Y-59566385D01*
X36212602Y-59697882D01*
X36212602Y-59697883D01*
X36212601Y-59697885D01*
X36212601Y-59697886D01*
X36198344Y-59751095D01*
X36173300Y-59844560D01*
X36173300Y-67657401D01*
X36153615Y-67724440D01*
X36136981Y-67745082D01*
X36135980Y-67746082D01*
X36135977Y-67746086D01*
X36049471Y-67875551D01*
X36049466Y-67875560D01*
X35989878Y-68019419D01*
X35989876Y-68019427D01*
X35959500Y-68172138D01*
X35959500Y-68327861D01*
X35989876Y-68480572D01*
X35989878Y-68480580D01*
X36049466Y-68624439D01*
X36049471Y-68624448D01*
X36135977Y-68753913D01*
X36135980Y-68753917D01*
X36246082Y-68864019D01*
X36246086Y-68864022D01*
X36375551Y-68950528D01*
X36375557Y-68950531D01*
X36375558Y-68950532D01*
X36519420Y-69010122D01*
X36672138Y-69040499D01*
X36672142Y-69040500D01*
X36672143Y-69040500D01*
X36827858Y-69040500D01*
X36827859Y-69040499D01*
X36980580Y-69010122D01*
X37066448Y-68974553D01*
X37099076Y-68971045D01*
X37131547Y-68966377D01*
X37133634Y-68967330D01*
X37135916Y-68967085D01*
X37165248Y-68981768D01*
X37195103Y-68995402D01*
X37196344Y-68997333D01*
X37198395Y-68998360D01*
X37215133Y-69026570D01*
X37232877Y-69054180D01*
X37233312Y-69057208D01*
X37234048Y-69058448D01*
X37237900Y-69089115D01*
X37237900Y-69154523D01*
X37218215Y-69221562D01*
X37165411Y-69267317D01*
X37161354Y-69269083D01*
X37117910Y-69287078D01*
X37117895Y-69287086D01*
X36988430Y-69373592D01*
X36988426Y-69373595D01*
X36878324Y-69483697D01*
X36878321Y-69483701D01*
X36791815Y-69613166D01*
X36791810Y-69613175D01*
X36732222Y-69757034D01*
X36732220Y-69757042D01*
X36701844Y-69909753D01*
X36701844Y-70065476D01*
X36732220Y-70218187D01*
X36732222Y-70218195D01*
X36791810Y-70362054D01*
X36791815Y-70362063D01*
X36878321Y-70491528D01*
X36878324Y-70491532D01*
X36988426Y-70601634D01*
X36988430Y-70601637D01*
X37117895Y-70688143D01*
X37117901Y-70688146D01*
X37117902Y-70688147D01*
X37261764Y-70747737D01*
X37399214Y-70775077D01*
X37414482Y-70778114D01*
X37414486Y-70778115D01*
X37414487Y-70778115D01*
X37419700Y-70778115D01*
X37486739Y-70797800D01*
X37532494Y-70850604D01*
X37543700Y-70902115D01*
X37543700Y-71481962D01*
X37524015Y-71549001D01*
X37488591Y-71585064D01*
X37393686Y-71648477D01*
X37393682Y-71648480D01*
X37283580Y-71758582D01*
X37283577Y-71758586D01*
X37197071Y-71888051D01*
X37197066Y-71888060D01*
X37137478Y-72031919D01*
X37137476Y-72031927D01*
X37107100Y-72184638D01*
X37107100Y-72340361D01*
X37137476Y-72493072D01*
X37137478Y-72493080D01*
X37197066Y-72636939D01*
X37197071Y-72636948D01*
X37283577Y-72766413D01*
X37283580Y-72766417D01*
X37393682Y-72876519D01*
X37393686Y-72876522D01*
X37523151Y-72963028D01*
X37523157Y-72963031D01*
X37523158Y-72963032D01*
X37667020Y-73022622D01*
X37749692Y-73039066D01*
X37777821Y-73053780D01*
X37806703Y-73066970D01*
X37808559Y-73069859D01*
X37811601Y-73071450D01*
X37827309Y-73099033D01*
X37844477Y-73125748D01*
X37845137Y-73130341D01*
X37846176Y-73132165D01*
X37849500Y-73160683D01*
X37849500Y-73225500D01*
X37829815Y-73292539D01*
X37777011Y-73338294D01*
X37725500Y-73349500D01*
X31685929Y-73349500D01*
X31560261Y-73374497D01*
X31560255Y-73374499D01*
X31441870Y-73423535D01*
X31335331Y-73494722D01*
X31335324Y-73494728D01*
X30134341Y-74695711D01*
X30073018Y-74729196D01*
X30070852Y-74729647D01*
X30019425Y-74739876D01*
X30019419Y-74739878D01*
X29875560Y-74799466D01*
X29875551Y-74799471D01*
X29746086Y-74885977D01*
X29746082Y-74885980D01*
X29635980Y-74996082D01*
X29635977Y-74996086D01*
X29549471Y-75125551D01*
X29549466Y-75125560D01*
X29489878Y-75269419D01*
X29489876Y-75269427D01*
X29459500Y-75422138D01*
X29459500Y-75577861D01*
X29489876Y-75730572D01*
X29489878Y-75730580D01*
X29549466Y-75874439D01*
X29549471Y-75874448D01*
X29635977Y-76003913D01*
X29635980Y-76003917D01*
X29746082Y-76114019D01*
X29746086Y-76114022D01*
X29875551Y-76200528D01*
X29875557Y-76200531D01*
X29875558Y-76200532D01*
X30019420Y-76260122D01*
X30172138Y-76290499D01*
X30172142Y-76290500D01*
X30172143Y-76290500D01*
X30327858Y-76290500D01*
X30327859Y-76290499D01*
X30480580Y-76260122D01*
X30624442Y-76200532D01*
X30753914Y-76114022D01*
X30864022Y-76003914D01*
X30950532Y-75874442D01*
X31010122Y-75730580D01*
X31020352Y-75679145D01*
X31052735Y-75617236D01*
X31054228Y-75615716D01*
X31823367Y-74846579D01*
X43130000Y-74846579D01*
X43130000Y-75000000D01*
X43880000Y-75000000D01*
X43880000Y-75500000D01*
X43130000Y-75500000D01*
X43130000Y-75653420D01*
X43170348Y-75856266D01*
X43170350Y-75856274D01*
X43249500Y-76047358D01*
X43249505Y-76047368D01*
X43364410Y-76219335D01*
X43364413Y-76219339D01*
X43510660Y-76365586D01*
X43510664Y-76365589D01*
X43682631Y-76480494D01*
X43682641Y-76480499D01*
X43873723Y-76559648D01*
X43873725Y-76559649D01*
X43930000Y-76570842D01*
X43930000Y-75716988D01*
X43939940Y-75734205D01*
X43995795Y-75790060D01*
X44064204Y-75829556D01*
X44140504Y-75850000D01*
X44219496Y-75850000D01*
X44295796Y-75829556D01*
X44364205Y-75790060D01*
X44420060Y-75734205D01*
X44430000Y-75716988D01*
X44430000Y-76570842D01*
X44486274Y-76559649D01*
X44486276Y-76559648D01*
X44677358Y-76480499D01*
X44677368Y-76480494D01*
X44849335Y-76365589D01*
X44849339Y-76365586D01*
X44995586Y-76219339D01*
X44995589Y-76219335D01*
X45110494Y-76047368D01*
X45110499Y-76047358D01*
X45189649Y-75856274D01*
X45189651Y-75856266D01*
X45229999Y-75653420D01*
X45230000Y-75653417D01*
X45230000Y-75500000D01*
X44480000Y-75500000D01*
X44480000Y-75000000D01*
X45230000Y-75000000D01*
X45230000Y-74846583D01*
X45229999Y-74846579D01*
X51770000Y-74846579D01*
X51770000Y-75000000D01*
X52520000Y-75000000D01*
X52520000Y-75500000D01*
X51770000Y-75500000D01*
X51770000Y-75653420D01*
X51810348Y-75856266D01*
X51810350Y-75856274D01*
X51889500Y-76047358D01*
X51889505Y-76047368D01*
X52004410Y-76219335D01*
X52004413Y-76219339D01*
X52150660Y-76365586D01*
X52150664Y-76365589D01*
X52322631Y-76480494D01*
X52322641Y-76480499D01*
X52513723Y-76559648D01*
X52513725Y-76559649D01*
X52570000Y-76570842D01*
X52570000Y-75716988D01*
X52579940Y-75734205D01*
X52635795Y-75790060D01*
X52704204Y-75829556D01*
X52780504Y-75850000D01*
X52859496Y-75850000D01*
X52935796Y-75829556D01*
X53004205Y-75790060D01*
X53060060Y-75734205D01*
X53070000Y-75716988D01*
X53070000Y-76570842D01*
X53126274Y-76559649D01*
X53126276Y-76559648D01*
X53317358Y-76480499D01*
X53317368Y-76480494D01*
X53489335Y-76365589D01*
X53489339Y-76365586D01*
X53635586Y-76219339D01*
X53635589Y-76219335D01*
X53750494Y-76047368D01*
X53750499Y-76047358D01*
X53829649Y-75856274D01*
X53829651Y-75856266D01*
X53869999Y-75653420D01*
X53870000Y-75653417D01*
X53870000Y-75500000D01*
X53120000Y-75500000D01*
X53120000Y-75000000D01*
X53870000Y-75000000D01*
X53870000Y-74846583D01*
X53869999Y-74846579D01*
X53829651Y-74643733D01*
X53829649Y-74643725D01*
X53750499Y-74452641D01*
X53750494Y-74452631D01*
X53635589Y-74280664D01*
X53635586Y-74280660D01*
X53489339Y-74134413D01*
X53489335Y-74134410D01*
X53317368Y-74019505D01*
X53317358Y-74019500D01*
X53126272Y-73940349D01*
X53126267Y-73940347D01*
X53070000Y-73929155D01*
X53070000Y-74783011D01*
X53060060Y-74765795D01*
X53004205Y-74709940D01*
X52935796Y-74670444D01*
X52859496Y-74650000D01*
X52780504Y-74650000D01*
X52704204Y-74670444D01*
X52635795Y-74709940D01*
X52579940Y-74765795D01*
X52570000Y-74783011D01*
X52570000Y-73929156D01*
X52569999Y-73929155D01*
X52513732Y-73940347D01*
X52513727Y-73940349D01*
X52322641Y-74019500D01*
X52322631Y-74019505D01*
X52150664Y-74134410D01*
X52150660Y-74134413D01*
X52004413Y-74280660D01*
X52004410Y-74280664D01*
X51889505Y-74452631D01*
X51889500Y-74452641D01*
X51810350Y-74643725D01*
X51810348Y-74643733D01*
X51770000Y-74846579D01*
X45229999Y-74846579D01*
X45189651Y-74643733D01*
X45189649Y-74643725D01*
X45110499Y-74452641D01*
X45110494Y-74452631D01*
X44995589Y-74280664D01*
X44995586Y-74280660D01*
X44849339Y-74134413D01*
X44849335Y-74134410D01*
X44677368Y-74019505D01*
X44677358Y-74019500D01*
X44486272Y-73940349D01*
X44486267Y-73940347D01*
X44430000Y-73929155D01*
X44430000Y-74783011D01*
X44420060Y-74765795D01*
X44364205Y-74709940D01*
X44295796Y-74670444D01*
X44219496Y-74650000D01*
X44140504Y-74650000D01*
X44064204Y-74670444D01*
X43995795Y-74709940D01*
X43939940Y-74765795D01*
X43930000Y-74783011D01*
X43930000Y-73929156D01*
X43929999Y-73929155D01*
X43873732Y-73940347D01*
X43873727Y-73940349D01*
X43682641Y-74019500D01*
X43682631Y-74019505D01*
X43510664Y-74134410D01*
X43510660Y-74134413D01*
X43364413Y-74280660D01*
X43364410Y-74280664D01*
X43249505Y-74452631D01*
X43249500Y-74452641D01*
X43170350Y-74643725D01*
X43170348Y-74643733D01*
X43130000Y-74846579D01*
X31823367Y-74846579D01*
X31983127Y-74686819D01*
X32044450Y-74653334D01*
X32070808Y-74650500D01*
X38513064Y-74650500D01*
X38580103Y-74670185D01*
X38581949Y-74671394D01*
X38625558Y-74700532D01*
X38769420Y-74760122D01*
X38922138Y-74790499D01*
X38922142Y-74790500D01*
X38922143Y-74790500D01*
X39077858Y-74790500D01*
X39077859Y-74790499D01*
X39230580Y-74760122D01*
X39374442Y-74700532D01*
X39503914Y-74614022D01*
X39614022Y-74503914D01*
X39700532Y-74374442D01*
X39760122Y-74230580D01*
X39790500Y-74077857D01*
X39790500Y-73922143D01*
X39760122Y-73769420D01*
X39700532Y-73625558D01*
X39700531Y-73625557D01*
X39700528Y-73625551D01*
X39614022Y-73496086D01*
X39614019Y-73496082D01*
X39503917Y-73385980D01*
X39503913Y-73385977D01*
X39374448Y-73299471D01*
X39374438Y-73299466D01*
X39227047Y-73238414D01*
X39172644Y-73194573D01*
X39150579Y-73128278D01*
X39150500Y-73123853D01*
X39150500Y-67097138D01*
X42709500Y-67097138D01*
X42709500Y-67252861D01*
X42739876Y-67405572D01*
X42739878Y-67405580D01*
X42799466Y-67549439D01*
X42799471Y-67549448D01*
X42885977Y-67678913D01*
X42885980Y-67678917D01*
X42996082Y-67789019D01*
X42996086Y-67789022D01*
X43125551Y-67875528D01*
X43125560Y-67875533D01*
X43158149Y-67889031D01*
X43269420Y-67935122D01*
X43422138Y-67965499D01*
X43422142Y-67965500D01*
X43422143Y-67965500D01*
X43577858Y-67965500D01*
X43577859Y-67965499D01*
X43730580Y-67935122D01*
X43874442Y-67875532D01*
X44003914Y-67789022D01*
X44114022Y-67678914D01*
X44200532Y-67549442D01*
X44260122Y-67405580D01*
X44290500Y-67252857D01*
X44290500Y-67097143D01*
X44260122Y-66944420D01*
X44200532Y-66800558D01*
X44200531Y-66800557D01*
X44200528Y-66800551D01*
X44114022Y-66671086D01*
X44114019Y-66671082D01*
X44003917Y-66560980D01*
X44003913Y-66560977D01*
X43874448Y-66474471D01*
X43874439Y-66474466D01*
X43730580Y-66414878D01*
X43730572Y-66414876D01*
X43577861Y-66384500D01*
X43577857Y-66384500D01*
X43422143Y-66384500D01*
X43422138Y-66384500D01*
X43269427Y-66414876D01*
X43269419Y-66414878D01*
X43125560Y-66474466D01*
X43125551Y-66474471D01*
X42996086Y-66560977D01*
X42996082Y-66560980D01*
X42885980Y-66671082D01*
X42885977Y-66671086D01*
X42799471Y-66800551D01*
X42799466Y-66800560D01*
X42739878Y-66944419D01*
X42739876Y-66944427D01*
X42709500Y-67097138D01*
X39150500Y-67097138D01*
X39150500Y-65486935D01*
X39170185Y-65419896D01*
X39171399Y-65418043D01*
X39200527Y-65374450D01*
X39200528Y-65374447D01*
X39200532Y-65374442D01*
X39260122Y-65230580D01*
X39290500Y-65077857D01*
X39290500Y-64922143D01*
X39260122Y-64769420D01*
X39200532Y-64625558D01*
X39200531Y-64625557D01*
X39200528Y-64625551D01*
X39114022Y-64496086D01*
X39114019Y-64496082D01*
X39003917Y-64385980D01*
X39003913Y-64385977D01*
X38874448Y-64299471D01*
X38874439Y-64299466D01*
X38730580Y-64239878D01*
X38730572Y-64239876D01*
X38577861Y-64209500D01*
X38577857Y-64209500D01*
X38450700Y-64209500D01*
X38383661Y-64189815D01*
X38337906Y-64137011D01*
X38326700Y-64085500D01*
X38326700Y-62422138D01*
X40959500Y-62422138D01*
X40959500Y-62577861D01*
X40989876Y-62730572D01*
X40989878Y-62730580D01*
X41049466Y-62874439D01*
X41049471Y-62874448D01*
X41135977Y-63003913D01*
X41136973Y-63004909D01*
X41137328Y-63005560D01*
X41139843Y-63008624D01*
X41139262Y-63009100D01*
X41170464Y-63066228D01*
X41173300Y-63092598D01*
X41173300Y-63185534D01*
X41212602Y-63332211D01*
X41212602Y-63332212D01*
X41288522Y-63463709D01*
X41288527Y-63463715D01*
X46636981Y-68812169D01*
X46670466Y-68873492D01*
X46673300Y-68899850D01*
X46673300Y-69157401D01*
X46653615Y-69224440D01*
X46636981Y-69245082D01*
X46635980Y-69246082D01*
X46635977Y-69246086D01*
X46549471Y-69375551D01*
X46549466Y-69375560D01*
X46489878Y-69519419D01*
X46489876Y-69519427D01*
X46459500Y-69672138D01*
X46459500Y-69827861D01*
X46489876Y-69980572D01*
X46489878Y-69980580D01*
X46549466Y-70124439D01*
X46549471Y-70124448D01*
X46635977Y-70253913D01*
X46635980Y-70253917D01*
X46746082Y-70364019D01*
X46746086Y-70364022D01*
X46875551Y-70450528D01*
X46875557Y-70450531D01*
X46875558Y-70450532D01*
X47019420Y-70510122D01*
X47150500Y-70536195D01*
X47172138Y-70540499D01*
X47172142Y-70540500D01*
X47225500Y-70540500D01*
X47292539Y-70560185D01*
X47338294Y-70612989D01*
X47349500Y-70664500D01*
X47349500Y-71429192D01*
X47329815Y-71496231D01*
X47313181Y-71516873D01*
X47134342Y-71695711D01*
X47073019Y-71729196D01*
X47070852Y-71729647D01*
X47019427Y-71739876D01*
X47019419Y-71739878D01*
X46875560Y-71799466D01*
X46875551Y-71799471D01*
X46746086Y-71885977D01*
X46746082Y-71885980D01*
X46635980Y-71996082D01*
X46635977Y-71996086D01*
X46549471Y-72125551D01*
X46549466Y-72125560D01*
X46489878Y-72269419D01*
X46489876Y-72269427D01*
X46459500Y-72422138D01*
X46459500Y-72577861D01*
X46489876Y-72730572D01*
X46489878Y-72730580D01*
X46549466Y-72874439D01*
X46549471Y-72874448D01*
X46635977Y-73003913D01*
X46635980Y-73003917D01*
X46746082Y-73114019D01*
X46746086Y-73114022D01*
X46875551Y-73200528D01*
X46875557Y-73200531D01*
X46875558Y-73200532D01*
X47019420Y-73260122D01*
X47172138Y-73290499D01*
X47172142Y-73290500D01*
X47172143Y-73290500D01*
X47327858Y-73290500D01*
X47327859Y-73290499D01*
X47480580Y-73260122D01*
X47624442Y-73200532D01*
X47753914Y-73114022D01*
X47864022Y-73003914D01*
X47950532Y-72874442D01*
X48010122Y-72730580D01*
X48020352Y-72679145D01*
X48052735Y-72617236D01*
X48054177Y-72615766D01*
X48505276Y-72164669D01*
X48576465Y-72058127D01*
X48625501Y-71939744D01*
X48646130Y-71836036D01*
X48650500Y-71814069D01*
X48650500Y-70672138D01*
X50209500Y-70672138D01*
X50209500Y-70827861D01*
X50239876Y-70980572D01*
X50239878Y-70980580D01*
X50299466Y-71124439D01*
X50299471Y-71124448D01*
X50385977Y-71253913D01*
X50385980Y-71253917D01*
X50496082Y-71364019D01*
X50496086Y-71364022D01*
X50625551Y-71450528D01*
X50625557Y-71450531D01*
X50625558Y-71450532D01*
X50769420Y-71510122D01*
X50922138Y-71540499D01*
X50922142Y-71540500D01*
X50922143Y-71540500D01*
X51077858Y-71540500D01*
X51077859Y-71540499D01*
X51230580Y-71510122D01*
X51374442Y-71450532D01*
X51503914Y-71364022D01*
X51614022Y-71253914D01*
X51700532Y-71124442D01*
X51760122Y-70980580D01*
X51790500Y-70827857D01*
X51790500Y-70826439D01*
X51790710Y-70825722D01*
X51791097Y-70821796D01*
X51791841Y-70821869D01*
X51810185Y-70759400D01*
X51826819Y-70738758D01*
X64397561Y-58168016D01*
X64458884Y-58134531D01*
X64528576Y-58139515D01*
X64584509Y-58181387D01*
X64608926Y-58246851D01*
X64609242Y-58255697D01*
X64609242Y-59273819D01*
X64589557Y-59340858D01*
X64572923Y-59361500D01*
X54011242Y-69923181D01*
X53949919Y-69956666D01*
X53923561Y-69959500D01*
X53922138Y-69959500D01*
X53769427Y-69989876D01*
X53769419Y-69989878D01*
X53625560Y-70049466D01*
X53625551Y-70049471D01*
X53496086Y-70135977D01*
X53496082Y-70135980D01*
X53385980Y-70246082D01*
X53385977Y-70246086D01*
X53299471Y-70375551D01*
X53299466Y-70375560D01*
X53239878Y-70519419D01*
X53239876Y-70519427D01*
X53209500Y-70672138D01*
X53209500Y-70827861D01*
X53239876Y-70980572D01*
X53239878Y-70980580D01*
X53299466Y-71124439D01*
X53299471Y-71124448D01*
X53385977Y-71253913D01*
X53385980Y-71253917D01*
X53496082Y-71364019D01*
X53496086Y-71364022D01*
X53625551Y-71450528D01*
X53625557Y-71450531D01*
X53625558Y-71450532D01*
X53769420Y-71510122D01*
X53922138Y-71540499D01*
X53922142Y-71540500D01*
X53922143Y-71540500D01*
X54077858Y-71540500D01*
X54077859Y-71540499D01*
X54230580Y-71510122D01*
X54374442Y-71450532D01*
X54503914Y-71364022D01*
X54614022Y-71253914D01*
X54700532Y-71124442D01*
X54760122Y-70980580D01*
X54790500Y-70827857D01*
X54790500Y-70826439D01*
X54790710Y-70825722D01*
X54791097Y-70821796D01*
X54791841Y-70821869D01*
X54810185Y-70759400D01*
X54826819Y-70738758D01*
X64929590Y-60635987D01*
X64990913Y-60602502D01*
X65060605Y-60607486D01*
X65116538Y-60649358D01*
X65140955Y-60714822D01*
X65141271Y-60723668D01*
X65141271Y-61491790D01*
X65121586Y-61558829D01*
X65104952Y-61579471D01*
X56761242Y-69923181D01*
X56699919Y-69956666D01*
X56673561Y-69959500D01*
X56672138Y-69959500D01*
X56519427Y-69989876D01*
X56519419Y-69989878D01*
X56375560Y-70049466D01*
X56375551Y-70049471D01*
X56246086Y-70135977D01*
X56246082Y-70135980D01*
X56135980Y-70246082D01*
X56135977Y-70246086D01*
X56049471Y-70375551D01*
X56049466Y-70375560D01*
X55989878Y-70519419D01*
X55989876Y-70519427D01*
X55959500Y-70672138D01*
X55959500Y-70827861D01*
X55989876Y-70980572D01*
X55989878Y-70980580D01*
X56049466Y-71124439D01*
X56049471Y-71124448D01*
X56135977Y-71253913D01*
X56135980Y-71253917D01*
X56246082Y-71364019D01*
X56246086Y-71364022D01*
X56375551Y-71450528D01*
X56375557Y-71450531D01*
X56375558Y-71450532D01*
X56519420Y-71510122D01*
X56672138Y-71540499D01*
X56672142Y-71540500D01*
X56672143Y-71540500D01*
X56827858Y-71540500D01*
X56827859Y-71540499D01*
X56980580Y-71510122D01*
X57124442Y-71450532D01*
X57253914Y-71364022D01*
X57364022Y-71253914D01*
X57450532Y-71124442D01*
X57510122Y-70980580D01*
X57540500Y-70827857D01*
X57540500Y-70826439D01*
X57540710Y-70825722D01*
X57541097Y-70821796D01*
X57541841Y-70821869D01*
X57560185Y-70759400D01*
X57576819Y-70738758D01*
X65461619Y-62853958D01*
X65522942Y-62820473D01*
X65592634Y-62825457D01*
X65648567Y-62867329D01*
X65672984Y-62932793D01*
X65673300Y-62941639D01*
X65673300Y-63459761D01*
X65653615Y-63526800D01*
X65636981Y-63547442D01*
X59158752Y-70025670D01*
X59129535Y-70047341D01*
X59125568Y-70049461D01*
X58996083Y-70135979D01*
X58885980Y-70246082D01*
X58885977Y-70246086D01*
X58799471Y-70375551D01*
X58799466Y-70375560D01*
X58739878Y-70519419D01*
X58739876Y-70519427D01*
X58709500Y-70672138D01*
X58709500Y-70827861D01*
X58739876Y-70980572D01*
X58739878Y-70980580D01*
X58799466Y-71124439D01*
X58799471Y-71124448D01*
X58885977Y-71253913D01*
X58885980Y-71253917D01*
X58996082Y-71364019D01*
X58996086Y-71364022D01*
X59125551Y-71450528D01*
X59125557Y-71450531D01*
X59125558Y-71450532D01*
X59269420Y-71510122D01*
X59422138Y-71540499D01*
X59422142Y-71540500D01*
X59422143Y-71540500D01*
X59577858Y-71540500D01*
X59577859Y-71540499D01*
X59730580Y-71510122D01*
X59874442Y-71450532D01*
X60003914Y-71364022D01*
X60114022Y-71253914D01*
X60200532Y-71124442D01*
X60260122Y-70980580D01*
X60290500Y-70827857D01*
X60290500Y-70672143D01*
X60279030Y-70614480D01*
X60285257Y-70544891D01*
X60312964Y-70502611D01*
X66711475Y-64104102D01*
X66787399Y-63972598D01*
X66826700Y-63825924D01*
X66826700Y-63674076D01*
X66826700Y-39150436D01*
X68735000Y-39150436D01*
X68735000Y-39349563D01*
X68766147Y-39546222D01*
X68827679Y-39735594D01*
X68918077Y-39913008D01*
X68945580Y-39950863D01*
X68945581Y-39950864D01*
X69508871Y-39387574D01*
X69524755Y-39446853D01*
X69591898Y-39563147D01*
X69686853Y-39658102D01*
X69803147Y-39725245D01*
X69862425Y-39741128D01*
X69299134Y-40304417D01*
X69336994Y-40331924D01*
X69514405Y-40422320D01*
X69703777Y-40483852D01*
X69900437Y-40515000D01*
X70099563Y-40515000D01*
X70296222Y-40483852D01*
X70485594Y-40422320D01*
X70663005Y-40331924D01*
X70700863Y-40304418D01*
X70700863Y-40304417D01*
X70137574Y-39741128D01*
X70196853Y-39725245D01*
X70313147Y-39658102D01*
X70408102Y-39563147D01*
X70475245Y-39446853D01*
X70491128Y-39387574D01*
X71054417Y-39950863D01*
X71054418Y-39950863D01*
X71081924Y-39913005D01*
X71172320Y-39735594D01*
X71233852Y-39546222D01*
X71265000Y-39349563D01*
X71265000Y-39150436D01*
X75199286Y-39150436D01*
X75199286Y-39349563D01*
X75230433Y-39546222D01*
X75291965Y-39735594D01*
X75382363Y-39913008D01*
X75409866Y-39950863D01*
X75409867Y-39950864D01*
X75973157Y-39387574D01*
X75989041Y-39446853D01*
X76056184Y-39563147D01*
X76151139Y-39658102D01*
X76267433Y-39725245D01*
X76326711Y-39741128D01*
X75763420Y-40304417D01*
X75801280Y-40331924D01*
X75978691Y-40422320D01*
X76168063Y-40483852D01*
X76364723Y-40515000D01*
X76563849Y-40515000D01*
X76760508Y-40483852D01*
X76949880Y-40422320D01*
X77127291Y-40331924D01*
X77165149Y-40304418D01*
X77165149Y-40304417D01*
X76601860Y-39741128D01*
X76661139Y-39725245D01*
X76777433Y-39658102D01*
X76872388Y-39563147D01*
X76939531Y-39446853D01*
X76955414Y-39387574D01*
X77518703Y-39950863D01*
X77518704Y-39950863D01*
X77546210Y-39913005D01*
X77636606Y-39735594D01*
X77698138Y-39546222D01*
X77729286Y-39349563D01*
X77729286Y-39150436D01*
X77729281Y-39150403D01*
X81663071Y-39150403D01*
X81663071Y-39349596D01*
X81694232Y-39546340D01*
X81694232Y-39546343D01*
X81755784Y-39735780D01*
X81755786Y-39735783D01*
X81846218Y-39913266D01*
X81963302Y-40074418D01*
X82104153Y-40215269D01*
X82265305Y-40332353D01*
X82412595Y-40407401D01*
X82442790Y-40422786D01*
X82632228Y-40484338D01*
X82632229Y-40484338D01*
X82632232Y-40484339D01*
X82828974Y-40515500D01*
X82828975Y-40515500D01*
X83028167Y-40515500D01*
X83028168Y-40515500D01*
X83224910Y-40484339D01*
X83224913Y-40484338D01*
X83224914Y-40484338D01*
X83414351Y-40422786D01*
X83414351Y-40422785D01*
X83414354Y-40422785D01*
X83591837Y-40332353D01*
X83752989Y-40215269D01*
X83893840Y-40074418D01*
X84010924Y-39913266D01*
X84101356Y-39735783D01*
X84162910Y-39546339D01*
X84194071Y-39349597D01*
X84194071Y-39150403D01*
X88127357Y-39150403D01*
X88127357Y-39349596D01*
X88158518Y-39546340D01*
X88158518Y-39546343D01*
X88220070Y-39735780D01*
X88220072Y-39735783D01*
X88310504Y-39913266D01*
X88427588Y-40074418D01*
X88568439Y-40215269D01*
X88729591Y-40332353D01*
X88876881Y-40407401D01*
X88907076Y-40422786D01*
X89096514Y-40484338D01*
X89096515Y-40484338D01*
X89096518Y-40484339D01*
X89293260Y-40515500D01*
X89293261Y-40515500D01*
X89492453Y-40515500D01*
X89492454Y-40515500D01*
X89689196Y-40484339D01*
X89689199Y-40484338D01*
X89689200Y-40484338D01*
X89878637Y-40422786D01*
X89878637Y-40422785D01*
X89878640Y-40422785D01*
X90056123Y-40332353D01*
X90217275Y-40215269D01*
X90358126Y-40074418D01*
X90475210Y-39913266D01*
X90565642Y-39735783D01*
X90627196Y-39546339D01*
X90658357Y-39349597D01*
X90658357Y-39150403D01*
X94591643Y-39150403D01*
X94591643Y-39349596D01*
X94622804Y-39546340D01*
X94622804Y-39546343D01*
X94684356Y-39735780D01*
X94684358Y-39735783D01*
X94774790Y-39913266D01*
X94891874Y-40074418D01*
X95032725Y-40215269D01*
X95193877Y-40332353D01*
X95341167Y-40407401D01*
X95371362Y-40422786D01*
X95560800Y-40484338D01*
X95560801Y-40484338D01*
X95560804Y-40484339D01*
X95757546Y-40515500D01*
X95757547Y-40515500D01*
X95956739Y-40515500D01*
X95956740Y-40515500D01*
X96153482Y-40484339D01*
X96153485Y-40484338D01*
X96153486Y-40484338D01*
X96342923Y-40422786D01*
X96342923Y-40422785D01*
X96342926Y-40422785D01*
X96520409Y-40332353D01*
X96681561Y-40215269D01*
X96822412Y-40074418D01*
X96939496Y-39913266D01*
X97029928Y-39735783D01*
X97091482Y-39546339D01*
X97122643Y-39349597D01*
X97122643Y-39150403D01*
X101055929Y-39150403D01*
X101055929Y-39349596D01*
X101087090Y-39546340D01*
X101087090Y-39546343D01*
X101148642Y-39735780D01*
X101148644Y-39735783D01*
X101239076Y-39913266D01*
X101356160Y-40074418D01*
X101497011Y-40215269D01*
X101658163Y-40332353D01*
X101805453Y-40407401D01*
X101835648Y-40422786D01*
X102025086Y-40484338D01*
X102025087Y-40484338D01*
X102025090Y-40484339D01*
X102221832Y-40515500D01*
X102221833Y-40515500D01*
X102421025Y-40515500D01*
X102421026Y-40515500D01*
X102617768Y-40484339D01*
X102617771Y-40484338D01*
X102617772Y-40484338D01*
X102807209Y-40422786D01*
X102807209Y-40422785D01*
X102807212Y-40422785D01*
X102984695Y-40332353D01*
X103145847Y-40215269D01*
X103286698Y-40074418D01*
X103403782Y-39913266D01*
X103494214Y-39735783D01*
X103555768Y-39546339D01*
X103586929Y-39349597D01*
X103586929Y-39150403D01*
X107520214Y-39150403D01*
X107520214Y-39349596D01*
X107551375Y-39546340D01*
X107551375Y-39546343D01*
X107612927Y-39735780D01*
X107612929Y-39735783D01*
X107703361Y-39913266D01*
X107820445Y-40074418D01*
X107961296Y-40215269D01*
X108122448Y-40332353D01*
X108269738Y-40407401D01*
X108299933Y-40422786D01*
X108489371Y-40484338D01*
X108489372Y-40484338D01*
X108489375Y-40484339D01*
X108686117Y-40515500D01*
X108686118Y-40515500D01*
X108885310Y-40515500D01*
X108885311Y-40515500D01*
X109082053Y-40484339D01*
X109082056Y-40484338D01*
X109082057Y-40484338D01*
X109271494Y-40422786D01*
X109271494Y-40422785D01*
X109271497Y-40422785D01*
X109448980Y-40332353D01*
X109610132Y-40215269D01*
X109750983Y-40074418D01*
X109868067Y-39913266D01*
X109958499Y-39735783D01*
X110020053Y-39546339D01*
X110051214Y-39349597D01*
X110051214Y-39150403D01*
X113984500Y-39150403D01*
X113984500Y-39349596D01*
X114015661Y-39546340D01*
X114015661Y-39546343D01*
X114077213Y-39735780D01*
X114077215Y-39735783D01*
X114167647Y-39913266D01*
X114284731Y-40074418D01*
X114425582Y-40215269D01*
X114586734Y-40332353D01*
X114734024Y-40407401D01*
X114764219Y-40422786D01*
X114953657Y-40484338D01*
X114953658Y-40484338D01*
X114953661Y-40484339D01*
X115150403Y-40515500D01*
X115150404Y-40515500D01*
X115349596Y-40515500D01*
X115349597Y-40515500D01*
X115546339Y-40484339D01*
X115546342Y-40484338D01*
X115546343Y-40484338D01*
X115735780Y-40422786D01*
X115735780Y-40422785D01*
X115735783Y-40422785D01*
X115913266Y-40332353D01*
X116074418Y-40215269D01*
X116215269Y-40074418D01*
X116332353Y-39913266D01*
X116422785Y-39735783D01*
X116484339Y-39546339D01*
X116515500Y-39349597D01*
X116515500Y-39150403D01*
X116484339Y-38953661D01*
X116484338Y-38953657D01*
X116484338Y-38953656D01*
X116422786Y-38764219D01*
X116364860Y-38650533D01*
X116332353Y-38586734D01*
X116215269Y-38425582D01*
X116074418Y-38284731D01*
X115913266Y-38167647D01*
X115913264Y-38167646D01*
X115735786Y-38077216D01*
X115632781Y-38043747D01*
X115575106Y-38004309D01*
X115547908Y-37939950D01*
X115547100Y-37925816D01*
X115547100Y-36398382D01*
X115566785Y-36331343D01*
X115619589Y-36285588D01*
X115646904Y-36276765D01*
X115730580Y-36260122D01*
X115874442Y-36200532D01*
X116003914Y-36114022D01*
X116114022Y-36003914D01*
X116168663Y-35922138D01*
X129459500Y-35922138D01*
X129459500Y-36077861D01*
X129489876Y-36230572D01*
X129489878Y-36230580D01*
X129549466Y-36374439D01*
X129549471Y-36374448D01*
X129635977Y-36503913D01*
X129635980Y-36503917D01*
X129746082Y-36614019D01*
X129746086Y-36614022D01*
X129875551Y-36700528D01*
X129875557Y-36700531D01*
X129875558Y-36700532D01*
X130019420Y-36760122D01*
X130163199Y-36788721D01*
X130172138Y-36790499D01*
X130172142Y-36790500D01*
X130172143Y-36790500D01*
X130327858Y-36790500D01*
X130327859Y-36790499D01*
X130480580Y-36760122D01*
X130624442Y-36700532D01*
X130753914Y-36614022D01*
X130864022Y-36503914D01*
X130950532Y-36374442D01*
X131010122Y-36230580D01*
X131040500Y-36077857D01*
X131040500Y-35922143D01*
X131010122Y-35769420D01*
X130950532Y-35625558D01*
X130950531Y-35625557D01*
X130950528Y-35625551D01*
X130864022Y-35496086D01*
X130864019Y-35496082D01*
X130753917Y-35385980D01*
X130753913Y-35385977D01*
X130624448Y-35299471D01*
X130624439Y-35299466D01*
X130480580Y-35239878D01*
X130480572Y-35239876D01*
X130327861Y-35209500D01*
X130327857Y-35209500D01*
X130172143Y-35209500D01*
X130172138Y-35209500D01*
X130019427Y-35239876D01*
X130019419Y-35239878D01*
X129875560Y-35299466D01*
X129875551Y-35299471D01*
X129746086Y-35385977D01*
X129746082Y-35385980D01*
X129635980Y-35496082D01*
X129635977Y-35496086D01*
X129549471Y-35625551D01*
X129549466Y-35625560D01*
X129489878Y-35769419D01*
X129489876Y-35769427D01*
X129459500Y-35922138D01*
X116168663Y-35922138D01*
X116200532Y-35874442D01*
X116260122Y-35730580D01*
X116290500Y-35577857D01*
X116290500Y-35576439D01*
X116290710Y-35575722D01*
X116291097Y-35571796D01*
X116291841Y-35571869D01*
X116310185Y-35509400D01*
X116326819Y-35488758D01*
X117742661Y-34072916D01*
X119211475Y-32604102D01*
X119287399Y-32472598D01*
X119326700Y-32325924D01*
X119326700Y-32174076D01*
X119326700Y-23342598D01*
X119346385Y-23275559D01*
X119363027Y-23254909D01*
X119364022Y-23253914D01*
X119450532Y-23124442D01*
X119510122Y-22980580D01*
X119540500Y-22827857D01*
X119540500Y-22672143D01*
X119540499Y-22672138D01*
X121459500Y-22672138D01*
X121459500Y-22827861D01*
X121489876Y-22980572D01*
X121489878Y-22980580D01*
X121549466Y-23124439D01*
X121549471Y-23124448D01*
X121635977Y-23253913D01*
X121635980Y-23253917D01*
X121746082Y-23364019D01*
X121746086Y-23364022D01*
X121875551Y-23450528D01*
X121875557Y-23450531D01*
X121875558Y-23450532D01*
X122019420Y-23510122D01*
X122172138Y-23540499D01*
X122172142Y-23540500D01*
X122172143Y-23540500D01*
X122327858Y-23540500D01*
X122327859Y-23540499D01*
X122480580Y-23510122D01*
X122624442Y-23450532D01*
X122753914Y-23364022D01*
X122864022Y-23253914D01*
X122950532Y-23124442D01*
X123010122Y-22980580D01*
X123040500Y-22827857D01*
X123040500Y-22672143D01*
X123010122Y-22519420D01*
X122950532Y-22375558D01*
X122950531Y-22375557D01*
X122950528Y-22375551D01*
X122864022Y-22246086D01*
X122864019Y-22246082D01*
X122753917Y-22135980D01*
X122753913Y-22135977D01*
X122624448Y-22049471D01*
X122624439Y-22049466D01*
X122480580Y-21989878D01*
X122480572Y-21989876D01*
X122327861Y-21959500D01*
X122327857Y-21959500D01*
X122172143Y-21959500D01*
X122172138Y-21959500D01*
X122019427Y-21989876D01*
X122019419Y-21989878D01*
X121875560Y-22049466D01*
X121875551Y-22049471D01*
X121746086Y-22135977D01*
X121746082Y-22135980D01*
X121635980Y-22246082D01*
X121635977Y-22246086D01*
X121549471Y-22375551D01*
X121549466Y-22375560D01*
X121489878Y-22519419D01*
X121489876Y-22519427D01*
X121459500Y-22672138D01*
X119540499Y-22672138D01*
X119510122Y-22519420D01*
X119450532Y-22375558D01*
X119450531Y-22375557D01*
X119450528Y-22375551D01*
X119364022Y-22246086D01*
X119364019Y-22246082D01*
X119253917Y-22135980D01*
X119253913Y-22135977D01*
X119124448Y-22049471D01*
X119124439Y-22049466D01*
X118980580Y-21989878D01*
X118980572Y-21989876D01*
X118827861Y-21959500D01*
X118827857Y-21959500D01*
X118672143Y-21959500D01*
X118672138Y-21959500D01*
X118519427Y-21989876D01*
X118519419Y-21989878D01*
X118375560Y-22049466D01*
X118375551Y-22049471D01*
X118246086Y-22135977D01*
X118246082Y-22135980D01*
X118135980Y-22246082D01*
X118135977Y-22246086D01*
X118049471Y-22375551D01*
X118049466Y-22375560D01*
X117989878Y-22519419D01*
X117989876Y-22519427D01*
X117959500Y-22672138D01*
X117959500Y-22827861D01*
X117989876Y-22980572D01*
X117989878Y-22980580D01*
X118049466Y-23124439D01*
X118049471Y-23124448D01*
X118135977Y-23253913D01*
X118136973Y-23254909D01*
X118137328Y-23255560D01*
X118139843Y-23258624D01*
X118139262Y-23259100D01*
X118170464Y-23316228D01*
X118173300Y-23342598D01*
X118173300Y-31959761D01*
X118153615Y-32026800D01*
X118136981Y-32047442D01*
X115971270Y-34213152D01*
X115909947Y-34246637D01*
X115840255Y-34241653D01*
X115784322Y-34199781D01*
X115761972Y-34149662D01*
X115760123Y-34140371D01*
X115760122Y-34140364D01*
X115700532Y-33996502D01*
X115700531Y-33996501D01*
X115700528Y-33996495D01*
X115614022Y-33867030D01*
X115614019Y-33867026D01*
X115503917Y-33756924D01*
X115503913Y-33756921D01*
X115374448Y-33670415D01*
X115374439Y-33670410D01*
X115230580Y-33610822D01*
X115230572Y-33610820D01*
X115077861Y-33580444D01*
X115077857Y-33580444D01*
X114922143Y-33580444D01*
X114922138Y-33580444D01*
X114769427Y-33610820D01*
X114769419Y-33610822D01*
X114625560Y-33670410D01*
X114625551Y-33670415D01*
X114496086Y-33756921D01*
X114496082Y-33756924D01*
X114385980Y-33867026D01*
X114385977Y-33867030D01*
X114299471Y-33996495D01*
X114299466Y-33996504D01*
X114239878Y-34140363D01*
X114239876Y-34140371D01*
X114209500Y-34293082D01*
X114209500Y-34448805D01*
X114239876Y-34601516D01*
X114239878Y-34601524D01*
X114299466Y-34745383D01*
X114299471Y-34745392D01*
X114372802Y-34855139D01*
X114393680Y-34921817D01*
X114393700Y-34924030D01*
X114393700Y-38265251D01*
X114374015Y-38332290D01*
X114357381Y-38352932D01*
X114284733Y-38425579D01*
X114284733Y-38425580D01*
X114284731Y-38425582D01*
X114234447Y-38494790D01*
X114167647Y-38586733D01*
X114077213Y-38764219D01*
X114015661Y-38953656D01*
X114015661Y-38953659D01*
X113984500Y-39150403D01*
X110051214Y-39150403D01*
X110020053Y-38953661D01*
X110020052Y-38953657D01*
X110020052Y-38953656D01*
X109958500Y-38764219D01*
X109900574Y-38650533D01*
X109868067Y-38586734D01*
X109750983Y-38425582D01*
X109610132Y-38284731D01*
X109487428Y-38195581D01*
X109448979Y-38167646D01*
X109430115Y-38158034D01*
X109379321Y-38110058D01*
X109362414Y-38047551D01*
X109362414Y-35950738D01*
X109959500Y-35950738D01*
X109959500Y-36106461D01*
X109989876Y-36259172D01*
X109989878Y-36259180D01*
X110049466Y-36403039D01*
X110049471Y-36403048D01*
X110135977Y-36532513D01*
X110135980Y-36532517D01*
X110246082Y-36642619D01*
X110246086Y-36642622D01*
X110375551Y-36729128D01*
X110375557Y-36729131D01*
X110375558Y-36729132D01*
X110519420Y-36788722D01*
X110672138Y-36819099D01*
X110672142Y-36819100D01*
X110672143Y-36819100D01*
X110827858Y-36819100D01*
X110827859Y-36819099D01*
X110980580Y-36788722D01*
X111124442Y-36729132D01*
X111253914Y-36642622D01*
X111364022Y-36532514D01*
X111450532Y-36403042D01*
X111510122Y-36259180D01*
X111540500Y-36106457D01*
X111540500Y-35950743D01*
X111510122Y-35798020D01*
X111450532Y-35654158D01*
X111450531Y-35654157D01*
X111450528Y-35654151D01*
X111364022Y-35524686D01*
X111364019Y-35524682D01*
X111363019Y-35523682D01*
X111362662Y-35523028D01*
X111360157Y-35519976D01*
X111360735Y-35519500D01*
X111329534Y-35462359D01*
X111326700Y-35436001D01*
X111326700Y-32347138D01*
X112922000Y-32347138D01*
X112922000Y-32502861D01*
X112952376Y-32655572D01*
X112952378Y-32655580D01*
X113011966Y-32799439D01*
X113011971Y-32799448D01*
X113098477Y-32928913D01*
X113098480Y-32928917D01*
X113208582Y-33039019D01*
X113208586Y-33039022D01*
X113338051Y-33125528D01*
X113338057Y-33125531D01*
X113338058Y-33125532D01*
X113481920Y-33185122D01*
X113634638Y-33215499D01*
X113634642Y-33215500D01*
X113634643Y-33215500D01*
X113790358Y-33215500D01*
X113790359Y-33215499D01*
X113943080Y-33185122D01*
X114086942Y-33125532D01*
X114216414Y-33039022D01*
X114326522Y-32928914D01*
X114413032Y-32799442D01*
X114472622Y-32655580D01*
X114503000Y-32502857D01*
X114503000Y-32347143D01*
X114472622Y-32194420D01*
X114413032Y-32050558D01*
X114413031Y-32050557D01*
X114413028Y-32050551D01*
X114326522Y-31921086D01*
X114326519Y-31921082D01*
X114216417Y-31810980D01*
X114216413Y-31810977D01*
X114086948Y-31724471D01*
X114086939Y-31724466D01*
X113943080Y-31664878D01*
X113943072Y-31664876D01*
X113790361Y-31634500D01*
X113790357Y-31634500D01*
X113634643Y-31634500D01*
X113634638Y-31634500D01*
X113481927Y-31664876D01*
X113481919Y-31664878D01*
X113338060Y-31724466D01*
X113338051Y-31724471D01*
X113208586Y-31810977D01*
X113208582Y-31810980D01*
X113098480Y-31921082D01*
X113098477Y-31921086D01*
X113011971Y-32050551D01*
X113011966Y-32050560D01*
X112952378Y-32194419D01*
X112952376Y-32194427D01*
X112922000Y-32347138D01*
X111326700Y-32347138D01*
X111326700Y-31190239D01*
X111346385Y-31123200D01*
X111363019Y-31102558D01*
X112388758Y-30076819D01*
X112450081Y-30043334D01*
X112476439Y-30040500D01*
X112477858Y-30040500D01*
X112477859Y-30040499D01*
X112630580Y-30010122D01*
X112774442Y-29950532D01*
X112903914Y-29864022D01*
X113014022Y-29753914D01*
X113100532Y-29624442D01*
X113160122Y-29480580D01*
X113190500Y-29327857D01*
X113190500Y-29172143D01*
X113160122Y-29019420D01*
X113100532Y-28875558D01*
X113100531Y-28875557D01*
X113100528Y-28875551D01*
X113014022Y-28746086D01*
X113014019Y-28746082D01*
X112903917Y-28635980D01*
X112903913Y-28635977D01*
X112774448Y-28549471D01*
X112774439Y-28549466D01*
X112630580Y-28489878D01*
X112630572Y-28489876D01*
X112477861Y-28459500D01*
X112477857Y-28459500D01*
X112322143Y-28459500D01*
X112322138Y-28459500D01*
X112169427Y-28489876D01*
X112169419Y-28489878D01*
X112025560Y-28549466D01*
X112025551Y-28549471D01*
X111896086Y-28635977D01*
X111896082Y-28635980D01*
X111785980Y-28746082D01*
X111785977Y-28746086D01*
X111699471Y-28875551D01*
X111699466Y-28875560D01*
X111639878Y-29019419D01*
X111639876Y-29019427D01*
X111609500Y-29172138D01*
X111609500Y-29173561D01*
X111609289Y-29174277D01*
X111608903Y-29178204D01*
X111608158Y-29178130D01*
X111589815Y-29240600D01*
X111573181Y-29261242D01*
X110288527Y-30545895D01*
X110288522Y-30545901D01*
X110212602Y-30677398D01*
X110212602Y-30677399D01*
X110173300Y-30824076D01*
X110173300Y-35436001D01*
X110153615Y-35503040D01*
X110136981Y-35523682D01*
X110135980Y-35524682D01*
X110135977Y-35524686D01*
X110049471Y-35654151D01*
X110049466Y-35654160D01*
X109989878Y-35798019D01*
X109989876Y-35798027D01*
X109959500Y-35950738D01*
X109362414Y-35950738D01*
X109362414Y-35515335D01*
X109382099Y-35448296D01*
X109383312Y-35446444D01*
X109399550Y-35422143D01*
X109450532Y-35345842D01*
X109510122Y-35201980D01*
X109540500Y-35049257D01*
X109540500Y-34893543D01*
X109510122Y-34740820D01*
X109450532Y-34596958D01*
X109450531Y-34596957D01*
X109450528Y-34596951D01*
X109364022Y-34467486D01*
X109364019Y-34467482D01*
X109253917Y-34357380D01*
X109253913Y-34357377D01*
X109124448Y-34270871D01*
X109124439Y-34270866D01*
X108980580Y-34211278D01*
X108980572Y-34211276D01*
X108827861Y-34180900D01*
X108827857Y-34180900D01*
X108672143Y-34180900D01*
X108672138Y-34180900D01*
X108519427Y-34211276D01*
X108519419Y-34211278D01*
X108375560Y-34270866D01*
X108375551Y-34270871D01*
X108246086Y-34357377D01*
X108246082Y-34357380D01*
X108135980Y-34467482D01*
X108135977Y-34467486D01*
X108049471Y-34596951D01*
X108049466Y-34596960D01*
X107989878Y-34740819D01*
X107989876Y-34740827D01*
X107959500Y-34893538D01*
X107959500Y-35049261D01*
X107989876Y-35201972D01*
X107989878Y-35201980D01*
X108049466Y-35345839D01*
X108049471Y-35345848D01*
X108135977Y-35475313D01*
X108135980Y-35475317D01*
X108172694Y-35512030D01*
X108206180Y-35573352D01*
X108209014Y-35599712D01*
X108209014Y-38047551D01*
X108189329Y-38114590D01*
X108141313Y-38158034D01*
X108122448Y-38167646D01*
X108018270Y-38243336D01*
X107961296Y-38284731D01*
X107961294Y-38284733D01*
X107961293Y-38284733D01*
X107820447Y-38425579D01*
X107820447Y-38425580D01*
X107820445Y-38425582D01*
X107770161Y-38494790D01*
X107703361Y-38586733D01*
X107612927Y-38764219D01*
X107551375Y-38953656D01*
X107551375Y-38953659D01*
X107520214Y-39150403D01*
X103586929Y-39150403D01*
X103555768Y-38953661D01*
X103555767Y-38953657D01*
X103555767Y-38953656D01*
X103494215Y-38764219D01*
X103436289Y-38650533D01*
X103403782Y-38586734D01*
X103286698Y-38425582D01*
X103145847Y-38284731D01*
X103023143Y-38195581D01*
X102984694Y-38167646D01*
X102965830Y-38158034D01*
X102915036Y-38110058D01*
X102898129Y-38047551D01*
X102898129Y-34434942D01*
X102917814Y-34367903D01*
X102934456Y-34347253D01*
X102935451Y-34346258D01*
X103021961Y-34216786D01*
X103081551Y-34072924D01*
X103111929Y-33920201D01*
X103111929Y-33764487D01*
X103081551Y-33611764D01*
X103035460Y-33500493D01*
X103021962Y-33467904D01*
X103021957Y-33467895D01*
X102935451Y-33338430D01*
X102935448Y-33338426D01*
X102825346Y-33228324D01*
X102825342Y-33228321D01*
X102695877Y-33141815D01*
X102695868Y-33141810D01*
X102552009Y-33082222D01*
X102552001Y-33082220D01*
X102399290Y-33051844D01*
X102399286Y-33051844D01*
X102243572Y-33051844D01*
X102243567Y-33051844D01*
X102090856Y-33082220D01*
X102090848Y-33082222D01*
X101946989Y-33141810D01*
X101946980Y-33141815D01*
X101817515Y-33228321D01*
X101817511Y-33228324D01*
X101707409Y-33338426D01*
X101707406Y-33338430D01*
X101620900Y-33467895D01*
X101620895Y-33467904D01*
X101561307Y-33611763D01*
X101561305Y-33611771D01*
X101530929Y-33764482D01*
X101530929Y-33920205D01*
X101561305Y-34072916D01*
X101561307Y-34072924D01*
X101620895Y-34216783D01*
X101620900Y-34216792D01*
X101707406Y-34346257D01*
X101708402Y-34347253D01*
X101708757Y-34347904D01*
X101711272Y-34350968D01*
X101710691Y-34351444D01*
X101741893Y-34408572D01*
X101744729Y-34434942D01*
X101744729Y-38047551D01*
X101725044Y-38114590D01*
X101677028Y-38158034D01*
X101658163Y-38167646D01*
X101553985Y-38243336D01*
X101497011Y-38284731D01*
X101497009Y-38284733D01*
X101497008Y-38284733D01*
X101356162Y-38425579D01*
X101356162Y-38425580D01*
X101356160Y-38425582D01*
X101305876Y-38494790D01*
X101239076Y-38586733D01*
X101148642Y-38764219D01*
X101087090Y-38953656D01*
X101087090Y-38953659D01*
X101055929Y-39150403D01*
X97122643Y-39150403D01*
X97091482Y-38953661D01*
X97091481Y-38953657D01*
X97091481Y-38953656D01*
X97029929Y-38764219D01*
X96972003Y-38650533D01*
X96939496Y-38586734D01*
X96822412Y-38425582D01*
X96681561Y-38284731D01*
X96558857Y-38195581D01*
X96520408Y-38167646D01*
X96501544Y-38158034D01*
X96450750Y-38110058D01*
X96433843Y-38047551D01*
X96433843Y-20922138D01*
X104709500Y-20922138D01*
X104709500Y-21077861D01*
X104739876Y-21230572D01*
X104739878Y-21230580D01*
X104799466Y-21374439D01*
X104799471Y-21374448D01*
X104885977Y-21503913D01*
X104885980Y-21503917D01*
X104996082Y-21614019D01*
X104996086Y-21614022D01*
X105125551Y-21700528D01*
X105125557Y-21700531D01*
X105125558Y-21700532D01*
X105269420Y-21760122D01*
X105412214Y-21788525D01*
X105422138Y-21790499D01*
X105422142Y-21790500D01*
X105422143Y-21790500D01*
X105577858Y-21790500D01*
X105577859Y-21790499D01*
X105730580Y-21760122D01*
X105874442Y-21700532D01*
X106003914Y-21614022D01*
X106114022Y-21503914D01*
X106200532Y-21374442D01*
X106260122Y-21230580D01*
X106290500Y-21077857D01*
X106290500Y-20922143D01*
X106260122Y-20769420D01*
X106200532Y-20625558D01*
X106200531Y-20625557D01*
X106200528Y-20625551D01*
X106114022Y-20496086D01*
X106114019Y-20496082D01*
X106003917Y-20385980D01*
X106003913Y-20385977D01*
X105874448Y-20299471D01*
X105874439Y-20299466D01*
X105730580Y-20239878D01*
X105730572Y-20239876D01*
X105577861Y-20209500D01*
X105577857Y-20209500D01*
X105422143Y-20209500D01*
X105422138Y-20209500D01*
X105269427Y-20239876D01*
X105269419Y-20239878D01*
X105125560Y-20299466D01*
X105125551Y-20299471D01*
X104996086Y-20385977D01*
X104996082Y-20385980D01*
X104885980Y-20496082D01*
X104885977Y-20496086D01*
X104799471Y-20625551D01*
X104799466Y-20625560D01*
X104739878Y-20769419D01*
X104739876Y-20769427D01*
X104709500Y-20922138D01*
X96433843Y-20922138D01*
X96433843Y-18922138D01*
X104709500Y-18922138D01*
X104709500Y-19077861D01*
X104739876Y-19230572D01*
X104739878Y-19230580D01*
X104799466Y-19374439D01*
X104799471Y-19374448D01*
X104885977Y-19503913D01*
X104885980Y-19503917D01*
X104996082Y-19614019D01*
X104996086Y-19614022D01*
X105125551Y-19700528D01*
X105125560Y-19700533D01*
X105151981Y-19711477D01*
X105269420Y-19760122D01*
X105406543Y-19787397D01*
X105422138Y-19790499D01*
X105422142Y-19790500D01*
X105422143Y-19790500D01*
X105577858Y-19790500D01*
X105577859Y-19790499D01*
X105730580Y-19760122D01*
X105874442Y-19700532D01*
X106003914Y-19614022D01*
X106114022Y-19503914D01*
X106200532Y-19374442D01*
X106260122Y-19230580D01*
X106290500Y-19077857D01*
X106290500Y-18922143D01*
X106260122Y-18769420D01*
X106200532Y-18625558D01*
X106200531Y-18625557D01*
X106200528Y-18625551D01*
X106114022Y-18496086D01*
X106114019Y-18496082D01*
X106003917Y-18385980D01*
X106003913Y-18385977D01*
X105874448Y-18299471D01*
X105874439Y-18299466D01*
X105730580Y-18239878D01*
X105730572Y-18239876D01*
X105577861Y-18209500D01*
X105577857Y-18209500D01*
X105422143Y-18209500D01*
X105422138Y-18209500D01*
X105269427Y-18239876D01*
X105269419Y-18239878D01*
X105125560Y-18299466D01*
X105125551Y-18299471D01*
X104996086Y-18385977D01*
X104996082Y-18385980D01*
X104885980Y-18496082D01*
X104885977Y-18496086D01*
X104799471Y-18625551D01*
X104799466Y-18625560D01*
X104739878Y-18769419D01*
X104739876Y-18769427D01*
X104709500Y-18922138D01*
X96433843Y-18922138D01*
X96433843Y-15922138D01*
X111709500Y-15922138D01*
X111709500Y-16077861D01*
X111739876Y-16230572D01*
X111739878Y-16230580D01*
X111799466Y-16374439D01*
X111799471Y-16374448D01*
X111885977Y-16503913D01*
X111885980Y-16503917D01*
X111996082Y-16614019D01*
X111996086Y-16614022D01*
X112125551Y-16700528D01*
X112125557Y-16700531D01*
X112125558Y-16700532D01*
X112269420Y-16760122D01*
X112422138Y-16790499D01*
X112422142Y-16790500D01*
X112422143Y-16790500D01*
X112577858Y-16790500D01*
X112577859Y-16790499D01*
X112730580Y-16760122D01*
X112874442Y-16700532D01*
X113003914Y-16614022D01*
X113114022Y-16503914D01*
X113200532Y-16374442D01*
X113260122Y-16230580D01*
X113283075Y-16115186D01*
X124849500Y-16115186D01*
X124849500Y-16384813D01*
X124879686Y-16652719D01*
X124879688Y-16652731D01*
X124939684Y-16915594D01*
X124939687Y-16915602D01*
X125028734Y-17170082D01*
X125145714Y-17412994D01*
X125145716Y-17412997D01*
X125289162Y-17641289D01*
X125457266Y-17852085D01*
X125647915Y-18042734D01*
X125858711Y-18210838D01*
X126037198Y-18322989D01*
X126087005Y-18354285D01*
X126165626Y-18392147D01*
X126329921Y-18471267D01*
X126487034Y-18526243D01*
X126584397Y-18560312D01*
X126584405Y-18560315D01*
X126584408Y-18560315D01*
X126584409Y-18560316D01*
X126847268Y-18620312D01*
X127115187Y-18650499D01*
X127115188Y-18650500D01*
X127115191Y-18650500D01*
X127384812Y-18650500D01*
X127384812Y-18650499D01*
X127652732Y-18620312D01*
X127915591Y-18560316D01*
X128170079Y-18471267D01*
X128412997Y-18354284D01*
X128641289Y-18210838D01*
X128852085Y-18042734D01*
X129042734Y-17852085D01*
X129210838Y-17641289D01*
X129354284Y-17412997D01*
X129471267Y-17170079D01*
X129560316Y-16915591D01*
X129620312Y-16652732D01*
X129650500Y-16384809D01*
X129650500Y-16115191D01*
X129620312Y-15847268D01*
X129560316Y-15584409D01*
X129471267Y-15329921D01*
X129354284Y-15087003D01*
X129210838Y-14858711D01*
X129042734Y-14647915D01*
X128852085Y-14457266D01*
X128641289Y-14289162D01*
X128412997Y-14145716D01*
X128412994Y-14145714D01*
X128170082Y-14028734D01*
X127915602Y-13939687D01*
X127915594Y-13939684D01*
X127718446Y-13894687D01*
X127652732Y-13879688D01*
X127652728Y-13879687D01*
X127652719Y-13879686D01*
X127384813Y-13849500D01*
X127384809Y-13849500D01*
X127115191Y-13849500D01*
X127115186Y-13849500D01*
X126847280Y-13879686D01*
X126847268Y-13879688D01*
X126584405Y-13939684D01*
X126584397Y-13939687D01*
X126329917Y-14028734D01*
X126087005Y-14145714D01*
X125858712Y-14289161D01*
X125647915Y-14457265D01*
X125457265Y-14647915D01*
X125289161Y-14858712D01*
X125145714Y-15087005D01*
X125028734Y-15329917D01*
X124939687Y-15584397D01*
X124939684Y-15584405D01*
X124879688Y-15847268D01*
X124879686Y-15847280D01*
X124849500Y-16115186D01*
X113283075Y-16115186D01*
X113290500Y-16077857D01*
X113290500Y-15922143D01*
X113260122Y-15769420D01*
X113200532Y-15625558D01*
X113200531Y-15625557D01*
X113200528Y-15625551D01*
X113114022Y-15496086D01*
X113114019Y-15496082D01*
X113003917Y-15385980D01*
X113003913Y-15385977D01*
X112874448Y-15299471D01*
X112874439Y-15299466D01*
X112730580Y-15239878D01*
X112730572Y-15239876D01*
X112577861Y-15209500D01*
X112577857Y-15209500D01*
X112422143Y-15209500D01*
X112422138Y-15209500D01*
X112269427Y-15239876D01*
X112269419Y-15239878D01*
X112125560Y-15299466D01*
X112125551Y-15299471D01*
X111996086Y-15385977D01*
X111996082Y-15385980D01*
X111885980Y-15496082D01*
X111885977Y-15496086D01*
X111799471Y-15625551D01*
X111799466Y-15625560D01*
X111739878Y-15769419D01*
X111739876Y-15769427D01*
X111709500Y-15922138D01*
X96433843Y-15922138D01*
X96433843Y-13897520D01*
X96453528Y-13830481D01*
X96488954Y-13794417D01*
X96503914Y-13784422D01*
X96614022Y-13674314D01*
X96700532Y-13544842D01*
X96760122Y-13400980D01*
X96790500Y-13248257D01*
X96790500Y-13092543D01*
X96760122Y-12939820D01*
X96700532Y-12795958D01*
X96700531Y-12795957D01*
X96700528Y-12795951D01*
X96614022Y-12666486D01*
X96614019Y-12666482D01*
X96503917Y-12556380D01*
X96503913Y-12556377D01*
X96374448Y-12469871D01*
X96374439Y-12469866D01*
X96230580Y-12410278D01*
X96230572Y-12410276D01*
X96077861Y-12379900D01*
X96077857Y-12379900D01*
X95922143Y-12379900D01*
X95922138Y-12379900D01*
X95769427Y-12410276D01*
X95769419Y-12410278D01*
X95625560Y-12469866D01*
X95625551Y-12469871D01*
X95496086Y-12556377D01*
X95496082Y-12556380D01*
X95385980Y-12666482D01*
X95385977Y-12666486D01*
X95299471Y-12795951D01*
X95299466Y-12795960D01*
X95239878Y-12939819D01*
X95239876Y-12939827D01*
X95209500Y-13092538D01*
X95209500Y-13248261D01*
X95239876Y-13400972D01*
X95239878Y-13400980D01*
X95271004Y-13476123D01*
X95280443Y-13523576D01*
X95280443Y-38047551D01*
X95260758Y-38114590D01*
X95212742Y-38158034D01*
X95193877Y-38167646D01*
X95089699Y-38243336D01*
X95032725Y-38284731D01*
X95032723Y-38284733D01*
X95032722Y-38284733D01*
X94891876Y-38425579D01*
X94891876Y-38425580D01*
X94891874Y-38425582D01*
X94841590Y-38494790D01*
X94774790Y-38586733D01*
X94684356Y-38764219D01*
X94622804Y-38953656D01*
X94622804Y-38953659D01*
X94591643Y-39150403D01*
X90658357Y-39150403D01*
X90627196Y-38953661D01*
X90627195Y-38953657D01*
X90627195Y-38953656D01*
X90565643Y-38764219D01*
X90507717Y-38650533D01*
X90475210Y-38586734D01*
X90358126Y-38425582D01*
X90217275Y-38284731D01*
X90094571Y-38195581D01*
X90056122Y-38167646D01*
X90037258Y-38158034D01*
X89986464Y-38110058D01*
X89969557Y-38047551D01*
X89969557Y-36728341D01*
X89989242Y-36661302D01*
X90005871Y-36640664D01*
X90114022Y-36532514D01*
X90200532Y-36403042D01*
X90260122Y-36259180D01*
X90290500Y-36106457D01*
X90290500Y-35950743D01*
X90260122Y-35798020D01*
X90200532Y-35654158D01*
X90200531Y-35654157D01*
X90200528Y-35654151D01*
X90114022Y-35524686D01*
X90114019Y-35524682D01*
X90003917Y-35414580D01*
X90003913Y-35414577D01*
X89874448Y-35328071D01*
X89874439Y-35328066D01*
X89730580Y-35268478D01*
X89730572Y-35268476D01*
X89577861Y-35238100D01*
X89577857Y-35238100D01*
X89422143Y-35238100D01*
X89422138Y-35238100D01*
X89269427Y-35268476D01*
X89269419Y-35268478D01*
X89125560Y-35328066D01*
X89125551Y-35328071D01*
X88996086Y-35414577D01*
X88996082Y-35414580D01*
X88885980Y-35524682D01*
X88885977Y-35524686D01*
X88799471Y-35654151D01*
X88799466Y-35654160D01*
X88739878Y-35798019D01*
X88739876Y-35798027D01*
X88709500Y-35950738D01*
X88709500Y-36106461D01*
X88739876Y-36259172D01*
X88739878Y-36259180D01*
X88799467Y-36403042D01*
X88801513Y-36406868D01*
X88816157Y-36465325D01*
X88816157Y-38047551D01*
X88796472Y-38114590D01*
X88748456Y-38158034D01*
X88729591Y-38167646D01*
X88625413Y-38243336D01*
X88568439Y-38284731D01*
X88568437Y-38284733D01*
X88568436Y-38284733D01*
X88427590Y-38425579D01*
X88427590Y-38425580D01*
X88427588Y-38425582D01*
X88377304Y-38494790D01*
X88310504Y-38586733D01*
X88220070Y-38764219D01*
X88158518Y-38953656D01*
X88158518Y-38953659D01*
X88127357Y-39150403D01*
X84194071Y-39150403D01*
X84162910Y-38953661D01*
X84162909Y-38953657D01*
X84162909Y-38953656D01*
X84101357Y-38764219D01*
X84043431Y-38650533D01*
X84010924Y-38586734D01*
X83893840Y-38425582D01*
X83752989Y-38284731D01*
X83630285Y-38195581D01*
X83591836Y-38167646D01*
X83572972Y-38158034D01*
X83522178Y-38110058D01*
X83505271Y-38047551D01*
X83505271Y-36164027D01*
X83524956Y-36096988D01*
X83541585Y-36076350D01*
X83614022Y-36003914D01*
X83700532Y-35874442D01*
X83760122Y-35730580D01*
X83790500Y-35577857D01*
X83790500Y-35422143D01*
X83760122Y-35269420D01*
X83700532Y-35125558D01*
X83700531Y-35125557D01*
X83700528Y-35125551D01*
X83614022Y-34996086D01*
X83614019Y-34996082D01*
X83503917Y-34885980D01*
X83503913Y-34885977D01*
X83374448Y-34799471D01*
X83374439Y-34799466D01*
X83230580Y-34739878D01*
X83230572Y-34739876D01*
X83077861Y-34709500D01*
X83077857Y-34709500D01*
X82922143Y-34709500D01*
X82922138Y-34709500D01*
X82769427Y-34739876D01*
X82769419Y-34739878D01*
X82625560Y-34799466D01*
X82625551Y-34799471D01*
X82496086Y-34885977D01*
X82496082Y-34885980D01*
X82385980Y-34996082D01*
X82385977Y-34996086D01*
X82299471Y-35125551D01*
X82299466Y-35125560D01*
X82239878Y-35269419D01*
X82239876Y-35269427D01*
X82209500Y-35422138D01*
X82209500Y-35577861D01*
X82239876Y-35730572D01*
X82239878Y-35730580D01*
X82299466Y-35874439D01*
X82299472Y-35874449D01*
X82330972Y-35921591D01*
X82351851Y-35988268D01*
X82351871Y-35990483D01*
X82351871Y-38047551D01*
X82332186Y-38114590D01*
X82284170Y-38158034D01*
X82265305Y-38167646D01*
X82161127Y-38243336D01*
X82104153Y-38284731D01*
X82104151Y-38284733D01*
X82104150Y-38284733D01*
X81963304Y-38425579D01*
X81963304Y-38425580D01*
X81963302Y-38425582D01*
X81913018Y-38494790D01*
X81846218Y-38586733D01*
X81755784Y-38764219D01*
X81694232Y-38953656D01*
X81694232Y-38953659D01*
X81663071Y-39150403D01*
X77729281Y-39150403D01*
X77698138Y-38953777D01*
X77636606Y-38764405D01*
X77546210Y-38586994D01*
X77518703Y-38549135D01*
X77518703Y-38549134D01*
X76955414Y-39112424D01*
X76939531Y-39053147D01*
X76872388Y-38936853D01*
X76777433Y-38841898D01*
X76661139Y-38774755D01*
X76601860Y-38758871D01*
X77165150Y-38195581D01*
X77165149Y-38195580D01*
X77127294Y-38168077D01*
X76949880Y-38077679D01*
X76760508Y-38016147D01*
X76563849Y-37985000D01*
X76364723Y-37985000D01*
X76168063Y-38016147D01*
X75978691Y-38077679D01*
X75801276Y-38168077D01*
X75763421Y-38195580D01*
X75763421Y-38195581D01*
X76326711Y-38758871D01*
X76267433Y-38774755D01*
X76151139Y-38841898D01*
X76056184Y-38936853D01*
X75989041Y-39053147D01*
X75973157Y-39112425D01*
X75409867Y-38549135D01*
X75409866Y-38549135D01*
X75382363Y-38586990D01*
X75291965Y-38764405D01*
X75230433Y-38953777D01*
X75199286Y-39150436D01*
X71265000Y-39150436D01*
X71233852Y-38953777D01*
X71172320Y-38764405D01*
X71081924Y-38586994D01*
X71054417Y-38549135D01*
X71054417Y-38549134D01*
X70491128Y-39112424D01*
X70475245Y-39053147D01*
X70408102Y-38936853D01*
X70313147Y-38841898D01*
X70196853Y-38774755D01*
X70137574Y-38758871D01*
X70700864Y-38195581D01*
X70700863Y-38195580D01*
X70663008Y-38168077D01*
X70485594Y-38077679D01*
X70296222Y-38016147D01*
X70099563Y-37985000D01*
X69900437Y-37985000D01*
X69703777Y-38016147D01*
X69514405Y-38077679D01*
X69336990Y-38168077D01*
X69299135Y-38195580D01*
X69299135Y-38195581D01*
X69862425Y-38758871D01*
X69803147Y-38774755D01*
X69686853Y-38841898D01*
X69591898Y-38936853D01*
X69524755Y-39053147D01*
X69508871Y-39112425D01*
X68945581Y-38549135D01*
X68945580Y-38549135D01*
X68918077Y-38586990D01*
X68827679Y-38764405D01*
X68766147Y-38953777D01*
X68735000Y-39150436D01*
X66826700Y-39150436D01*
X66826700Y-36914500D01*
X66846385Y-36847461D01*
X66899189Y-36801706D01*
X66950700Y-36790500D01*
X67077858Y-36790500D01*
X67077859Y-36790499D01*
X67230580Y-36760122D01*
X67374442Y-36700532D01*
X67503914Y-36614022D01*
X67614022Y-36503914D01*
X67646898Y-36454710D01*
X67700509Y-36409907D01*
X67769834Y-36401198D01*
X67832862Y-36431353D01*
X67853100Y-36454709D01*
X67860194Y-36465325D01*
X67885979Y-36503916D01*
X67996082Y-36614019D01*
X67996086Y-36614022D01*
X68125551Y-36700528D01*
X68125557Y-36700531D01*
X68125558Y-36700532D01*
X68269420Y-36760122D01*
X68413199Y-36788721D01*
X68422138Y-36790499D01*
X68422142Y-36790500D01*
X68422143Y-36790500D01*
X68577858Y-36790500D01*
X68577859Y-36790499D01*
X68730580Y-36760122D01*
X68874442Y-36700532D01*
X69003914Y-36614022D01*
X69114022Y-36503914D01*
X69200532Y-36374442D01*
X69260122Y-36230580D01*
X69290500Y-36077857D01*
X69290500Y-35922143D01*
X69260122Y-35769420D01*
X69200532Y-35625558D01*
X69200531Y-35625557D01*
X69200528Y-35625551D01*
X69114022Y-35496086D01*
X69114019Y-35496082D01*
X69113019Y-35495082D01*
X69112662Y-35494428D01*
X69110157Y-35491376D01*
X69110735Y-35490900D01*
X69105091Y-35480563D01*
X69093149Y-35469116D01*
X69088692Y-35450532D01*
X69079534Y-35433759D01*
X69076700Y-35407401D01*
X69076700Y-27342598D01*
X69096385Y-27275559D01*
X69113027Y-27254909D01*
X69114022Y-27253914D01*
X69146898Y-27204710D01*
X69170642Y-27184867D01*
X69193002Y-27163478D01*
X69197216Y-27162658D01*
X69200509Y-27159907D01*
X69231213Y-27156049D01*
X69261588Y-27150145D01*
X69265573Y-27151733D01*
X69269834Y-27151198D01*
X69297754Y-27164556D01*
X69326494Y-27176008D01*
X69330547Y-27180245D01*
X69332862Y-27181353D01*
X69344934Y-27195285D01*
X69350891Y-27201512D01*
X69352020Y-27203092D01*
X69385978Y-27253914D01*
X69394231Y-27262167D01*
X69400191Y-27270508D01*
X69423150Y-27336498D01*
X69423300Y-27342598D01*
X69423300Y-35174076D01*
X69423300Y-35325924D01*
X69439392Y-35385980D01*
X69455275Y-35445256D01*
X69454920Y-35460165D01*
X69459500Y-35477349D01*
X69459500Y-35577861D01*
X69470392Y-35632622D01*
X69470396Y-35632636D01*
X69489878Y-35730580D01*
X69517495Y-35797253D01*
X69517496Y-35797256D01*
X69549466Y-35874438D01*
X69549471Y-35874448D01*
X69635977Y-36003913D01*
X69635980Y-36003917D01*
X69746082Y-36114019D01*
X69746086Y-36114022D01*
X69875551Y-36200528D01*
X69875557Y-36200531D01*
X69875558Y-36200532D01*
X70019420Y-36260122D01*
X70172138Y-36290499D01*
X70172142Y-36290500D01*
X70172143Y-36290500D01*
X70327858Y-36290500D01*
X70327859Y-36290499D01*
X70480580Y-36260122D01*
X70624442Y-36200532D01*
X70753914Y-36114022D01*
X70864022Y-36003914D01*
X70950532Y-35874442D01*
X71010122Y-35730580D01*
X71040500Y-35577857D01*
X71040500Y-35422143D01*
X71010122Y-35269420D01*
X70950532Y-35125558D01*
X70950531Y-35125557D01*
X70950528Y-35125551D01*
X70864022Y-34996086D01*
X70864019Y-34996082D01*
X70753917Y-34885980D01*
X70753913Y-34885977D01*
X70631809Y-34804389D01*
X70587004Y-34750777D01*
X70576700Y-34701287D01*
X70576700Y-34293082D01*
X73680900Y-34293082D01*
X73680900Y-34448805D01*
X73711276Y-34601516D01*
X73711278Y-34601524D01*
X73770866Y-34745383D01*
X73770871Y-34745392D01*
X73857377Y-34874857D01*
X73857380Y-34874861D01*
X73967482Y-34984963D01*
X73967486Y-34984966D01*
X74096951Y-35071472D01*
X74096957Y-35071475D01*
X74096958Y-35071476D01*
X74240820Y-35131066D01*
X74393543Y-35161444D01*
X74393548Y-35161444D01*
X74399604Y-35162041D01*
X74399397Y-35164135D01*
X74457272Y-35181129D01*
X74503027Y-35233933D01*
X74504794Y-35237991D01*
X74549466Y-35345838D01*
X74549471Y-35345848D01*
X74635977Y-35475313D01*
X74635980Y-35475317D01*
X74746082Y-35585419D01*
X74746086Y-35585422D01*
X74875551Y-35671928D01*
X74875557Y-35671931D01*
X74875558Y-35671932D01*
X75019420Y-35731522D01*
X75172138Y-35761899D01*
X75172142Y-35761900D01*
X75172143Y-35761900D01*
X75327858Y-35761900D01*
X75327859Y-35761899D01*
X75480580Y-35731522D01*
X75624442Y-35671932D01*
X75753914Y-35585422D01*
X75864022Y-35475314D01*
X75950532Y-35345842D01*
X76010122Y-35201980D01*
X76040500Y-35049257D01*
X76040500Y-34893543D01*
X76010122Y-34740820D01*
X75950532Y-34596958D01*
X75950531Y-34596957D01*
X75950528Y-34596951D01*
X75864022Y-34467486D01*
X75864019Y-34467482D01*
X75753917Y-34357380D01*
X75753913Y-34357377D01*
X75631809Y-34275789D01*
X75587004Y-34222177D01*
X75576700Y-34172687D01*
X75576700Y-25342598D01*
X75596385Y-25275559D01*
X75613027Y-25254909D01*
X75614022Y-25253914D01*
X75700532Y-25124442D01*
X75760122Y-24980580D01*
X75790500Y-24827857D01*
X75790500Y-24672143D01*
X75760122Y-24519420D01*
X75700532Y-24375558D01*
X75700531Y-24375557D01*
X75700528Y-24375551D01*
X75614022Y-24246086D01*
X75614019Y-24246082D01*
X75503917Y-24135980D01*
X75503913Y-24135977D01*
X75374449Y-24049472D01*
X75374440Y-24049467D01*
X75367045Y-24046404D01*
X75312643Y-24002562D01*
X75290579Y-23936268D01*
X75290500Y-23931844D01*
X75290500Y-23922142D01*
X75290499Y-23922138D01*
X75281266Y-23875722D01*
X75260122Y-23769420D01*
X75200532Y-23625558D01*
X75200531Y-23625557D01*
X75200528Y-23625551D01*
X75114022Y-23496086D01*
X75114019Y-23496082D01*
X75003917Y-23385980D01*
X75003913Y-23385977D01*
X74874448Y-23299471D01*
X74874439Y-23299466D01*
X74730580Y-23239878D01*
X74730572Y-23239876D01*
X74577861Y-23209500D01*
X74577857Y-23209500D01*
X74422143Y-23209500D01*
X74422138Y-23209500D01*
X74269427Y-23239876D01*
X74269419Y-23239878D01*
X74125560Y-23299466D01*
X74125551Y-23299471D01*
X73996086Y-23385977D01*
X73996082Y-23385980D01*
X73885980Y-23496082D01*
X73885977Y-23496086D01*
X73799471Y-23625551D01*
X73799466Y-23625560D01*
X73739878Y-23769419D01*
X73739876Y-23769427D01*
X73709500Y-23922138D01*
X73709500Y-24077861D01*
X73739876Y-24230572D01*
X73739878Y-24230580D01*
X73799466Y-24374439D01*
X73799471Y-24374448D01*
X73872802Y-24484195D01*
X73893680Y-24550873D01*
X73893700Y-24553086D01*
X73893700Y-33779345D01*
X73874015Y-33846384D01*
X73861201Y-33862285D01*
X73861243Y-33862320D01*
X73857377Y-33867030D01*
X73770871Y-33996495D01*
X73770866Y-33996504D01*
X73711278Y-34140363D01*
X73711276Y-34140371D01*
X73680900Y-34293082D01*
X70576700Y-34293082D01*
X70576700Y-27342598D01*
X70596385Y-27275559D01*
X70613027Y-27254909D01*
X70614022Y-27253914D01*
X70700532Y-27124442D01*
X70760122Y-26980580D01*
X70790500Y-26827857D01*
X70790500Y-26672143D01*
X70760122Y-26519420D01*
X70700532Y-26375558D01*
X70700531Y-26375557D01*
X70700528Y-26375551D01*
X70614022Y-26246086D01*
X70614019Y-26246082D01*
X70503917Y-26135980D01*
X70503913Y-26135977D01*
X70374448Y-26049471D01*
X70374439Y-26049466D01*
X70230580Y-25989878D01*
X70230572Y-25989876D01*
X70077861Y-25959500D01*
X70077857Y-25959500D01*
X69922143Y-25959500D01*
X69922138Y-25959500D01*
X69769427Y-25989876D01*
X69769419Y-25989878D01*
X69625560Y-26049466D01*
X69625551Y-26049471D01*
X69496086Y-26135977D01*
X69496082Y-26135980D01*
X69385980Y-26246082D01*
X69353102Y-26295288D01*
X69299489Y-26340092D01*
X69230164Y-26348799D01*
X69167137Y-26318644D01*
X69146898Y-26295288D01*
X69114019Y-26246082D01*
X69003917Y-26135980D01*
X69003913Y-26135977D01*
X68874448Y-26049471D01*
X68874439Y-26049466D01*
X68730580Y-25989878D01*
X68730572Y-25989876D01*
X68577861Y-25959500D01*
X68577857Y-25959500D01*
X68422143Y-25959500D01*
X68422138Y-25959500D01*
X68269427Y-25989876D01*
X68269419Y-25989878D01*
X68125560Y-26049466D01*
X68125551Y-26049471D01*
X67996086Y-26135977D01*
X67996082Y-26135980D01*
X67885980Y-26246082D01*
X67853102Y-26295288D01*
X67799489Y-26340092D01*
X67730164Y-26348799D01*
X67667137Y-26318644D01*
X67646898Y-26295288D01*
X67614019Y-26246082D01*
X67503917Y-26135980D01*
X67503913Y-26135977D01*
X67374448Y-26049471D01*
X67374439Y-26049466D01*
X67230580Y-25989878D01*
X67230574Y-25989876D01*
X67153353Y-25974516D01*
X67091442Y-25942131D01*
X67056868Y-25881415D01*
X67060608Y-25811646D01*
X67089866Y-25765216D01*
X67107899Y-25747183D01*
X67107901Y-25747181D01*
X67194411Y-25617709D01*
X67254001Y-25473847D01*
X67284379Y-25321124D01*
X67284379Y-25165410D01*
X67254001Y-25012687D01*
X67194411Y-24868825D01*
X67194410Y-24868824D01*
X67194407Y-24868818D01*
X67107901Y-24739353D01*
X67107898Y-24739349D01*
X67014361Y-24645812D01*
X66980876Y-24584489D01*
X66985860Y-24514797D01*
X66998937Y-24489242D01*
X67025532Y-24449442D01*
X67085122Y-24305580D01*
X67115500Y-24152857D01*
X67115500Y-23997143D01*
X67085122Y-23844420D01*
X67025532Y-23700558D01*
X67025531Y-23700557D01*
X67025528Y-23700551D01*
X66939022Y-23571086D01*
X66939019Y-23571082D01*
X66930617Y-23562680D01*
X66897132Y-23501357D01*
X66902116Y-23431665D01*
X66930615Y-23387320D01*
X66964022Y-23353914D01*
X67050532Y-23224442D01*
X67110122Y-23080580D01*
X67140500Y-22927857D01*
X67140500Y-22922138D01*
X76709500Y-22922138D01*
X76709500Y-23077861D01*
X76739876Y-23230572D01*
X76739878Y-23230580D01*
X76799466Y-23374439D01*
X76799471Y-23374448D01*
X76885977Y-23503913D01*
X76886973Y-23504909D01*
X76887328Y-23505560D01*
X76889843Y-23508624D01*
X76889262Y-23509100D01*
X76920464Y-23566228D01*
X76923300Y-23592598D01*
X76923300Y-33249745D01*
X76903615Y-33316784D01*
X76886981Y-33337426D01*
X76885980Y-33338426D01*
X76885977Y-33338430D01*
X76799471Y-33467895D01*
X76799466Y-33467904D01*
X76739878Y-33611763D01*
X76739876Y-33611771D01*
X76709500Y-33764482D01*
X76709500Y-33920205D01*
X76739876Y-34072916D01*
X76739878Y-34072924D01*
X76799466Y-34216783D01*
X76799471Y-34216792D01*
X76885977Y-34346257D01*
X76885980Y-34346261D01*
X76996082Y-34456363D01*
X76996086Y-34456366D01*
X77125551Y-34542872D01*
X77125557Y-34542875D01*
X77125558Y-34542876D01*
X77269420Y-34602466D01*
X77422138Y-34632843D01*
X77422142Y-34632844D01*
X77422143Y-34632844D01*
X77577858Y-34632844D01*
X77577859Y-34632843D01*
X77730580Y-34602466D01*
X77874442Y-34542876D01*
X78003914Y-34456366D01*
X78114022Y-34346258D01*
X78200532Y-34216786D01*
X78260122Y-34072924D01*
X78290500Y-33920201D01*
X78290500Y-33764487D01*
X78260122Y-33611764D01*
X78214031Y-33500493D01*
X78200533Y-33467904D01*
X78200528Y-33467895D01*
X78114022Y-33338430D01*
X78114019Y-33338426D01*
X78113019Y-33337426D01*
X78112662Y-33336772D01*
X78110157Y-33333720D01*
X78110735Y-33333244D01*
X78079534Y-33276103D01*
X78076700Y-33249745D01*
X78076700Y-23592598D01*
X78096385Y-23525559D01*
X78113027Y-23504909D01*
X78114022Y-23503914D01*
X78200532Y-23374442D01*
X78260122Y-23230580D01*
X78290500Y-23077857D01*
X78290500Y-22922143D01*
X78260122Y-22769420D01*
X78200532Y-22625558D01*
X78200531Y-22625557D01*
X78200528Y-22625551D01*
X78114022Y-22496086D01*
X78114019Y-22496082D01*
X78003917Y-22385980D01*
X78003913Y-22385977D01*
X77874448Y-22299471D01*
X77874439Y-22299466D01*
X77730580Y-22239878D01*
X77730572Y-22239876D01*
X77577861Y-22209500D01*
X77577857Y-22209500D01*
X77422143Y-22209500D01*
X77422138Y-22209500D01*
X77269427Y-22239876D01*
X77269419Y-22239878D01*
X77125560Y-22299466D01*
X77125551Y-22299471D01*
X76996086Y-22385977D01*
X76996082Y-22385980D01*
X76885980Y-22496082D01*
X76885977Y-22496086D01*
X76799471Y-22625551D01*
X76799466Y-22625560D01*
X76739878Y-22769419D01*
X76739876Y-22769427D01*
X76709500Y-22922138D01*
X67140500Y-22922138D01*
X67140500Y-22772143D01*
X67110122Y-22619420D01*
X67050532Y-22475558D01*
X67050531Y-22475557D01*
X67050528Y-22475551D01*
X66964022Y-22346086D01*
X66964019Y-22346082D01*
X66939115Y-22321178D01*
X66905630Y-22259855D01*
X66910614Y-22190163D01*
X66923692Y-22164610D01*
X66950532Y-22124442D01*
X67010122Y-21980580D01*
X67040500Y-21827857D01*
X67040500Y-21672143D01*
X67010122Y-21519420D01*
X66950532Y-21375558D01*
X66950531Y-21375557D01*
X66950528Y-21375551D01*
X66864022Y-21246086D01*
X66864019Y-21246082D01*
X66753917Y-21135980D01*
X66753913Y-21135977D01*
X66624448Y-21049471D01*
X66624439Y-21049466D01*
X66480580Y-20989878D01*
X66480572Y-20989876D01*
X66327861Y-20959500D01*
X66327857Y-20959500D01*
X66172143Y-20959500D01*
X66172138Y-20959500D01*
X66019427Y-20989876D01*
X66019419Y-20989878D01*
X65875560Y-21049466D01*
X65875551Y-21049471D01*
X65746086Y-21135977D01*
X65746082Y-21135980D01*
X65635980Y-21246082D01*
X65635977Y-21246086D01*
X65549471Y-21375551D01*
X65549466Y-21375560D01*
X65489878Y-21519419D01*
X65489876Y-21519427D01*
X65459500Y-21672138D01*
X65459500Y-21673561D01*
X65459289Y-21674277D01*
X65458903Y-21678204D01*
X65458158Y-21678130D01*
X65439815Y-21740600D01*
X65423181Y-21761242D01*
X64038527Y-23145895D01*
X64038522Y-23145901D01*
X63962602Y-23277398D01*
X63962602Y-23277399D01*
X63962601Y-23277401D01*
X63962601Y-23277402D01*
X63956688Y-23299471D01*
X63923300Y-23424076D01*
X63923300Y-56959761D01*
X63903615Y-57026800D01*
X63886981Y-57047442D01*
X51011242Y-69923181D01*
X50949919Y-69956666D01*
X50923561Y-69959500D01*
X50922138Y-69959500D01*
X50769427Y-69989876D01*
X50769419Y-69989878D01*
X50625560Y-70049466D01*
X50625551Y-70049471D01*
X50496086Y-70135977D01*
X50496082Y-70135980D01*
X50385980Y-70246082D01*
X50385977Y-70246086D01*
X50299471Y-70375551D01*
X50299466Y-70375560D01*
X50239878Y-70519419D01*
X50239876Y-70519427D01*
X50209500Y-70672138D01*
X48650500Y-70672138D01*
X48650500Y-69161935D01*
X48670185Y-69094896D01*
X48671399Y-69093043D01*
X48700527Y-69049450D01*
X48700528Y-69049447D01*
X48700532Y-69049442D01*
X48760122Y-68905580D01*
X48790500Y-68752857D01*
X48790500Y-68597143D01*
X48760122Y-68444420D01*
X48700532Y-68300558D01*
X48700531Y-68300557D01*
X48700528Y-68300551D01*
X48614022Y-68171086D01*
X48614019Y-68171082D01*
X48503917Y-68060980D01*
X48503913Y-68060977D01*
X48374448Y-67974471D01*
X48374439Y-67974466D01*
X48230580Y-67914878D01*
X48230572Y-67914876D01*
X48077861Y-67884500D01*
X48077857Y-67884500D01*
X47922143Y-67884500D01*
X47922138Y-67884500D01*
X47769427Y-67914876D01*
X47769419Y-67914878D01*
X47625556Y-67974468D01*
X47593201Y-67996087D01*
X47526523Y-68016964D01*
X47459143Y-67998478D01*
X47436631Y-67980665D01*
X42473718Y-63017752D01*
X42440233Y-62956429D01*
X42445217Y-62886737D01*
X42448223Y-62880079D01*
X42448201Y-62880070D01*
X42472887Y-62820473D01*
X42510122Y-62730580D01*
X42540500Y-62577857D01*
X42540500Y-62422143D01*
X42510122Y-62269420D01*
X42450532Y-62125558D01*
X42450531Y-62125557D01*
X42450528Y-62125551D01*
X42364022Y-61996086D01*
X42364019Y-61996082D01*
X42253917Y-61885980D01*
X42253913Y-61885977D01*
X42124448Y-61799471D01*
X42124439Y-61799466D01*
X41980580Y-61739878D01*
X41980572Y-61739876D01*
X41827861Y-61709500D01*
X41827857Y-61709500D01*
X41672143Y-61709500D01*
X41672138Y-61709500D01*
X41519427Y-61739876D01*
X41519419Y-61739878D01*
X41375560Y-61799466D01*
X41375551Y-61799471D01*
X41246086Y-61885977D01*
X41246082Y-61885980D01*
X41135980Y-61996082D01*
X41135977Y-61996086D01*
X41049471Y-62125551D01*
X41049466Y-62125560D01*
X40989878Y-62269419D01*
X40989876Y-62269427D01*
X40959500Y-62422138D01*
X38326700Y-62422138D01*
X38326700Y-61040239D01*
X38346385Y-60973200D01*
X38363019Y-60952558D01*
X38891271Y-60424306D01*
X39961475Y-59354102D01*
X40037399Y-59222598D01*
X40076700Y-59075924D01*
X40076700Y-58924076D01*
X40076700Y-50922138D01*
X54959500Y-50922138D01*
X54959500Y-51077861D01*
X54989876Y-51230572D01*
X54989878Y-51230580D01*
X55049466Y-51374439D01*
X55049471Y-51374448D01*
X55135977Y-51503913D01*
X55135980Y-51503917D01*
X55246082Y-51614019D01*
X55246086Y-51614022D01*
X55375551Y-51700528D01*
X55375557Y-51700531D01*
X55375558Y-51700532D01*
X55519420Y-51760122D01*
X55672138Y-51790499D01*
X55672142Y-51790500D01*
X55672143Y-51790500D01*
X55673561Y-51790500D01*
X55674277Y-51790710D01*
X55678204Y-51791097D01*
X55678130Y-51791841D01*
X55740600Y-51810185D01*
X55761242Y-51826819D01*
X55895898Y-51961475D01*
X56027402Y-52037399D01*
X56174076Y-52076700D01*
X56174078Y-52076700D01*
X59325922Y-52076700D01*
X59325924Y-52076700D01*
X59472598Y-52037399D01*
X59604102Y-51961475D01*
X59988758Y-51576819D01*
X60050081Y-51543334D01*
X60076439Y-51540500D01*
X60077858Y-51540500D01*
X60077859Y-51540499D01*
X60230580Y-51510122D01*
X60374442Y-51450532D01*
X60503914Y-51364022D01*
X60614022Y-51253914D01*
X60700532Y-51124442D01*
X60760122Y-50980580D01*
X60790500Y-50827857D01*
X60790500Y-50672143D01*
X60760122Y-50519420D01*
X60700532Y-50375558D01*
X60700531Y-50375557D01*
X60700528Y-50375551D01*
X60614022Y-50246086D01*
X60614019Y-50246082D01*
X60503917Y-50135980D01*
X60503913Y-50135977D01*
X60374448Y-50049471D01*
X60374439Y-50049466D01*
X60230580Y-49989878D01*
X60230572Y-49989876D01*
X60077861Y-49959500D01*
X60077857Y-49959500D01*
X59922143Y-49959500D01*
X59922138Y-49959500D01*
X59769427Y-49989876D01*
X59769419Y-49989878D01*
X59625560Y-50049466D01*
X59625551Y-50049471D01*
X59496086Y-50135977D01*
X59496082Y-50135980D01*
X59385980Y-50246082D01*
X59385977Y-50246086D01*
X59299471Y-50375551D01*
X59299466Y-50375560D01*
X59239878Y-50519419D01*
X59239876Y-50519427D01*
X59209500Y-50672138D01*
X59209500Y-50673561D01*
X59209289Y-50674277D01*
X59208903Y-50678204D01*
X59208158Y-50678130D01*
X59200855Y-50703001D01*
X59194332Y-50732988D01*
X59190577Y-50738003D01*
X59189815Y-50740600D01*
X59173181Y-50761242D01*
X59047442Y-50886981D01*
X58986119Y-50920466D01*
X58959761Y-50923300D01*
X56642495Y-50923300D01*
X56575456Y-50903615D01*
X56529701Y-50850811D01*
X56520878Y-50823491D01*
X56510123Y-50769427D01*
X56510122Y-50769420D01*
X56450532Y-50625558D01*
X56450531Y-50625557D01*
X56450528Y-50625551D01*
X56364022Y-50496086D01*
X56364019Y-50496082D01*
X56253917Y-50385980D01*
X56253913Y-50385977D01*
X56124448Y-50299471D01*
X56124439Y-50299466D01*
X55980580Y-50239878D01*
X55980572Y-50239876D01*
X55827861Y-50209500D01*
X55827857Y-50209500D01*
X55672143Y-50209500D01*
X55672138Y-50209500D01*
X55519427Y-50239876D01*
X55519419Y-50239878D01*
X55375560Y-50299466D01*
X55375551Y-50299471D01*
X55246086Y-50385977D01*
X55246082Y-50385980D01*
X55135980Y-50496082D01*
X55135977Y-50496086D01*
X55049471Y-50625551D01*
X55049466Y-50625560D01*
X54989878Y-50769419D01*
X54989876Y-50769427D01*
X54959500Y-50922138D01*
X40076700Y-50922138D01*
X40076700Y-49059638D01*
X55322000Y-49059638D01*
X55322000Y-49215361D01*
X55352376Y-49368072D01*
X55352378Y-49368080D01*
X55411966Y-49511939D01*
X55411971Y-49511948D01*
X55498477Y-49641413D01*
X55498480Y-49641417D01*
X55608582Y-49751519D01*
X55608586Y-49751522D01*
X55738051Y-49838028D01*
X55738057Y-49838031D01*
X55738058Y-49838032D01*
X55881920Y-49897622D01*
X56034638Y-49927999D01*
X56034642Y-49928000D01*
X56034643Y-49928000D01*
X56190358Y-49928000D01*
X56190359Y-49927999D01*
X56343080Y-49897622D01*
X56486942Y-49838032D01*
X56616414Y-49751522D01*
X56726522Y-49641414D01*
X56813032Y-49511942D01*
X56858055Y-49403246D01*
X56901896Y-49348844D01*
X56968190Y-49326779D01*
X56972616Y-49326700D01*
X59407401Y-49326700D01*
X59474440Y-49346385D01*
X59495082Y-49363019D01*
X59496082Y-49364019D01*
X59496086Y-49364022D01*
X59625551Y-49450528D01*
X59625557Y-49450531D01*
X59625558Y-49450532D01*
X59769420Y-49510122D01*
X59922138Y-49540499D01*
X59922142Y-49540500D01*
X59922143Y-49540500D01*
X60077858Y-49540500D01*
X60077859Y-49540499D01*
X60230580Y-49510122D01*
X60374442Y-49450532D01*
X60503914Y-49364022D01*
X60614022Y-49253914D01*
X60700532Y-49124442D01*
X60760122Y-48980580D01*
X60790500Y-48827857D01*
X60790500Y-48672143D01*
X60760122Y-48519420D01*
X60700532Y-48375558D01*
X60700531Y-48375557D01*
X60700528Y-48375551D01*
X60614022Y-48246086D01*
X60614019Y-48246082D01*
X60503917Y-48135980D01*
X60503913Y-48135977D01*
X60374448Y-48049471D01*
X60374439Y-48049466D01*
X60230580Y-47989878D01*
X60230572Y-47989876D01*
X60077861Y-47959500D01*
X60077857Y-47959500D01*
X59922143Y-47959500D01*
X59922138Y-47959500D01*
X59769427Y-47989876D01*
X59769419Y-47989878D01*
X59625560Y-48049466D01*
X59625551Y-48049471D01*
X59496086Y-48135977D01*
X59496082Y-48135980D01*
X59495082Y-48136981D01*
X59494428Y-48137337D01*
X59491376Y-48139843D01*
X59490900Y-48139264D01*
X59433759Y-48170466D01*
X59407401Y-48173300D01*
X56575924Y-48173300D01*
X56424076Y-48173300D01*
X56277402Y-48212601D01*
X56277401Y-48212601D01*
X56277399Y-48212602D01*
X56277398Y-48212602D01*
X56145901Y-48288522D01*
X56145895Y-48288527D01*
X56123742Y-48310681D01*
X56062419Y-48344166D01*
X56036061Y-48347000D01*
X56034638Y-48347000D01*
X55881927Y-48377376D01*
X55881919Y-48377378D01*
X55738060Y-48436966D01*
X55738051Y-48436971D01*
X55608586Y-48523477D01*
X55608582Y-48523480D01*
X55498480Y-48633582D01*
X55498477Y-48633586D01*
X55411971Y-48763051D01*
X55411966Y-48763060D01*
X55352378Y-48906919D01*
X55352376Y-48906927D01*
X55322000Y-49059638D01*
X40076700Y-49059638D01*
X40076700Y-40922138D01*
X52459500Y-40922138D01*
X52459500Y-41077861D01*
X52489876Y-41230572D01*
X52489878Y-41230580D01*
X52549466Y-41374439D01*
X52549471Y-41374448D01*
X52635977Y-41503913D01*
X52635980Y-41503917D01*
X52746082Y-41614019D01*
X52746086Y-41614022D01*
X52875551Y-41700528D01*
X52875564Y-41700535D01*
X52931938Y-41723885D01*
X52973725Y-41741194D01*
X53028129Y-41785034D01*
X53040834Y-41808302D01*
X53081495Y-41906468D01*
X53081500Y-41906477D01*
X53168006Y-42035942D01*
X53168009Y-42035946D01*
X53278111Y-42146048D01*
X53278115Y-42146051D01*
X53407580Y-42232557D01*
X53407593Y-42232564D01*
X53463967Y-42255914D01*
X53505754Y-42273223D01*
X53560158Y-42317063D01*
X53572863Y-42340331D01*
X53613524Y-42438497D01*
X53613529Y-42438506D01*
X53700035Y-42567971D01*
X53700038Y-42567975D01*
X53810140Y-42678077D01*
X53810144Y-42678080D01*
X53939609Y-42764586D01*
X53939622Y-42764593D01*
X53995996Y-42787943D01*
X54037783Y-42805252D01*
X54092187Y-42849092D01*
X54104892Y-42872360D01*
X54145553Y-42970526D01*
X54145558Y-42970535D01*
X54232064Y-43100000D01*
X54232067Y-43100004D01*
X54342169Y-43210106D01*
X54342173Y-43210109D01*
X54471638Y-43296615D01*
X54471651Y-43296622D01*
X54528025Y-43319972D01*
X54569812Y-43337281D01*
X54591195Y-43354512D01*
X54614565Y-43368931D01*
X54620220Y-43377901D01*
X54624216Y-43381121D01*
X54634189Y-43398266D01*
X54635633Y-43401280D01*
X54677584Y-43502558D01*
X54700801Y-43537305D01*
X54704621Y-43545278D01*
X54708867Y-43571396D01*
X54716772Y-43596643D01*
X54714385Y-43605340D01*
X54715833Y-43614242D01*
X54705286Y-43638507D01*
X54698286Y-43664023D01*
X54691577Y-43670048D01*
X54687982Y-43678321D01*
X54665989Y-43693032D01*
X54646307Y-43710712D01*
X54632881Y-43715180D01*
X54629908Y-43717169D01*
X54626729Y-43717227D01*
X54616983Y-43720471D01*
X54519427Y-43739876D01*
X54519419Y-43739878D01*
X54375560Y-43799466D01*
X54375551Y-43799471D01*
X54246086Y-43885977D01*
X54246082Y-43885980D01*
X54135980Y-43996082D01*
X54135977Y-43996086D01*
X54049471Y-44125551D01*
X54049466Y-44125560D01*
X53989878Y-44269419D01*
X53989876Y-44269427D01*
X53959500Y-44422138D01*
X53959500Y-44577861D01*
X53989876Y-44730572D01*
X53989878Y-44730580D01*
X54049466Y-44874439D01*
X54049471Y-44874448D01*
X54135977Y-45003913D01*
X54135980Y-45003917D01*
X54246082Y-45114019D01*
X54246086Y-45114022D01*
X54375551Y-45200528D01*
X54375557Y-45200531D01*
X54375558Y-45200532D01*
X54519420Y-45260122D01*
X54672138Y-45290499D01*
X54672142Y-45290500D01*
X54672143Y-45290500D01*
X54827858Y-45290500D01*
X54827859Y-45290499D01*
X54980580Y-45260122D01*
X55124442Y-45200532D01*
X55253914Y-45114022D01*
X55364022Y-45003914D01*
X55450532Y-44874442D01*
X55510122Y-44730580D01*
X55540500Y-44577857D01*
X55540500Y-44543699D01*
X55560185Y-44476660D01*
X55612989Y-44430905D01*
X55682147Y-44420961D01*
X55688682Y-44422080D01*
X55832285Y-44450644D01*
X55832287Y-44450645D01*
X55832288Y-44450645D01*
X55988003Y-44450645D01*
X55988004Y-44450644D01*
X56140725Y-44420267D01*
X56284587Y-44360677D01*
X56414059Y-44274167D01*
X56524167Y-44164059D01*
X56610677Y-44034587D01*
X56670267Y-43890725D01*
X56691574Y-43783607D01*
X56723958Y-43721696D01*
X56784674Y-43687122D01*
X56854443Y-43690861D01*
X56871649Y-43698442D01*
X56875562Y-43700534D01*
X56905424Y-43712903D01*
X57019420Y-43760122D01*
X57137489Y-43783607D01*
X57172138Y-43790499D01*
X57172142Y-43790500D01*
X57172143Y-43790500D01*
X57327858Y-43790500D01*
X57327859Y-43790499D01*
X57480580Y-43760122D01*
X57624442Y-43700532D01*
X57753914Y-43614022D01*
X57864022Y-43503914D01*
X57950532Y-43374442D01*
X58010122Y-43230580D01*
X58040500Y-43077857D01*
X58040500Y-42922143D01*
X58010122Y-42769420D01*
X57950532Y-42625558D01*
X57950531Y-42625557D01*
X57950528Y-42625551D01*
X57864022Y-42496086D01*
X57864019Y-42496082D01*
X57753917Y-42385980D01*
X57753913Y-42385977D01*
X57624448Y-42299471D01*
X57624439Y-42299466D01*
X57578920Y-42280612D01*
X57480580Y-42239878D01*
X57480572Y-42239876D01*
X57327861Y-42209500D01*
X57327857Y-42209500D01*
X57326439Y-42209500D01*
X57325722Y-42209289D01*
X57321796Y-42208903D01*
X57321869Y-42208158D01*
X57296998Y-42200855D01*
X57267012Y-42194332D01*
X57261996Y-42190577D01*
X57259400Y-42189815D01*
X57238758Y-42173181D01*
X57237715Y-42172138D01*
X60459500Y-42172138D01*
X60459500Y-42327861D01*
X60489876Y-42480572D01*
X60489878Y-42480580D01*
X60549466Y-42624439D01*
X60549471Y-42624448D01*
X60635977Y-42753913D01*
X60635980Y-42753917D01*
X60746082Y-42864019D01*
X60746086Y-42864022D01*
X60875551Y-42950528D01*
X60875557Y-42950531D01*
X60875558Y-42950532D01*
X61019420Y-43010122D01*
X61172138Y-43040499D01*
X61172142Y-43040500D01*
X61172143Y-43040500D01*
X61327858Y-43040500D01*
X61327859Y-43040499D01*
X61480580Y-43010122D01*
X61624442Y-42950532D01*
X61753914Y-42864022D01*
X61864022Y-42753914D01*
X61950532Y-42624442D01*
X62010122Y-42480580D01*
X62040500Y-42327857D01*
X62040500Y-42172143D01*
X62010122Y-42019420D01*
X61950532Y-41875558D01*
X61950531Y-41875557D01*
X61950528Y-41875551D01*
X61864022Y-41746086D01*
X61864019Y-41746082D01*
X61753917Y-41635980D01*
X61753913Y-41635977D01*
X61624448Y-41549471D01*
X61624439Y-41549466D01*
X61480580Y-41489878D01*
X61480572Y-41489876D01*
X61327861Y-41459500D01*
X61327857Y-41459500D01*
X61172143Y-41459500D01*
X61172138Y-41459500D01*
X61019427Y-41489876D01*
X61019419Y-41489878D01*
X60875560Y-41549466D01*
X60875551Y-41549471D01*
X60746086Y-41635977D01*
X60746082Y-41635980D01*
X60635980Y-41746082D01*
X60635977Y-41746086D01*
X60549471Y-41875551D01*
X60549466Y-41875560D01*
X60489878Y-42019419D01*
X60489876Y-42019427D01*
X60459500Y-42172138D01*
X57237715Y-42172138D01*
X57233419Y-42167842D01*
X57199934Y-42106519D01*
X57197100Y-42080161D01*
X57197100Y-38869839D01*
X57216785Y-38802800D01*
X57233419Y-38782158D01*
X57238758Y-38776819D01*
X57300081Y-38743334D01*
X57326439Y-38740500D01*
X57327858Y-38740500D01*
X57327859Y-38740499D01*
X57480580Y-38710122D01*
X57624442Y-38650532D01*
X57753914Y-38564022D01*
X57864022Y-38453914D01*
X57950532Y-38324442D01*
X58010122Y-38180580D01*
X58040500Y-38027857D01*
X58040500Y-37872143D01*
X58010122Y-37719420D01*
X57950532Y-37575558D01*
X57950531Y-37575557D01*
X57950528Y-37575551D01*
X57864022Y-37446086D01*
X57864019Y-37446082D01*
X57753917Y-37335980D01*
X57753913Y-37335977D01*
X57624448Y-37249471D01*
X57624439Y-37249466D01*
X57480580Y-37189878D01*
X57480572Y-37189876D01*
X57327861Y-37159500D01*
X57327857Y-37159500D01*
X57172143Y-37159500D01*
X57172138Y-37159500D01*
X57019427Y-37189876D01*
X57019419Y-37189878D01*
X56875560Y-37249466D01*
X56875551Y-37249471D01*
X56769591Y-37320272D01*
X56702913Y-37341150D01*
X56635533Y-37322665D01*
X56588843Y-37270686D01*
X56576700Y-37217170D01*
X56576700Y-27548711D01*
X56596385Y-27481672D01*
X56631807Y-27445610D01*
X56753914Y-27364022D01*
X56864022Y-27253914D01*
X56950532Y-27124442D01*
X57010122Y-26980580D01*
X57040500Y-26827857D01*
X57040500Y-26672143D01*
X57010122Y-26519420D01*
X56950532Y-26375558D01*
X56950531Y-26375557D01*
X56950528Y-26375551D01*
X56864022Y-26246086D01*
X56864019Y-26246082D01*
X56753917Y-26135980D01*
X56753913Y-26135977D01*
X56624448Y-26049471D01*
X56624439Y-26049466D01*
X56528680Y-26009802D01*
X56474277Y-25965961D01*
X56452212Y-25899667D01*
X56461571Y-25847790D01*
X56510122Y-25730580D01*
X56540500Y-25577857D01*
X56540500Y-25422143D01*
X56510122Y-25269420D01*
X56450532Y-25125558D01*
X56450531Y-25125557D01*
X56450528Y-25125551D01*
X56364022Y-24996086D01*
X56364019Y-24996082D01*
X56253917Y-24885980D01*
X56253909Y-24885974D01*
X56124444Y-24799468D01*
X56124441Y-24799467D01*
X56100179Y-24789417D01*
X56045777Y-24745575D01*
X56023713Y-24679281D01*
X56026016Y-24650672D01*
X56040500Y-24577857D01*
X56040500Y-24422143D01*
X56010122Y-24269420D01*
X55950532Y-24125558D01*
X55950531Y-24125557D01*
X55950528Y-24125551D01*
X55864022Y-23996086D01*
X55864019Y-23996082D01*
X55753917Y-23885980D01*
X55753913Y-23885977D01*
X55624449Y-23799472D01*
X55624440Y-23799467D01*
X55617045Y-23796404D01*
X55562643Y-23752562D01*
X55540579Y-23686268D01*
X55540500Y-23681844D01*
X55540500Y-23672142D01*
X55540499Y-23672138D01*
X55520398Y-23571082D01*
X55510122Y-23519420D01*
X55450532Y-23375558D01*
X55450531Y-23375557D01*
X55450528Y-23375551D01*
X55364022Y-23246086D01*
X55364019Y-23246082D01*
X55253917Y-23135980D01*
X55253909Y-23135974D01*
X55124444Y-23049468D01*
X55124441Y-23049467D01*
X55100179Y-23039417D01*
X55045777Y-22995575D01*
X55023713Y-22929281D01*
X55026016Y-22900672D01*
X55040500Y-22827857D01*
X55040500Y-22672143D01*
X55010122Y-22519420D01*
X54950532Y-22375558D01*
X54950531Y-22375557D01*
X54950528Y-22375551D01*
X54864022Y-22246086D01*
X54864019Y-22246082D01*
X54753917Y-22135980D01*
X54753909Y-22135974D01*
X54624444Y-22049468D01*
X54624441Y-22049467D01*
X54600179Y-22039417D01*
X54545777Y-21995575D01*
X54523713Y-21929281D01*
X54526016Y-21900672D01*
X54540500Y-21827857D01*
X54540500Y-21672143D01*
X54510122Y-21519420D01*
X54450532Y-21375558D01*
X54450531Y-21375557D01*
X54450528Y-21375551D01*
X54364022Y-21246086D01*
X54364019Y-21246082D01*
X54253917Y-21135980D01*
X54253913Y-21135977D01*
X54124448Y-21049471D01*
X54124439Y-21049466D01*
X53980580Y-20989878D01*
X53980572Y-20989876D01*
X53827861Y-20959500D01*
X53827857Y-20959500D01*
X53672143Y-20959500D01*
X53672138Y-20959500D01*
X53519427Y-20989876D01*
X53519419Y-20989878D01*
X53375560Y-21049466D01*
X53375551Y-21049471D01*
X53246086Y-21135977D01*
X53246082Y-21135980D01*
X53135980Y-21246082D01*
X53135977Y-21246086D01*
X53049471Y-21375551D01*
X53049466Y-21375560D01*
X52989878Y-21519419D01*
X52989876Y-21519427D01*
X52959500Y-21672138D01*
X52959500Y-21673561D01*
X52959289Y-21674277D01*
X52958903Y-21678204D01*
X52958158Y-21678130D01*
X52939815Y-21740600D01*
X52923181Y-21761242D01*
X52788527Y-21895895D01*
X52788522Y-21895901D01*
X52712602Y-22027398D01*
X52712602Y-22027399D01*
X52712601Y-22027401D01*
X52712601Y-22027402D01*
X52683509Y-22135974D01*
X52673300Y-22174076D01*
X52673300Y-40407401D01*
X52653615Y-40474440D01*
X52636981Y-40495082D01*
X52635980Y-40496082D01*
X52635977Y-40496086D01*
X52549471Y-40625551D01*
X52549466Y-40625560D01*
X52489878Y-40769419D01*
X52489876Y-40769427D01*
X52459500Y-40922138D01*
X40076700Y-40922138D01*
X40076700Y-33842598D01*
X40096385Y-33775559D01*
X40113027Y-33754909D01*
X40114022Y-33753914D01*
X40200532Y-33624442D01*
X40260122Y-33480580D01*
X40290500Y-33327857D01*
X40290500Y-33172143D01*
X40260122Y-33019420D01*
X40200532Y-32875558D01*
X40200531Y-32875557D01*
X40200528Y-32875551D01*
X40114022Y-32746086D01*
X40114019Y-32746082D01*
X40003917Y-32635980D01*
X40003913Y-32635977D01*
X39874448Y-32549471D01*
X39874439Y-32549466D01*
X39730580Y-32489878D01*
X39730572Y-32489876D01*
X39619193Y-32467721D01*
X39557282Y-32435336D01*
X39522707Y-32374620D01*
X39521767Y-32321915D01*
X39537415Y-32243247D01*
X39537415Y-32087533D01*
X39507037Y-31934810D01*
X39447447Y-31790948D01*
X39447446Y-31790947D01*
X39447443Y-31790941D01*
X39360937Y-31661476D01*
X39360934Y-31661472D01*
X39250832Y-31551370D01*
X39250828Y-31551367D01*
X39121363Y-31464861D01*
X39121354Y-31464856D01*
X38977495Y-31405268D01*
X38977487Y-31405266D01*
X38824776Y-31374890D01*
X38824772Y-31374890D01*
X38669058Y-31374890D01*
X38669053Y-31374890D01*
X38516342Y-31405266D01*
X38516334Y-31405268D01*
X38372475Y-31464856D01*
X38372466Y-31464861D01*
X38243001Y-31551367D01*
X38242996Y-31551371D01*
X38227425Y-31566942D01*
X38166101Y-31600426D01*
X38096410Y-31595440D01*
X38040477Y-31553567D01*
X38016062Y-31488102D01*
X38015746Y-31479530D01*
X38015517Y-31374890D01*
X38005183Y-26650403D01*
X38984500Y-26650403D01*
X38984500Y-26849596D01*
X39015661Y-27046340D01*
X39015661Y-27046343D01*
X39077213Y-27235780D01*
X39128532Y-27336498D01*
X39167647Y-27413266D01*
X39284731Y-27574418D01*
X39425582Y-27715269D01*
X39586734Y-27832353D01*
X39764217Y-27922785D01*
X39764219Y-27922786D01*
X39953657Y-27984338D01*
X39953658Y-27984338D01*
X39953661Y-27984339D01*
X40150403Y-28015500D01*
X40150404Y-28015500D01*
X40349596Y-28015500D01*
X40349597Y-28015500D01*
X40546339Y-27984339D01*
X40546342Y-27984338D01*
X40546343Y-27984338D01*
X40735780Y-27922786D01*
X40735780Y-27922785D01*
X40735783Y-27922785D01*
X40913266Y-27832353D01*
X41074418Y-27715269D01*
X41215269Y-27574418D01*
X41332353Y-27413266D01*
X41422785Y-27235783D01*
X41448692Y-27156049D01*
X41484338Y-27046343D01*
X41484338Y-27046342D01*
X41484339Y-27046339D01*
X41515500Y-26849597D01*
X41515500Y-26650403D01*
X43734500Y-26650403D01*
X43734500Y-26849596D01*
X43765661Y-27046340D01*
X43765661Y-27046343D01*
X43827213Y-27235780D01*
X43878532Y-27336498D01*
X43917647Y-27413266D01*
X44034731Y-27574418D01*
X44175582Y-27715269D01*
X44336734Y-27832353D01*
X44514217Y-27922785D01*
X44514219Y-27922786D01*
X44703657Y-27984338D01*
X44703658Y-27984338D01*
X44703661Y-27984339D01*
X44900403Y-28015500D01*
X44900404Y-28015500D01*
X45099596Y-28015500D01*
X45099597Y-28015500D01*
X45296339Y-27984339D01*
X45296342Y-27984338D01*
X45296343Y-27984338D01*
X45485780Y-27922786D01*
X45485780Y-27922785D01*
X45485783Y-27922785D01*
X45663266Y-27832353D01*
X45824418Y-27715269D01*
X45965269Y-27574418D01*
X46082353Y-27413266D01*
X46172785Y-27235783D01*
X46198692Y-27156049D01*
X46234338Y-27046343D01*
X46234338Y-27046342D01*
X46234339Y-27046339D01*
X46265500Y-26849597D01*
X46265500Y-26650403D01*
X48484500Y-26650403D01*
X48484500Y-26849596D01*
X48515661Y-27046340D01*
X48515661Y-27046343D01*
X48577213Y-27235780D01*
X48628532Y-27336498D01*
X48667647Y-27413266D01*
X48784731Y-27574418D01*
X48925582Y-27715269D01*
X49086734Y-27832353D01*
X49264217Y-27922785D01*
X49264219Y-27922786D01*
X49453657Y-27984338D01*
X49453658Y-27984338D01*
X49453661Y-27984339D01*
X49650403Y-28015500D01*
X49650404Y-28015500D01*
X49849596Y-28015500D01*
X49849597Y-28015500D01*
X50046339Y-27984339D01*
X50046342Y-27984338D01*
X50046343Y-27984338D01*
X50235780Y-27922786D01*
X50235780Y-27922785D01*
X50235783Y-27922785D01*
X50413266Y-27832353D01*
X50574418Y-27715269D01*
X50715269Y-27574418D01*
X50832353Y-27413266D01*
X50922785Y-27235783D01*
X50948692Y-27156049D01*
X50984338Y-27046343D01*
X50984338Y-27046342D01*
X50984339Y-27046339D01*
X51015500Y-26849597D01*
X51015500Y-26650403D01*
X50984339Y-26453661D01*
X50984338Y-26453657D01*
X50984338Y-26453656D01*
X50922786Y-26264219D01*
X50905401Y-26230099D01*
X50832353Y-26086734D01*
X50715269Y-25925582D01*
X50574418Y-25784731D01*
X50413266Y-25667647D01*
X50315269Y-25617715D01*
X50235780Y-25577213D01*
X50046342Y-25515661D01*
X49898782Y-25492290D01*
X49849597Y-25484500D01*
X49650403Y-25484500D01*
X49584822Y-25494887D01*
X49453659Y-25515661D01*
X49453656Y-25515661D01*
X49264219Y-25577213D01*
X49086733Y-25667647D01*
X49009511Y-25723753D01*
X48925582Y-25784731D01*
X48925580Y-25784733D01*
X48925579Y-25784733D01*
X48784733Y-25925579D01*
X48784733Y-25925580D01*
X48784731Y-25925582D01*
X48738019Y-25989876D01*
X48667647Y-26086733D01*
X48577213Y-26264219D01*
X48515661Y-26453656D01*
X48515661Y-26453659D01*
X48484500Y-26650403D01*
X46265500Y-26650403D01*
X46234339Y-26453661D01*
X46234338Y-26453657D01*
X46234338Y-26453656D01*
X46172786Y-26264219D01*
X46155401Y-26230099D01*
X46082353Y-26086734D01*
X45965269Y-25925582D01*
X45824418Y-25784731D01*
X45663266Y-25667647D01*
X45565269Y-25617715D01*
X45485780Y-25577213D01*
X45296342Y-25515661D01*
X45148782Y-25492290D01*
X45099597Y-25484500D01*
X44900403Y-25484500D01*
X44834822Y-25494887D01*
X44703659Y-25515661D01*
X44703656Y-25515661D01*
X44514219Y-25577213D01*
X44336733Y-25667647D01*
X44259511Y-25723753D01*
X44175582Y-25784731D01*
X44175580Y-25784733D01*
X44175579Y-25784733D01*
X44034733Y-25925579D01*
X44034733Y-25925580D01*
X44034731Y-25925582D01*
X43988019Y-25989876D01*
X43917647Y-26086733D01*
X43827213Y-26264219D01*
X43765661Y-26453656D01*
X43765661Y-26453659D01*
X43734500Y-26650403D01*
X41515500Y-26650403D01*
X41484339Y-26453661D01*
X41484338Y-26453657D01*
X41484338Y-26453656D01*
X41422786Y-26264219D01*
X41405401Y-26230099D01*
X41332353Y-26086734D01*
X41215269Y-25925582D01*
X41074418Y-25784731D01*
X40913266Y-25667647D01*
X40815269Y-25617715D01*
X40735780Y-25577213D01*
X40546342Y-25515661D01*
X40398782Y-25492290D01*
X40349597Y-25484500D01*
X40150403Y-25484500D01*
X40084822Y-25494887D01*
X39953659Y-25515661D01*
X39953656Y-25515661D01*
X39764219Y-25577213D01*
X39586733Y-25667647D01*
X39509511Y-25723753D01*
X39425582Y-25784731D01*
X39425580Y-25784733D01*
X39425579Y-25784733D01*
X39284733Y-25925579D01*
X39284733Y-25925580D01*
X39284731Y-25925582D01*
X39238019Y-25989876D01*
X39167647Y-26086733D01*
X39077213Y-26264219D01*
X39015661Y-26453656D01*
X39015661Y-26453659D01*
X38984500Y-26650403D01*
X38005183Y-26650403D01*
X38000500Y-24509422D01*
X38000526Y-24444290D01*
X38000359Y-24443668D01*
X38000358Y-24443019D01*
X38000357Y-24443008D01*
X37994717Y-24422143D01*
X37983430Y-24380383D01*
X37983347Y-24380074D01*
X37966468Y-24316982D01*
X37966289Y-24316549D01*
X37966288Y-24316547D01*
X37965981Y-24315804D01*
X37965968Y-24315782D01*
X37965968Y-24315780D01*
X37933439Y-24259722D01*
X37933302Y-24259484D01*
X37900625Y-24202835D01*
X37900622Y-24202832D01*
X37900621Y-24202829D01*
X37900618Y-24202826D01*
X37900365Y-24202496D01*
X37900363Y-24202492D01*
X37899840Y-24201810D01*
X37853658Y-24155830D01*
X37807471Y-24109607D01*
X37806902Y-24109278D01*
X37806437Y-24108815D01*
X37806434Y-24108813D01*
X37750112Y-24076459D01*
X37749835Y-24076300D01*
X37693371Y-24043671D01*
X37692874Y-24043465D01*
X37692871Y-24043463D01*
X37692859Y-24043458D01*
X37692183Y-24043177D01*
X37629145Y-24026433D01*
X37629141Y-24026433D01*
X37629064Y-24026412D01*
X37566088Y-24009512D01*
X37565432Y-24009511D01*
X37564797Y-24009343D01*
X37564772Y-24009343D01*
X37499473Y-24009484D01*
X37499157Y-24009484D01*
X12604451Y-23999722D01*
X12537420Y-23980011D01*
X12491685Y-23927189D01*
X12480500Y-23875722D01*
X12480500Y-20400403D01*
X21234500Y-20400403D01*
X21234500Y-20599596D01*
X21265661Y-20796340D01*
X21265661Y-20796343D01*
X21327213Y-20985780D01*
X21374131Y-21077861D01*
X21417647Y-21163266D01*
X21534731Y-21324418D01*
X21675582Y-21465269D01*
X21836734Y-21582353D01*
X22012947Y-21672138D01*
X22014219Y-21672786D01*
X22203657Y-21734338D01*
X22203658Y-21734338D01*
X22203661Y-21734339D01*
X22400403Y-21765500D01*
X22400404Y-21765500D01*
X22599596Y-21765500D01*
X22599597Y-21765500D01*
X22796339Y-21734339D01*
X22796342Y-21734338D01*
X22796343Y-21734338D01*
X22985780Y-21672786D01*
X22985780Y-21672785D01*
X22985783Y-21672785D01*
X23163266Y-21582353D01*
X23324418Y-21465269D01*
X23465269Y-21324418D01*
X23582353Y-21163266D01*
X23672785Y-20985783D01*
X23693463Y-20922142D01*
X23734338Y-20796343D01*
X23734338Y-20796342D01*
X23734339Y-20796339D01*
X23765500Y-20599597D01*
X23765500Y-20400403D01*
X25984500Y-20400403D01*
X25984500Y-20599596D01*
X26015661Y-20796340D01*
X26015661Y-20796343D01*
X26077213Y-20985780D01*
X26124131Y-21077861D01*
X26167647Y-21163266D01*
X26284731Y-21324418D01*
X26425582Y-21465269D01*
X26586734Y-21582353D01*
X26762947Y-21672138D01*
X26764219Y-21672786D01*
X26953657Y-21734338D01*
X26953658Y-21734338D01*
X26953661Y-21734339D01*
X27150403Y-21765500D01*
X27150404Y-21765500D01*
X27349596Y-21765500D01*
X27349597Y-21765500D01*
X27546339Y-21734339D01*
X27546342Y-21734338D01*
X27546343Y-21734338D01*
X27735780Y-21672786D01*
X27735780Y-21672785D01*
X27735783Y-21672785D01*
X27913266Y-21582353D01*
X28074418Y-21465269D01*
X28215269Y-21324418D01*
X28332353Y-21163266D01*
X28422785Y-20985783D01*
X28443463Y-20922142D01*
X28484338Y-20796343D01*
X28484338Y-20796342D01*
X28484339Y-20796339D01*
X28515500Y-20599597D01*
X28515500Y-20400403D01*
X30734500Y-20400403D01*
X30734500Y-20599596D01*
X30765661Y-20796340D01*
X30765661Y-20796343D01*
X30827213Y-20985780D01*
X30874131Y-21077861D01*
X30917647Y-21163266D01*
X31034731Y-21324418D01*
X31175582Y-21465269D01*
X31336734Y-21582353D01*
X31512947Y-21672138D01*
X31514219Y-21672786D01*
X31703657Y-21734338D01*
X31703658Y-21734338D01*
X31703661Y-21734339D01*
X31900403Y-21765500D01*
X31900404Y-21765500D01*
X32099596Y-21765500D01*
X32099597Y-21765500D01*
X32296339Y-21734339D01*
X32296342Y-21734338D01*
X32296343Y-21734338D01*
X32485780Y-21672786D01*
X32485780Y-21672785D01*
X32485783Y-21672785D01*
X32663266Y-21582353D01*
X32824418Y-21465269D01*
X32965269Y-21324418D01*
X33082353Y-21163266D01*
X33172785Y-20985783D01*
X33193463Y-20922142D01*
X33234338Y-20796343D01*
X33234338Y-20796342D01*
X33234339Y-20796339D01*
X33265500Y-20599597D01*
X33265500Y-20400403D01*
X33234339Y-20203661D01*
X33234338Y-20203657D01*
X33234338Y-20203656D01*
X33172786Y-20014219D01*
X33099411Y-19870213D01*
X33082353Y-19836734D01*
X32965269Y-19675582D01*
X32824418Y-19534731D01*
X32663266Y-19417647D01*
X32645424Y-19408556D01*
X32485780Y-19327213D01*
X32296342Y-19265661D01*
X32148782Y-19242290D01*
X32099597Y-19234500D01*
X31900403Y-19234500D01*
X31834822Y-19244887D01*
X31703659Y-19265661D01*
X31703656Y-19265661D01*
X31514219Y-19327213D01*
X31336733Y-19417647D01*
X31276297Y-19461557D01*
X31175582Y-19534731D01*
X31175580Y-19534733D01*
X31175579Y-19534733D01*
X31034733Y-19675579D01*
X31034733Y-19675580D01*
X31034731Y-19675582D01*
X31008653Y-19711475D01*
X30917647Y-19836733D01*
X30827213Y-20014219D01*
X30765661Y-20203656D01*
X30765661Y-20203659D01*
X30734500Y-20400403D01*
X28515500Y-20400403D01*
X28484339Y-20203661D01*
X28484338Y-20203657D01*
X28484338Y-20203656D01*
X28422786Y-20014219D01*
X28349411Y-19870213D01*
X28332353Y-19836734D01*
X28215269Y-19675582D01*
X28074418Y-19534731D01*
X27913266Y-19417647D01*
X27895424Y-19408556D01*
X27735780Y-19327213D01*
X27546342Y-19265661D01*
X27398782Y-19242290D01*
X27349597Y-19234500D01*
X27150403Y-19234500D01*
X27084822Y-19244887D01*
X26953659Y-19265661D01*
X26953656Y-19265661D01*
X26764219Y-19327213D01*
X26586733Y-19417647D01*
X26526297Y-19461557D01*
X26425582Y-19534731D01*
X26425580Y-19534733D01*
X26425579Y-19534733D01*
X26284733Y-19675579D01*
X26284733Y-19675580D01*
X26284731Y-19675582D01*
X26258653Y-19711475D01*
X26167647Y-19836733D01*
X26077213Y-20014219D01*
X26015661Y-20203656D01*
X26015661Y-20203659D01*
X25984500Y-20400403D01*
X23765500Y-20400403D01*
X23734339Y-20203661D01*
X23734338Y-20203657D01*
X23734338Y-20203656D01*
X23672786Y-20014219D01*
X23599411Y-19870213D01*
X23582353Y-19836734D01*
X23465269Y-19675582D01*
X23324418Y-19534731D01*
X23163266Y-19417647D01*
X23145424Y-19408556D01*
X22985780Y-19327213D01*
X22796342Y-19265661D01*
X22648782Y-19242290D01*
X22599597Y-19234500D01*
X22400403Y-19234500D01*
X22334822Y-19244887D01*
X22203659Y-19265661D01*
X22203656Y-19265661D01*
X22014219Y-19327213D01*
X21836733Y-19417647D01*
X21776297Y-19461557D01*
X21675582Y-19534731D01*
X21675580Y-19534733D01*
X21675579Y-19534733D01*
X21534733Y-19675579D01*
X21534733Y-19675580D01*
X21534731Y-19675582D01*
X21508653Y-19711475D01*
X21417647Y-19836733D01*
X21327213Y-20014219D01*
X21265661Y-20203656D01*
X21265661Y-20203659D01*
X21234500Y-20400403D01*
X12480500Y-20400403D01*
X12480500Y-16005186D01*
X14269500Y-16005186D01*
X14269500Y-16274813D01*
X14299686Y-16542719D01*
X14299688Y-16542731D01*
X14359684Y-16805594D01*
X14359687Y-16805602D01*
X14448734Y-17060082D01*
X14565714Y-17302994D01*
X14565716Y-17302997D01*
X14709162Y-17531289D01*
X14877266Y-17742085D01*
X15067915Y-17932734D01*
X15278711Y-18100838D01*
X15507003Y-18244284D01*
X15749921Y-18361267D01*
X15941049Y-18428145D01*
X16004397Y-18450312D01*
X16004405Y-18450315D01*
X16004408Y-18450315D01*
X16004409Y-18450316D01*
X16267268Y-18510312D01*
X16535187Y-18540499D01*
X16535188Y-18540500D01*
X16535191Y-18540500D01*
X16804812Y-18540500D01*
X16804812Y-18540499D01*
X17072732Y-18510312D01*
X17335591Y-18450316D01*
X17590079Y-18361267D01*
X17832997Y-18244284D01*
X18061289Y-18100838D01*
X18272085Y-17932734D01*
X18462734Y-17742085D01*
X18630838Y-17531289D01*
X18774284Y-17302997D01*
X18891267Y-17060079D01*
X18980316Y-16805591D01*
X19040312Y-16542732D01*
X19070500Y-16274809D01*
X19070500Y-16005191D01*
X19040312Y-15737268D01*
X19025447Y-15672142D01*
X19025446Y-15672138D01*
X45959500Y-15672138D01*
X45959500Y-15827861D01*
X45989876Y-15980572D01*
X45989878Y-15980580D01*
X46049466Y-16124439D01*
X46049471Y-16124448D01*
X46135977Y-16253913D01*
X46135980Y-16253917D01*
X46246082Y-16364019D01*
X46246086Y-16364022D01*
X46375551Y-16450528D01*
X46375557Y-16450531D01*
X46375558Y-16450532D01*
X46519420Y-16510122D01*
X46672138Y-16540499D01*
X46672142Y-16540500D01*
X46672143Y-16540500D01*
X46827858Y-16540500D01*
X46827859Y-16540499D01*
X46980580Y-16510122D01*
X47124442Y-16450532D01*
X47253914Y-16364022D01*
X47364022Y-16253914D01*
X47450532Y-16124442D01*
X47510122Y-15980580D01*
X47540500Y-15827857D01*
X47540500Y-15672143D01*
X47531234Y-15625558D01*
X47510124Y-15519426D01*
X47510122Y-15519422D01*
X47510122Y-15519420D01*
X47450532Y-15375558D01*
X47450531Y-15375557D01*
X47450528Y-15375551D01*
X47364022Y-15246086D01*
X47364019Y-15246082D01*
X47253917Y-15135980D01*
X47253913Y-15135977D01*
X47145278Y-15063389D01*
X50574500Y-15063389D01*
X50574500Y-15186610D01*
X50598535Y-15307444D01*
X50598538Y-15307454D01*
X50645687Y-15421283D01*
X50645692Y-15421292D01*
X50714141Y-15523732D01*
X50714144Y-15523736D01*
X50801263Y-15610855D01*
X50801267Y-15610858D01*
X50903707Y-15679307D01*
X50903713Y-15679310D01*
X50903714Y-15679311D01*
X51017548Y-15726463D01*
X51138389Y-15750499D01*
X51138393Y-15750500D01*
X51138394Y-15750500D01*
X51261607Y-15750500D01*
X51261608Y-15750499D01*
X51382452Y-15726463D01*
X51496286Y-15679311D01*
X51598733Y-15610858D01*
X51685858Y-15523733D01*
X51754311Y-15421286D01*
X51801463Y-15307452D01*
X51825500Y-15186606D01*
X51825500Y-15063394D01*
X51801463Y-14942548D01*
X51754311Y-14828714D01*
X51754310Y-14828713D01*
X51754307Y-14828707D01*
X51685858Y-14726267D01*
X51685855Y-14726263D01*
X51598736Y-14639144D01*
X51598732Y-14639141D01*
X51496292Y-14570692D01*
X51496283Y-14570687D01*
X51382454Y-14523538D01*
X51382455Y-14523538D01*
X51382452Y-14523537D01*
X51382448Y-14523536D01*
X51382444Y-14523535D01*
X51261610Y-14499500D01*
X51261606Y-14499500D01*
X51138394Y-14499500D01*
X51138389Y-14499500D01*
X51017555Y-14523535D01*
X51017545Y-14523538D01*
X50903716Y-14570687D01*
X50903707Y-14570692D01*
X50801267Y-14639141D01*
X50801263Y-14639144D01*
X50714144Y-14726263D01*
X50714141Y-14726267D01*
X50645692Y-14828707D01*
X50645687Y-14828716D01*
X50598538Y-14942545D01*
X50598535Y-14942555D01*
X50574500Y-15063389D01*
X47145278Y-15063389D01*
X47124448Y-15049471D01*
X47124439Y-15049466D01*
X46980580Y-14989878D01*
X46980572Y-14989876D01*
X46827861Y-14959500D01*
X46827857Y-14959500D01*
X46672143Y-14959500D01*
X46672138Y-14959500D01*
X46519427Y-14989876D01*
X46519419Y-14989878D01*
X46375560Y-15049466D01*
X46375551Y-15049471D01*
X46246086Y-15135977D01*
X46246082Y-15135980D01*
X46135980Y-15246082D01*
X46135977Y-15246086D01*
X46049471Y-15375551D01*
X46049466Y-15375560D01*
X45989878Y-15519419D01*
X45989876Y-15519426D01*
X45959500Y-15672138D01*
X19025446Y-15672138D01*
X18980315Y-15474405D01*
X18980312Y-15474397D01*
X18945724Y-15375551D01*
X18891267Y-15219921D01*
X18774284Y-14977003D01*
X18630838Y-14748711D01*
X18462734Y-14537915D01*
X18272085Y-14347266D01*
X18237267Y-14319500D01*
X18199225Y-14289162D01*
X18061289Y-14179162D01*
X17832997Y-14035716D01*
X17832994Y-14035714D01*
X17590082Y-13918734D01*
X17335602Y-13829687D01*
X17335594Y-13829684D01*
X17137264Y-13784417D01*
X17072732Y-13769688D01*
X17072728Y-13769687D01*
X17072719Y-13769686D01*
X16804813Y-13739500D01*
X16804809Y-13739500D01*
X16535191Y-13739500D01*
X16535186Y-13739500D01*
X16267280Y-13769686D01*
X16267268Y-13769688D01*
X16004405Y-13829684D01*
X16004397Y-13829687D01*
X15749917Y-13918734D01*
X15507005Y-14035714D01*
X15278712Y-14179161D01*
X15067915Y-14347265D01*
X14877265Y-14537915D01*
X14709161Y-14748712D01*
X14565714Y-14977005D01*
X14448734Y-15219917D01*
X14359687Y-15474397D01*
X14359684Y-15474405D01*
X14299688Y-15737268D01*
X14299686Y-15737280D01*
X14269500Y-16005186D01*
X12480500Y-16005186D01*
X12480500Y-12114637D01*
X12500185Y-12047598D01*
X12552989Y-12001843D01*
X12604525Y-11990637D01*
X50493153Y-11999007D01*
G37*
%TD.AperFunction*%
%TA.AperFunction,Conductor*%
G36*
X21911537Y-57004366D02*
G01*
X21978566Y-57024077D01*
X22024301Y-57076899D01*
X22034217Y-57146061D01*
X22005167Y-57209605D01*
X21949814Y-57246294D01*
X21941783Y-57248903D01*
X21752439Y-57345380D01*
X21698282Y-57384727D01*
X21698282Y-57384728D01*
X22330591Y-58017037D01*
X22267007Y-58034075D01*
X22152993Y-58099901D01*
X22059901Y-58192993D01*
X21994075Y-58307007D01*
X21977037Y-58370591D01*
X21306818Y-57700372D01*
X21273333Y-57639049D01*
X21270499Y-57612691D01*
X21270499Y-57602129D01*
X21270498Y-57602123D01*
X21270497Y-57602116D01*
X21264091Y-57542517D01*
X21258453Y-57527402D01*
X21213797Y-57407671D01*
X21213793Y-57407664D01*
X21127547Y-57292456D01*
X21127548Y-57292456D01*
X21127546Y-57292454D01*
X21040538Y-57227319D01*
X20998668Y-57171387D01*
X20993684Y-57101695D01*
X21027169Y-57040372D01*
X21088493Y-57006888D01*
X21114894Y-57004054D01*
X21911537Y-57004366D01*
G37*
%TD.AperFunction*%
%TA.AperFunction,Conductor*%
G36*
X24446862Y-57005361D02*
G01*
X24513893Y-57025072D01*
X24559628Y-57077894D01*
X24569544Y-57147056D01*
X24540494Y-57210601D01*
X24485133Y-57247291D01*
X24481587Y-57248442D01*
X24292179Y-57344951D01*
X24120213Y-57469890D01*
X23969890Y-57620213D01*
X23844949Y-57792182D01*
X23840202Y-57801499D01*
X23792227Y-57852293D01*
X23724405Y-57869087D01*
X23658271Y-57846548D01*
X23619234Y-57801495D01*
X23614626Y-57792452D01*
X23575270Y-57738282D01*
X23575269Y-57738282D01*
X22942962Y-58370590D01*
X22925925Y-58307007D01*
X22860099Y-58192993D01*
X22767007Y-58099901D01*
X22652993Y-58034075D01*
X22589409Y-58017037D01*
X23221716Y-57384728D01*
X23167550Y-57345375D01*
X22978216Y-57248903D01*
X22971517Y-57246727D01*
X22913842Y-57207288D01*
X22886646Y-57142928D01*
X22898562Y-57074082D01*
X22945808Y-57022608D01*
X23009884Y-57004797D01*
X24446862Y-57005361D01*
G37*
%TD.AperFunction*%
%TD*%
M02*
