%TF.GenerationSoftware,KiCad,Pcbnew,9.0.7*%
%TF.CreationDate,2026-03-20T00:41:48-04:00*%
%TF.ProjectId,WallNet_Main,57616c6c-4e65-4745-9f4d-61696e2e6b69,rev?*%
%TF.SameCoordinates,Original*%
%TF.FileFunction,Plated,1,4,PTH,Mixed*%
%TF.FilePolarity,Positive*%
%FSLAX46Y46*%
G04 Gerber Fmt 4.6, Leading zero omitted, Abs format (unit mm)*
G04 Created by KiCad (PCBNEW 9.0.7) date 2026-03-20 00:41:48*
%MOMM*%
%LPD*%
G01*
G04 APERTURE LIST*
%TA.AperFunction,ViaDrill*%
%ADD10C,0.380000*%
%TD*%
G04 aperture for slot hole*
%TA.AperFunction,ComponentDrill*%
%ADD11C,0.600000*%
%TD*%
%TA.AperFunction,ComponentDrill*%
%ADD12C,1.000000*%
%TD*%
%TA.AperFunction,ComponentDrill*%
%ADD13C,1.020000*%
%TD*%
G04 APERTURE END LIST*
D10*
X22500000Y-16500000D03*
X23500000Y-70250000D03*
X26500000Y-75500000D03*
X27250000Y-16500000D03*
X29000000Y-65500000D03*
X30250000Y-75500000D03*
X32250000Y-16500000D03*
X33387500Y-69100000D03*
X36750000Y-68250000D03*
X37250000Y-58278600D03*
X37492344Y-69987615D03*
X37897600Y-72262500D03*
X38500000Y-65000000D03*
X38746915Y-32165390D03*
X38823152Y-56757667D03*
X38827031Y-32913515D03*
X39000000Y-74000000D03*
X39500000Y-33250000D03*
X40000000Y-16500000D03*
X40000000Y-66750000D03*
X40250000Y-70750000D03*
X41500000Y-68250000D03*
X41750000Y-62500000D03*
X42500000Y-29000000D03*
X42750000Y-34750000D03*
X42750000Y-50750000D03*
X43250000Y-65500000D03*
X43500000Y-67175000D03*
X46750000Y-15750000D03*
X47250000Y-69750000D03*
X47250000Y-72500000D03*
X48000000Y-29000000D03*
X48000000Y-68675000D03*
X51000000Y-40500000D03*
X51000000Y-45000000D03*
X51000000Y-70750000D03*
X53250000Y-41000000D03*
X53750000Y-21750000D03*
X53782029Y-41532029D03*
X54000000Y-70750000D03*
X54250000Y-22750000D03*
X54314058Y-42064058D03*
X54750000Y-23750000D03*
X54750000Y-44500000D03*
X54846087Y-42596087D03*
X55250000Y-24500000D03*
X55378116Y-43128116D03*
X55750000Y-25500000D03*
X55750000Y-51000000D03*
X55910145Y-43660145D03*
X56112500Y-49137500D03*
X56250000Y-26750000D03*
X56750000Y-70750000D03*
X57250000Y-37950000D03*
X57250000Y-39000000D03*
X57250000Y-43000000D03*
X57500000Y-29000000D03*
X59500000Y-70750000D03*
X60000000Y-44250000D03*
X60000000Y-46500000D03*
X60000000Y-48750000D03*
X60000000Y-50750000D03*
X60250000Y-39500000D03*
X61250000Y-42250000D03*
X61500000Y-29000000D03*
X62500000Y-41000000D03*
X66250000Y-21750000D03*
X66325000Y-24075000D03*
X66350000Y-22850000D03*
X66493879Y-25243267D03*
X67000000Y-26750000D03*
X67000000Y-36000000D03*
X68500000Y-26750000D03*
X68500000Y-36000000D03*
X70000000Y-26750000D03*
X70250000Y-35500000D03*
X73000000Y-23500000D03*
X74250000Y-21750000D03*
X74471400Y-34370944D03*
X74500000Y-24000000D03*
X75000000Y-19250000D03*
X75000000Y-24750000D03*
X75250000Y-34971400D03*
X77500000Y-23000000D03*
X77500000Y-33842344D03*
X78250000Y-25500000D03*
X81750000Y-26700000D03*
X82250000Y-13000000D03*
X83000000Y-35500000D03*
X89500000Y-36028600D03*
X91000000Y-31750000D03*
X96000000Y-13170400D03*
X98500000Y-16000000D03*
X99000000Y-31750000D03*
X101500000Y-12641800D03*
X101500000Y-13699000D03*
X102321429Y-33842344D03*
X105500000Y-17000000D03*
X105500000Y-19000000D03*
X105500000Y-21000000D03*
X105500000Y-22750000D03*
X105500000Y-24750000D03*
X106000000Y-30750000D03*
X106750000Y-15750000D03*
X106750000Y-26000000D03*
X108750000Y-34971400D03*
X110750000Y-36028600D03*
X112400000Y-29250000D03*
X112500000Y-16000000D03*
X113712500Y-32425000D03*
X114250000Y-15750000D03*
X114500000Y-26000000D03*
X115000000Y-34370944D03*
X115500000Y-17250000D03*
X115500000Y-35500000D03*
X115750000Y-24750000D03*
X118750000Y-22750000D03*
X122250000Y-22750000D03*
X130250000Y-36000000D03*
D11*
%TO.C,J101*%
X44180000Y-75550000D02*
X44180000Y-74950000D01*
X44180000Y-79350000D02*
X44180000Y-78750000D01*
X52820000Y-75550000D02*
X52820000Y-74950000D01*
X52820000Y-79350000D02*
X52820000Y-78750000D01*
D12*
%TO.C,J202*%
X19920000Y-58500000D03*
X22460000Y-58500000D03*
X25000000Y-58500000D03*
X27540000Y-58500000D03*
X30080000Y-58500000D03*
%TO.C,J1*%
X83750000Y-15670000D03*
X83750000Y-18210000D03*
X83750000Y-20750000D03*
X83750000Y-23290000D03*
X83750000Y-25830000D03*
D13*
%TO.C,TP11*%
X22500000Y-20500000D03*
%TO.C,TP10*%
X27250000Y-20500000D03*
%TO.C,TP9*%
X32000000Y-20500000D03*
%TO.C,TP14*%
X40250000Y-26750000D03*
%TO.C,TP13*%
X45000000Y-26750000D03*
%TO.C,TP12*%
X49750000Y-26750000D03*
%TO.C,TP2*%
X70000000Y-39250000D03*
%TO.C,TP15*%
X76464286Y-39250000D03*
%TO.C,TP5*%
X82928571Y-39250000D03*
%TO.C,TP6*%
X89392857Y-39250000D03*
%TO.C,TP3*%
X95857143Y-39250000D03*
%TO.C,TP4*%
X102321429Y-39250000D03*
%TO.C,TP8*%
X108785714Y-39250000D03*
%TO.C,TP7*%
X115250000Y-39250000D03*
M02*
