%TF.GenerationSoftware,KiCad,Pcbnew,9.0.7*%
%TF.CreationDate,2026-03-20T00:38:03-04:00*%
%TF.ProjectId,WallNet_Main,57616c6c-4e65-4745-9f4d-61696e2e6b69,rev?*%
%TF.SameCoordinates,Original*%
%TF.FileFunction,Legend,Top*%
%TF.FilePolarity,Positive*%
%FSLAX46Y46*%
G04 Gerber Fmt 4.6, Leading zero omitted, Abs format (unit mm)*
G04 Created by KiCad (PCBNEW 9.0.7) date 2026-03-20 00:38:03*
%MOMM*%
%LPD*%
G01*
G04 APERTURE LIST*
G04 Aperture macros list*
%AMRoundRect*
0 Rectangle with rounded corners*
0 $1 Rounding radius*
0 $2 $3 $4 $5 $6 $7 $8 $9 X,Y pos of 4 corners*
0 Add a 4 corners polygon primitive as box body*
4,1,4,$2,$3,$4,$5,$6,$7,$8,$9,$2,$3,0*
0 Add four circle primitives for the rounded corners*
1,1,$1+$1,$2,$3*
1,1,$1+$1,$4,$5*
1,1,$1+$1,$6,$7*
1,1,$1+$1,$8,$9*
0 Add four rect primitives between the rounded corners*
20,1,$1+$1,$2,$3,$4,$5,0*
20,1,$1+$1,$4,$5,$6,$7,0*
20,1,$1+$1,$6,$7,$8,$9,0*
20,1,$1+$1,$8,$9,$2,$3,0*%
%AMFreePoly0*
4,1,7,1.050000,-0.975000,-0.250000,-0.975000,-0.250000,-0.625000,-1.050000,-0.625000,-1.050000,0.975000,1.050000,0.975000,1.050000,-0.975000,1.050000,-0.975000,$1*%
%AMFreePoly1*
4,1,7,1.050000,-0.625000,0.250000,-0.625000,0.250000,-0.975000,-1.050000,-0.975000,-1.050000,0.975000,1.050000,0.975000,1.050000,-0.625000,1.050000,-0.625000,$1*%
G04 Aperture macros list end*
%ADD10C,0.100000*%
%ADD11C,0.150000*%
%ADD12C,0.120000*%
%ADD13C,0.127000*%
%ADD14C,0.152400*%
%ADD15C,0.200000*%
%ADD16C,0.010000*%
%ADD17RoundRect,0.250000X0.450000X-0.800000X0.450000X0.800000X-0.450000X0.800000X-0.450000X-0.800000X0*%
%ADD18RoundRect,0.225000X-0.225000X-0.250000X0.225000X-0.250000X0.225000X0.250000X-0.225000X0.250000X0*%
%ADD19RoundRect,0.200000X-0.200000X-0.275000X0.200000X-0.275000X0.200000X0.275000X-0.200000X0.275000X0*%
%ADD20RoundRect,0.225000X0.225000X0.375000X-0.225000X0.375000X-0.225000X-0.375000X0.225000X-0.375000X0*%
%ADD21C,4.300000*%
%ADD22RoundRect,0.102000X0.650000X1.700000X-0.650000X1.700000X-0.650000X-1.700000X0.650000X-1.700000X0*%
%ADD23RoundRect,0.218750X0.218750X0.256250X-0.218750X0.256250X-0.218750X-0.256250X0.218750X-0.256250X0*%
%ADD24RoundRect,0.200000X-0.600000X0.200000X-0.600000X-0.200000X0.600000X-0.200000X0.600000X0.200000X0*%
%ADD25RoundRect,0.250001X-1.249999X0.799999X-1.249999X-0.799999X1.249999X-0.799999X1.249999X0.799999X0*%
%ADD26C,1.734000*%
%ADD27RoundRect,0.250000X-0.475000X0.250000X-0.475000X-0.250000X0.475000X-0.250000X0.475000X0.250000X0*%
%ADD28RoundRect,0.225000X0.250000X-0.225000X0.250000X0.225000X-0.250000X0.225000X-0.250000X-0.225000X0*%
%ADD29R,1.700000X1.700000*%
%ADD30C,1.700000*%
%ADD31R,1.000000X1.000000*%
%ADD32RoundRect,0.200000X0.200000X0.275000X-0.200000X0.275000X-0.200000X-0.275000X0.200000X-0.275000X0*%
%ADD33RoundRect,0.200000X0.600000X-0.200000X0.600000X0.200000X-0.600000X0.200000X-0.600000X-0.200000X0*%
%ADD34RoundRect,0.250001X1.249999X-0.799999X1.249999X0.799999X-1.249999X0.799999X-1.249999X-0.799999X0*%
%ADD35RoundRect,0.225000X0.225000X0.250000X-0.225000X0.250000X-0.225000X-0.250000X0.225000X-0.250000X0*%
%ADD36RoundRect,0.150000X-0.587500X-0.150000X0.587500X-0.150000X0.587500X0.150000X-0.587500X0.150000X0*%
%ADD37RoundRect,0.200000X-0.275000X0.200000X-0.275000X-0.200000X0.275000X-0.200000X0.275000X0.200000X0*%
%ADD38RoundRect,0.075000X-0.475000X0.075000X-0.475000X-0.075000X0.475000X-0.075000X0.475000X0.075000X0*%
%ADD39FreePoly0,270.000000*%
%ADD40FreePoly1,270.000000*%
%ADD41C,1.000000*%
%ADD42RoundRect,0.218750X-0.256250X0.218750X-0.256250X-0.218750X0.256250X-0.218750X0.256250X0.218750X0*%
%ADD43R,0.812800X2.209800*%
%ADD44C,0.750000*%
%ADD45RoundRect,0.102000X0.600000X0.500000X-0.600000X0.500000X-0.600000X-0.500000X0.600000X-0.500000X0*%
%ADD46RoundRect,0.200000X0.275000X-0.200000X0.275000X0.200000X-0.275000X0.200000X-0.275000X-0.200000X0*%
%ADD47RoundRect,0.102000X-0.800000X-1.500000X0.800000X-1.500000X0.800000X1.500000X-0.800000X1.500000X0*%
%ADD48RoundRect,0.062500X-0.350000X-0.062500X0.350000X-0.062500X0.350000X0.062500X-0.350000X0.062500X0*%
%ADD49RoundRect,0.062500X-0.062500X-0.350000X0.062500X-0.350000X0.062500X0.350000X-0.062500X0.350000X0*%
%ADD50R,2.700000X2.700000*%
%ADD51RoundRect,0.175000X-0.175000X-0.425000X0.175000X-0.425000X0.175000X0.425000X-0.175000X0.425000X0*%
%ADD52RoundRect,0.190000X0.190000X0.410000X-0.190000X0.410000X-0.190000X-0.410000X0.190000X-0.410000X0*%
%ADD53RoundRect,0.200000X0.200000X0.400000X-0.200000X0.400000X-0.200000X-0.400000X0.200000X-0.400000X0*%
%ADD54RoundRect,0.175000X0.175000X0.425000X-0.175000X0.425000X-0.175000X-0.425000X0.175000X-0.425000X0*%
%ADD55RoundRect,0.190000X-0.190000X-0.410000X0.190000X-0.410000X0.190000X0.410000X-0.190000X0.410000X0*%
%ADD56RoundRect,0.200000X-0.200000X-0.400000X0.200000X-0.400000X0.200000X0.400000X-0.200000X0.400000X0*%
%ADD57O,1.100000X1.700000*%
%ADD58RoundRect,0.225000X-0.225000X-0.375000X0.225000X-0.375000X0.225000X0.375000X-0.225000X0.375000X0*%
%ADD59RoundRect,0.102000X-0.750000X-0.350000X0.750000X-0.350000X0.750000X0.350000X-0.750000X0.350000X0*%
%ADD60C,0.804000*%
%ADD61RoundRect,0.225000X-0.250000X0.225000X-0.250000X-0.225000X0.250000X-0.225000X0.250000X0.225000X0*%
%ADD62RoundRect,0.250000X0.475000X-0.250000X0.475000X0.250000X-0.475000X0.250000X-0.475000X-0.250000X0*%
G04 APERTURE END LIST*
D10*
X13129598Y-61923786D02*
X13384836Y-61923786D01*
X13225312Y-61657120D02*
X13225312Y-62342834D01*
X13225312Y-62342834D02*
X13257217Y-62419025D01*
X13257217Y-62419025D02*
X13321027Y-62457120D01*
X13321027Y-62457120D02*
X13384836Y-62457120D01*
X13863407Y-62419025D02*
X13799598Y-62457120D01*
X13799598Y-62457120D02*
X13671979Y-62457120D01*
X13671979Y-62457120D02*
X13608169Y-62419025D01*
X13608169Y-62419025D02*
X13576265Y-62342834D01*
X13576265Y-62342834D02*
X13576265Y-62038072D01*
X13576265Y-62038072D02*
X13608169Y-61961882D01*
X13608169Y-61961882D02*
X13671979Y-61923786D01*
X13671979Y-61923786D02*
X13799598Y-61923786D01*
X13799598Y-61923786D02*
X13863407Y-61961882D01*
X13863407Y-61961882D02*
X13895312Y-62038072D01*
X13895312Y-62038072D02*
X13895312Y-62114263D01*
X13895312Y-62114263D02*
X13576265Y-62190453D01*
X14469598Y-62457120D02*
X14469598Y-62038072D01*
X14469598Y-62038072D02*
X14437693Y-61961882D01*
X14437693Y-61961882D02*
X14373884Y-61923786D01*
X14373884Y-61923786D02*
X14246265Y-61923786D01*
X14246265Y-61923786D02*
X14182455Y-61961882D01*
X14469598Y-62419025D02*
X14405789Y-62457120D01*
X14405789Y-62457120D02*
X14246265Y-62457120D01*
X14246265Y-62457120D02*
X14182455Y-62419025D01*
X14182455Y-62419025D02*
X14150551Y-62342834D01*
X14150551Y-62342834D02*
X14150551Y-62266644D01*
X14150551Y-62266644D02*
X14182455Y-62190453D01*
X14182455Y-62190453D02*
X14246265Y-62152358D01*
X14246265Y-62152358D02*
X14405789Y-62152358D01*
X14405789Y-62152358D02*
X14469598Y-62114263D01*
X14788645Y-62457120D02*
X14788645Y-61923786D01*
X14788645Y-61999977D02*
X14820550Y-61961882D01*
X14820550Y-61961882D02*
X14884360Y-61923786D01*
X14884360Y-61923786D02*
X14980074Y-61923786D01*
X14980074Y-61923786D02*
X15043883Y-61961882D01*
X15043883Y-61961882D02*
X15075788Y-62038072D01*
X15075788Y-62038072D02*
X15075788Y-62457120D01*
X15075788Y-62038072D02*
X15107693Y-61961882D01*
X15107693Y-61961882D02*
X15171502Y-61923786D01*
X15171502Y-61923786D02*
X15267217Y-61923786D01*
X15267217Y-61923786D02*
X15331026Y-61961882D01*
X15331026Y-61961882D02*
X15362931Y-62038072D01*
X15362931Y-62038072D02*
X15362931Y-62457120D01*
X16543407Y-62457120D02*
X16160550Y-62457120D01*
X16351978Y-62457120D02*
X16351978Y-61657120D01*
X16351978Y-61657120D02*
X16288169Y-61771405D01*
X16288169Y-61771405D02*
X16224359Y-61847596D01*
X16224359Y-61847596D02*
X16160550Y-61885691D01*
X17149597Y-61657120D02*
X16830549Y-61657120D01*
X16830549Y-61657120D02*
X16798645Y-62038072D01*
X16798645Y-62038072D02*
X16830549Y-61999977D01*
X16830549Y-61999977D02*
X16894359Y-61961882D01*
X16894359Y-61961882D02*
X17053883Y-61961882D01*
X17053883Y-61961882D02*
X17117692Y-61999977D01*
X17117692Y-61999977D02*
X17149597Y-62038072D01*
X17149597Y-62038072D02*
X17181502Y-62114263D01*
X17181502Y-62114263D02*
X17181502Y-62304739D01*
X17181502Y-62304739D02*
X17149597Y-62380929D01*
X17149597Y-62380929D02*
X17117692Y-62419025D01*
X17117692Y-62419025D02*
X17053883Y-62457120D01*
X17053883Y-62457120D02*
X16894359Y-62457120D01*
X16894359Y-62457120D02*
X16830549Y-62419025D01*
X16830549Y-62419025D02*
X16798645Y-62380929D01*
X17979120Y-62380929D02*
X18011025Y-62419025D01*
X18011025Y-62419025D02*
X17979120Y-62457120D01*
X17979120Y-62457120D02*
X17947216Y-62419025D01*
X17947216Y-62419025D02*
X17979120Y-62380929D01*
X17979120Y-62380929D02*
X17979120Y-62457120D01*
X17979120Y-61961882D02*
X18011025Y-61999977D01*
X18011025Y-61999977D02*
X17979120Y-62038072D01*
X17979120Y-62038072D02*
X17947216Y-61999977D01*
X17947216Y-61999977D02*
X17979120Y-61961882D01*
X17979120Y-61961882D02*
X17979120Y-62038072D01*
X18234359Y-62761882D02*
X18266264Y-62723786D01*
X18266264Y-62723786D02*
X18330073Y-62609501D01*
X18330073Y-62609501D02*
X18361978Y-62533310D01*
X18361978Y-62533310D02*
X18393883Y-62419025D01*
X18393883Y-62419025D02*
X18425787Y-62228548D01*
X18425787Y-62228548D02*
X18425787Y-62076167D01*
X18425787Y-62076167D02*
X18393883Y-61885691D01*
X18393883Y-61885691D02*
X18361978Y-61771405D01*
X18361978Y-61771405D02*
X18330073Y-61695215D01*
X18330073Y-61695215D02*
X18266264Y-61580929D01*
X18266264Y-61580929D02*
X18234359Y-61542834D01*
X13225312Y-63326027D02*
X13448646Y-63326027D01*
X13544360Y-63745075D02*
X13225312Y-63745075D01*
X13225312Y-63745075D02*
X13225312Y-62945075D01*
X13225312Y-62945075D02*
X13544360Y-62945075D01*
X14214359Y-63668884D02*
X14182455Y-63706980D01*
X14182455Y-63706980D02*
X14086740Y-63745075D01*
X14086740Y-63745075D02*
X14022931Y-63745075D01*
X14022931Y-63745075D02*
X13927217Y-63706980D01*
X13927217Y-63706980D02*
X13863407Y-63630789D01*
X13863407Y-63630789D02*
X13831502Y-63554599D01*
X13831502Y-63554599D02*
X13799598Y-63402218D01*
X13799598Y-63402218D02*
X13799598Y-63287932D01*
X13799598Y-63287932D02*
X13831502Y-63135551D01*
X13831502Y-63135551D02*
X13863407Y-63059360D01*
X13863407Y-63059360D02*
X13927217Y-62983170D01*
X13927217Y-62983170D02*
X14022931Y-62945075D01*
X14022931Y-62945075D02*
X14086740Y-62945075D01*
X14086740Y-62945075D02*
X14182455Y-62983170D01*
X14182455Y-62983170D02*
X14214359Y-63021265D01*
X14501502Y-63326027D02*
X14724836Y-63326027D01*
X14820550Y-63745075D02*
X14501502Y-63745075D01*
X14501502Y-63745075D02*
X14501502Y-62945075D01*
X14501502Y-62945075D02*
X14820550Y-62945075D01*
X15905311Y-63211741D02*
X15905311Y-63745075D01*
X15745787Y-62906980D02*
X15586264Y-63478408D01*
X15586264Y-63478408D02*
X16001025Y-63478408D01*
X16288168Y-63745075D02*
X16415787Y-63745075D01*
X16415787Y-63745075D02*
X16479597Y-63706980D01*
X16479597Y-63706980D02*
X16511501Y-63668884D01*
X16511501Y-63668884D02*
X16575311Y-63554599D01*
X16575311Y-63554599D02*
X16607216Y-63402218D01*
X16607216Y-63402218D02*
X16607216Y-63097456D01*
X16607216Y-63097456D02*
X16575311Y-63021265D01*
X16575311Y-63021265D02*
X16543406Y-62983170D01*
X16543406Y-62983170D02*
X16479597Y-62945075D01*
X16479597Y-62945075D02*
X16351978Y-62945075D01*
X16351978Y-62945075D02*
X16288168Y-62983170D01*
X16288168Y-62983170D02*
X16256263Y-63021265D01*
X16256263Y-63021265D02*
X16224359Y-63097456D01*
X16224359Y-63097456D02*
X16224359Y-63287932D01*
X16224359Y-63287932D02*
X16256263Y-63364122D01*
X16256263Y-63364122D02*
X16288168Y-63402218D01*
X16288168Y-63402218D02*
X16351978Y-63440313D01*
X16351978Y-63440313D02*
X16479597Y-63440313D01*
X16479597Y-63440313D02*
X16543406Y-63402218D01*
X16543406Y-63402218D02*
X16575311Y-63364122D01*
X16575311Y-63364122D02*
X16607216Y-63287932D01*
X17213406Y-62945075D02*
X16894358Y-62945075D01*
X16894358Y-62945075D02*
X16862454Y-63326027D01*
X16862454Y-63326027D02*
X16894358Y-63287932D01*
X16894358Y-63287932D02*
X16958168Y-63249837D01*
X16958168Y-63249837D02*
X17117692Y-63249837D01*
X17117692Y-63249837D02*
X17181501Y-63287932D01*
X17181501Y-63287932D02*
X17213406Y-63326027D01*
X17213406Y-63326027D02*
X17245311Y-63402218D01*
X17245311Y-63402218D02*
X17245311Y-63592694D01*
X17245311Y-63592694D02*
X17213406Y-63668884D01*
X17213406Y-63668884D02*
X17181501Y-63706980D01*
X17181501Y-63706980D02*
X17117692Y-63745075D01*
X17117692Y-63745075D02*
X16958168Y-63745075D01*
X16958168Y-63745075D02*
X16894358Y-63706980D01*
X16894358Y-63706980D02*
X16862454Y-63668884D01*
X17564358Y-63745075D02*
X17691977Y-63745075D01*
X17691977Y-63745075D02*
X17755787Y-63706980D01*
X17755787Y-63706980D02*
X17787691Y-63668884D01*
X17787691Y-63668884D02*
X17851501Y-63554599D01*
X17851501Y-63554599D02*
X17883406Y-63402218D01*
X17883406Y-63402218D02*
X17883406Y-63097456D01*
X17883406Y-63097456D02*
X17851501Y-63021265D01*
X17851501Y-63021265D02*
X17819596Y-62983170D01*
X17819596Y-62983170D02*
X17755787Y-62945075D01*
X17755787Y-62945075D02*
X17628168Y-62945075D01*
X17628168Y-62945075D02*
X17564358Y-62983170D01*
X17564358Y-62983170D02*
X17532453Y-63021265D01*
X17532453Y-63021265D02*
X17500549Y-63097456D01*
X17500549Y-63097456D02*
X17500549Y-63287932D01*
X17500549Y-63287932D02*
X17532453Y-63364122D01*
X17532453Y-63364122D02*
X17564358Y-63402218D01*
X17564358Y-63402218D02*
X17628168Y-63440313D01*
X17628168Y-63440313D02*
X17755787Y-63440313D01*
X17755787Y-63440313D02*
X17819596Y-63402218D01*
X17819596Y-63402218D02*
X17851501Y-63364122D01*
X17851501Y-63364122D02*
X17883406Y-63287932D01*
X18489596Y-62945075D02*
X18170548Y-62945075D01*
X18170548Y-62945075D02*
X18138644Y-63326027D01*
X18138644Y-63326027D02*
X18170548Y-63287932D01*
X18170548Y-63287932D02*
X18234358Y-63249837D01*
X18234358Y-63249837D02*
X18393882Y-63249837D01*
X18393882Y-63249837D02*
X18457691Y-63287932D01*
X18457691Y-63287932D02*
X18489596Y-63326027D01*
X18489596Y-63326027D02*
X18521501Y-63402218D01*
X18521501Y-63402218D02*
X18521501Y-63592694D01*
X18521501Y-63592694D02*
X18489596Y-63668884D01*
X18489596Y-63668884D02*
X18457691Y-63706980D01*
X18457691Y-63706980D02*
X18393882Y-63745075D01*
X18393882Y-63745075D02*
X18234358Y-63745075D01*
X18234358Y-63745075D02*
X18170548Y-63706980D01*
X18170548Y-63706980D02*
X18138644Y-63668884D01*
X19701976Y-63668884D02*
X19670072Y-63706980D01*
X19670072Y-63706980D02*
X19574357Y-63745075D01*
X19574357Y-63745075D02*
X19510548Y-63745075D01*
X19510548Y-63745075D02*
X19414834Y-63706980D01*
X19414834Y-63706980D02*
X19351024Y-63630789D01*
X19351024Y-63630789D02*
X19319119Y-63554599D01*
X19319119Y-63554599D02*
X19287215Y-63402218D01*
X19287215Y-63402218D02*
X19287215Y-63287932D01*
X19287215Y-63287932D02*
X19319119Y-63135551D01*
X19319119Y-63135551D02*
X19351024Y-63059360D01*
X19351024Y-63059360D02*
X19414834Y-62983170D01*
X19414834Y-62983170D02*
X19510548Y-62945075D01*
X19510548Y-62945075D02*
X19574357Y-62945075D01*
X19574357Y-62945075D02*
X19670072Y-62983170D01*
X19670072Y-62983170D02*
X19701976Y-63021265D01*
X20116738Y-62945075D02*
X20244357Y-62945075D01*
X20244357Y-62945075D02*
X20308167Y-62983170D01*
X20308167Y-62983170D02*
X20371976Y-63059360D01*
X20371976Y-63059360D02*
X20403881Y-63211741D01*
X20403881Y-63211741D02*
X20403881Y-63478408D01*
X20403881Y-63478408D02*
X20371976Y-63630789D01*
X20371976Y-63630789D02*
X20308167Y-63706980D01*
X20308167Y-63706980D02*
X20244357Y-63745075D01*
X20244357Y-63745075D02*
X20116738Y-63745075D01*
X20116738Y-63745075D02*
X20052929Y-63706980D01*
X20052929Y-63706980D02*
X19989119Y-63630789D01*
X19989119Y-63630789D02*
X19957215Y-63478408D01*
X19957215Y-63478408D02*
X19957215Y-63211741D01*
X19957215Y-63211741D02*
X19989119Y-63059360D01*
X19989119Y-63059360D02*
X20052929Y-62983170D01*
X20052929Y-62983170D02*
X20116738Y-62945075D01*
X21233405Y-62945075D02*
X21169596Y-63097456D01*
X21488644Y-63021265D02*
X21520548Y-62983170D01*
X21520548Y-62983170D02*
X21584358Y-62945075D01*
X21584358Y-62945075D02*
X21743882Y-62945075D01*
X21743882Y-62945075D02*
X21807691Y-62983170D01*
X21807691Y-62983170D02*
X21839596Y-63021265D01*
X21839596Y-63021265D02*
X21871501Y-63097456D01*
X21871501Y-63097456D02*
X21871501Y-63173646D01*
X21871501Y-63173646D02*
X21839596Y-63287932D01*
X21839596Y-63287932D02*
X21456739Y-63745075D01*
X21456739Y-63745075D02*
X21871501Y-63745075D01*
X22445786Y-62945075D02*
X22318167Y-62945075D01*
X22318167Y-62945075D02*
X22254358Y-62983170D01*
X22254358Y-62983170D02*
X22222453Y-63021265D01*
X22222453Y-63021265D02*
X22158643Y-63135551D01*
X22158643Y-63135551D02*
X22126739Y-63287932D01*
X22126739Y-63287932D02*
X22126739Y-63592694D01*
X22126739Y-63592694D02*
X22158643Y-63668884D01*
X22158643Y-63668884D02*
X22190548Y-63706980D01*
X22190548Y-63706980D02*
X22254358Y-63745075D01*
X22254358Y-63745075D02*
X22381977Y-63745075D01*
X22381977Y-63745075D02*
X22445786Y-63706980D01*
X22445786Y-63706980D02*
X22477691Y-63668884D01*
X22477691Y-63668884D02*
X22509596Y-63592694D01*
X22509596Y-63592694D02*
X22509596Y-63402218D01*
X22509596Y-63402218D02*
X22477691Y-63326027D01*
X22477691Y-63326027D02*
X22445786Y-63287932D01*
X22445786Y-63287932D02*
X22381977Y-63249837D01*
X22381977Y-63249837D02*
X22254358Y-63249837D01*
X22254358Y-63249837D02*
X22190548Y-63287932D01*
X22190548Y-63287932D02*
X22158643Y-63326027D01*
X22158643Y-63326027D02*
X22126739Y-63402218D01*
X13193408Y-64804458D02*
X13512455Y-64804458D01*
X13129598Y-65033030D02*
X13352931Y-64233030D01*
X13352931Y-64233030D02*
X13576265Y-65033030D01*
X14086741Y-64499696D02*
X14086741Y-65033030D01*
X13799598Y-64499696D02*
X13799598Y-64918744D01*
X13799598Y-64918744D02*
X13831503Y-64994935D01*
X13831503Y-64994935D02*
X13895313Y-65033030D01*
X13895313Y-65033030D02*
X13991027Y-65033030D01*
X13991027Y-65033030D02*
X14054836Y-64994935D01*
X14054836Y-64994935D02*
X14086741Y-64956839D01*
X14373884Y-64994935D02*
X14437693Y-65033030D01*
X14437693Y-65033030D02*
X14565312Y-65033030D01*
X14565312Y-65033030D02*
X14629122Y-64994935D01*
X14629122Y-64994935D02*
X14661026Y-64918744D01*
X14661026Y-64918744D02*
X14661026Y-64880649D01*
X14661026Y-64880649D02*
X14629122Y-64804458D01*
X14629122Y-64804458D02*
X14565312Y-64766363D01*
X14565312Y-64766363D02*
X14469598Y-64766363D01*
X14469598Y-64766363D02*
X14405788Y-64728268D01*
X14405788Y-64728268D02*
X14373884Y-64652077D01*
X14373884Y-64652077D02*
X14373884Y-64613982D01*
X14373884Y-64613982D02*
X14405788Y-64537792D01*
X14405788Y-64537792D02*
X14469598Y-64499696D01*
X14469598Y-64499696D02*
X14565312Y-64499696D01*
X14565312Y-64499696D02*
X14629122Y-64537792D01*
X14852455Y-64499696D02*
X15107693Y-64499696D01*
X14948169Y-64233030D02*
X14948169Y-64918744D01*
X14948169Y-64918744D02*
X14980074Y-64994935D01*
X14980074Y-64994935D02*
X15043884Y-65033030D01*
X15043884Y-65033030D02*
X15107693Y-65033030D01*
X15331026Y-65033030D02*
X15331026Y-64499696D01*
X15331026Y-64233030D02*
X15299122Y-64271125D01*
X15299122Y-64271125D02*
X15331026Y-64309220D01*
X15331026Y-64309220D02*
X15362931Y-64271125D01*
X15362931Y-64271125D02*
X15331026Y-64233030D01*
X15331026Y-64233030D02*
X15331026Y-64309220D01*
X15650074Y-64499696D02*
X15650074Y-65033030D01*
X15650074Y-64575887D02*
X15681979Y-64537792D01*
X15681979Y-64537792D02*
X15745789Y-64499696D01*
X15745789Y-64499696D02*
X15841503Y-64499696D01*
X15841503Y-64499696D02*
X15905312Y-64537792D01*
X15905312Y-64537792D02*
X15937217Y-64613982D01*
X15937217Y-64613982D02*
X15937217Y-65033030D01*
X17085788Y-65033030D02*
X16766740Y-65033030D01*
X16766740Y-65033030D02*
X16766740Y-64233030D01*
X17596264Y-64499696D02*
X17596264Y-65033030D01*
X17309121Y-64499696D02*
X17309121Y-64918744D01*
X17309121Y-64918744D02*
X17341026Y-64994935D01*
X17341026Y-64994935D02*
X17404836Y-65033030D01*
X17404836Y-65033030D02*
X17500550Y-65033030D01*
X17500550Y-65033030D02*
X17564359Y-64994935D01*
X17564359Y-64994935D02*
X17596264Y-64956839D01*
X18202454Y-64499696D02*
X18202454Y-65147315D01*
X18202454Y-65147315D02*
X18170549Y-65223506D01*
X18170549Y-65223506D02*
X18138645Y-65261601D01*
X18138645Y-65261601D02*
X18074835Y-65299696D01*
X18074835Y-65299696D02*
X17979121Y-65299696D01*
X17979121Y-65299696D02*
X17915311Y-65261601D01*
X18202454Y-64994935D02*
X18138645Y-65033030D01*
X18138645Y-65033030D02*
X18011026Y-65033030D01*
X18011026Y-65033030D02*
X17947216Y-64994935D01*
X17947216Y-64994935D02*
X17915311Y-64956839D01*
X17915311Y-64956839D02*
X17883407Y-64880649D01*
X17883407Y-64880649D02*
X17883407Y-64652077D01*
X17883407Y-64652077D02*
X17915311Y-64575887D01*
X17915311Y-64575887D02*
X17947216Y-64537792D01*
X17947216Y-64537792D02*
X18011026Y-64499696D01*
X18011026Y-64499696D02*
X18138645Y-64499696D01*
X18138645Y-64499696D02*
X18202454Y-64537792D01*
X18617216Y-65033030D02*
X18553406Y-64994935D01*
X18553406Y-64994935D02*
X18521501Y-64956839D01*
X18521501Y-64956839D02*
X18489597Y-64880649D01*
X18489597Y-64880649D02*
X18489597Y-64652077D01*
X18489597Y-64652077D02*
X18521501Y-64575887D01*
X18521501Y-64575887D02*
X18553406Y-64537792D01*
X18553406Y-64537792D02*
X18617216Y-64499696D01*
X18617216Y-64499696D02*
X18712930Y-64499696D01*
X18712930Y-64499696D02*
X18776739Y-64537792D01*
X18776739Y-64537792D02*
X18808644Y-64575887D01*
X18808644Y-64575887D02*
X18840549Y-64652077D01*
X18840549Y-64652077D02*
X18840549Y-64880649D01*
X18840549Y-64880649D02*
X18808644Y-64956839D01*
X18808644Y-64956839D02*
X18776739Y-64994935D01*
X18776739Y-64994935D02*
X18712930Y-65033030D01*
X18712930Y-65033030D02*
X18617216Y-65033030D01*
X13416741Y-65520985D02*
X13416741Y-66092413D01*
X13416741Y-66092413D02*
X13384836Y-66206699D01*
X13384836Y-66206699D02*
X13321027Y-66282890D01*
X13321027Y-66282890D02*
X13225312Y-66320985D01*
X13225312Y-66320985D02*
X13161503Y-66320985D01*
X13831503Y-66320985D02*
X13767693Y-66282890D01*
X13767693Y-66282890D02*
X13735788Y-66244794D01*
X13735788Y-66244794D02*
X13703884Y-66168604D01*
X13703884Y-66168604D02*
X13703884Y-65940032D01*
X13703884Y-65940032D02*
X13735788Y-65863842D01*
X13735788Y-65863842D02*
X13767693Y-65825747D01*
X13767693Y-65825747D02*
X13831503Y-65787651D01*
X13831503Y-65787651D02*
X13927217Y-65787651D01*
X13927217Y-65787651D02*
X13991026Y-65825747D01*
X13991026Y-65825747D02*
X14022931Y-65863842D01*
X14022931Y-65863842D02*
X14054836Y-65940032D01*
X14054836Y-65940032D02*
X14054836Y-66168604D01*
X14054836Y-66168604D02*
X14022931Y-66244794D01*
X14022931Y-66244794D02*
X13991026Y-66282890D01*
X13991026Y-66282890D02*
X13927217Y-66320985D01*
X13927217Y-66320985D02*
X13831503Y-66320985D01*
X14310074Y-66282890D02*
X14373883Y-66320985D01*
X14373883Y-66320985D02*
X14501502Y-66320985D01*
X14501502Y-66320985D02*
X14565312Y-66282890D01*
X14565312Y-66282890D02*
X14597216Y-66206699D01*
X14597216Y-66206699D02*
X14597216Y-66168604D01*
X14597216Y-66168604D02*
X14565312Y-66092413D01*
X14565312Y-66092413D02*
X14501502Y-66054318D01*
X14501502Y-66054318D02*
X14405788Y-66054318D01*
X14405788Y-66054318D02*
X14341978Y-66016223D01*
X14341978Y-66016223D02*
X14310074Y-65940032D01*
X14310074Y-65940032D02*
X14310074Y-65901937D01*
X14310074Y-65901937D02*
X14341978Y-65825747D01*
X14341978Y-65825747D02*
X14405788Y-65787651D01*
X14405788Y-65787651D02*
X14501502Y-65787651D01*
X14501502Y-65787651D02*
X14565312Y-65825747D01*
X14884359Y-66320985D02*
X14884359Y-65520985D01*
X15171502Y-66320985D02*
X15171502Y-65901937D01*
X15171502Y-65901937D02*
X15139597Y-65825747D01*
X15139597Y-65825747D02*
X15075788Y-65787651D01*
X15075788Y-65787651D02*
X14980074Y-65787651D01*
X14980074Y-65787651D02*
X14916264Y-65825747D01*
X14916264Y-65825747D02*
X14884359Y-65863842D01*
X15777692Y-65787651D02*
X15777692Y-66320985D01*
X15490549Y-65787651D02*
X15490549Y-66206699D01*
X15490549Y-66206699D02*
X15522454Y-66282890D01*
X15522454Y-66282890D02*
X15586264Y-66320985D01*
X15586264Y-66320985D02*
X15681978Y-66320985D01*
X15681978Y-66320985D02*
X15745787Y-66282890D01*
X15745787Y-66282890D02*
X15777692Y-66244794D01*
X16383882Y-66320985D02*
X16383882Y-65901937D01*
X16383882Y-65901937D02*
X16351977Y-65825747D01*
X16351977Y-65825747D02*
X16288168Y-65787651D01*
X16288168Y-65787651D02*
X16160549Y-65787651D01*
X16160549Y-65787651D02*
X16096739Y-65825747D01*
X16383882Y-66282890D02*
X16320073Y-66320985D01*
X16320073Y-66320985D02*
X16160549Y-66320985D01*
X16160549Y-66320985D02*
X16096739Y-66282890D01*
X16096739Y-66282890D02*
X16064835Y-66206699D01*
X16064835Y-66206699D02*
X16064835Y-66130509D01*
X16064835Y-66130509D02*
X16096739Y-66054318D01*
X16096739Y-66054318D02*
X16160549Y-66016223D01*
X16160549Y-66016223D02*
X16320073Y-66016223D01*
X16320073Y-66016223D02*
X16383882Y-65978128D01*
X17117691Y-65520985D02*
X17341024Y-66320985D01*
X17341024Y-66320985D02*
X17564358Y-65520985D01*
X17787691Y-66320985D02*
X17787691Y-65787651D01*
X17787691Y-65520985D02*
X17755787Y-65559080D01*
X17755787Y-65559080D02*
X17787691Y-65597175D01*
X17787691Y-65597175D02*
X17819596Y-65559080D01*
X17819596Y-65559080D02*
X17787691Y-65520985D01*
X17787691Y-65520985D02*
X17787691Y-65597175D01*
X18202454Y-66320985D02*
X18138644Y-66282890D01*
X18138644Y-66282890D02*
X18106739Y-66206699D01*
X18106739Y-66206699D02*
X18106739Y-65520985D01*
X18553406Y-66320985D02*
X18489596Y-66282890D01*
X18489596Y-66282890D02*
X18457691Y-66206699D01*
X18457691Y-66206699D02*
X18457691Y-65520985D01*
X19095786Y-66320985D02*
X19095786Y-65901937D01*
X19095786Y-65901937D02*
X19063881Y-65825747D01*
X19063881Y-65825747D02*
X19000072Y-65787651D01*
X19000072Y-65787651D02*
X18872453Y-65787651D01*
X18872453Y-65787651D02*
X18808643Y-65825747D01*
X19095786Y-66282890D02*
X19031977Y-66320985D01*
X19031977Y-66320985D02*
X18872453Y-66320985D01*
X18872453Y-66320985D02*
X18808643Y-66282890D01*
X18808643Y-66282890D02*
X18776739Y-66206699D01*
X18776739Y-66206699D02*
X18776739Y-66130509D01*
X18776739Y-66130509D02*
X18808643Y-66054318D01*
X18808643Y-66054318D02*
X18872453Y-66016223D01*
X18872453Y-66016223D02*
X19031977Y-66016223D01*
X19031977Y-66016223D02*
X19095786Y-65978128D01*
X19382929Y-66282890D02*
X19446738Y-66320985D01*
X19446738Y-66320985D02*
X19574357Y-66320985D01*
X19574357Y-66320985D02*
X19638167Y-66282890D01*
X19638167Y-66282890D02*
X19670071Y-66206699D01*
X19670071Y-66206699D02*
X19670071Y-66168604D01*
X19670071Y-66168604D02*
X19638167Y-66092413D01*
X19638167Y-66092413D02*
X19574357Y-66054318D01*
X19574357Y-66054318D02*
X19478643Y-66054318D01*
X19478643Y-66054318D02*
X19414833Y-66016223D01*
X19414833Y-66016223D02*
X19382929Y-65940032D01*
X19382929Y-65940032D02*
X19382929Y-65901937D01*
X19382929Y-65901937D02*
X19414833Y-65825747D01*
X19414833Y-65825747D02*
X19478643Y-65787651D01*
X19478643Y-65787651D02*
X19574357Y-65787651D01*
X19574357Y-65787651D02*
X19638167Y-65825747D01*
X20052929Y-66320985D02*
X19989119Y-66282890D01*
X19989119Y-66282890D02*
X19957214Y-66244794D01*
X19957214Y-66244794D02*
X19925310Y-66168604D01*
X19925310Y-66168604D02*
X19925310Y-65940032D01*
X19925310Y-65940032D02*
X19957214Y-65863842D01*
X19957214Y-65863842D02*
X19989119Y-65825747D01*
X19989119Y-65825747D02*
X20052929Y-65787651D01*
X20052929Y-65787651D02*
X20148643Y-65787651D01*
X20148643Y-65787651D02*
X20212452Y-65825747D01*
X20212452Y-65825747D02*
X20244357Y-65863842D01*
X20244357Y-65863842D02*
X20276262Y-65940032D01*
X20276262Y-65940032D02*
X20276262Y-66168604D01*
X20276262Y-66168604D02*
X20244357Y-66244794D01*
X20244357Y-66244794D02*
X20212452Y-66282890D01*
X20212452Y-66282890D02*
X20148643Y-66320985D01*
X20148643Y-66320985D02*
X20052929Y-66320985D01*
X20659119Y-66320985D02*
X20595309Y-66282890D01*
X20595309Y-66282890D02*
X20563404Y-66206699D01*
X20563404Y-66206699D02*
X20563404Y-65520985D01*
X13608169Y-67608940D02*
X13384836Y-67227987D01*
X13225312Y-67608940D02*
X13225312Y-66808940D01*
X13225312Y-66808940D02*
X13480550Y-66808940D01*
X13480550Y-66808940D02*
X13544360Y-66847035D01*
X13544360Y-66847035D02*
X13576265Y-66885130D01*
X13576265Y-66885130D02*
X13608169Y-66961321D01*
X13608169Y-66961321D02*
X13608169Y-67075606D01*
X13608169Y-67075606D02*
X13576265Y-67151797D01*
X13576265Y-67151797D02*
X13544360Y-67189892D01*
X13544360Y-67189892D02*
X13480550Y-67227987D01*
X13480550Y-67227987D02*
X13225312Y-67227987D01*
X14182455Y-67608940D02*
X14182455Y-67189892D01*
X14182455Y-67189892D02*
X14150550Y-67113702D01*
X14150550Y-67113702D02*
X14086741Y-67075606D01*
X14086741Y-67075606D02*
X13959122Y-67075606D01*
X13959122Y-67075606D02*
X13895312Y-67113702D01*
X14182455Y-67570845D02*
X14118646Y-67608940D01*
X14118646Y-67608940D02*
X13959122Y-67608940D01*
X13959122Y-67608940D02*
X13895312Y-67570845D01*
X13895312Y-67570845D02*
X13863408Y-67494654D01*
X13863408Y-67494654D02*
X13863408Y-67418464D01*
X13863408Y-67418464D02*
X13895312Y-67342273D01*
X13895312Y-67342273D02*
X13959122Y-67304178D01*
X13959122Y-67304178D02*
X14118646Y-67304178D01*
X14118646Y-67304178D02*
X14182455Y-67266083D01*
X14788645Y-67570845D02*
X14724836Y-67608940D01*
X14724836Y-67608940D02*
X14597217Y-67608940D01*
X14597217Y-67608940D02*
X14533407Y-67570845D01*
X14533407Y-67570845D02*
X14501502Y-67532749D01*
X14501502Y-67532749D02*
X14469598Y-67456559D01*
X14469598Y-67456559D02*
X14469598Y-67227987D01*
X14469598Y-67227987D02*
X14501502Y-67151797D01*
X14501502Y-67151797D02*
X14533407Y-67113702D01*
X14533407Y-67113702D02*
X14597217Y-67075606D01*
X14597217Y-67075606D02*
X14724836Y-67075606D01*
X14724836Y-67075606D02*
X14788645Y-67113702D01*
X15075788Y-67608940D02*
X15075788Y-66808940D01*
X15362931Y-67608940D02*
X15362931Y-67189892D01*
X15362931Y-67189892D02*
X15331026Y-67113702D01*
X15331026Y-67113702D02*
X15267217Y-67075606D01*
X15267217Y-67075606D02*
X15171503Y-67075606D01*
X15171503Y-67075606D02*
X15107693Y-67113702D01*
X15107693Y-67113702D02*
X15075788Y-67151797D01*
X15937216Y-67570845D02*
X15873407Y-67608940D01*
X15873407Y-67608940D02*
X15745788Y-67608940D01*
X15745788Y-67608940D02*
X15681978Y-67570845D01*
X15681978Y-67570845D02*
X15650074Y-67494654D01*
X15650074Y-67494654D02*
X15650074Y-67189892D01*
X15650074Y-67189892D02*
X15681978Y-67113702D01*
X15681978Y-67113702D02*
X15745788Y-67075606D01*
X15745788Y-67075606D02*
X15873407Y-67075606D01*
X15873407Y-67075606D02*
X15937216Y-67113702D01*
X15937216Y-67113702D02*
X15969121Y-67189892D01*
X15969121Y-67189892D02*
X15969121Y-67266083D01*
X15969121Y-67266083D02*
X15650074Y-67342273D01*
X16351979Y-67608940D02*
X16288169Y-67570845D01*
X16288169Y-67570845D02*
X16256264Y-67494654D01*
X16256264Y-67494654D02*
X16256264Y-66808940D01*
X17500549Y-67532749D02*
X17468645Y-67570845D01*
X17468645Y-67570845D02*
X17372930Y-67608940D01*
X17372930Y-67608940D02*
X17309121Y-67608940D01*
X17309121Y-67608940D02*
X17213407Y-67570845D01*
X17213407Y-67570845D02*
X17149597Y-67494654D01*
X17149597Y-67494654D02*
X17117692Y-67418464D01*
X17117692Y-67418464D02*
X17085788Y-67266083D01*
X17085788Y-67266083D02*
X17085788Y-67151797D01*
X17085788Y-67151797D02*
X17117692Y-66999416D01*
X17117692Y-66999416D02*
X17149597Y-66923225D01*
X17149597Y-66923225D02*
X17213407Y-66847035D01*
X17213407Y-66847035D02*
X17309121Y-66808940D01*
X17309121Y-66808940D02*
X17372930Y-66808940D01*
X17372930Y-66808940D02*
X17468645Y-66847035D01*
X17468645Y-66847035D02*
X17500549Y-66885130D01*
X17787692Y-67608940D02*
X17787692Y-66808940D01*
X18074835Y-67608940D02*
X18074835Y-67189892D01*
X18074835Y-67189892D02*
X18042930Y-67113702D01*
X18042930Y-67113702D02*
X17979121Y-67075606D01*
X17979121Y-67075606D02*
X17883407Y-67075606D01*
X17883407Y-67075606D02*
X17819597Y-67113702D01*
X17819597Y-67113702D02*
X17787692Y-67151797D01*
X18649120Y-67570845D02*
X18585311Y-67608940D01*
X18585311Y-67608940D02*
X18457692Y-67608940D01*
X18457692Y-67608940D02*
X18393882Y-67570845D01*
X18393882Y-67570845D02*
X18361978Y-67494654D01*
X18361978Y-67494654D02*
X18361978Y-67189892D01*
X18361978Y-67189892D02*
X18393882Y-67113702D01*
X18393882Y-67113702D02*
X18457692Y-67075606D01*
X18457692Y-67075606D02*
X18585311Y-67075606D01*
X18585311Y-67075606D02*
X18649120Y-67113702D01*
X18649120Y-67113702D02*
X18681025Y-67189892D01*
X18681025Y-67189892D02*
X18681025Y-67266083D01*
X18681025Y-67266083D02*
X18361978Y-67342273D01*
X18968168Y-67075606D02*
X18968168Y-67608940D01*
X18968168Y-67151797D02*
X19000073Y-67113702D01*
X19000073Y-67113702D02*
X19063883Y-67075606D01*
X19063883Y-67075606D02*
X19159597Y-67075606D01*
X19159597Y-67075606D02*
X19223406Y-67113702D01*
X19223406Y-67113702D02*
X19255311Y-67189892D01*
X19255311Y-67189892D02*
X19255311Y-67608940D01*
X13416741Y-68096895D02*
X13416741Y-68668323D01*
X13416741Y-68668323D02*
X13384836Y-68782609D01*
X13384836Y-68782609D02*
X13321027Y-68858800D01*
X13321027Y-68858800D02*
X13225312Y-68896895D01*
X13225312Y-68896895D02*
X13161503Y-68896895D01*
X14022931Y-68896895D02*
X14022931Y-68477847D01*
X14022931Y-68477847D02*
X13991026Y-68401657D01*
X13991026Y-68401657D02*
X13927217Y-68363561D01*
X13927217Y-68363561D02*
X13799598Y-68363561D01*
X13799598Y-68363561D02*
X13735788Y-68401657D01*
X14022931Y-68858800D02*
X13959122Y-68896895D01*
X13959122Y-68896895D02*
X13799598Y-68896895D01*
X13799598Y-68896895D02*
X13735788Y-68858800D01*
X13735788Y-68858800D02*
X13703884Y-68782609D01*
X13703884Y-68782609D02*
X13703884Y-68706419D01*
X13703884Y-68706419D02*
X13735788Y-68630228D01*
X13735788Y-68630228D02*
X13799598Y-68592133D01*
X13799598Y-68592133D02*
X13959122Y-68592133D01*
X13959122Y-68592133D02*
X14022931Y-68554038D01*
X14629121Y-68858800D02*
X14565312Y-68896895D01*
X14565312Y-68896895D02*
X14437693Y-68896895D01*
X14437693Y-68896895D02*
X14373883Y-68858800D01*
X14373883Y-68858800D02*
X14341978Y-68820704D01*
X14341978Y-68820704D02*
X14310074Y-68744514D01*
X14310074Y-68744514D02*
X14310074Y-68515942D01*
X14310074Y-68515942D02*
X14341978Y-68439752D01*
X14341978Y-68439752D02*
X14373883Y-68401657D01*
X14373883Y-68401657D02*
X14437693Y-68363561D01*
X14437693Y-68363561D02*
X14565312Y-68363561D01*
X14565312Y-68363561D02*
X14629121Y-68401657D01*
X15011979Y-68896895D02*
X14948169Y-68858800D01*
X14948169Y-68858800D02*
X14916264Y-68820704D01*
X14916264Y-68820704D02*
X14884360Y-68744514D01*
X14884360Y-68744514D02*
X14884360Y-68515942D01*
X14884360Y-68515942D02*
X14916264Y-68439752D01*
X14916264Y-68439752D02*
X14948169Y-68401657D01*
X14948169Y-68401657D02*
X15011979Y-68363561D01*
X15011979Y-68363561D02*
X15107693Y-68363561D01*
X15107693Y-68363561D02*
X15171502Y-68401657D01*
X15171502Y-68401657D02*
X15203407Y-68439752D01*
X15203407Y-68439752D02*
X15235312Y-68515942D01*
X15235312Y-68515942D02*
X15235312Y-68744514D01*
X15235312Y-68744514D02*
X15203407Y-68820704D01*
X15203407Y-68820704D02*
X15171502Y-68858800D01*
X15171502Y-68858800D02*
X15107693Y-68896895D01*
X15107693Y-68896895D02*
X15011979Y-68896895D01*
X15522454Y-68896895D02*
X15522454Y-68096895D01*
X15522454Y-68401657D02*
X15586264Y-68363561D01*
X15586264Y-68363561D02*
X15713883Y-68363561D01*
X15713883Y-68363561D02*
X15777692Y-68401657D01*
X15777692Y-68401657D02*
X15809597Y-68439752D01*
X15809597Y-68439752D02*
X15841502Y-68515942D01*
X15841502Y-68515942D02*
X15841502Y-68744514D01*
X15841502Y-68744514D02*
X15809597Y-68820704D01*
X15809597Y-68820704D02*
X15777692Y-68858800D01*
X15777692Y-68858800D02*
X15713883Y-68896895D01*
X15713883Y-68896895D02*
X15586264Y-68896895D01*
X15586264Y-68896895D02*
X15522454Y-68858800D01*
X16607216Y-68858800D02*
X16702930Y-68896895D01*
X16702930Y-68896895D02*
X16862454Y-68896895D01*
X16862454Y-68896895D02*
X16926263Y-68858800D01*
X16926263Y-68858800D02*
X16958168Y-68820704D01*
X16958168Y-68820704D02*
X16990073Y-68744514D01*
X16990073Y-68744514D02*
X16990073Y-68668323D01*
X16990073Y-68668323D02*
X16958168Y-68592133D01*
X16958168Y-68592133D02*
X16926263Y-68554038D01*
X16926263Y-68554038D02*
X16862454Y-68515942D01*
X16862454Y-68515942D02*
X16734835Y-68477847D01*
X16734835Y-68477847D02*
X16671025Y-68439752D01*
X16671025Y-68439752D02*
X16639120Y-68401657D01*
X16639120Y-68401657D02*
X16607216Y-68325466D01*
X16607216Y-68325466D02*
X16607216Y-68249276D01*
X16607216Y-68249276D02*
X16639120Y-68173085D01*
X16639120Y-68173085D02*
X16671025Y-68134990D01*
X16671025Y-68134990D02*
X16734835Y-68096895D01*
X16734835Y-68096895D02*
X16894358Y-68096895D01*
X16894358Y-68096895D02*
X16990073Y-68134990D01*
X17564358Y-68858800D02*
X17500549Y-68896895D01*
X17500549Y-68896895D02*
X17372930Y-68896895D01*
X17372930Y-68896895D02*
X17309120Y-68858800D01*
X17309120Y-68858800D02*
X17277215Y-68820704D01*
X17277215Y-68820704D02*
X17245311Y-68744514D01*
X17245311Y-68744514D02*
X17245311Y-68515942D01*
X17245311Y-68515942D02*
X17277215Y-68439752D01*
X17277215Y-68439752D02*
X17309120Y-68401657D01*
X17309120Y-68401657D02*
X17372930Y-68363561D01*
X17372930Y-68363561D02*
X17500549Y-68363561D01*
X17500549Y-68363561D02*
X17564358Y-68401657D01*
X17851501Y-68896895D02*
X17851501Y-68096895D01*
X18138644Y-68896895D02*
X18138644Y-68477847D01*
X18138644Y-68477847D02*
X18106739Y-68401657D01*
X18106739Y-68401657D02*
X18042930Y-68363561D01*
X18042930Y-68363561D02*
X17947216Y-68363561D01*
X17947216Y-68363561D02*
X17883406Y-68401657D01*
X17883406Y-68401657D02*
X17851501Y-68439752D01*
X18712929Y-68858800D02*
X18649120Y-68896895D01*
X18649120Y-68896895D02*
X18521501Y-68896895D01*
X18521501Y-68896895D02*
X18457691Y-68858800D01*
X18457691Y-68858800D02*
X18425787Y-68782609D01*
X18425787Y-68782609D02*
X18425787Y-68477847D01*
X18425787Y-68477847D02*
X18457691Y-68401657D01*
X18457691Y-68401657D02*
X18521501Y-68363561D01*
X18521501Y-68363561D02*
X18649120Y-68363561D01*
X18649120Y-68363561D02*
X18712929Y-68401657D01*
X18712929Y-68401657D02*
X18744834Y-68477847D01*
X18744834Y-68477847D02*
X18744834Y-68554038D01*
X18744834Y-68554038D02*
X18425787Y-68630228D01*
X19031977Y-68896895D02*
X19031977Y-68363561D01*
X19031977Y-68515942D02*
X19063882Y-68439752D01*
X19063882Y-68439752D02*
X19095787Y-68401657D01*
X19095787Y-68401657D02*
X19159596Y-68363561D01*
X19159596Y-68363561D02*
X19223406Y-68363561D01*
X19701977Y-68858800D02*
X19638168Y-68896895D01*
X19638168Y-68896895D02*
X19510549Y-68896895D01*
X19510549Y-68896895D02*
X19446739Y-68858800D01*
X19446739Y-68858800D02*
X19414835Y-68782609D01*
X19414835Y-68782609D02*
X19414835Y-68477847D01*
X19414835Y-68477847D02*
X19446739Y-68401657D01*
X19446739Y-68401657D02*
X19510549Y-68363561D01*
X19510549Y-68363561D02*
X19638168Y-68363561D01*
X19638168Y-68363561D02*
X19701977Y-68401657D01*
X19701977Y-68401657D02*
X19733882Y-68477847D01*
X19733882Y-68477847D02*
X19733882Y-68554038D01*
X19733882Y-68554038D02*
X19414835Y-68630228D01*
X20021025Y-68896895D02*
X20021025Y-68363561D01*
X20021025Y-68515942D02*
X20052930Y-68439752D01*
X20052930Y-68439752D02*
X20084835Y-68401657D01*
X20084835Y-68401657D02*
X20148644Y-68363561D01*
X20148644Y-68363561D02*
X20212454Y-68363561D01*
X93576800Y-21893332D02*
X93614895Y-21797618D01*
X93614895Y-21797618D02*
X93614895Y-21638094D01*
X93614895Y-21638094D02*
X93576800Y-21574285D01*
X93576800Y-21574285D02*
X93538704Y-21542380D01*
X93538704Y-21542380D02*
X93462514Y-21510475D01*
X93462514Y-21510475D02*
X93386323Y-21510475D01*
X93386323Y-21510475D02*
X93310133Y-21542380D01*
X93310133Y-21542380D02*
X93272038Y-21574285D01*
X93272038Y-21574285D02*
X93233942Y-21638094D01*
X93233942Y-21638094D02*
X93195847Y-21765713D01*
X93195847Y-21765713D02*
X93157752Y-21829523D01*
X93157752Y-21829523D02*
X93119657Y-21861428D01*
X93119657Y-21861428D02*
X93043466Y-21893332D01*
X93043466Y-21893332D02*
X92967276Y-21893332D01*
X92967276Y-21893332D02*
X92891085Y-21861428D01*
X92891085Y-21861428D02*
X92852990Y-21829523D01*
X92852990Y-21829523D02*
X92814895Y-21765713D01*
X92814895Y-21765713D02*
X92814895Y-21606190D01*
X92814895Y-21606190D02*
X92852990Y-21510475D01*
X92814895Y-21287142D02*
X93614895Y-21127618D01*
X93614895Y-21127618D02*
X93043466Y-20999999D01*
X93043466Y-20999999D02*
X93614895Y-20872380D01*
X93614895Y-20872380D02*
X92814895Y-20712857D01*
X93614895Y-20106666D02*
X93614895Y-20489523D01*
X93614895Y-20298095D02*
X92814895Y-20298095D01*
X92814895Y-20298095D02*
X92929180Y-20361904D01*
X92929180Y-20361904D02*
X93005371Y-20425714D01*
X93005371Y-20425714D02*
X93043466Y-20489523D01*
X52450238Y-19038704D02*
X52418334Y-19076800D01*
X52418334Y-19076800D02*
X52322619Y-19114895D01*
X52322619Y-19114895D02*
X52258810Y-19114895D01*
X52258810Y-19114895D02*
X52163096Y-19076800D01*
X52163096Y-19076800D02*
X52099286Y-19000609D01*
X52099286Y-19000609D02*
X52067381Y-18924419D01*
X52067381Y-18924419D02*
X52035477Y-18772038D01*
X52035477Y-18772038D02*
X52035477Y-18657752D01*
X52035477Y-18657752D02*
X52067381Y-18505371D01*
X52067381Y-18505371D02*
X52099286Y-18429180D01*
X52099286Y-18429180D02*
X52163096Y-18352990D01*
X52163096Y-18352990D02*
X52258810Y-18314895D01*
X52258810Y-18314895D02*
X52322619Y-18314895D01*
X52322619Y-18314895D02*
X52418334Y-18352990D01*
X52418334Y-18352990D02*
X52450238Y-18391085D01*
X52705477Y-18391085D02*
X52737381Y-18352990D01*
X52737381Y-18352990D02*
X52801191Y-18314895D01*
X52801191Y-18314895D02*
X52960715Y-18314895D01*
X52960715Y-18314895D02*
X53024524Y-18352990D01*
X53024524Y-18352990D02*
X53056429Y-18391085D01*
X53056429Y-18391085D02*
X53088334Y-18467276D01*
X53088334Y-18467276D02*
X53088334Y-18543466D01*
X53088334Y-18543466D02*
X53056429Y-18657752D01*
X53056429Y-18657752D02*
X52673572Y-19114895D01*
X52673572Y-19114895D02*
X53088334Y-19114895D01*
X53503095Y-18314895D02*
X53566905Y-18314895D01*
X53566905Y-18314895D02*
X53630714Y-18352990D01*
X53630714Y-18352990D02*
X53662619Y-18391085D01*
X53662619Y-18391085D02*
X53694524Y-18467276D01*
X53694524Y-18467276D02*
X53726429Y-18619657D01*
X53726429Y-18619657D02*
X53726429Y-18810133D01*
X53726429Y-18810133D02*
X53694524Y-18962514D01*
X53694524Y-18962514D02*
X53662619Y-19038704D01*
X53662619Y-19038704D02*
X53630714Y-19076800D01*
X53630714Y-19076800D02*
X53566905Y-19114895D01*
X53566905Y-19114895D02*
X53503095Y-19114895D01*
X53503095Y-19114895D02*
X53439286Y-19076800D01*
X53439286Y-19076800D02*
X53407381Y-19038704D01*
X53407381Y-19038704D02*
X53375476Y-18962514D01*
X53375476Y-18962514D02*
X53343572Y-18810133D01*
X53343572Y-18810133D02*
X53343572Y-18619657D01*
X53343572Y-18619657D02*
X53375476Y-18467276D01*
X53375476Y-18467276D02*
X53407381Y-18391085D01*
X53407381Y-18391085D02*
X53439286Y-18352990D01*
X53439286Y-18352990D02*
X53503095Y-18314895D01*
X54364524Y-19114895D02*
X53981667Y-19114895D01*
X54173095Y-19114895D02*
X54173095Y-18314895D01*
X54173095Y-18314895D02*
X54109286Y-18429180D01*
X54109286Y-18429180D02*
X54045476Y-18505371D01*
X54045476Y-18505371D02*
X53981667Y-18543466D01*
X47950238Y-19114895D02*
X47726905Y-18733942D01*
X47567381Y-19114895D02*
X47567381Y-18314895D01*
X47567381Y-18314895D02*
X47822619Y-18314895D01*
X47822619Y-18314895D02*
X47886429Y-18352990D01*
X47886429Y-18352990D02*
X47918334Y-18391085D01*
X47918334Y-18391085D02*
X47950238Y-18467276D01*
X47950238Y-18467276D02*
X47950238Y-18581561D01*
X47950238Y-18581561D02*
X47918334Y-18657752D01*
X47918334Y-18657752D02*
X47886429Y-18695847D01*
X47886429Y-18695847D02*
X47822619Y-18733942D01*
X47822619Y-18733942D02*
X47567381Y-18733942D01*
X48205477Y-18391085D02*
X48237381Y-18352990D01*
X48237381Y-18352990D02*
X48301191Y-18314895D01*
X48301191Y-18314895D02*
X48460715Y-18314895D01*
X48460715Y-18314895D02*
X48524524Y-18352990D01*
X48524524Y-18352990D02*
X48556429Y-18391085D01*
X48556429Y-18391085D02*
X48588334Y-18467276D01*
X48588334Y-18467276D02*
X48588334Y-18543466D01*
X48588334Y-18543466D02*
X48556429Y-18657752D01*
X48556429Y-18657752D02*
X48173572Y-19114895D01*
X48173572Y-19114895D02*
X48588334Y-19114895D01*
X49003095Y-18314895D02*
X49066905Y-18314895D01*
X49066905Y-18314895D02*
X49130714Y-18352990D01*
X49130714Y-18352990D02*
X49162619Y-18391085D01*
X49162619Y-18391085D02*
X49194524Y-18467276D01*
X49194524Y-18467276D02*
X49226429Y-18619657D01*
X49226429Y-18619657D02*
X49226429Y-18810133D01*
X49226429Y-18810133D02*
X49194524Y-18962514D01*
X49194524Y-18962514D02*
X49162619Y-19038704D01*
X49162619Y-19038704D02*
X49130714Y-19076800D01*
X49130714Y-19076800D02*
X49066905Y-19114895D01*
X49066905Y-19114895D02*
X49003095Y-19114895D01*
X49003095Y-19114895D02*
X48939286Y-19076800D01*
X48939286Y-19076800D02*
X48907381Y-19038704D01*
X48907381Y-19038704D02*
X48875476Y-18962514D01*
X48875476Y-18962514D02*
X48843572Y-18810133D01*
X48843572Y-18810133D02*
X48843572Y-18619657D01*
X48843572Y-18619657D02*
X48875476Y-18467276D01*
X48875476Y-18467276D02*
X48907381Y-18391085D01*
X48907381Y-18391085D02*
X48939286Y-18352990D01*
X48939286Y-18352990D02*
X49003095Y-18314895D01*
X49864524Y-19114895D02*
X49481667Y-19114895D01*
X49673095Y-19114895D02*
X49673095Y-18314895D01*
X49673095Y-18314895D02*
X49609286Y-18429180D01*
X49609286Y-18429180D02*
X49545476Y-18505371D01*
X49545476Y-18505371D02*
X49481667Y-18543466D01*
X60114895Y-51882618D02*
X59314895Y-51882618D01*
X59314895Y-51882618D02*
X59314895Y-51723094D01*
X59314895Y-51723094D02*
X59352990Y-51627380D01*
X59352990Y-51627380D02*
X59429180Y-51563570D01*
X59429180Y-51563570D02*
X59505371Y-51531665D01*
X59505371Y-51531665D02*
X59657752Y-51499761D01*
X59657752Y-51499761D02*
X59772038Y-51499761D01*
X59772038Y-51499761D02*
X59924419Y-51531665D01*
X59924419Y-51531665D02*
X60000609Y-51563570D01*
X60000609Y-51563570D02*
X60076800Y-51627380D01*
X60076800Y-51627380D02*
X60114895Y-51723094D01*
X60114895Y-51723094D02*
X60114895Y-51882618D01*
X59391085Y-51244522D02*
X59352990Y-51212618D01*
X59352990Y-51212618D02*
X59314895Y-51148808D01*
X59314895Y-51148808D02*
X59314895Y-50989284D01*
X59314895Y-50989284D02*
X59352990Y-50925475D01*
X59352990Y-50925475D02*
X59391085Y-50893570D01*
X59391085Y-50893570D02*
X59467276Y-50861665D01*
X59467276Y-50861665D02*
X59543466Y-50861665D01*
X59543466Y-50861665D02*
X59657752Y-50893570D01*
X59657752Y-50893570D02*
X60114895Y-51276427D01*
X60114895Y-51276427D02*
X60114895Y-50861665D01*
X59314895Y-50446904D02*
X59314895Y-50383094D01*
X59314895Y-50383094D02*
X59352990Y-50319285D01*
X59352990Y-50319285D02*
X59391085Y-50287380D01*
X59391085Y-50287380D02*
X59467276Y-50255475D01*
X59467276Y-50255475D02*
X59619657Y-50223570D01*
X59619657Y-50223570D02*
X59810133Y-50223570D01*
X59810133Y-50223570D02*
X59962514Y-50255475D01*
X59962514Y-50255475D02*
X60038704Y-50287380D01*
X60038704Y-50287380D02*
X60076800Y-50319285D01*
X60076800Y-50319285D02*
X60114895Y-50383094D01*
X60114895Y-50383094D02*
X60114895Y-50446904D01*
X60114895Y-50446904D02*
X60076800Y-50510713D01*
X60076800Y-50510713D02*
X60038704Y-50542618D01*
X60038704Y-50542618D02*
X59962514Y-50574523D01*
X59962514Y-50574523D02*
X59810133Y-50606427D01*
X59810133Y-50606427D02*
X59619657Y-50606427D01*
X59619657Y-50606427D02*
X59467276Y-50574523D01*
X59467276Y-50574523D02*
X59391085Y-50542618D01*
X59391085Y-50542618D02*
X59352990Y-50510713D01*
X59352990Y-50510713D02*
X59314895Y-50446904D01*
X59391085Y-49968332D02*
X59352990Y-49936428D01*
X59352990Y-49936428D02*
X59314895Y-49872618D01*
X59314895Y-49872618D02*
X59314895Y-49713094D01*
X59314895Y-49713094D02*
X59352990Y-49649285D01*
X59352990Y-49649285D02*
X59391085Y-49617380D01*
X59391085Y-49617380D02*
X59467276Y-49585475D01*
X59467276Y-49585475D02*
X59543466Y-49585475D01*
X59543466Y-49585475D02*
X59657752Y-49617380D01*
X59657752Y-49617380D02*
X60114895Y-50000237D01*
X60114895Y-50000237D02*
X60114895Y-49585475D01*
X16419523Y-72044895D02*
X16419523Y-71244895D01*
X16419523Y-71625847D02*
X16802380Y-71625847D01*
X16802380Y-72044895D02*
X16802380Y-71244895D01*
X17057619Y-71244895D02*
X17472381Y-71244895D01*
X17472381Y-71244895D02*
X17249047Y-71549657D01*
X17249047Y-71549657D02*
X17344762Y-71549657D01*
X17344762Y-71549657D02*
X17408571Y-71587752D01*
X17408571Y-71587752D02*
X17440476Y-71625847D01*
X17440476Y-71625847D02*
X17472381Y-71702038D01*
X17472381Y-71702038D02*
X17472381Y-71892514D01*
X17472381Y-71892514D02*
X17440476Y-71968704D01*
X17440476Y-71968704D02*
X17408571Y-72006800D01*
X17408571Y-72006800D02*
X17344762Y-72044895D01*
X17344762Y-72044895D02*
X17153333Y-72044895D01*
X17153333Y-72044895D02*
X17089524Y-72006800D01*
X17089524Y-72006800D02*
X17057619Y-71968704D01*
X12489523Y-12614895D02*
X12489523Y-11814895D01*
X12489523Y-12195847D02*
X12872380Y-12195847D01*
X12872380Y-12614895D02*
X12872380Y-11814895D01*
X13478571Y-12081561D02*
X13478571Y-12614895D01*
X13319047Y-11776800D02*
X13159524Y-12348228D01*
X13159524Y-12348228D02*
X13574285Y-12348228D01*
X40176428Y-21699895D02*
X40176428Y-22347514D01*
X40176428Y-22347514D02*
X40208333Y-22423704D01*
X40208333Y-22423704D02*
X40240238Y-22461800D01*
X40240238Y-22461800D02*
X40304047Y-22499895D01*
X40304047Y-22499895D02*
X40431666Y-22499895D01*
X40431666Y-22499895D02*
X40495476Y-22461800D01*
X40495476Y-22461800D02*
X40527381Y-22423704D01*
X40527381Y-22423704D02*
X40559285Y-22347514D01*
X40559285Y-22347514D02*
X40559285Y-21699895D01*
X40846429Y-21776085D02*
X40878333Y-21737990D01*
X40878333Y-21737990D02*
X40942143Y-21699895D01*
X40942143Y-21699895D02*
X41101667Y-21699895D01*
X41101667Y-21699895D02*
X41165476Y-21737990D01*
X41165476Y-21737990D02*
X41197381Y-21776085D01*
X41197381Y-21776085D02*
X41229286Y-21852276D01*
X41229286Y-21852276D02*
X41229286Y-21928466D01*
X41229286Y-21928466D02*
X41197381Y-22042752D01*
X41197381Y-22042752D02*
X40814524Y-22499895D01*
X40814524Y-22499895D02*
X41229286Y-22499895D01*
X41644047Y-21699895D02*
X41707857Y-21699895D01*
X41707857Y-21699895D02*
X41771666Y-21737990D01*
X41771666Y-21737990D02*
X41803571Y-21776085D01*
X41803571Y-21776085D02*
X41835476Y-21852276D01*
X41835476Y-21852276D02*
X41867381Y-22004657D01*
X41867381Y-22004657D02*
X41867381Y-22195133D01*
X41867381Y-22195133D02*
X41835476Y-22347514D01*
X41835476Y-22347514D02*
X41803571Y-22423704D01*
X41803571Y-22423704D02*
X41771666Y-22461800D01*
X41771666Y-22461800D02*
X41707857Y-22499895D01*
X41707857Y-22499895D02*
X41644047Y-22499895D01*
X41644047Y-22499895D02*
X41580238Y-22461800D01*
X41580238Y-22461800D02*
X41548333Y-22423704D01*
X41548333Y-22423704D02*
X41516428Y-22347514D01*
X41516428Y-22347514D02*
X41484524Y-22195133D01*
X41484524Y-22195133D02*
X41484524Y-22004657D01*
X41484524Y-22004657D02*
X41516428Y-21852276D01*
X41516428Y-21852276D02*
X41548333Y-21776085D01*
X41548333Y-21776085D02*
X41580238Y-21737990D01*
X41580238Y-21737990D02*
X41644047Y-21699895D01*
X42505476Y-22499895D02*
X42122619Y-22499895D01*
X42314047Y-22499895D02*
X42314047Y-21699895D01*
X42314047Y-21699895D02*
X42250238Y-21814180D01*
X42250238Y-21814180D02*
X42186428Y-21890371D01*
X42186428Y-21890371D02*
X42122619Y-21928466D01*
X54500238Y-53538704D02*
X54468334Y-53576800D01*
X54468334Y-53576800D02*
X54372619Y-53614895D01*
X54372619Y-53614895D02*
X54308810Y-53614895D01*
X54308810Y-53614895D02*
X54213096Y-53576800D01*
X54213096Y-53576800D02*
X54149286Y-53500609D01*
X54149286Y-53500609D02*
X54117381Y-53424419D01*
X54117381Y-53424419D02*
X54085477Y-53272038D01*
X54085477Y-53272038D02*
X54085477Y-53157752D01*
X54085477Y-53157752D02*
X54117381Y-53005371D01*
X54117381Y-53005371D02*
X54149286Y-52929180D01*
X54149286Y-52929180D02*
X54213096Y-52852990D01*
X54213096Y-52852990D02*
X54308810Y-52814895D01*
X54308810Y-52814895D02*
X54372619Y-52814895D01*
X54372619Y-52814895D02*
X54468334Y-52852990D01*
X54468334Y-52852990D02*
X54500238Y-52891085D01*
X54755477Y-52891085D02*
X54787381Y-52852990D01*
X54787381Y-52852990D02*
X54851191Y-52814895D01*
X54851191Y-52814895D02*
X55010715Y-52814895D01*
X55010715Y-52814895D02*
X55074524Y-52852990D01*
X55074524Y-52852990D02*
X55106429Y-52891085D01*
X55106429Y-52891085D02*
X55138334Y-52967276D01*
X55138334Y-52967276D02*
X55138334Y-53043466D01*
X55138334Y-53043466D02*
X55106429Y-53157752D01*
X55106429Y-53157752D02*
X54723572Y-53614895D01*
X54723572Y-53614895D02*
X55138334Y-53614895D01*
X55553095Y-52814895D02*
X55616905Y-52814895D01*
X55616905Y-52814895D02*
X55680714Y-52852990D01*
X55680714Y-52852990D02*
X55712619Y-52891085D01*
X55712619Y-52891085D02*
X55744524Y-52967276D01*
X55744524Y-52967276D02*
X55776429Y-53119657D01*
X55776429Y-53119657D02*
X55776429Y-53310133D01*
X55776429Y-53310133D02*
X55744524Y-53462514D01*
X55744524Y-53462514D02*
X55712619Y-53538704D01*
X55712619Y-53538704D02*
X55680714Y-53576800D01*
X55680714Y-53576800D02*
X55616905Y-53614895D01*
X55616905Y-53614895D02*
X55553095Y-53614895D01*
X55553095Y-53614895D02*
X55489286Y-53576800D01*
X55489286Y-53576800D02*
X55457381Y-53538704D01*
X55457381Y-53538704D02*
X55425476Y-53462514D01*
X55425476Y-53462514D02*
X55393572Y-53310133D01*
X55393572Y-53310133D02*
X55393572Y-53119657D01*
X55393572Y-53119657D02*
X55425476Y-52967276D01*
X55425476Y-52967276D02*
X55457381Y-52891085D01*
X55457381Y-52891085D02*
X55489286Y-52852990D01*
X55489286Y-52852990D02*
X55553095Y-52814895D01*
X56095476Y-53614895D02*
X56223095Y-53614895D01*
X56223095Y-53614895D02*
X56286905Y-53576800D01*
X56286905Y-53576800D02*
X56318809Y-53538704D01*
X56318809Y-53538704D02*
X56382619Y-53424419D01*
X56382619Y-53424419D02*
X56414524Y-53272038D01*
X56414524Y-53272038D02*
X56414524Y-52967276D01*
X56414524Y-52967276D02*
X56382619Y-52891085D01*
X56382619Y-52891085D02*
X56350714Y-52852990D01*
X56350714Y-52852990D02*
X56286905Y-52814895D01*
X56286905Y-52814895D02*
X56159286Y-52814895D01*
X56159286Y-52814895D02*
X56095476Y-52852990D01*
X56095476Y-52852990D02*
X56063571Y-52891085D01*
X56063571Y-52891085D02*
X56031667Y-52967276D01*
X56031667Y-52967276D02*
X56031667Y-53157752D01*
X56031667Y-53157752D02*
X56063571Y-53233942D01*
X56063571Y-53233942D02*
X56095476Y-53272038D01*
X56095476Y-53272038D02*
X56159286Y-53310133D01*
X56159286Y-53310133D02*
X56286905Y-53310133D01*
X56286905Y-53310133D02*
X56350714Y-53272038D01*
X56350714Y-53272038D02*
X56382619Y-53233942D01*
X56382619Y-53233942D02*
X56414524Y-53157752D01*
X122564895Y-36286427D02*
X123136323Y-36286427D01*
X123136323Y-36286427D02*
X123250609Y-36318332D01*
X123250609Y-36318332D02*
X123326800Y-36382141D01*
X123326800Y-36382141D02*
X123364895Y-36477856D01*
X123364895Y-36477856D02*
X123364895Y-36541665D01*
X122641085Y-35999284D02*
X122602990Y-35967380D01*
X122602990Y-35967380D02*
X122564895Y-35903570D01*
X122564895Y-35903570D02*
X122564895Y-35744046D01*
X122564895Y-35744046D02*
X122602990Y-35680237D01*
X122602990Y-35680237D02*
X122641085Y-35648332D01*
X122641085Y-35648332D02*
X122717276Y-35616427D01*
X122717276Y-35616427D02*
X122793466Y-35616427D01*
X122793466Y-35616427D02*
X122907752Y-35648332D01*
X122907752Y-35648332D02*
X123364895Y-36031189D01*
X123364895Y-36031189D02*
X123364895Y-35616427D01*
X122564895Y-35201666D02*
X122564895Y-35137856D01*
X122564895Y-35137856D02*
X122602990Y-35074047D01*
X122602990Y-35074047D02*
X122641085Y-35042142D01*
X122641085Y-35042142D02*
X122717276Y-35010237D01*
X122717276Y-35010237D02*
X122869657Y-34978332D01*
X122869657Y-34978332D02*
X123060133Y-34978332D01*
X123060133Y-34978332D02*
X123212514Y-35010237D01*
X123212514Y-35010237D02*
X123288704Y-35042142D01*
X123288704Y-35042142D02*
X123326800Y-35074047D01*
X123326800Y-35074047D02*
X123364895Y-35137856D01*
X123364895Y-35137856D02*
X123364895Y-35201666D01*
X123364895Y-35201666D02*
X123326800Y-35265475D01*
X123326800Y-35265475D02*
X123288704Y-35297380D01*
X123288704Y-35297380D02*
X123212514Y-35329285D01*
X123212514Y-35329285D02*
X123060133Y-35361189D01*
X123060133Y-35361189D02*
X122869657Y-35361189D01*
X122869657Y-35361189D02*
X122717276Y-35329285D01*
X122717276Y-35329285D02*
X122641085Y-35297380D01*
X122641085Y-35297380D02*
X122602990Y-35265475D01*
X122602990Y-35265475D02*
X122564895Y-35201666D01*
X123364895Y-34340237D02*
X123364895Y-34723094D01*
X123364895Y-34531666D02*
X122564895Y-34531666D01*
X122564895Y-34531666D02*
X122679180Y-34595475D01*
X122679180Y-34595475D02*
X122755371Y-34659285D01*
X122755371Y-34659285D02*
X122793466Y-34723094D01*
X88579381Y-36608495D02*
X88962238Y-36608495D01*
X88770810Y-37408495D02*
X88770810Y-36608495D01*
X89185571Y-37408495D02*
X89185571Y-36608495D01*
X89185571Y-36608495D02*
X89440809Y-36608495D01*
X89440809Y-36608495D02*
X89504619Y-36646590D01*
X89504619Y-36646590D02*
X89536524Y-36684685D01*
X89536524Y-36684685D02*
X89568428Y-36760876D01*
X89568428Y-36760876D02*
X89568428Y-36875161D01*
X89568428Y-36875161D02*
X89536524Y-36951352D01*
X89536524Y-36951352D02*
X89504619Y-36989447D01*
X89504619Y-36989447D02*
X89440809Y-37027542D01*
X89440809Y-37027542D02*
X89185571Y-37027542D01*
X90142714Y-36608495D02*
X90015095Y-36608495D01*
X90015095Y-36608495D02*
X89951286Y-36646590D01*
X89951286Y-36646590D02*
X89919381Y-36684685D01*
X89919381Y-36684685D02*
X89855571Y-36798971D01*
X89855571Y-36798971D02*
X89823667Y-36951352D01*
X89823667Y-36951352D02*
X89823667Y-37256114D01*
X89823667Y-37256114D02*
X89855571Y-37332304D01*
X89855571Y-37332304D02*
X89887476Y-37370400D01*
X89887476Y-37370400D02*
X89951286Y-37408495D01*
X89951286Y-37408495D02*
X90078905Y-37408495D01*
X90078905Y-37408495D02*
X90142714Y-37370400D01*
X90142714Y-37370400D02*
X90174619Y-37332304D01*
X90174619Y-37332304D02*
X90206524Y-37256114D01*
X90206524Y-37256114D02*
X90206524Y-37065638D01*
X90206524Y-37065638D02*
X90174619Y-36989447D01*
X90174619Y-36989447D02*
X90142714Y-36951352D01*
X90142714Y-36951352D02*
X90078905Y-36913257D01*
X90078905Y-36913257D02*
X89951286Y-36913257D01*
X89951286Y-36913257D02*
X89887476Y-36951352D01*
X89887476Y-36951352D02*
X89855571Y-36989447D01*
X89855571Y-36989447D02*
X89823667Y-37065638D01*
X54500238Y-52038704D02*
X54468334Y-52076800D01*
X54468334Y-52076800D02*
X54372619Y-52114895D01*
X54372619Y-52114895D02*
X54308810Y-52114895D01*
X54308810Y-52114895D02*
X54213096Y-52076800D01*
X54213096Y-52076800D02*
X54149286Y-52000609D01*
X54149286Y-52000609D02*
X54117381Y-51924419D01*
X54117381Y-51924419D02*
X54085477Y-51772038D01*
X54085477Y-51772038D02*
X54085477Y-51657752D01*
X54085477Y-51657752D02*
X54117381Y-51505371D01*
X54117381Y-51505371D02*
X54149286Y-51429180D01*
X54149286Y-51429180D02*
X54213096Y-51352990D01*
X54213096Y-51352990D02*
X54308810Y-51314895D01*
X54308810Y-51314895D02*
X54372619Y-51314895D01*
X54372619Y-51314895D02*
X54468334Y-51352990D01*
X54468334Y-51352990D02*
X54500238Y-51391085D01*
X54755477Y-51391085D02*
X54787381Y-51352990D01*
X54787381Y-51352990D02*
X54851191Y-51314895D01*
X54851191Y-51314895D02*
X55010715Y-51314895D01*
X55010715Y-51314895D02*
X55074524Y-51352990D01*
X55074524Y-51352990D02*
X55106429Y-51391085D01*
X55106429Y-51391085D02*
X55138334Y-51467276D01*
X55138334Y-51467276D02*
X55138334Y-51543466D01*
X55138334Y-51543466D02*
X55106429Y-51657752D01*
X55106429Y-51657752D02*
X54723572Y-52114895D01*
X54723572Y-52114895D02*
X55138334Y-52114895D01*
X55553095Y-51314895D02*
X55616905Y-51314895D01*
X55616905Y-51314895D02*
X55680714Y-51352990D01*
X55680714Y-51352990D02*
X55712619Y-51391085D01*
X55712619Y-51391085D02*
X55744524Y-51467276D01*
X55744524Y-51467276D02*
X55776429Y-51619657D01*
X55776429Y-51619657D02*
X55776429Y-51810133D01*
X55776429Y-51810133D02*
X55744524Y-51962514D01*
X55744524Y-51962514D02*
X55712619Y-52038704D01*
X55712619Y-52038704D02*
X55680714Y-52076800D01*
X55680714Y-52076800D02*
X55616905Y-52114895D01*
X55616905Y-52114895D02*
X55553095Y-52114895D01*
X55553095Y-52114895D02*
X55489286Y-52076800D01*
X55489286Y-52076800D02*
X55457381Y-52038704D01*
X55457381Y-52038704D02*
X55425476Y-51962514D01*
X55425476Y-51962514D02*
X55393572Y-51810133D01*
X55393572Y-51810133D02*
X55393572Y-51619657D01*
X55393572Y-51619657D02*
X55425476Y-51467276D01*
X55425476Y-51467276D02*
X55457381Y-51391085D01*
X55457381Y-51391085D02*
X55489286Y-51352990D01*
X55489286Y-51352990D02*
X55553095Y-51314895D01*
X56159286Y-51657752D02*
X56095476Y-51619657D01*
X56095476Y-51619657D02*
X56063571Y-51581561D01*
X56063571Y-51581561D02*
X56031667Y-51505371D01*
X56031667Y-51505371D02*
X56031667Y-51467276D01*
X56031667Y-51467276D02*
X56063571Y-51391085D01*
X56063571Y-51391085D02*
X56095476Y-51352990D01*
X56095476Y-51352990D02*
X56159286Y-51314895D01*
X56159286Y-51314895D02*
X56286905Y-51314895D01*
X56286905Y-51314895D02*
X56350714Y-51352990D01*
X56350714Y-51352990D02*
X56382619Y-51391085D01*
X56382619Y-51391085D02*
X56414524Y-51467276D01*
X56414524Y-51467276D02*
X56414524Y-51505371D01*
X56414524Y-51505371D02*
X56382619Y-51581561D01*
X56382619Y-51581561D02*
X56350714Y-51619657D01*
X56350714Y-51619657D02*
X56286905Y-51657752D01*
X56286905Y-51657752D02*
X56159286Y-51657752D01*
X56159286Y-51657752D02*
X56095476Y-51695847D01*
X56095476Y-51695847D02*
X56063571Y-51733942D01*
X56063571Y-51733942D02*
X56031667Y-51810133D01*
X56031667Y-51810133D02*
X56031667Y-51962514D01*
X56031667Y-51962514D02*
X56063571Y-52038704D01*
X56063571Y-52038704D02*
X56095476Y-52076800D01*
X56095476Y-52076800D02*
X56159286Y-52114895D01*
X56159286Y-52114895D02*
X56286905Y-52114895D01*
X56286905Y-52114895D02*
X56350714Y-52076800D01*
X56350714Y-52076800D02*
X56382619Y-52038704D01*
X56382619Y-52038704D02*
X56414524Y-51962514D01*
X56414524Y-51962514D02*
X56414524Y-51810133D01*
X56414524Y-51810133D02*
X56382619Y-51733942D01*
X56382619Y-51733942D02*
X56350714Y-51695847D01*
X56350714Y-51695847D02*
X56286905Y-51657752D01*
X122239523Y-12614895D02*
X122239523Y-11814895D01*
X122239523Y-12195847D02*
X122622380Y-12195847D01*
X122622380Y-12614895D02*
X122622380Y-11814895D01*
X123292381Y-12614895D02*
X122909524Y-12614895D01*
X123100952Y-12614895D02*
X123100952Y-11814895D01*
X123100952Y-11814895D02*
X123037143Y-11929180D01*
X123037143Y-11929180D02*
X122973333Y-12005371D01*
X122973333Y-12005371D02*
X122909524Y-12043466D01*
X82638333Y-32038704D02*
X82606429Y-32076800D01*
X82606429Y-32076800D02*
X82510714Y-32114895D01*
X82510714Y-32114895D02*
X82446905Y-32114895D01*
X82446905Y-32114895D02*
X82351191Y-32076800D01*
X82351191Y-32076800D02*
X82287381Y-32000609D01*
X82287381Y-32000609D02*
X82255476Y-31924419D01*
X82255476Y-31924419D02*
X82223572Y-31772038D01*
X82223572Y-31772038D02*
X82223572Y-31657752D01*
X82223572Y-31657752D02*
X82255476Y-31505371D01*
X82255476Y-31505371D02*
X82287381Y-31429180D01*
X82287381Y-31429180D02*
X82351191Y-31352990D01*
X82351191Y-31352990D02*
X82446905Y-31314895D01*
X82446905Y-31314895D02*
X82510714Y-31314895D01*
X82510714Y-31314895D02*
X82606429Y-31352990D01*
X82606429Y-31352990D02*
X82638333Y-31391085D01*
X82861667Y-31314895D02*
X83276429Y-31314895D01*
X83276429Y-31314895D02*
X83053095Y-31619657D01*
X83053095Y-31619657D02*
X83148810Y-31619657D01*
X83148810Y-31619657D02*
X83212619Y-31657752D01*
X83212619Y-31657752D02*
X83244524Y-31695847D01*
X83244524Y-31695847D02*
X83276429Y-31772038D01*
X83276429Y-31772038D02*
X83276429Y-31962514D01*
X83276429Y-31962514D02*
X83244524Y-32038704D01*
X83244524Y-32038704D02*
X83212619Y-32076800D01*
X83212619Y-32076800D02*
X83148810Y-32114895D01*
X83148810Y-32114895D02*
X82957381Y-32114895D01*
X82957381Y-32114895D02*
X82893572Y-32076800D01*
X82893572Y-32076800D02*
X82861667Y-32038704D01*
X60538704Y-42024761D02*
X60576800Y-42056665D01*
X60576800Y-42056665D02*
X60614895Y-42152380D01*
X60614895Y-42152380D02*
X60614895Y-42216189D01*
X60614895Y-42216189D02*
X60576800Y-42311903D01*
X60576800Y-42311903D02*
X60500609Y-42375713D01*
X60500609Y-42375713D02*
X60424419Y-42407618D01*
X60424419Y-42407618D02*
X60272038Y-42439522D01*
X60272038Y-42439522D02*
X60157752Y-42439522D01*
X60157752Y-42439522D02*
X60005371Y-42407618D01*
X60005371Y-42407618D02*
X59929180Y-42375713D01*
X59929180Y-42375713D02*
X59852990Y-42311903D01*
X59852990Y-42311903D02*
X59814895Y-42216189D01*
X59814895Y-42216189D02*
X59814895Y-42152380D01*
X59814895Y-42152380D02*
X59852990Y-42056665D01*
X59852990Y-42056665D02*
X59891085Y-42024761D01*
X59891085Y-41769522D02*
X59852990Y-41737618D01*
X59852990Y-41737618D02*
X59814895Y-41673808D01*
X59814895Y-41673808D02*
X59814895Y-41514284D01*
X59814895Y-41514284D02*
X59852990Y-41450475D01*
X59852990Y-41450475D02*
X59891085Y-41418570D01*
X59891085Y-41418570D02*
X59967276Y-41386665D01*
X59967276Y-41386665D02*
X60043466Y-41386665D01*
X60043466Y-41386665D02*
X60157752Y-41418570D01*
X60157752Y-41418570D02*
X60614895Y-41801427D01*
X60614895Y-41801427D02*
X60614895Y-41386665D01*
X60614895Y-40748570D02*
X60614895Y-41131427D01*
X60614895Y-40939999D02*
X59814895Y-40939999D01*
X59814895Y-40939999D02*
X59929180Y-41003808D01*
X59929180Y-41003808D02*
X60005371Y-41067618D01*
X60005371Y-41067618D02*
X60043466Y-41131427D01*
X59891085Y-40493332D02*
X59852990Y-40461428D01*
X59852990Y-40461428D02*
X59814895Y-40397618D01*
X59814895Y-40397618D02*
X59814895Y-40238094D01*
X59814895Y-40238094D02*
X59852990Y-40174285D01*
X59852990Y-40174285D02*
X59891085Y-40142380D01*
X59891085Y-40142380D02*
X59967276Y-40110475D01*
X59967276Y-40110475D02*
X60043466Y-40110475D01*
X60043466Y-40110475D02*
X60157752Y-40142380D01*
X60157752Y-40142380D02*
X60614895Y-40525237D01*
X60614895Y-40525237D02*
X60614895Y-40110475D01*
X83526667Y-12854895D02*
X83526667Y-13426323D01*
X83526667Y-13426323D02*
X83494762Y-13540609D01*
X83494762Y-13540609D02*
X83430953Y-13616800D01*
X83430953Y-13616800D02*
X83335238Y-13654895D01*
X83335238Y-13654895D02*
X83271429Y-13654895D01*
X84196667Y-13654895D02*
X83813810Y-13654895D01*
X84005238Y-13654895D02*
X84005238Y-12854895D01*
X84005238Y-12854895D02*
X83941429Y-12969180D01*
X83941429Y-12969180D02*
X83877619Y-13045371D01*
X83877619Y-13045371D02*
X83813810Y-13083466D01*
X55502143Y-73064895D02*
X55885000Y-73064895D01*
X55693572Y-73864895D02*
X55693572Y-73064895D01*
X56108333Y-73864895D02*
X56108333Y-73064895D01*
X56108333Y-73064895D02*
X56363571Y-73064895D01*
X56363571Y-73064895D02*
X56427381Y-73102990D01*
X56427381Y-73102990D02*
X56459286Y-73141085D01*
X56459286Y-73141085D02*
X56491190Y-73217276D01*
X56491190Y-73217276D02*
X56491190Y-73331561D01*
X56491190Y-73331561D02*
X56459286Y-73407752D01*
X56459286Y-73407752D02*
X56427381Y-73445847D01*
X56427381Y-73445847D02*
X56363571Y-73483942D01*
X56363571Y-73483942D02*
X56108333Y-73483942D01*
X57129286Y-73864895D02*
X56746429Y-73864895D01*
X56937857Y-73864895D02*
X56937857Y-73064895D01*
X56937857Y-73064895D02*
X56874048Y-73179180D01*
X56874048Y-73179180D02*
X56810238Y-73255371D01*
X56810238Y-73255371D02*
X56746429Y-73293466D01*
X57512143Y-73407752D02*
X57448333Y-73369657D01*
X57448333Y-73369657D02*
X57416428Y-73331561D01*
X57416428Y-73331561D02*
X57384524Y-73255371D01*
X57384524Y-73255371D02*
X57384524Y-73217276D01*
X57384524Y-73217276D02*
X57416428Y-73141085D01*
X57416428Y-73141085D02*
X57448333Y-73102990D01*
X57448333Y-73102990D02*
X57512143Y-73064895D01*
X57512143Y-73064895D02*
X57639762Y-73064895D01*
X57639762Y-73064895D02*
X57703571Y-73102990D01*
X57703571Y-73102990D02*
X57735476Y-73141085D01*
X57735476Y-73141085D02*
X57767381Y-73217276D01*
X57767381Y-73217276D02*
X57767381Y-73255371D01*
X57767381Y-73255371D02*
X57735476Y-73331561D01*
X57735476Y-73331561D02*
X57703571Y-73369657D01*
X57703571Y-73369657D02*
X57639762Y-73407752D01*
X57639762Y-73407752D02*
X57512143Y-73407752D01*
X57512143Y-73407752D02*
X57448333Y-73445847D01*
X57448333Y-73445847D02*
X57416428Y-73483942D01*
X57416428Y-73483942D02*
X57384524Y-73560133D01*
X57384524Y-73560133D02*
X57384524Y-73712514D01*
X57384524Y-73712514D02*
X57416428Y-73788704D01*
X57416428Y-73788704D02*
X57448333Y-73826800D01*
X57448333Y-73826800D02*
X57512143Y-73864895D01*
X57512143Y-73864895D02*
X57639762Y-73864895D01*
X57639762Y-73864895D02*
X57703571Y-73826800D01*
X57703571Y-73826800D02*
X57735476Y-73788704D01*
X57735476Y-73788704D02*
X57767381Y-73712514D01*
X57767381Y-73712514D02*
X57767381Y-73560133D01*
X57767381Y-73560133D02*
X57735476Y-73483942D01*
X57735476Y-73483942D02*
X57703571Y-73445847D01*
X57703571Y-73445847D02*
X57639762Y-73407752D01*
X54000238Y-38038704D02*
X53968334Y-38076800D01*
X53968334Y-38076800D02*
X53872619Y-38114895D01*
X53872619Y-38114895D02*
X53808810Y-38114895D01*
X53808810Y-38114895D02*
X53713096Y-38076800D01*
X53713096Y-38076800D02*
X53649286Y-38000609D01*
X53649286Y-38000609D02*
X53617381Y-37924419D01*
X53617381Y-37924419D02*
X53585477Y-37772038D01*
X53585477Y-37772038D02*
X53585477Y-37657752D01*
X53585477Y-37657752D02*
X53617381Y-37505371D01*
X53617381Y-37505371D02*
X53649286Y-37429180D01*
X53649286Y-37429180D02*
X53713096Y-37352990D01*
X53713096Y-37352990D02*
X53808810Y-37314895D01*
X53808810Y-37314895D02*
X53872619Y-37314895D01*
X53872619Y-37314895D02*
X53968334Y-37352990D01*
X53968334Y-37352990D02*
X54000238Y-37391085D01*
X54255477Y-37391085D02*
X54287381Y-37352990D01*
X54287381Y-37352990D02*
X54351191Y-37314895D01*
X54351191Y-37314895D02*
X54510715Y-37314895D01*
X54510715Y-37314895D02*
X54574524Y-37352990D01*
X54574524Y-37352990D02*
X54606429Y-37391085D01*
X54606429Y-37391085D02*
X54638334Y-37467276D01*
X54638334Y-37467276D02*
X54638334Y-37543466D01*
X54638334Y-37543466D02*
X54606429Y-37657752D01*
X54606429Y-37657752D02*
X54223572Y-38114895D01*
X54223572Y-38114895D02*
X54638334Y-38114895D01*
X55053095Y-37314895D02*
X55116905Y-37314895D01*
X55116905Y-37314895D02*
X55180714Y-37352990D01*
X55180714Y-37352990D02*
X55212619Y-37391085D01*
X55212619Y-37391085D02*
X55244524Y-37467276D01*
X55244524Y-37467276D02*
X55276429Y-37619657D01*
X55276429Y-37619657D02*
X55276429Y-37810133D01*
X55276429Y-37810133D02*
X55244524Y-37962514D01*
X55244524Y-37962514D02*
X55212619Y-38038704D01*
X55212619Y-38038704D02*
X55180714Y-38076800D01*
X55180714Y-38076800D02*
X55116905Y-38114895D01*
X55116905Y-38114895D02*
X55053095Y-38114895D01*
X55053095Y-38114895D02*
X54989286Y-38076800D01*
X54989286Y-38076800D02*
X54957381Y-38038704D01*
X54957381Y-38038704D02*
X54925476Y-37962514D01*
X54925476Y-37962514D02*
X54893572Y-37810133D01*
X54893572Y-37810133D02*
X54893572Y-37619657D01*
X54893572Y-37619657D02*
X54925476Y-37467276D01*
X54925476Y-37467276D02*
X54957381Y-37391085D01*
X54957381Y-37391085D02*
X54989286Y-37352990D01*
X54989286Y-37352990D02*
X55053095Y-37314895D01*
X55531667Y-37391085D02*
X55563571Y-37352990D01*
X55563571Y-37352990D02*
X55627381Y-37314895D01*
X55627381Y-37314895D02*
X55786905Y-37314895D01*
X55786905Y-37314895D02*
X55850714Y-37352990D01*
X55850714Y-37352990D02*
X55882619Y-37391085D01*
X55882619Y-37391085D02*
X55914524Y-37467276D01*
X55914524Y-37467276D02*
X55914524Y-37543466D01*
X55914524Y-37543466D02*
X55882619Y-37657752D01*
X55882619Y-37657752D02*
X55499762Y-38114895D01*
X55499762Y-38114895D02*
X55914524Y-38114895D01*
X119750238Y-21864895D02*
X119526905Y-21483942D01*
X119367381Y-21864895D02*
X119367381Y-21064895D01*
X119367381Y-21064895D02*
X119622619Y-21064895D01*
X119622619Y-21064895D02*
X119686429Y-21102990D01*
X119686429Y-21102990D02*
X119718334Y-21141085D01*
X119718334Y-21141085D02*
X119750238Y-21217276D01*
X119750238Y-21217276D02*
X119750238Y-21331561D01*
X119750238Y-21331561D02*
X119718334Y-21407752D01*
X119718334Y-21407752D02*
X119686429Y-21445847D01*
X119686429Y-21445847D02*
X119622619Y-21483942D01*
X119622619Y-21483942D02*
X119367381Y-21483942D01*
X120005477Y-21141085D02*
X120037381Y-21102990D01*
X120037381Y-21102990D02*
X120101191Y-21064895D01*
X120101191Y-21064895D02*
X120260715Y-21064895D01*
X120260715Y-21064895D02*
X120324524Y-21102990D01*
X120324524Y-21102990D02*
X120356429Y-21141085D01*
X120356429Y-21141085D02*
X120388334Y-21217276D01*
X120388334Y-21217276D02*
X120388334Y-21293466D01*
X120388334Y-21293466D02*
X120356429Y-21407752D01*
X120356429Y-21407752D02*
X119973572Y-21864895D01*
X119973572Y-21864895D02*
X120388334Y-21864895D01*
X120803095Y-21064895D02*
X120866905Y-21064895D01*
X120866905Y-21064895D02*
X120930714Y-21102990D01*
X120930714Y-21102990D02*
X120962619Y-21141085D01*
X120962619Y-21141085D02*
X120994524Y-21217276D01*
X120994524Y-21217276D02*
X121026429Y-21369657D01*
X121026429Y-21369657D02*
X121026429Y-21560133D01*
X121026429Y-21560133D02*
X120994524Y-21712514D01*
X120994524Y-21712514D02*
X120962619Y-21788704D01*
X120962619Y-21788704D02*
X120930714Y-21826800D01*
X120930714Y-21826800D02*
X120866905Y-21864895D01*
X120866905Y-21864895D02*
X120803095Y-21864895D01*
X120803095Y-21864895D02*
X120739286Y-21826800D01*
X120739286Y-21826800D02*
X120707381Y-21788704D01*
X120707381Y-21788704D02*
X120675476Y-21712514D01*
X120675476Y-21712514D02*
X120643572Y-21560133D01*
X120643572Y-21560133D02*
X120643572Y-21369657D01*
X120643572Y-21369657D02*
X120675476Y-21217276D01*
X120675476Y-21217276D02*
X120707381Y-21141085D01*
X120707381Y-21141085D02*
X120739286Y-21102990D01*
X120739286Y-21102990D02*
X120803095Y-21064895D01*
X121632619Y-21064895D02*
X121313571Y-21064895D01*
X121313571Y-21064895D02*
X121281667Y-21445847D01*
X121281667Y-21445847D02*
X121313571Y-21407752D01*
X121313571Y-21407752D02*
X121377381Y-21369657D01*
X121377381Y-21369657D02*
X121536905Y-21369657D01*
X121536905Y-21369657D02*
X121600714Y-21407752D01*
X121600714Y-21407752D02*
X121632619Y-21445847D01*
X121632619Y-21445847D02*
X121664524Y-21522038D01*
X121664524Y-21522038D02*
X121664524Y-21712514D01*
X121664524Y-21712514D02*
X121632619Y-21788704D01*
X121632619Y-21788704D02*
X121600714Y-21826800D01*
X121600714Y-21826800D02*
X121536905Y-21864895D01*
X121536905Y-21864895D02*
X121377381Y-21864895D01*
X121377381Y-21864895D02*
X121313571Y-21826800D01*
X121313571Y-21826800D02*
X121281667Y-21788704D01*
X55564895Y-63361427D02*
X56136323Y-63361427D01*
X56136323Y-63361427D02*
X56250609Y-63393332D01*
X56250609Y-63393332D02*
X56326800Y-63457141D01*
X56326800Y-63457141D02*
X56364895Y-63552856D01*
X56364895Y-63552856D02*
X56364895Y-63616665D01*
X56364895Y-62691427D02*
X56364895Y-63074284D01*
X56364895Y-62882856D02*
X55564895Y-62882856D01*
X55564895Y-62882856D02*
X55679180Y-62946665D01*
X55679180Y-62946665D02*
X55755371Y-63010475D01*
X55755371Y-63010475D02*
X55793466Y-63074284D01*
X55564895Y-62276666D02*
X55564895Y-62212856D01*
X55564895Y-62212856D02*
X55602990Y-62149047D01*
X55602990Y-62149047D02*
X55641085Y-62117142D01*
X55641085Y-62117142D02*
X55717276Y-62085237D01*
X55717276Y-62085237D02*
X55869657Y-62053332D01*
X55869657Y-62053332D02*
X56060133Y-62053332D01*
X56060133Y-62053332D02*
X56212514Y-62085237D01*
X56212514Y-62085237D02*
X56288704Y-62117142D01*
X56288704Y-62117142D02*
X56326800Y-62149047D01*
X56326800Y-62149047D02*
X56364895Y-62212856D01*
X56364895Y-62212856D02*
X56364895Y-62276666D01*
X56364895Y-62276666D02*
X56326800Y-62340475D01*
X56326800Y-62340475D02*
X56288704Y-62372380D01*
X56288704Y-62372380D02*
X56212514Y-62404285D01*
X56212514Y-62404285D02*
X56060133Y-62436189D01*
X56060133Y-62436189D02*
X55869657Y-62436189D01*
X55869657Y-62436189D02*
X55717276Y-62404285D01*
X55717276Y-62404285D02*
X55641085Y-62372380D01*
X55641085Y-62372380D02*
X55602990Y-62340475D01*
X55602990Y-62340475D02*
X55564895Y-62276666D01*
X55641085Y-61798094D02*
X55602990Y-61766190D01*
X55602990Y-61766190D02*
X55564895Y-61702380D01*
X55564895Y-61702380D02*
X55564895Y-61542856D01*
X55564895Y-61542856D02*
X55602990Y-61479047D01*
X55602990Y-61479047D02*
X55641085Y-61447142D01*
X55641085Y-61447142D02*
X55717276Y-61415237D01*
X55717276Y-61415237D02*
X55793466Y-61415237D01*
X55793466Y-61415237D02*
X55907752Y-61447142D01*
X55907752Y-61447142D02*
X56364895Y-61829999D01*
X56364895Y-61829999D02*
X56364895Y-61415237D01*
X54500238Y-44788704D02*
X54468334Y-44826800D01*
X54468334Y-44826800D02*
X54372619Y-44864895D01*
X54372619Y-44864895D02*
X54308810Y-44864895D01*
X54308810Y-44864895D02*
X54213096Y-44826800D01*
X54213096Y-44826800D02*
X54149286Y-44750609D01*
X54149286Y-44750609D02*
X54117381Y-44674419D01*
X54117381Y-44674419D02*
X54085477Y-44522038D01*
X54085477Y-44522038D02*
X54085477Y-44407752D01*
X54085477Y-44407752D02*
X54117381Y-44255371D01*
X54117381Y-44255371D02*
X54149286Y-44179180D01*
X54149286Y-44179180D02*
X54213096Y-44102990D01*
X54213096Y-44102990D02*
X54308810Y-44064895D01*
X54308810Y-44064895D02*
X54372619Y-44064895D01*
X54372619Y-44064895D02*
X54468334Y-44102990D01*
X54468334Y-44102990D02*
X54500238Y-44141085D01*
X54755477Y-44141085D02*
X54787381Y-44102990D01*
X54787381Y-44102990D02*
X54851191Y-44064895D01*
X54851191Y-44064895D02*
X55010715Y-44064895D01*
X55010715Y-44064895D02*
X55074524Y-44102990D01*
X55074524Y-44102990D02*
X55106429Y-44141085D01*
X55106429Y-44141085D02*
X55138334Y-44217276D01*
X55138334Y-44217276D02*
X55138334Y-44293466D01*
X55138334Y-44293466D02*
X55106429Y-44407752D01*
X55106429Y-44407752D02*
X54723572Y-44864895D01*
X54723572Y-44864895D02*
X55138334Y-44864895D01*
X55553095Y-44064895D02*
X55616905Y-44064895D01*
X55616905Y-44064895D02*
X55680714Y-44102990D01*
X55680714Y-44102990D02*
X55712619Y-44141085D01*
X55712619Y-44141085D02*
X55744524Y-44217276D01*
X55744524Y-44217276D02*
X55776429Y-44369657D01*
X55776429Y-44369657D02*
X55776429Y-44560133D01*
X55776429Y-44560133D02*
X55744524Y-44712514D01*
X55744524Y-44712514D02*
X55712619Y-44788704D01*
X55712619Y-44788704D02*
X55680714Y-44826800D01*
X55680714Y-44826800D02*
X55616905Y-44864895D01*
X55616905Y-44864895D02*
X55553095Y-44864895D01*
X55553095Y-44864895D02*
X55489286Y-44826800D01*
X55489286Y-44826800D02*
X55457381Y-44788704D01*
X55457381Y-44788704D02*
X55425476Y-44712514D01*
X55425476Y-44712514D02*
X55393572Y-44560133D01*
X55393572Y-44560133D02*
X55393572Y-44369657D01*
X55393572Y-44369657D02*
X55425476Y-44217276D01*
X55425476Y-44217276D02*
X55457381Y-44141085D01*
X55457381Y-44141085D02*
X55489286Y-44102990D01*
X55489286Y-44102990D02*
X55553095Y-44064895D01*
X55999762Y-44064895D02*
X56414524Y-44064895D01*
X56414524Y-44064895D02*
X56191190Y-44369657D01*
X56191190Y-44369657D02*
X56286905Y-44369657D01*
X56286905Y-44369657D02*
X56350714Y-44407752D01*
X56350714Y-44407752D02*
X56382619Y-44445847D01*
X56382619Y-44445847D02*
X56414524Y-44522038D01*
X56414524Y-44522038D02*
X56414524Y-44712514D01*
X56414524Y-44712514D02*
X56382619Y-44788704D01*
X56382619Y-44788704D02*
X56350714Y-44826800D01*
X56350714Y-44826800D02*
X56286905Y-44864895D01*
X56286905Y-44864895D02*
X56095476Y-44864895D01*
X56095476Y-44864895D02*
X56031667Y-44826800D01*
X56031667Y-44826800D02*
X55999762Y-44788704D01*
D11*
X63488095Y-72112295D02*
X63488095Y-71312295D01*
X63488095Y-71693247D02*
X64059523Y-71693247D01*
X64059523Y-72112295D02*
X64059523Y-71312295D01*
X64488095Y-71388485D02*
X64535714Y-71350390D01*
X64535714Y-71350390D02*
X64630952Y-71312295D01*
X64630952Y-71312295D02*
X64869047Y-71312295D01*
X64869047Y-71312295D02*
X64964285Y-71350390D01*
X64964285Y-71350390D02*
X65011904Y-71388485D01*
X65011904Y-71388485D02*
X65059523Y-71464676D01*
X65059523Y-71464676D02*
X65059523Y-71540866D01*
X65059523Y-71540866D02*
X65011904Y-71655152D01*
X65011904Y-71655152D02*
X64440476Y-72112295D01*
X64440476Y-72112295D02*
X65059523Y-72112295D01*
D10*
X54450238Y-49038704D02*
X54418334Y-49076800D01*
X54418334Y-49076800D02*
X54322619Y-49114895D01*
X54322619Y-49114895D02*
X54258810Y-49114895D01*
X54258810Y-49114895D02*
X54163096Y-49076800D01*
X54163096Y-49076800D02*
X54099286Y-49000609D01*
X54099286Y-49000609D02*
X54067381Y-48924419D01*
X54067381Y-48924419D02*
X54035477Y-48772038D01*
X54035477Y-48772038D02*
X54035477Y-48657752D01*
X54035477Y-48657752D02*
X54067381Y-48505371D01*
X54067381Y-48505371D02*
X54099286Y-48429180D01*
X54099286Y-48429180D02*
X54163096Y-48352990D01*
X54163096Y-48352990D02*
X54258810Y-48314895D01*
X54258810Y-48314895D02*
X54322619Y-48314895D01*
X54322619Y-48314895D02*
X54418334Y-48352990D01*
X54418334Y-48352990D02*
X54450238Y-48391085D01*
X54705477Y-48391085D02*
X54737381Y-48352990D01*
X54737381Y-48352990D02*
X54801191Y-48314895D01*
X54801191Y-48314895D02*
X54960715Y-48314895D01*
X54960715Y-48314895D02*
X55024524Y-48352990D01*
X55024524Y-48352990D02*
X55056429Y-48391085D01*
X55056429Y-48391085D02*
X55088334Y-48467276D01*
X55088334Y-48467276D02*
X55088334Y-48543466D01*
X55088334Y-48543466D02*
X55056429Y-48657752D01*
X55056429Y-48657752D02*
X54673572Y-49114895D01*
X54673572Y-49114895D02*
X55088334Y-49114895D01*
X55503095Y-48314895D02*
X55566905Y-48314895D01*
X55566905Y-48314895D02*
X55630714Y-48352990D01*
X55630714Y-48352990D02*
X55662619Y-48391085D01*
X55662619Y-48391085D02*
X55694524Y-48467276D01*
X55694524Y-48467276D02*
X55726429Y-48619657D01*
X55726429Y-48619657D02*
X55726429Y-48810133D01*
X55726429Y-48810133D02*
X55694524Y-48962514D01*
X55694524Y-48962514D02*
X55662619Y-49038704D01*
X55662619Y-49038704D02*
X55630714Y-49076800D01*
X55630714Y-49076800D02*
X55566905Y-49114895D01*
X55566905Y-49114895D02*
X55503095Y-49114895D01*
X55503095Y-49114895D02*
X55439286Y-49076800D01*
X55439286Y-49076800D02*
X55407381Y-49038704D01*
X55407381Y-49038704D02*
X55375476Y-48962514D01*
X55375476Y-48962514D02*
X55343572Y-48810133D01*
X55343572Y-48810133D02*
X55343572Y-48619657D01*
X55343572Y-48619657D02*
X55375476Y-48467276D01*
X55375476Y-48467276D02*
X55407381Y-48391085D01*
X55407381Y-48391085D02*
X55439286Y-48352990D01*
X55439286Y-48352990D02*
X55503095Y-48314895D01*
X56300714Y-48314895D02*
X56173095Y-48314895D01*
X56173095Y-48314895D02*
X56109286Y-48352990D01*
X56109286Y-48352990D02*
X56077381Y-48391085D01*
X56077381Y-48391085D02*
X56013571Y-48505371D01*
X56013571Y-48505371D02*
X55981667Y-48657752D01*
X55981667Y-48657752D02*
X55981667Y-48962514D01*
X55981667Y-48962514D02*
X56013571Y-49038704D01*
X56013571Y-49038704D02*
X56045476Y-49076800D01*
X56045476Y-49076800D02*
X56109286Y-49114895D01*
X56109286Y-49114895D02*
X56236905Y-49114895D01*
X56236905Y-49114895D02*
X56300714Y-49076800D01*
X56300714Y-49076800D02*
X56332619Y-49038704D01*
X56332619Y-49038704D02*
X56364524Y-48962514D01*
X56364524Y-48962514D02*
X56364524Y-48772038D01*
X56364524Y-48772038D02*
X56332619Y-48695847D01*
X56332619Y-48695847D02*
X56300714Y-48657752D01*
X56300714Y-48657752D02*
X56236905Y-48619657D01*
X56236905Y-48619657D02*
X56109286Y-48619657D01*
X56109286Y-48619657D02*
X56045476Y-48657752D01*
X56045476Y-48657752D02*
X56013571Y-48695847D01*
X56013571Y-48695847D02*
X55981667Y-48772038D01*
D11*
X16994819Y-59785714D02*
X17709104Y-59785714D01*
X17709104Y-59785714D02*
X17851961Y-59833333D01*
X17851961Y-59833333D02*
X17947200Y-59928571D01*
X17947200Y-59928571D02*
X17994819Y-60071428D01*
X17994819Y-60071428D02*
X17994819Y-60166666D01*
X17090057Y-59357142D02*
X17042438Y-59309523D01*
X17042438Y-59309523D02*
X16994819Y-59214285D01*
X16994819Y-59214285D02*
X16994819Y-58976190D01*
X16994819Y-58976190D02*
X17042438Y-58880952D01*
X17042438Y-58880952D02*
X17090057Y-58833333D01*
X17090057Y-58833333D02*
X17185295Y-58785714D01*
X17185295Y-58785714D02*
X17280533Y-58785714D01*
X17280533Y-58785714D02*
X17423390Y-58833333D01*
X17423390Y-58833333D02*
X17994819Y-59404761D01*
X17994819Y-59404761D02*
X17994819Y-58785714D01*
X16994819Y-58166666D02*
X16994819Y-58071428D01*
X16994819Y-58071428D02*
X17042438Y-57976190D01*
X17042438Y-57976190D02*
X17090057Y-57928571D01*
X17090057Y-57928571D02*
X17185295Y-57880952D01*
X17185295Y-57880952D02*
X17375771Y-57833333D01*
X17375771Y-57833333D02*
X17613866Y-57833333D01*
X17613866Y-57833333D02*
X17804342Y-57880952D01*
X17804342Y-57880952D02*
X17899580Y-57928571D01*
X17899580Y-57928571D02*
X17947200Y-57976190D01*
X17947200Y-57976190D02*
X17994819Y-58071428D01*
X17994819Y-58071428D02*
X17994819Y-58166666D01*
X17994819Y-58166666D02*
X17947200Y-58261904D01*
X17947200Y-58261904D02*
X17899580Y-58309523D01*
X17899580Y-58309523D02*
X17804342Y-58357142D01*
X17804342Y-58357142D02*
X17613866Y-58404761D01*
X17613866Y-58404761D02*
X17375771Y-58404761D01*
X17375771Y-58404761D02*
X17185295Y-58357142D01*
X17185295Y-58357142D02*
X17090057Y-58309523D01*
X17090057Y-58309523D02*
X17042438Y-58261904D01*
X17042438Y-58261904D02*
X16994819Y-58166666D01*
X17090057Y-57452380D02*
X17042438Y-57404761D01*
X17042438Y-57404761D02*
X16994819Y-57309523D01*
X16994819Y-57309523D02*
X16994819Y-57071428D01*
X16994819Y-57071428D02*
X17042438Y-56976190D01*
X17042438Y-56976190D02*
X17090057Y-56928571D01*
X17090057Y-56928571D02*
X17185295Y-56880952D01*
X17185295Y-56880952D02*
X17280533Y-56880952D01*
X17280533Y-56880952D02*
X17423390Y-56928571D01*
X17423390Y-56928571D02*
X17994819Y-57499999D01*
X17994819Y-57499999D02*
X17994819Y-56880952D01*
D10*
X54500238Y-46038704D02*
X54468334Y-46076800D01*
X54468334Y-46076800D02*
X54372619Y-46114895D01*
X54372619Y-46114895D02*
X54308810Y-46114895D01*
X54308810Y-46114895D02*
X54213096Y-46076800D01*
X54213096Y-46076800D02*
X54149286Y-46000609D01*
X54149286Y-46000609D02*
X54117381Y-45924419D01*
X54117381Y-45924419D02*
X54085477Y-45772038D01*
X54085477Y-45772038D02*
X54085477Y-45657752D01*
X54085477Y-45657752D02*
X54117381Y-45505371D01*
X54117381Y-45505371D02*
X54149286Y-45429180D01*
X54149286Y-45429180D02*
X54213096Y-45352990D01*
X54213096Y-45352990D02*
X54308810Y-45314895D01*
X54308810Y-45314895D02*
X54372619Y-45314895D01*
X54372619Y-45314895D02*
X54468334Y-45352990D01*
X54468334Y-45352990D02*
X54500238Y-45391085D01*
X54755477Y-45391085D02*
X54787381Y-45352990D01*
X54787381Y-45352990D02*
X54851191Y-45314895D01*
X54851191Y-45314895D02*
X55010715Y-45314895D01*
X55010715Y-45314895D02*
X55074524Y-45352990D01*
X55074524Y-45352990D02*
X55106429Y-45391085D01*
X55106429Y-45391085D02*
X55138334Y-45467276D01*
X55138334Y-45467276D02*
X55138334Y-45543466D01*
X55138334Y-45543466D02*
X55106429Y-45657752D01*
X55106429Y-45657752D02*
X54723572Y-46114895D01*
X54723572Y-46114895D02*
X55138334Y-46114895D01*
X55553095Y-45314895D02*
X55616905Y-45314895D01*
X55616905Y-45314895D02*
X55680714Y-45352990D01*
X55680714Y-45352990D02*
X55712619Y-45391085D01*
X55712619Y-45391085D02*
X55744524Y-45467276D01*
X55744524Y-45467276D02*
X55776429Y-45619657D01*
X55776429Y-45619657D02*
X55776429Y-45810133D01*
X55776429Y-45810133D02*
X55744524Y-45962514D01*
X55744524Y-45962514D02*
X55712619Y-46038704D01*
X55712619Y-46038704D02*
X55680714Y-46076800D01*
X55680714Y-46076800D02*
X55616905Y-46114895D01*
X55616905Y-46114895D02*
X55553095Y-46114895D01*
X55553095Y-46114895D02*
X55489286Y-46076800D01*
X55489286Y-46076800D02*
X55457381Y-46038704D01*
X55457381Y-46038704D02*
X55425476Y-45962514D01*
X55425476Y-45962514D02*
X55393572Y-45810133D01*
X55393572Y-45810133D02*
X55393572Y-45619657D01*
X55393572Y-45619657D02*
X55425476Y-45467276D01*
X55425476Y-45467276D02*
X55457381Y-45391085D01*
X55457381Y-45391085D02*
X55489286Y-45352990D01*
X55489286Y-45352990D02*
X55553095Y-45314895D01*
X56350714Y-45581561D02*
X56350714Y-46114895D01*
X56191190Y-45276800D02*
X56031667Y-45848228D01*
X56031667Y-45848228D02*
X56446428Y-45848228D01*
X54575238Y-50538704D02*
X54543334Y-50576800D01*
X54543334Y-50576800D02*
X54447619Y-50614895D01*
X54447619Y-50614895D02*
X54383810Y-50614895D01*
X54383810Y-50614895D02*
X54288096Y-50576800D01*
X54288096Y-50576800D02*
X54224286Y-50500609D01*
X54224286Y-50500609D02*
X54192381Y-50424419D01*
X54192381Y-50424419D02*
X54160477Y-50272038D01*
X54160477Y-50272038D02*
X54160477Y-50157752D01*
X54160477Y-50157752D02*
X54192381Y-50005371D01*
X54192381Y-50005371D02*
X54224286Y-49929180D01*
X54224286Y-49929180D02*
X54288096Y-49852990D01*
X54288096Y-49852990D02*
X54383810Y-49814895D01*
X54383810Y-49814895D02*
X54447619Y-49814895D01*
X54447619Y-49814895D02*
X54543334Y-49852990D01*
X54543334Y-49852990D02*
X54575238Y-49891085D01*
X54830477Y-49891085D02*
X54862381Y-49852990D01*
X54862381Y-49852990D02*
X54926191Y-49814895D01*
X54926191Y-49814895D02*
X55085715Y-49814895D01*
X55085715Y-49814895D02*
X55149524Y-49852990D01*
X55149524Y-49852990D02*
X55181429Y-49891085D01*
X55181429Y-49891085D02*
X55213334Y-49967276D01*
X55213334Y-49967276D02*
X55213334Y-50043466D01*
X55213334Y-50043466D02*
X55181429Y-50157752D01*
X55181429Y-50157752D02*
X54798572Y-50614895D01*
X54798572Y-50614895D02*
X55213334Y-50614895D01*
X55628095Y-49814895D02*
X55691905Y-49814895D01*
X55691905Y-49814895D02*
X55755714Y-49852990D01*
X55755714Y-49852990D02*
X55787619Y-49891085D01*
X55787619Y-49891085D02*
X55819524Y-49967276D01*
X55819524Y-49967276D02*
X55851429Y-50119657D01*
X55851429Y-50119657D02*
X55851429Y-50310133D01*
X55851429Y-50310133D02*
X55819524Y-50462514D01*
X55819524Y-50462514D02*
X55787619Y-50538704D01*
X55787619Y-50538704D02*
X55755714Y-50576800D01*
X55755714Y-50576800D02*
X55691905Y-50614895D01*
X55691905Y-50614895D02*
X55628095Y-50614895D01*
X55628095Y-50614895D02*
X55564286Y-50576800D01*
X55564286Y-50576800D02*
X55532381Y-50538704D01*
X55532381Y-50538704D02*
X55500476Y-50462514D01*
X55500476Y-50462514D02*
X55468572Y-50310133D01*
X55468572Y-50310133D02*
X55468572Y-50119657D01*
X55468572Y-50119657D02*
X55500476Y-49967276D01*
X55500476Y-49967276D02*
X55532381Y-49891085D01*
X55532381Y-49891085D02*
X55564286Y-49852990D01*
X55564286Y-49852990D02*
X55628095Y-49814895D01*
X56074762Y-49814895D02*
X56521428Y-49814895D01*
X56521428Y-49814895D02*
X56234286Y-50614895D01*
X59548095Y-35191085D02*
X59484285Y-35152990D01*
X59484285Y-35152990D02*
X59420476Y-35076800D01*
X59420476Y-35076800D02*
X59324762Y-34962514D01*
X59324762Y-34962514D02*
X59260952Y-34924419D01*
X59260952Y-34924419D02*
X59197143Y-34924419D01*
X59229047Y-35114895D02*
X59165238Y-35076800D01*
X59165238Y-35076800D02*
X59101428Y-35000609D01*
X59101428Y-35000609D02*
X59069524Y-34848228D01*
X59069524Y-34848228D02*
X59069524Y-34581561D01*
X59069524Y-34581561D02*
X59101428Y-34429180D01*
X59101428Y-34429180D02*
X59165238Y-34352990D01*
X59165238Y-34352990D02*
X59229047Y-34314895D01*
X59229047Y-34314895D02*
X59356666Y-34314895D01*
X59356666Y-34314895D02*
X59420476Y-34352990D01*
X59420476Y-34352990D02*
X59484285Y-34429180D01*
X59484285Y-34429180D02*
X59516190Y-34581561D01*
X59516190Y-34581561D02*
X59516190Y-34848228D01*
X59516190Y-34848228D02*
X59484285Y-35000609D01*
X59484285Y-35000609D02*
X59420476Y-35076800D01*
X59420476Y-35076800D02*
X59356666Y-35114895D01*
X59356666Y-35114895D02*
X59229047Y-35114895D01*
X59771429Y-34391085D02*
X59803333Y-34352990D01*
X59803333Y-34352990D02*
X59867143Y-34314895D01*
X59867143Y-34314895D02*
X60026667Y-34314895D01*
X60026667Y-34314895D02*
X60090476Y-34352990D01*
X60090476Y-34352990D02*
X60122381Y-34391085D01*
X60122381Y-34391085D02*
X60154286Y-34467276D01*
X60154286Y-34467276D02*
X60154286Y-34543466D01*
X60154286Y-34543466D02*
X60122381Y-34657752D01*
X60122381Y-34657752D02*
X59739524Y-35114895D01*
X59739524Y-35114895D02*
X60154286Y-35114895D01*
X60569047Y-34314895D02*
X60632857Y-34314895D01*
X60632857Y-34314895D02*
X60696666Y-34352990D01*
X60696666Y-34352990D02*
X60728571Y-34391085D01*
X60728571Y-34391085D02*
X60760476Y-34467276D01*
X60760476Y-34467276D02*
X60792381Y-34619657D01*
X60792381Y-34619657D02*
X60792381Y-34810133D01*
X60792381Y-34810133D02*
X60760476Y-34962514D01*
X60760476Y-34962514D02*
X60728571Y-35038704D01*
X60728571Y-35038704D02*
X60696666Y-35076800D01*
X60696666Y-35076800D02*
X60632857Y-35114895D01*
X60632857Y-35114895D02*
X60569047Y-35114895D01*
X60569047Y-35114895D02*
X60505238Y-35076800D01*
X60505238Y-35076800D02*
X60473333Y-35038704D01*
X60473333Y-35038704D02*
X60441428Y-34962514D01*
X60441428Y-34962514D02*
X60409524Y-34810133D01*
X60409524Y-34810133D02*
X60409524Y-34619657D01*
X60409524Y-34619657D02*
X60441428Y-34467276D01*
X60441428Y-34467276D02*
X60473333Y-34391085D01*
X60473333Y-34391085D02*
X60505238Y-34352990D01*
X60505238Y-34352990D02*
X60569047Y-34314895D01*
X61430476Y-35114895D02*
X61047619Y-35114895D01*
X61239047Y-35114895D02*
X61239047Y-34314895D01*
X61239047Y-34314895D02*
X61175238Y-34429180D01*
X61175238Y-34429180D02*
X61111428Y-34505371D01*
X61111428Y-34505371D02*
X61047619Y-34543466D01*
X48553476Y-28521295D02*
X48936333Y-28521295D01*
X48744905Y-29321295D02*
X48744905Y-28521295D01*
X49159666Y-29321295D02*
X49159666Y-28521295D01*
X49159666Y-28521295D02*
X49414904Y-28521295D01*
X49414904Y-28521295D02*
X49478714Y-28559390D01*
X49478714Y-28559390D02*
X49510619Y-28597485D01*
X49510619Y-28597485D02*
X49542523Y-28673676D01*
X49542523Y-28673676D02*
X49542523Y-28787961D01*
X49542523Y-28787961D02*
X49510619Y-28864152D01*
X49510619Y-28864152D02*
X49478714Y-28902247D01*
X49478714Y-28902247D02*
X49414904Y-28940342D01*
X49414904Y-28940342D02*
X49159666Y-28940342D01*
X50180619Y-29321295D02*
X49797762Y-29321295D01*
X49989190Y-29321295D02*
X49989190Y-28521295D01*
X49989190Y-28521295D02*
X49925381Y-28635580D01*
X49925381Y-28635580D02*
X49861571Y-28711771D01*
X49861571Y-28711771D02*
X49797762Y-28749866D01*
X50435857Y-28597485D02*
X50467761Y-28559390D01*
X50467761Y-28559390D02*
X50531571Y-28521295D01*
X50531571Y-28521295D02*
X50691095Y-28521295D01*
X50691095Y-28521295D02*
X50754904Y-28559390D01*
X50754904Y-28559390D02*
X50786809Y-28597485D01*
X50786809Y-28597485D02*
X50818714Y-28673676D01*
X50818714Y-28673676D02*
X50818714Y-28749866D01*
X50818714Y-28749866D02*
X50786809Y-28864152D01*
X50786809Y-28864152D02*
X50403952Y-29321295D01*
X50403952Y-29321295D02*
X50818714Y-29321295D01*
X56364895Y-41999761D02*
X55983942Y-42223094D01*
X56364895Y-42382618D02*
X55564895Y-42382618D01*
X55564895Y-42382618D02*
X55564895Y-42127380D01*
X55564895Y-42127380D02*
X55602990Y-42063570D01*
X55602990Y-42063570D02*
X55641085Y-42031665D01*
X55641085Y-42031665D02*
X55717276Y-41999761D01*
X55717276Y-41999761D02*
X55831561Y-41999761D01*
X55831561Y-41999761D02*
X55907752Y-42031665D01*
X55907752Y-42031665D02*
X55945847Y-42063570D01*
X55945847Y-42063570D02*
X55983942Y-42127380D01*
X55983942Y-42127380D02*
X55983942Y-42382618D01*
X55641085Y-41744522D02*
X55602990Y-41712618D01*
X55602990Y-41712618D02*
X55564895Y-41648808D01*
X55564895Y-41648808D02*
X55564895Y-41489284D01*
X55564895Y-41489284D02*
X55602990Y-41425475D01*
X55602990Y-41425475D02*
X55641085Y-41393570D01*
X55641085Y-41393570D02*
X55717276Y-41361665D01*
X55717276Y-41361665D02*
X55793466Y-41361665D01*
X55793466Y-41361665D02*
X55907752Y-41393570D01*
X55907752Y-41393570D02*
X56364895Y-41776427D01*
X56364895Y-41776427D02*
X56364895Y-41361665D01*
X55564895Y-40946904D02*
X55564895Y-40883094D01*
X55564895Y-40883094D02*
X55602990Y-40819285D01*
X55602990Y-40819285D02*
X55641085Y-40787380D01*
X55641085Y-40787380D02*
X55717276Y-40755475D01*
X55717276Y-40755475D02*
X55869657Y-40723570D01*
X55869657Y-40723570D02*
X56060133Y-40723570D01*
X56060133Y-40723570D02*
X56212514Y-40755475D01*
X56212514Y-40755475D02*
X56288704Y-40787380D01*
X56288704Y-40787380D02*
X56326800Y-40819285D01*
X56326800Y-40819285D02*
X56364895Y-40883094D01*
X56364895Y-40883094D02*
X56364895Y-40946904D01*
X56364895Y-40946904D02*
X56326800Y-41010713D01*
X56326800Y-41010713D02*
X56288704Y-41042618D01*
X56288704Y-41042618D02*
X56212514Y-41074523D01*
X56212514Y-41074523D02*
X56060133Y-41106427D01*
X56060133Y-41106427D02*
X55869657Y-41106427D01*
X55869657Y-41106427D02*
X55717276Y-41074523D01*
X55717276Y-41074523D02*
X55641085Y-41042618D01*
X55641085Y-41042618D02*
X55602990Y-41010713D01*
X55602990Y-41010713D02*
X55564895Y-40946904D01*
X55641085Y-40468332D02*
X55602990Y-40436428D01*
X55602990Y-40436428D02*
X55564895Y-40372618D01*
X55564895Y-40372618D02*
X55564895Y-40213094D01*
X55564895Y-40213094D02*
X55602990Y-40149285D01*
X55602990Y-40149285D02*
X55641085Y-40117380D01*
X55641085Y-40117380D02*
X55717276Y-40085475D01*
X55717276Y-40085475D02*
X55793466Y-40085475D01*
X55793466Y-40085475D02*
X55907752Y-40117380D01*
X55907752Y-40117380D02*
X56364895Y-40500237D01*
X56364895Y-40500237D02*
X56364895Y-40085475D01*
X45564895Y-42861427D02*
X46136323Y-42861427D01*
X46136323Y-42861427D02*
X46250609Y-42893332D01*
X46250609Y-42893332D02*
X46326800Y-42957141D01*
X46326800Y-42957141D02*
X46364895Y-43052856D01*
X46364895Y-43052856D02*
X46364895Y-43116665D01*
X45641085Y-42574284D02*
X45602990Y-42542380D01*
X45602990Y-42542380D02*
X45564895Y-42478570D01*
X45564895Y-42478570D02*
X45564895Y-42319046D01*
X45564895Y-42319046D02*
X45602990Y-42255237D01*
X45602990Y-42255237D02*
X45641085Y-42223332D01*
X45641085Y-42223332D02*
X45717276Y-42191427D01*
X45717276Y-42191427D02*
X45793466Y-42191427D01*
X45793466Y-42191427D02*
X45907752Y-42223332D01*
X45907752Y-42223332D02*
X46364895Y-42606189D01*
X46364895Y-42606189D02*
X46364895Y-42191427D01*
X45564895Y-41776666D02*
X45564895Y-41712856D01*
X45564895Y-41712856D02*
X45602990Y-41649047D01*
X45602990Y-41649047D02*
X45641085Y-41617142D01*
X45641085Y-41617142D02*
X45717276Y-41585237D01*
X45717276Y-41585237D02*
X45869657Y-41553332D01*
X45869657Y-41553332D02*
X46060133Y-41553332D01*
X46060133Y-41553332D02*
X46212514Y-41585237D01*
X46212514Y-41585237D02*
X46288704Y-41617142D01*
X46288704Y-41617142D02*
X46326800Y-41649047D01*
X46326800Y-41649047D02*
X46364895Y-41712856D01*
X46364895Y-41712856D02*
X46364895Y-41776666D01*
X46364895Y-41776666D02*
X46326800Y-41840475D01*
X46326800Y-41840475D02*
X46288704Y-41872380D01*
X46288704Y-41872380D02*
X46212514Y-41904285D01*
X46212514Y-41904285D02*
X46060133Y-41936189D01*
X46060133Y-41936189D02*
X45869657Y-41936189D01*
X45869657Y-41936189D02*
X45717276Y-41904285D01*
X45717276Y-41904285D02*
X45641085Y-41872380D01*
X45641085Y-41872380D02*
X45602990Y-41840475D01*
X45602990Y-41840475D02*
X45564895Y-41776666D01*
X45564895Y-41329999D02*
X45564895Y-40915237D01*
X45564895Y-40915237D02*
X45869657Y-41138571D01*
X45869657Y-41138571D02*
X45869657Y-41042856D01*
X45869657Y-41042856D02*
X45907752Y-40979047D01*
X45907752Y-40979047D02*
X45945847Y-40947142D01*
X45945847Y-40947142D02*
X46022038Y-40915237D01*
X46022038Y-40915237D02*
X46212514Y-40915237D01*
X46212514Y-40915237D02*
X46288704Y-40947142D01*
X46288704Y-40947142D02*
X46326800Y-40979047D01*
X46326800Y-40979047D02*
X46364895Y-41042856D01*
X46364895Y-41042856D02*
X46364895Y-41234285D01*
X46364895Y-41234285D02*
X46326800Y-41298094D01*
X46326800Y-41298094D02*
X46288704Y-41329999D01*
X49835476Y-73064895D02*
X50218333Y-73064895D01*
X50026905Y-73864895D02*
X50026905Y-73064895D01*
X50441666Y-73864895D02*
X50441666Y-73064895D01*
X50441666Y-73064895D02*
X50696904Y-73064895D01*
X50696904Y-73064895D02*
X50760714Y-73102990D01*
X50760714Y-73102990D02*
X50792619Y-73141085D01*
X50792619Y-73141085D02*
X50824523Y-73217276D01*
X50824523Y-73217276D02*
X50824523Y-73331561D01*
X50824523Y-73331561D02*
X50792619Y-73407752D01*
X50792619Y-73407752D02*
X50760714Y-73445847D01*
X50760714Y-73445847D02*
X50696904Y-73483942D01*
X50696904Y-73483942D02*
X50441666Y-73483942D01*
X51462619Y-73864895D02*
X51079762Y-73864895D01*
X51271190Y-73864895D02*
X51271190Y-73064895D01*
X51271190Y-73064895D02*
X51207381Y-73179180D01*
X51207381Y-73179180D02*
X51143571Y-73255371D01*
X51143571Y-73255371D02*
X51079762Y-73293466D01*
X52036904Y-73064895D02*
X51909285Y-73064895D01*
X51909285Y-73064895D02*
X51845476Y-73102990D01*
X51845476Y-73102990D02*
X51813571Y-73141085D01*
X51813571Y-73141085D02*
X51749761Y-73255371D01*
X51749761Y-73255371D02*
X51717857Y-73407752D01*
X51717857Y-73407752D02*
X51717857Y-73712514D01*
X51717857Y-73712514D02*
X51749761Y-73788704D01*
X51749761Y-73788704D02*
X51781666Y-73826800D01*
X51781666Y-73826800D02*
X51845476Y-73864895D01*
X51845476Y-73864895D02*
X51973095Y-73864895D01*
X51973095Y-73864895D02*
X52036904Y-73826800D01*
X52036904Y-73826800D02*
X52068809Y-73788704D01*
X52068809Y-73788704D02*
X52100714Y-73712514D01*
X52100714Y-73712514D02*
X52100714Y-73522038D01*
X52100714Y-73522038D02*
X52068809Y-73445847D01*
X52068809Y-73445847D02*
X52036904Y-73407752D01*
X52036904Y-73407752D02*
X51973095Y-73369657D01*
X51973095Y-73369657D02*
X51845476Y-73369657D01*
X51845476Y-73369657D02*
X51781666Y-73407752D01*
X51781666Y-73407752D02*
X51749761Y-73445847D01*
X51749761Y-73445847D02*
X51717857Y-73522038D01*
X22654524Y-77814895D02*
X23037381Y-77814895D01*
X22845953Y-78614895D02*
X22845953Y-77814895D01*
X23260714Y-78614895D02*
X23260714Y-77814895D01*
X23260714Y-77814895D02*
X23515952Y-77814895D01*
X23515952Y-77814895D02*
X23579762Y-77852990D01*
X23579762Y-77852990D02*
X23611667Y-77891085D01*
X23611667Y-77891085D02*
X23643571Y-77967276D01*
X23643571Y-77967276D02*
X23643571Y-78081561D01*
X23643571Y-78081561D02*
X23611667Y-78157752D01*
X23611667Y-78157752D02*
X23579762Y-78195847D01*
X23579762Y-78195847D02*
X23515952Y-78233942D01*
X23515952Y-78233942D02*
X23260714Y-78233942D01*
X24281667Y-78614895D02*
X23898810Y-78614895D01*
X24090238Y-78614895D02*
X24090238Y-77814895D01*
X24090238Y-77814895D02*
X24026429Y-77929180D01*
X24026429Y-77929180D02*
X23962619Y-78005371D01*
X23962619Y-78005371D02*
X23898810Y-78043466D01*
X45750238Y-21114895D02*
X45526905Y-20733942D01*
X45367381Y-21114895D02*
X45367381Y-20314895D01*
X45367381Y-20314895D02*
X45622619Y-20314895D01*
X45622619Y-20314895D02*
X45686429Y-20352990D01*
X45686429Y-20352990D02*
X45718334Y-20391085D01*
X45718334Y-20391085D02*
X45750238Y-20467276D01*
X45750238Y-20467276D02*
X45750238Y-20581561D01*
X45750238Y-20581561D02*
X45718334Y-20657752D01*
X45718334Y-20657752D02*
X45686429Y-20695847D01*
X45686429Y-20695847D02*
X45622619Y-20733942D01*
X45622619Y-20733942D02*
X45367381Y-20733942D01*
X46005477Y-20391085D02*
X46037381Y-20352990D01*
X46037381Y-20352990D02*
X46101191Y-20314895D01*
X46101191Y-20314895D02*
X46260715Y-20314895D01*
X46260715Y-20314895D02*
X46324524Y-20352990D01*
X46324524Y-20352990D02*
X46356429Y-20391085D01*
X46356429Y-20391085D02*
X46388334Y-20467276D01*
X46388334Y-20467276D02*
X46388334Y-20543466D01*
X46388334Y-20543466D02*
X46356429Y-20657752D01*
X46356429Y-20657752D02*
X45973572Y-21114895D01*
X45973572Y-21114895D02*
X46388334Y-21114895D01*
X46803095Y-20314895D02*
X46866905Y-20314895D01*
X46866905Y-20314895D02*
X46930714Y-20352990D01*
X46930714Y-20352990D02*
X46962619Y-20391085D01*
X46962619Y-20391085D02*
X46994524Y-20467276D01*
X46994524Y-20467276D02*
X47026429Y-20619657D01*
X47026429Y-20619657D02*
X47026429Y-20810133D01*
X47026429Y-20810133D02*
X46994524Y-20962514D01*
X46994524Y-20962514D02*
X46962619Y-21038704D01*
X46962619Y-21038704D02*
X46930714Y-21076800D01*
X46930714Y-21076800D02*
X46866905Y-21114895D01*
X46866905Y-21114895D02*
X46803095Y-21114895D01*
X46803095Y-21114895D02*
X46739286Y-21076800D01*
X46739286Y-21076800D02*
X46707381Y-21038704D01*
X46707381Y-21038704D02*
X46675476Y-20962514D01*
X46675476Y-20962514D02*
X46643572Y-20810133D01*
X46643572Y-20810133D02*
X46643572Y-20619657D01*
X46643572Y-20619657D02*
X46675476Y-20467276D01*
X46675476Y-20467276D02*
X46707381Y-20391085D01*
X46707381Y-20391085D02*
X46739286Y-20352990D01*
X46739286Y-20352990D02*
X46803095Y-20314895D01*
X47600714Y-20314895D02*
X47473095Y-20314895D01*
X47473095Y-20314895D02*
X47409286Y-20352990D01*
X47409286Y-20352990D02*
X47377381Y-20391085D01*
X47377381Y-20391085D02*
X47313571Y-20505371D01*
X47313571Y-20505371D02*
X47281667Y-20657752D01*
X47281667Y-20657752D02*
X47281667Y-20962514D01*
X47281667Y-20962514D02*
X47313571Y-21038704D01*
X47313571Y-21038704D02*
X47345476Y-21076800D01*
X47345476Y-21076800D02*
X47409286Y-21114895D01*
X47409286Y-21114895D02*
X47536905Y-21114895D01*
X47536905Y-21114895D02*
X47600714Y-21076800D01*
X47600714Y-21076800D02*
X47632619Y-21038704D01*
X47632619Y-21038704D02*
X47664524Y-20962514D01*
X47664524Y-20962514D02*
X47664524Y-20772038D01*
X47664524Y-20772038D02*
X47632619Y-20695847D01*
X47632619Y-20695847D02*
X47600714Y-20657752D01*
X47600714Y-20657752D02*
X47536905Y-20619657D01*
X47536905Y-20619657D02*
X47409286Y-20619657D01*
X47409286Y-20619657D02*
X47345476Y-20657752D01*
X47345476Y-20657752D02*
X47313571Y-20695847D01*
X47313571Y-20695847D02*
X47281667Y-20772038D01*
X25016429Y-77814895D02*
X25399286Y-77814895D01*
X25207858Y-78614895D02*
X25207858Y-77814895D01*
X25622619Y-78614895D02*
X25622619Y-77814895D01*
X25622619Y-77814895D02*
X25877857Y-77814895D01*
X25877857Y-77814895D02*
X25941667Y-77852990D01*
X25941667Y-77852990D02*
X25973572Y-77891085D01*
X25973572Y-77891085D02*
X26005476Y-77967276D01*
X26005476Y-77967276D02*
X26005476Y-78081561D01*
X26005476Y-78081561D02*
X25973572Y-78157752D01*
X25973572Y-78157752D02*
X25941667Y-78195847D01*
X25941667Y-78195847D02*
X25877857Y-78233942D01*
X25877857Y-78233942D02*
X25622619Y-78233942D01*
X26643572Y-78614895D02*
X26260715Y-78614895D01*
X26452143Y-78614895D02*
X26452143Y-77814895D01*
X26452143Y-77814895D02*
X26388334Y-77929180D01*
X26388334Y-77929180D02*
X26324524Y-78005371D01*
X26324524Y-78005371D02*
X26260715Y-78043466D01*
X27058333Y-77814895D02*
X27122143Y-77814895D01*
X27122143Y-77814895D02*
X27185952Y-77852990D01*
X27185952Y-77852990D02*
X27217857Y-77891085D01*
X27217857Y-77891085D02*
X27249762Y-77967276D01*
X27249762Y-77967276D02*
X27281667Y-78119657D01*
X27281667Y-78119657D02*
X27281667Y-78310133D01*
X27281667Y-78310133D02*
X27249762Y-78462514D01*
X27249762Y-78462514D02*
X27217857Y-78538704D01*
X27217857Y-78538704D02*
X27185952Y-78576800D01*
X27185952Y-78576800D02*
X27122143Y-78614895D01*
X27122143Y-78614895D02*
X27058333Y-78614895D01*
X27058333Y-78614895D02*
X26994524Y-78576800D01*
X26994524Y-78576800D02*
X26962619Y-78538704D01*
X26962619Y-78538704D02*
X26930714Y-78462514D01*
X26930714Y-78462514D02*
X26898810Y-78310133D01*
X26898810Y-78310133D02*
X26898810Y-78119657D01*
X26898810Y-78119657D02*
X26930714Y-77967276D01*
X26930714Y-77967276D02*
X26962619Y-77891085D01*
X26962619Y-77891085D02*
X26994524Y-77852990D01*
X26994524Y-77852990D02*
X27058333Y-77814895D01*
X27505000Y-77814895D02*
X27919762Y-77814895D01*
X27919762Y-77814895D02*
X27696428Y-78119657D01*
X27696428Y-78119657D02*
X27792143Y-78119657D01*
X27792143Y-78119657D02*
X27855952Y-78157752D01*
X27855952Y-78157752D02*
X27887857Y-78195847D01*
X27887857Y-78195847D02*
X27919762Y-78272038D01*
X27919762Y-78272038D02*
X27919762Y-78462514D01*
X27919762Y-78462514D02*
X27887857Y-78538704D01*
X27887857Y-78538704D02*
X27855952Y-78576800D01*
X27855952Y-78576800D02*
X27792143Y-78614895D01*
X27792143Y-78614895D02*
X27600714Y-78614895D01*
X27600714Y-78614895D02*
X27536905Y-78576800D01*
X27536905Y-78576800D02*
X27505000Y-78538704D01*
X43803476Y-28521295D02*
X44186333Y-28521295D01*
X43994905Y-29321295D02*
X43994905Y-28521295D01*
X44409666Y-29321295D02*
X44409666Y-28521295D01*
X44409666Y-28521295D02*
X44664904Y-28521295D01*
X44664904Y-28521295D02*
X44728714Y-28559390D01*
X44728714Y-28559390D02*
X44760619Y-28597485D01*
X44760619Y-28597485D02*
X44792523Y-28673676D01*
X44792523Y-28673676D02*
X44792523Y-28787961D01*
X44792523Y-28787961D02*
X44760619Y-28864152D01*
X44760619Y-28864152D02*
X44728714Y-28902247D01*
X44728714Y-28902247D02*
X44664904Y-28940342D01*
X44664904Y-28940342D02*
X44409666Y-28940342D01*
X45430619Y-29321295D02*
X45047762Y-29321295D01*
X45239190Y-29321295D02*
X45239190Y-28521295D01*
X45239190Y-28521295D02*
X45175381Y-28635580D01*
X45175381Y-28635580D02*
X45111571Y-28711771D01*
X45111571Y-28711771D02*
X45047762Y-28749866D01*
X45653952Y-28521295D02*
X46068714Y-28521295D01*
X46068714Y-28521295D02*
X45845380Y-28826057D01*
X45845380Y-28826057D02*
X45941095Y-28826057D01*
X45941095Y-28826057D02*
X46004904Y-28864152D01*
X46004904Y-28864152D02*
X46036809Y-28902247D01*
X46036809Y-28902247D02*
X46068714Y-28978438D01*
X46068714Y-28978438D02*
X46068714Y-29168914D01*
X46068714Y-29168914D02*
X46036809Y-29245104D01*
X46036809Y-29245104D02*
X46004904Y-29283200D01*
X46004904Y-29283200D02*
X45941095Y-29321295D01*
X45941095Y-29321295D02*
X45749666Y-29321295D01*
X45749666Y-29321295D02*
X45685857Y-29283200D01*
X45685857Y-29283200D02*
X45653952Y-29245104D01*
X74364895Y-30244523D02*
X73564895Y-30244523D01*
X73564895Y-30244523D02*
X73564895Y-30084999D01*
X73564895Y-30084999D02*
X73602990Y-29989285D01*
X73602990Y-29989285D02*
X73679180Y-29925475D01*
X73679180Y-29925475D02*
X73755371Y-29893570D01*
X73755371Y-29893570D02*
X73907752Y-29861666D01*
X73907752Y-29861666D02*
X74022038Y-29861666D01*
X74022038Y-29861666D02*
X74174419Y-29893570D01*
X74174419Y-29893570D02*
X74250609Y-29925475D01*
X74250609Y-29925475D02*
X74326800Y-29989285D01*
X74326800Y-29989285D02*
X74364895Y-30084999D01*
X74364895Y-30084999D02*
X74364895Y-30244523D01*
X74364895Y-29223570D02*
X74364895Y-29606427D01*
X74364895Y-29414999D02*
X73564895Y-29414999D01*
X73564895Y-29414999D02*
X73679180Y-29478808D01*
X73679180Y-29478808D02*
X73755371Y-29542618D01*
X73755371Y-29542618D02*
X73793466Y-29606427D01*
X56383497Y-36010178D02*
X56002544Y-36233511D01*
X56383497Y-36393035D02*
X55583497Y-36393035D01*
X55583497Y-36393035D02*
X55583497Y-36137797D01*
X55583497Y-36137797D02*
X55621592Y-36073987D01*
X55621592Y-36073987D02*
X55659687Y-36042082D01*
X55659687Y-36042082D02*
X55735878Y-36010178D01*
X55735878Y-36010178D02*
X55850163Y-36010178D01*
X55850163Y-36010178D02*
X55926354Y-36042082D01*
X55926354Y-36042082D02*
X55964449Y-36073987D01*
X55964449Y-36073987D02*
X56002544Y-36137797D01*
X56002544Y-36137797D02*
X56002544Y-36393035D01*
X55659687Y-35754939D02*
X55621592Y-35723035D01*
X55621592Y-35723035D02*
X55583497Y-35659225D01*
X55583497Y-35659225D02*
X55583497Y-35499701D01*
X55583497Y-35499701D02*
X55621592Y-35435892D01*
X55621592Y-35435892D02*
X55659687Y-35403987D01*
X55659687Y-35403987D02*
X55735878Y-35372082D01*
X55735878Y-35372082D02*
X55812068Y-35372082D01*
X55812068Y-35372082D02*
X55926354Y-35403987D01*
X55926354Y-35403987D02*
X56383497Y-35786844D01*
X56383497Y-35786844D02*
X56383497Y-35372082D01*
X55583497Y-34957321D02*
X55583497Y-34893511D01*
X55583497Y-34893511D02*
X55621592Y-34829702D01*
X55621592Y-34829702D02*
X55659687Y-34797797D01*
X55659687Y-34797797D02*
X55735878Y-34765892D01*
X55735878Y-34765892D02*
X55888259Y-34733987D01*
X55888259Y-34733987D02*
X56078735Y-34733987D01*
X56078735Y-34733987D02*
X56231116Y-34765892D01*
X56231116Y-34765892D02*
X56307306Y-34797797D01*
X56307306Y-34797797D02*
X56345402Y-34829702D01*
X56345402Y-34829702D02*
X56383497Y-34893511D01*
X56383497Y-34893511D02*
X56383497Y-34957321D01*
X56383497Y-34957321D02*
X56345402Y-35021130D01*
X56345402Y-35021130D02*
X56307306Y-35053035D01*
X56307306Y-35053035D02*
X56231116Y-35084940D01*
X56231116Y-35084940D02*
X56078735Y-35116844D01*
X56078735Y-35116844D02*
X55888259Y-35116844D01*
X55888259Y-35116844D02*
X55735878Y-35084940D01*
X55735878Y-35084940D02*
X55659687Y-35053035D01*
X55659687Y-35053035D02*
X55621592Y-35021130D01*
X55621592Y-35021130D02*
X55583497Y-34957321D01*
X55583497Y-34510654D02*
X55583497Y-34095892D01*
X55583497Y-34095892D02*
X55888259Y-34319226D01*
X55888259Y-34319226D02*
X55888259Y-34223511D01*
X55888259Y-34223511D02*
X55926354Y-34159702D01*
X55926354Y-34159702D02*
X55964449Y-34127797D01*
X55964449Y-34127797D02*
X56040640Y-34095892D01*
X56040640Y-34095892D02*
X56231116Y-34095892D01*
X56231116Y-34095892D02*
X56307306Y-34127797D01*
X56307306Y-34127797D02*
X56345402Y-34159702D01*
X56345402Y-34159702D02*
X56383497Y-34223511D01*
X56383497Y-34223511D02*
X56383497Y-34414940D01*
X56383497Y-34414940D02*
X56345402Y-34478749D01*
X56345402Y-34478749D02*
X56307306Y-34510654D01*
X54500238Y-47538704D02*
X54468334Y-47576800D01*
X54468334Y-47576800D02*
X54372619Y-47614895D01*
X54372619Y-47614895D02*
X54308810Y-47614895D01*
X54308810Y-47614895D02*
X54213096Y-47576800D01*
X54213096Y-47576800D02*
X54149286Y-47500609D01*
X54149286Y-47500609D02*
X54117381Y-47424419D01*
X54117381Y-47424419D02*
X54085477Y-47272038D01*
X54085477Y-47272038D02*
X54085477Y-47157752D01*
X54085477Y-47157752D02*
X54117381Y-47005371D01*
X54117381Y-47005371D02*
X54149286Y-46929180D01*
X54149286Y-46929180D02*
X54213096Y-46852990D01*
X54213096Y-46852990D02*
X54308810Y-46814895D01*
X54308810Y-46814895D02*
X54372619Y-46814895D01*
X54372619Y-46814895D02*
X54468334Y-46852990D01*
X54468334Y-46852990D02*
X54500238Y-46891085D01*
X54755477Y-46891085D02*
X54787381Y-46852990D01*
X54787381Y-46852990D02*
X54851191Y-46814895D01*
X54851191Y-46814895D02*
X55010715Y-46814895D01*
X55010715Y-46814895D02*
X55074524Y-46852990D01*
X55074524Y-46852990D02*
X55106429Y-46891085D01*
X55106429Y-46891085D02*
X55138334Y-46967276D01*
X55138334Y-46967276D02*
X55138334Y-47043466D01*
X55138334Y-47043466D02*
X55106429Y-47157752D01*
X55106429Y-47157752D02*
X54723572Y-47614895D01*
X54723572Y-47614895D02*
X55138334Y-47614895D01*
X55553095Y-46814895D02*
X55616905Y-46814895D01*
X55616905Y-46814895D02*
X55680714Y-46852990D01*
X55680714Y-46852990D02*
X55712619Y-46891085D01*
X55712619Y-46891085D02*
X55744524Y-46967276D01*
X55744524Y-46967276D02*
X55776429Y-47119657D01*
X55776429Y-47119657D02*
X55776429Y-47310133D01*
X55776429Y-47310133D02*
X55744524Y-47462514D01*
X55744524Y-47462514D02*
X55712619Y-47538704D01*
X55712619Y-47538704D02*
X55680714Y-47576800D01*
X55680714Y-47576800D02*
X55616905Y-47614895D01*
X55616905Y-47614895D02*
X55553095Y-47614895D01*
X55553095Y-47614895D02*
X55489286Y-47576800D01*
X55489286Y-47576800D02*
X55457381Y-47538704D01*
X55457381Y-47538704D02*
X55425476Y-47462514D01*
X55425476Y-47462514D02*
X55393572Y-47310133D01*
X55393572Y-47310133D02*
X55393572Y-47119657D01*
X55393572Y-47119657D02*
X55425476Y-46967276D01*
X55425476Y-46967276D02*
X55457381Y-46891085D01*
X55457381Y-46891085D02*
X55489286Y-46852990D01*
X55489286Y-46852990D02*
X55553095Y-46814895D01*
X56382619Y-46814895D02*
X56063571Y-46814895D01*
X56063571Y-46814895D02*
X56031667Y-47195847D01*
X56031667Y-47195847D02*
X56063571Y-47157752D01*
X56063571Y-47157752D02*
X56127381Y-47119657D01*
X56127381Y-47119657D02*
X56286905Y-47119657D01*
X56286905Y-47119657D02*
X56350714Y-47157752D01*
X56350714Y-47157752D02*
X56382619Y-47195847D01*
X56382619Y-47195847D02*
X56414524Y-47272038D01*
X56414524Y-47272038D02*
X56414524Y-47462514D01*
X56414524Y-47462514D02*
X56382619Y-47538704D01*
X56382619Y-47538704D02*
X56350714Y-47576800D01*
X56350714Y-47576800D02*
X56286905Y-47614895D01*
X56286905Y-47614895D02*
X56127381Y-47614895D01*
X56127381Y-47614895D02*
X56063571Y-47576800D01*
X56063571Y-47576800D02*
X56031667Y-47538704D01*
X23416666Y-40457419D02*
X23083333Y-39981228D01*
X22845238Y-40457419D02*
X22845238Y-39457419D01*
X22845238Y-39457419D02*
X23226190Y-39457419D01*
X23226190Y-39457419D02*
X23321428Y-39505038D01*
X23321428Y-39505038D02*
X23369047Y-39552657D01*
X23369047Y-39552657D02*
X23416666Y-39647895D01*
X23416666Y-39647895D02*
X23416666Y-39790752D01*
X23416666Y-39790752D02*
X23369047Y-39885990D01*
X23369047Y-39885990D02*
X23321428Y-39933609D01*
X23321428Y-39933609D02*
X23226190Y-39981228D01*
X23226190Y-39981228D02*
X22845238Y-39981228D01*
X23845238Y-39933609D02*
X24178571Y-39933609D01*
X24321428Y-40457419D02*
X23845238Y-40457419D01*
X23845238Y-40457419D02*
X23845238Y-39457419D01*
X23845238Y-39457419D02*
X24321428Y-39457419D01*
X25083333Y-39933609D02*
X24750000Y-39933609D01*
X24750000Y-40457419D02*
X24750000Y-39457419D01*
X24750000Y-39457419D02*
X25226190Y-39457419D01*
X25750000Y-39457419D02*
X25750000Y-39695514D01*
X25511905Y-39600276D02*
X25750000Y-39695514D01*
X25750000Y-39695514D02*
X25988095Y-39600276D01*
X25607143Y-39885990D02*
X25750000Y-39695514D01*
X25750000Y-39695514D02*
X25892857Y-39885990D01*
X26511905Y-39457419D02*
X26511905Y-39695514D01*
X26273810Y-39600276D02*
X26511905Y-39695514D01*
X26511905Y-39695514D02*
X26750000Y-39600276D01*
X26369048Y-39885990D02*
X26511905Y-39695514D01*
X26511905Y-39695514D02*
X26654762Y-39885990D01*
X78294895Y-30244523D02*
X77494895Y-30244523D01*
X77494895Y-30244523D02*
X77494895Y-30084999D01*
X77494895Y-30084999D02*
X77532990Y-29989285D01*
X77532990Y-29989285D02*
X77609180Y-29925475D01*
X77609180Y-29925475D02*
X77685371Y-29893570D01*
X77685371Y-29893570D02*
X77837752Y-29861666D01*
X77837752Y-29861666D02*
X77952038Y-29861666D01*
X77952038Y-29861666D02*
X78104419Y-29893570D01*
X78104419Y-29893570D02*
X78180609Y-29925475D01*
X78180609Y-29925475D02*
X78256800Y-29989285D01*
X78256800Y-29989285D02*
X78294895Y-30084999D01*
X78294895Y-30084999D02*
X78294895Y-30244523D01*
X77571085Y-29606427D02*
X77532990Y-29574523D01*
X77532990Y-29574523D02*
X77494895Y-29510713D01*
X77494895Y-29510713D02*
X77494895Y-29351189D01*
X77494895Y-29351189D02*
X77532990Y-29287380D01*
X77532990Y-29287380D02*
X77571085Y-29255475D01*
X77571085Y-29255475D02*
X77647276Y-29223570D01*
X77647276Y-29223570D02*
X77723466Y-29223570D01*
X77723466Y-29223570D02*
X77837752Y-29255475D01*
X77837752Y-29255475D02*
X78294895Y-29638332D01*
X78294895Y-29638332D02*
X78294895Y-29223570D01*
X32266429Y-77814895D02*
X32649286Y-77814895D01*
X32457858Y-78614895D02*
X32457858Y-77814895D01*
X32872619Y-78614895D02*
X32872619Y-77814895D01*
X32872619Y-77814895D02*
X33127857Y-77814895D01*
X33127857Y-77814895D02*
X33191667Y-77852990D01*
X33191667Y-77852990D02*
X33223572Y-77891085D01*
X33223572Y-77891085D02*
X33255476Y-77967276D01*
X33255476Y-77967276D02*
X33255476Y-78081561D01*
X33255476Y-78081561D02*
X33223572Y-78157752D01*
X33223572Y-78157752D02*
X33191667Y-78195847D01*
X33191667Y-78195847D02*
X33127857Y-78233942D01*
X33127857Y-78233942D02*
X32872619Y-78233942D01*
X33893572Y-78614895D02*
X33510715Y-78614895D01*
X33702143Y-78614895D02*
X33702143Y-77814895D01*
X33702143Y-77814895D02*
X33638334Y-77929180D01*
X33638334Y-77929180D02*
X33574524Y-78005371D01*
X33574524Y-78005371D02*
X33510715Y-78043466D01*
X34308333Y-77814895D02*
X34372143Y-77814895D01*
X34372143Y-77814895D02*
X34435952Y-77852990D01*
X34435952Y-77852990D02*
X34467857Y-77891085D01*
X34467857Y-77891085D02*
X34499762Y-77967276D01*
X34499762Y-77967276D02*
X34531667Y-78119657D01*
X34531667Y-78119657D02*
X34531667Y-78310133D01*
X34531667Y-78310133D02*
X34499762Y-78462514D01*
X34499762Y-78462514D02*
X34467857Y-78538704D01*
X34467857Y-78538704D02*
X34435952Y-78576800D01*
X34435952Y-78576800D02*
X34372143Y-78614895D01*
X34372143Y-78614895D02*
X34308333Y-78614895D01*
X34308333Y-78614895D02*
X34244524Y-78576800D01*
X34244524Y-78576800D02*
X34212619Y-78538704D01*
X34212619Y-78538704D02*
X34180714Y-78462514D01*
X34180714Y-78462514D02*
X34148810Y-78310133D01*
X34148810Y-78310133D02*
X34148810Y-78119657D01*
X34148810Y-78119657D02*
X34180714Y-77967276D01*
X34180714Y-77967276D02*
X34212619Y-77891085D01*
X34212619Y-77891085D02*
X34244524Y-77852990D01*
X34244524Y-77852990D02*
X34308333Y-77814895D01*
X35169762Y-78614895D02*
X34786905Y-78614895D01*
X34978333Y-78614895D02*
X34978333Y-77814895D01*
X34978333Y-77814895D02*
X34914524Y-77929180D01*
X34914524Y-77929180D02*
X34850714Y-78005371D01*
X34850714Y-78005371D02*
X34786905Y-78043466D01*
D11*
X45102856Y-14074200D02*
X45194285Y-14112295D01*
X45194285Y-14112295D02*
X45346666Y-14112295D01*
X45346666Y-14112295D02*
X45407618Y-14074200D01*
X45407618Y-14074200D02*
X45438094Y-14036104D01*
X45438094Y-14036104D02*
X45468571Y-13959914D01*
X45468571Y-13959914D02*
X45468571Y-13883723D01*
X45468571Y-13883723D02*
X45438094Y-13807533D01*
X45438094Y-13807533D02*
X45407618Y-13769438D01*
X45407618Y-13769438D02*
X45346666Y-13731342D01*
X45346666Y-13731342D02*
X45224761Y-13693247D01*
X45224761Y-13693247D02*
X45163809Y-13655152D01*
X45163809Y-13655152D02*
X45133332Y-13617057D01*
X45133332Y-13617057D02*
X45102856Y-13540866D01*
X45102856Y-13540866D02*
X45102856Y-13464676D01*
X45102856Y-13464676D02*
X45133332Y-13388485D01*
X45133332Y-13388485D02*
X45163809Y-13350390D01*
X45163809Y-13350390D02*
X45224761Y-13312295D01*
X45224761Y-13312295D02*
X45377142Y-13312295D01*
X45377142Y-13312295D02*
X45468571Y-13350390D01*
X45712380Y-13388485D02*
X45742856Y-13350390D01*
X45742856Y-13350390D02*
X45803809Y-13312295D01*
X45803809Y-13312295D02*
X45956190Y-13312295D01*
X45956190Y-13312295D02*
X46017142Y-13350390D01*
X46017142Y-13350390D02*
X46047618Y-13388485D01*
X46047618Y-13388485D02*
X46078095Y-13464676D01*
X46078095Y-13464676D02*
X46078095Y-13540866D01*
X46078095Y-13540866D02*
X46047618Y-13655152D01*
X46047618Y-13655152D02*
X45681904Y-14112295D01*
X45681904Y-14112295D02*
X46078095Y-14112295D01*
X46474285Y-13312295D02*
X46535238Y-13312295D01*
X46535238Y-13312295D02*
X46596190Y-13350390D01*
X46596190Y-13350390D02*
X46626666Y-13388485D01*
X46626666Y-13388485D02*
X46657142Y-13464676D01*
X46657142Y-13464676D02*
X46687619Y-13617057D01*
X46687619Y-13617057D02*
X46687619Y-13807533D01*
X46687619Y-13807533D02*
X46657142Y-13959914D01*
X46657142Y-13959914D02*
X46626666Y-14036104D01*
X46626666Y-14036104D02*
X46596190Y-14074200D01*
X46596190Y-14074200D02*
X46535238Y-14112295D01*
X46535238Y-14112295D02*
X46474285Y-14112295D01*
X46474285Y-14112295D02*
X46413333Y-14074200D01*
X46413333Y-14074200D02*
X46382857Y-14036104D01*
X46382857Y-14036104D02*
X46352380Y-13959914D01*
X46352380Y-13959914D02*
X46321904Y-13807533D01*
X46321904Y-13807533D02*
X46321904Y-13617057D01*
X46321904Y-13617057D02*
X46352380Y-13464676D01*
X46352380Y-13464676D02*
X46382857Y-13388485D01*
X46382857Y-13388485D02*
X46413333Y-13350390D01*
X46413333Y-13350390D02*
X46474285Y-13312295D01*
X47297143Y-14112295D02*
X46931428Y-14112295D01*
X47114285Y-14112295D02*
X47114285Y-13312295D01*
X47114285Y-13312295D02*
X47053333Y-13426580D01*
X47053333Y-13426580D02*
X46992381Y-13502771D01*
X46992381Y-13502771D02*
X46931428Y-13540866D01*
D10*
X31122524Y-22271295D02*
X31505381Y-22271295D01*
X31313953Y-23071295D02*
X31313953Y-22271295D01*
X31728714Y-23071295D02*
X31728714Y-22271295D01*
X31728714Y-22271295D02*
X31983952Y-22271295D01*
X31983952Y-22271295D02*
X32047762Y-22309390D01*
X32047762Y-22309390D02*
X32079667Y-22347485D01*
X32079667Y-22347485D02*
X32111571Y-22423676D01*
X32111571Y-22423676D02*
X32111571Y-22537961D01*
X32111571Y-22537961D02*
X32079667Y-22614152D01*
X32079667Y-22614152D02*
X32047762Y-22652247D01*
X32047762Y-22652247D02*
X31983952Y-22690342D01*
X31983952Y-22690342D02*
X31728714Y-22690342D01*
X32430619Y-23071295D02*
X32558238Y-23071295D01*
X32558238Y-23071295D02*
X32622048Y-23033200D01*
X32622048Y-23033200D02*
X32653952Y-22995104D01*
X32653952Y-22995104D02*
X32717762Y-22880819D01*
X32717762Y-22880819D02*
X32749667Y-22728438D01*
X32749667Y-22728438D02*
X32749667Y-22423676D01*
X32749667Y-22423676D02*
X32717762Y-22347485D01*
X32717762Y-22347485D02*
X32685857Y-22309390D01*
X32685857Y-22309390D02*
X32622048Y-22271295D01*
X32622048Y-22271295D02*
X32494429Y-22271295D01*
X32494429Y-22271295D02*
X32430619Y-22309390D01*
X32430619Y-22309390D02*
X32398714Y-22347485D01*
X32398714Y-22347485D02*
X32366810Y-22423676D01*
X32366810Y-22423676D02*
X32366810Y-22614152D01*
X32366810Y-22614152D02*
X32398714Y-22690342D01*
X32398714Y-22690342D02*
X32430619Y-22728438D01*
X32430619Y-22728438D02*
X32494429Y-22766533D01*
X32494429Y-22766533D02*
X32622048Y-22766533D01*
X32622048Y-22766533D02*
X32685857Y-22728438D01*
X32685857Y-22728438D02*
X32717762Y-22690342D01*
X32717762Y-22690342D02*
X32749667Y-22614152D01*
X107972238Y-36608495D02*
X108355095Y-36608495D01*
X108163667Y-37408495D02*
X108163667Y-36608495D01*
X108578428Y-37408495D02*
X108578428Y-36608495D01*
X108578428Y-36608495D02*
X108833666Y-36608495D01*
X108833666Y-36608495D02*
X108897476Y-36646590D01*
X108897476Y-36646590D02*
X108929381Y-36684685D01*
X108929381Y-36684685D02*
X108961285Y-36760876D01*
X108961285Y-36760876D02*
X108961285Y-36875161D01*
X108961285Y-36875161D02*
X108929381Y-36951352D01*
X108929381Y-36951352D02*
X108897476Y-36989447D01*
X108897476Y-36989447D02*
X108833666Y-37027542D01*
X108833666Y-37027542D02*
X108578428Y-37027542D01*
X109344143Y-36951352D02*
X109280333Y-36913257D01*
X109280333Y-36913257D02*
X109248428Y-36875161D01*
X109248428Y-36875161D02*
X109216524Y-36798971D01*
X109216524Y-36798971D02*
X109216524Y-36760876D01*
X109216524Y-36760876D02*
X109248428Y-36684685D01*
X109248428Y-36684685D02*
X109280333Y-36646590D01*
X109280333Y-36646590D02*
X109344143Y-36608495D01*
X109344143Y-36608495D02*
X109471762Y-36608495D01*
X109471762Y-36608495D02*
X109535571Y-36646590D01*
X109535571Y-36646590D02*
X109567476Y-36684685D01*
X109567476Y-36684685D02*
X109599381Y-36760876D01*
X109599381Y-36760876D02*
X109599381Y-36798971D01*
X109599381Y-36798971D02*
X109567476Y-36875161D01*
X109567476Y-36875161D02*
X109535571Y-36913257D01*
X109535571Y-36913257D02*
X109471762Y-36951352D01*
X109471762Y-36951352D02*
X109344143Y-36951352D01*
X109344143Y-36951352D02*
X109280333Y-36989447D01*
X109280333Y-36989447D02*
X109248428Y-37027542D01*
X109248428Y-37027542D02*
X109216524Y-37103733D01*
X109216524Y-37103733D02*
X109216524Y-37256114D01*
X109216524Y-37256114D02*
X109248428Y-37332304D01*
X109248428Y-37332304D02*
X109280333Y-37370400D01*
X109280333Y-37370400D02*
X109344143Y-37408495D01*
X109344143Y-37408495D02*
X109471762Y-37408495D01*
X109471762Y-37408495D02*
X109535571Y-37370400D01*
X109535571Y-37370400D02*
X109567476Y-37332304D01*
X109567476Y-37332304D02*
X109599381Y-37256114D01*
X109599381Y-37256114D02*
X109599381Y-37103733D01*
X109599381Y-37103733D02*
X109567476Y-37027542D01*
X109567476Y-37027542D02*
X109535571Y-36989447D01*
X109535571Y-36989447D02*
X109471762Y-36951352D01*
X54500238Y-55038704D02*
X54468334Y-55076800D01*
X54468334Y-55076800D02*
X54372619Y-55114895D01*
X54372619Y-55114895D02*
X54308810Y-55114895D01*
X54308810Y-55114895D02*
X54213096Y-55076800D01*
X54213096Y-55076800D02*
X54149286Y-55000609D01*
X54149286Y-55000609D02*
X54117381Y-54924419D01*
X54117381Y-54924419D02*
X54085477Y-54772038D01*
X54085477Y-54772038D02*
X54085477Y-54657752D01*
X54085477Y-54657752D02*
X54117381Y-54505371D01*
X54117381Y-54505371D02*
X54149286Y-54429180D01*
X54149286Y-54429180D02*
X54213096Y-54352990D01*
X54213096Y-54352990D02*
X54308810Y-54314895D01*
X54308810Y-54314895D02*
X54372619Y-54314895D01*
X54372619Y-54314895D02*
X54468334Y-54352990D01*
X54468334Y-54352990D02*
X54500238Y-54391085D01*
X54755477Y-54391085D02*
X54787381Y-54352990D01*
X54787381Y-54352990D02*
X54851191Y-54314895D01*
X54851191Y-54314895D02*
X55010715Y-54314895D01*
X55010715Y-54314895D02*
X55074524Y-54352990D01*
X55074524Y-54352990D02*
X55106429Y-54391085D01*
X55106429Y-54391085D02*
X55138334Y-54467276D01*
X55138334Y-54467276D02*
X55138334Y-54543466D01*
X55138334Y-54543466D02*
X55106429Y-54657752D01*
X55106429Y-54657752D02*
X54723572Y-55114895D01*
X54723572Y-55114895D02*
X55138334Y-55114895D01*
X55776429Y-55114895D02*
X55393572Y-55114895D01*
X55585000Y-55114895D02*
X55585000Y-54314895D01*
X55585000Y-54314895D02*
X55521191Y-54429180D01*
X55521191Y-54429180D02*
X55457381Y-54505371D01*
X55457381Y-54505371D02*
X55393572Y-54543466D01*
X56191190Y-54314895D02*
X56255000Y-54314895D01*
X56255000Y-54314895D02*
X56318809Y-54352990D01*
X56318809Y-54352990D02*
X56350714Y-54391085D01*
X56350714Y-54391085D02*
X56382619Y-54467276D01*
X56382619Y-54467276D02*
X56414524Y-54619657D01*
X56414524Y-54619657D02*
X56414524Y-54810133D01*
X56414524Y-54810133D02*
X56382619Y-54962514D01*
X56382619Y-54962514D02*
X56350714Y-55038704D01*
X56350714Y-55038704D02*
X56318809Y-55076800D01*
X56318809Y-55076800D02*
X56255000Y-55114895D01*
X56255000Y-55114895D02*
X56191190Y-55114895D01*
X56191190Y-55114895D02*
X56127381Y-55076800D01*
X56127381Y-55076800D02*
X56095476Y-55038704D01*
X56095476Y-55038704D02*
X56063571Y-54962514D01*
X56063571Y-54962514D02*
X56031667Y-54810133D01*
X56031667Y-54810133D02*
X56031667Y-54619657D01*
X56031667Y-54619657D02*
X56063571Y-54467276D01*
X56063571Y-54467276D02*
X56095476Y-54391085D01*
X56095476Y-54391085D02*
X56127381Y-54352990D01*
X56127381Y-54352990D02*
X56191190Y-54314895D01*
X39053476Y-28521295D02*
X39436333Y-28521295D01*
X39244905Y-29321295D02*
X39244905Y-28521295D01*
X39659666Y-29321295D02*
X39659666Y-28521295D01*
X39659666Y-28521295D02*
X39914904Y-28521295D01*
X39914904Y-28521295D02*
X39978714Y-28559390D01*
X39978714Y-28559390D02*
X40010619Y-28597485D01*
X40010619Y-28597485D02*
X40042523Y-28673676D01*
X40042523Y-28673676D02*
X40042523Y-28787961D01*
X40042523Y-28787961D02*
X40010619Y-28864152D01*
X40010619Y-28864152D02*
X39978714Y-28902247D01*
X39978714Y-28902247D02*
X39914904Y-28940342D01*
X39914904Y-28940342D02*
X39659666Y-28940342D01*
X40680619Y-29321295D02*
X40297762Y-29321295D01*
X40489190Y-29321295D02*
X40489190Y-28521295D01*
X40489190Y-28521295D02*
X40425381Y-28635580D01*
X40425381Y-28635580D02*
X40361571Y-28711771D01*
X40361571Y-28711771D02*
X40297762Y-28749866D01*
X41254904Y-28787961D02*
X41254904Y-29321295D01*
X41095380Y-28483200D02*
X40935857Y-29054628D01*
X40935857Y-29054628D02*
X41350618Y-29054628D01*
X114436524Y-36608495D02*
X114819381Y-36608495D01*
X114627953Y-37408495D02*
X114627953Y-36608495D01*
X115042714Y-37408495D02*
X115042714Y-36608495D01*
X115042714Y-36608495D02*
X115297952Y-36608495D01*
X115297952Y-36608495D02*
X115361762Y-36646590D01*
X115361762Y-36646590D02*
X115393667Y-36684685D01*
X115393667Y-36684685D02*
X115425571Y-36760876D01*
X115425571Y-36760876D02*
X115425571Y-36875161D01*
X115425571Y-36875161D02*
X115393667Y-36951352D01*
X115393667Y-36951352D02*
X115361762Y-36989447D01*
X115361762Y-36989447D02*
X115297952Y-37027542D01*
X115297952Y-37027542D02*
X115042714Y-37027542D01*
X115648905Y-36608495D02*
X116095571Y-36608495D01*
X116095571Y-36608495D02*
X115808429Y-37408495D01*
X71614895Y-32861666D02*
X71233942Y-33084999D01*
X71614895Y-33244523D02*
X70814895Y-33244523D01*
X70814895Y-33244523D02*
X70814895Y-32989285D01*
X70814895Y-32989285D02*
X70852990Y-32925475D01*
X70852990Y-32925475D02*
X70891085Y-32893570D01*
X70891085Y-32893570D02*
X70967276Y-32861666D01*
X70967276Y-32861666D02*
X71081561Y-32861666D01*
X71081561Y-32861666D02*
X71157752Y-32893570D01*
X71157752Y-32893570D02*
X71195847Y-32925475D01*
X71195847Y-32925475D02*
X71233942Y-32989285D01*
X71233942Y-32989285D02*
X71233942Y-33244523D01*
X70814895Y-32638332D02*
X70814895Y-32223570D01*
X70814895Y-32223570D02*
X71119657Y-32446904D01*
X71119657Y-32446904D02*
X71119657Y-32351189D01*
X71119657Y-32351189D02*
X71157752Y-32287380D01*
X71157752Y-32287380D02*
X71195847Y-32255475D01*
X71195847Y-32255475D02*
X71272038Y-32223570D01*
X71272038Y-32223570D02*
X71462514Y-32223570D01*
X71462514Y-32223570D02*
X71538704Y-32255475D01*
X71538704Y-32255475D02*
X71576800Y-32287380D01*
X71576800Y-32287380D02*
X71614895Y-32351189D01*
X71614895Y-32351189D02*
X71614895Y-32542618D01*
X71614895Y-32542618D02*
X71576800Y-32606427D01*
X71576800Y-32606427D02*
X71538704Y-32638332D01*
X76638333Y-33614895D02*
X76415000Y-33233942D01*
X76255476Y-33614895D02*
X76255476Y-32814895D01*
X76255476Y-32814895D02*
X76510714Y-32814895D01*
X76510714Y-32814895D02*
X76574524Y-32852990D01*
X76574524Y-32852990D02*
X76606429Y-32891085D01*
X76606429Y-32891085D02*
X76638333Y-32967276D01*
X76638333Y-32967276D02*
X76638333Y-33081561D01*
X76638333Y-33081561D02*
X76606429Y-33157752D01*
X76606429Y-33157752D02*
X76574524Y-33195847D01*
X76574524Y-33195847D02*
X76510714Y-33233942D01*
X76510714Y-33233942D02*
X76255476Y-33233942D01*
X77244524Y-32814895D02*
X76925476Y-32814895D01*
X76925476Y-32814895D02*
X76893572Y-33195847D01*
X76893572Y-33195847D02*
X76925476Y-33157752D01*
X76925476Y-33157752D02*
X76989286Y-33119657D01*
X76989286Y-33119657D02*
X77148810Y-33119657D01*
X77148810Y-33119657D02*
X77212619Y-33157752D01*
X77212619Y-33157752D02*
X77244524Y-33195847D01*
X77244524Y-33195847D02*
X77276429Y-33272038D01*
X77276429Y-33272038D02*
X77276429Y-33462514D01*
X77276429Y-33462514D02*
X77244524Y-33538704D01*
X77244524Y-33538704D02*
X77212619Y-33576800D01*
X77212619Y-33576800D02*
X77148810Y-33614895D01*
X77148810Y-33614895D02*
X76989286Y-33614895D01*
X76989286Y-33614895D02*
X76925476Y-33576800D01*
X76925476Y-33576800D02*
X76893572Y-33538704D01*
X60564895Y-45749761D02*
X60564895Y-46068809D01*
X60564895Y-46068809D02*
X59764895Y-46068809D01*
X59841085Y-45558332D02*
X59802990Y-45526428D01*
X59802990Y-45526428D02*
X59764895Y-45462618D01*
X59764895Y-45462618D02*
X59764895Y-45303094D01*
X59764895Y-45303094D02*
X59802990Y-45239285D01*
X59802990Y-45239285D02*
X59841085Y-45207380D01*
X59841085Y-45207380D02*
X59917276Y-45175475D01*
X59917276Y-45175475D02*
X59993466Y-45175475D01*
X59993466Y-45175475D02*
X60107752Y-45207380D01*
X60107752Y-45207380D02*
X60564895Y-45590237D01*
X60564895Y-45590237D02*
X60564895Y-45175475D01*
X59764895Y-44760714D02*
X59764895Y-44696904D01*
X59764895Y-44696904D02*
X59802990Y-44633095D01*
X59802990Y-44633095D02*
X59841085Y-44601190D01*
X59841085Y-44601190D02*
X59917276Y-44569285D01*
X59917276Y-44569285D02*
X60069657Y-44537380D01*
X60069657Y-44537380D02*
X60260133Y-44537380D01*
X60260133Y-44537380D02*
X60412514Y-44569285D01*
X60412514Y-44569285D02*
X60488704Y-44601190D01*
X60488704Y-44601190D02*
X60526800Y-44633095D01*
X60526800Y-44633095D02*
X60564895Y-44696904D01*
X60564895Y-44696904D02*
X60564895Y-44760714D01*
X60564895Y-44760714D02*
X60526800Y-44824523D01*
X60526800Y-44824523D02*
X60488704Y-44856428D01*
X60488704Y-44856428D02*
X60412514Y-44888333D01*
X60412514Y-44888333D02*
X60260133Y-44920237D01*
X60260133Y-44920237D02*
X60069657Y-44920237D01*
X60069657Y-44920237D02*
X59917276Y-44888333D01*
X59917276Y-44888333D02*
X59841085Y-44856428D01*
X59841085Y-44856428D02*
X59802990Y-44824523D01*
X59802990Y-44824523D02*
X59764895Y-44760714D01*
X60564895Y-43899285D02*
X60564895Y-44282142D01*
X60564895Y-44090714D02*
X59764895Y-44090714D01*
X59764895Y-44090714D02*
X59879180Y-44154523D01*
X59879180Y-44154523D02*
X59955371Y-44218333D01*
X59955371Y-44218333D02*
X59993466Y-44282142D01*
X69864895Y-29861666D02*
X69483942Y-30084999D01*
X69864895Y-30244523D02*
X69064895Y-30244523D01*
X69064895Y-30244523D02*
X69064895Y-29989285D01*
X69064895Y-29989285D02*
X69102990Y-29925475D01*
X69102990Y-29925475D02*
X69141085Y-29893570D01*
X69141085Y-29893570D02*
X69217276Y-29861666D01*
X69217276Y-29861666D02*
X69331561Y-29861666D01*
X69331561Y-29861666D02*
X69407752Y-29893570D01*
X69407752Y-29893570D02*
X69445847Y-29925475D01*
X69445847Y-29925475D02*
X69483942Y-29989285D01*
X69483942Y-29989285D02*
X69483942Y-30244523D01*
X69141085Y-29606427D02*
X69102990Y-29574523D01*
X69102990Y-29574523D02*
X69064895Y-29510713D01*
X69064895Y-29510713D02*
X69064895Y-29351189D01*
X69064895Y-29351189D02*
X69102990Y-29287380D01*
X69102990Y-29287380D02*
X69141085Y-29255475D01*
X69141085Y-29255475D02*
X69217276Y-29223570D01*
X69217276Y-29223570D02*
X69293466Y-29223570D01*
X69293466Y-29223570D02*
X69407752Y-29255475D01*
X69407752Y-29255475D02*
X69864895Y-29638332D01*
X69864895Y-29638332D02*
X69864895Y-29223570D01*
X75364895Y-31861666D02*
X74983942Y-32084999D01*
X75364895Y-32244523D02*
X74564895Y-32244523D01*
X74564895Y-32244523D02*
X74564895Y-31989285D01*
X74564895Y-31989285D02*
X74602990Y-31925475D01*
X74602990Y-31925475D02*
X74641085Y-31893570D01*
X74641085Y-31893570D02*
X74717276Y-31861666D01*
X74717276Y-31861666D02*
X74831561Y-31861666D01*
X74831561Y-31861666D02*
X74907752Y-31893570D01*
X74907752Y-31893570D02*
X74945847Y-31925475D01*
X74945847Y-31925475D02*
X74983942Y-31989285D01*
X74983942Y-31989285D02*
X74983942Y-32244523D01*
X74831561Y-31287380D02*
X75364895Y-31287380D01*
X74526800Y-31446904D02*
X75098228Y-31606427D01*
X75098228Y-31606427D02*
X75098228Y-31191666D01*
X111327395Y-32174761D02*
X110946442Y-32398094D01*
X111327395Y-32557618D02*
X110527395Y-32557618D01*
X110527395Y-32557618D02*
X110527395Y-32302380D01*
X110527395Y-32302380D02*
X110565490Y-32238570D01*
X110565490Y-32238570D02*
X110603585Y-32206665D01*
X110603585Y-32206665D02*
X110679776Y-32174761D01*
X110679776Y-32174761D02*
X110794061Y-32174761D01*
X110794061Y-32174761D02*
X110870252Y-32206665D01*
X110870252Y-32206665D02*
X110908347Y-32238570D01*
X110908347Y-32238570D02*
X110946442Y-32302380D01*
X110946442Y-32302380D02*
X110946442Y-32557618D01*
X110603585Y-31919522D02*
X110565490Y-31887618D01*
X110565490Y-31887618D02*
X110527395Y-31823808D01*
X110527395Y-31823808D02*
X110527395Y-31664284D01*
X110527395Y-31664284D02*
X110565490Y-31600475D01*
X110565490Y-31600475D02*
X110603585Y-31568570D01*
X110603585Y-31568570D02*
X110679776Y-31536665D01*
X110679776Y-31536665D02*
X110755966Y-31536665D01*
X110755966Y-31536665D02*
X110870252Y-31568570D01*
X110870252Y-31568570D02*
X111327395Y-31951427D01*
X111327395Y-31951427D02*
X111327395Y-31536665D01*
X110527395Y-31121904D02*
X110527395Y-31058094D01*
X110527395Y-31058094D02*
X110565490Y-30994285D01*
X110565490Y-30994285D02*
X110603585Y-30962380D01*
X110603585Y-30962380D02*
X110679776Y-30930475D01*
X110679776Y-30930475D02*
X110832157Y-30898570D01*
X110832157Y-30898570D02*
X111022633Y-30898570D01*
X111022633Y-30898570D02*
X111175014Y-30930475D01*
X111175014Y-30930475D02*
X111251204Y-30962380D01*
X111251204Y-30962380D02*
X111289300Y-30994285D01*
X111289300Y-30994285D02*
X111327395Y-31058094D01*
X111327395Y-31058094D02*
X111327395Y-31121904D01*
X111327395Y-31121904D02*
X111289300Y-31185713D01*
X111289300Y-31185713D02*
X111251204Y-31217618D01*
X111251204Y-31217618D02*
X111175014Y-31249523D01*
X111175014Y-31249523D02*
X111022633Y-31281427D01*
X111022633Y-31281427D02*
X110832157Y-31281427D01*
X110832157Y-31281427D02*
X110679776Y-31249523D01*
X110679776Y-31249523D02*
X110603585Y-31217618D01*
X110603585Y-31217618D02*
X110565490Y-31185713D01*
X110565490Y-31185713D02*
X110527395Y-31121904D01*
X110794061Y-30324285D02*
X111327395Y-30324285D01*
X110489300Y-30483809D02*
X111060728Y-30643332D01*
X111060728Y-30643332D02*
X111060728Y-30228571D01*
X107651428Y-29064895D02*
X107651428Y-29712514D01*
X107651428Y-29712514D02*
X107683333Y-29788704D01*
X107683333Y-29788704D02*
X107715238Y-29826800D01*
X107715238Y-29826800D02*
X107779047Y-29864895D01*
X107779047Y-29864895D02*
X107906666Y-29864895D01*
X107906666Y-29864895D02*
X107970476Y-29826800D01*
X107970476Y-29826800D02*
X108002381Y-29788704D01*
X108002381Y-29788704D02*
X108034285Y-29712514D01*
X108034285Y-29712514D02*
X108034285Y-29064895D01*
X108321429Y-29141085D02*
X108353333Y-29102990D01*
X108353333Y-29102990D02*
X108417143Y-29064895D01*
X108417143Y-29064895D02*
X108576667Y-29064895D01*
X108576667Y-29064895D02*
X108640476Y-29102990D01*
X108640476Y-29102990D02*
X108672381Y-29141085D01*
X108672381Y-29141085D02*
X108704286Y-29217276D01*
X108704286Y-29217276D02*
X108704286Y-29293466D01*
X108704286Y-29293466D02*
X108672381Y-29407752D01*
X108672381Y-29407752D02*
X108289524Y-29864895D01*
X108289524Y-29864895D02*
X108704286Y-29864895D01*
X109119047Y-29064895D02*
X109182857Y-29064895D01*
X109182857Y-29064895D02*
X109246666Y-29102990D01*
X109246666Y-29102990D02*
X109278571Y-29141085D01*
X109278571Y-29141085D02*
X109310476Y-29217276D01*
X109310476Y-29217276D02*
X109342381Y-29369657D01*
X109342381Y-29369657D02*
X109342381Y-29560133D01*
X109342381Y-29560133D02*
X109310476Y-29712514D01*
X109310476Y-29712514D02*
X109278571Y-29788704D01*
X109278571Y-29788704D02*
X109246666Y-29826800D01*
X109246666Y-29826800D02*
X109182857Y-29864895D01*
X109182857Y-29864895D02*
X109119047Y-29864895D01*
X109119047Y-29864895D02*
X109055238Y-29826800D01*
X109055238Y-29826800D02*
X109023333Y-29788704D01*
X109023333Y-29788704D02*
X108991428Y-29712514D01*
X108991428Y-29712514D02*
X108959524Y-29560133D01*
X108959524Y-29560133D02*
X108959524Y-29369657D01*
X108959524Y-29369657D02*
X108991428Y-29217276D01*
X108991428Y-29217276D02*
X109023333Y-29141085D01*
X109023333Y-29141085D02*
X109055238Y-29102990D01*
X109055238Y-29102990D02*
X109119047Y-29064895D01*
X109597619Y-29141085D02*
X109629523Y-29102990D01*
X109629523Y-29102990D02*
X109693333Y-29064895D01*
X109693333Y-29064895D02*
X109852857Y-29064895D01*
X109852857Y-29064895D02*
X109916666Y-29102990D01*
X109916666Y-29102990D02*
X109948571Y-29141085D01*
X109948571Y-29141085D02*
X109980476Y-29217276D01*
X109980476Y-29217276D02*
X109980476Y-29293466D01*
X109980476Y-29293466D02*
X109948571Y-29407752D01*
X109948571Y-29407752D02*
X109565714Y-29864895D01*
X109565714Y-29864895D02*
X109980476Y-29864895D01*
X26053476Y-22271295D02*
X26436333Y-22271295D01*
X26244905Y-23071295D02*
X26244905Y-22271295D01*
X26659666Y-23071295D02*
X26659666Y-22271295D01*
X26659666Y-22271295D02*
X26914904Y-22271295D01*
X26914904Y-22271295D02*
X26978714Y-22309390D01*
X26978714Y-22309390D02*
X27010619Y-22347485D01*
X27010619Y-22347485D02*
X27042523Y-22423676D01*
X27042523Y-22423676D02*
X27042523Y-22537961D01*
X27042523Y-22537961D02*
X27010619Y-22614152D01*
X27010619Y-22614152D02*
X26978714Y-22652247D01*
X26978714Y-22652247D02*
X26914904Y-22690342D01*
X26914904Y-22690342D02*
X26659666Y-22690342D01*
X27680619Y-23071295D02*
X27297762Y-23071295D01*
X27489190Y-23071295D02*
X27489190Y-22271295D01*
X27489190Y-22271295D02*
X27425381Y-22385580D01*
X27425381Y-22385580D02*
X27361571Y-22461771D01*
X27361571Y-22461771D02*
X27297762Y-22499866D01*
X28095380Y-22271295D02*
X28159190Y-22271295D01*
X28159190Y-22271295D02*
X28222999Y-22309390D01*
X28222999Y-22309390D02*
X28254904Y-22347485D01*
X28254904Y-22347485D02*
X28286809Y-22423676D01*
X28286809Y-22423676D02*
X28318714Y-22576057D01*
X28318714Y-22576057D02*
X28318714Y-22766533D01*
X28318714Y-22766533D02*
X28286809Y-22918914D01*
X28286809Y-22918914D02*
X28254904Y-22995104D01*
X28254904Y-22995104D02*
X28222999Y-23033200D01*
X28222999Y-23033200D02*
X28159190Y-23071295D01*
X28159190Y-23071295D02*
X28095380Y-23071295D01*
X28095380Y-23071295D02*
X28031571Y-23033200D01*
X28031571Y-23033200D02*
X27999666Y-22995104D01*
X27999666Y-22995104D02*
X27967761Y-22918914D01*
X27967761Y-22918914D02*
X27935857Y-22766533D01*
X27935857Y-22766533D02*
X27935857Y-22576057D01*
X27935857Y-22576057D02*
X27967761Y-22423676D01*
X27967761Y-22423676D02*
X27999666Y-22347485D01*
X27999666Y-22347485D02*
X28031571Y-22309390D01*
X28031571Y-22309390D02*
X28095380Y-22271295D01*
X28746429Y-77894895D02*
X29129286Y-77894895D01*
X28937858Y-78694895D02*
X28937858Y-77894895D01*
X29352619Y-78694895D02*
X29352619Y-77894895D01*
X29352619Y-77894895D02*
X29607857Y-77894895D01*
X29607857Y-77894895D02*
X29671667Y-77932990D01*
X29671667Y-77932990D02*
X29703572Y-77971085D01*
X29703572Y-77971085D02*
X29735476Y-78047276D01*
X29735476Y-78047276D02*
X29735476Y-78161561D01*
X29735476Y-78161561D02*
X29703572Y-78237752D01*
X29703572Y-78237752D02*
X29671667Y-78275847D01*
X29671667Y-78275847D02*
X29607857Y-78313942D01*
X29607857Y-78313942D02*
X29352619Y-78313942D01*
X30373572Y-78694895D02*
X29990715Y-78694895D01*
X30182143Y-78694895D02*
X30182143Y-77894895D01*
X30182143Y-77894895D02*
X30118334Y-78009180D01*
X30118334Y-78009180D02*
X30054524Y-78085371D01*
X30054524Y-78085371D02*
X29990715Y-78123466D01*
X30788333Y-77894895D02*
X30852143Y-77894895D01*
X30852143Y-77894895D02*
X30915952Y-77932990D01*
X30915952Y-77932990D02*
X30947857Y-77971085D01*
X30947857Y-77971085D02*
X30979762Y-78047276D01*
X30979762Y-78047276D02*
X31011667Y-78199657D01*
X31011667Y-78199657D02*
X31011667Y-78390133D01*
X31011667Y-78390133D02*
X30979762Y-78542514D01*
X30979762Y-78542514D02*
X30947857Y-78618704D01*
X30947857Y-78618704D02*
X30915952Y-78656800D01*
X30915952Y-78656800D02*
X30852143Y-78694895D01*
X30852143Y-78694895D02*
X30788333Y-78694895D01*
X30788333Y-78694895D02*
X30724524Y-78656800D01*
X30724524Y-78656800D02*
X30692619Y-78618704D01*
X30692619Y-78618704D02*
X30660714Y-78542514D01*
X30660714Y-78542514D02*
X30628810Y-78390133D01*
X30628810Y-78390133D02*
X30628810Y-78199657D01*
X30628810Y-78199657D02*
X30660714Y-78047276D01*
X30660714Y-78047276D02*
X30692619Y-77971085D01*
X30692619Y-77971085D02*
X30724524Y-77932990D01*
X30724524Y-77932990D02*
X30788333Y-77894895D01*
X31266905Y-77971085D02*
X31298809Y-77932990D01*
X31298809Y-77932990D02*
X31362619Y-77894895D01*
X31362619Y-77894895D02*
X31522143Y-77894895D01*
X31522143Y-77894895D02*
X31585952Y-77932990D01*
X31585952Y-77932990D02*
X31617857Y-77971085D01*
X31617857Y-77971085D02*
X31649762Y-78047276D01*
X31649762Y-78047276D02*
X31649762Y-78123466D01*
X31649762Y-78123466D02*
X31617857Y-78237752D01*
X31617857Y-78237752D02*
X31235000Y-78694895D01*
X31235000Y-78694895D02*
X31649762Y-78694895D01*
X69186524Y-36608495D02*
X69569381Y-36608495D01*
X69377953Y-37408495D02*
X69377953Y-36608495D01*
X69792714Y-37408495D02*
X69792714Y-36608495D01*
X69792714Y-36608495D02*
X70047952Y-36608495D01*
X70047952Y-36608495D02*
X70111762Y-36646590D01*
X70111762Y-36646590D02*
X70143667Y-36684685D01*
X70143667Y-36684685D02*
X70175571Y-36760876D01*
X70175571Y-36760876D02*
X70175571Y-36875161D01*
X70175571Y-36875161D02*
X70143667Y-36951352D01*
X70143667Y-36951352D02*
X70111762Y-36989447D01*
X70111762Y-36989447D02*
X70047952Y-37027542D01*
X70047952Y-37027542D02*
X69792714Y-37027542D01*
X70430810Y-36684685D02*
X70462714Y-36646590D01*
X70462714Y-36646590D02*
X70526524Y-36608495D01*
X70526524Y-36608495D02*
X70686048Y-36608495D01*
X70686048Y-36608495D02*
X70749857Y-36646590D01*
X70749857Y-36646590D02*
X70781762Y-36684685D01*
X70781762Y-36684685D02*
X70813667Y-36760876D01*
X70813667Y-36760876D02*
X70813667Y-36837066D01*
X70813667Y-36837066D02*
X70781762Y-36951352D01*
X70781762Y-36951352D02*
X70398905Y-37408495D01*
X70398905Y-37408495D02*
X70813667Y-37408495D01*
X75331762Y-36608495D02*
X75714619Y-36608495D01*
X75523191Y-37408495D02*
X75523191Y-36608495D01*
X75937952Y-37408495D02*
X75937952Y-36608495D01*
X75937952Y-36608495D02*
X76193190Y-36608495D01*
X76193190Y-36608495D02*
X76257000Y-36646590D01*
X76257000Y-36646590D02*
X76288905Y-36684685D01*
X76288905Y-36684685D02*
X76320809Y-36760876D01*
X76320809Y-36760876D02*
X76320809Y-36875161D01*
X76320809Y-36875161D02*
X76288905Y-36951352D01*
X76288905Y-36951352D02*
X76257000Y-36989447D01*
X76257000Y-36989447D02*
X76193190Y-37027542D01*
X76193190Y-37027542D02*
X75937952Y-37027542D01*
X76958905Y-37408495D02*
X76576048Y-37408495D01*
X76767476Y-37408495D02*
X76767476Y-36608495D01*
X76767476Y-36608495D02*
X76703667Y-36722780D01*
X76703667Y-36722780D02*
X76639857Y-36798971D01*
X76639857Y-36798971D02*
X76576048Y-36837066D01*
X77565095Y-36608495D02*
X77246047Y-36608495D01*
X77246047Y-36608495D02*
X77214143Y-36989447D01*
X77214143Y-36989447D02*
X77246047Y-36951352D01*
X77246047Y-36951352D02*
X77309857Y-36913257D01*
X77309857Y-36913257D02*
X77469381Y-36913257D01*
X77469381Y-36913257D02*
X77533190Y-36951352D01*
X77533190Y-36951352D02*
X77565095Y-36989447D01*
X77565095Y-36989447D02*
X77597000Y-37065638D01*
X77597000Y-37065638D02*
X77597000Y-37256114D01*
X77597000Y-37256114D02*
X77565095Y-37332304D01*
X77565095Y-37332304D02*
X77533190Y-37370400D01*
X77533190Y-37370400D02*
X77469381Y-37408495D01*
X77469381Y-37408495D02*
X77309857Y-37408495D01*
X77309857Y-37408495D02*
X77246047Y-37370400D01*
X77246047Y-37370400D02*
X77214143Y-37332304D01*
X101507953Y-36608495D02*
X101890810Y-36608495D01*
X101699382Y-37408495D02*
X101699382Y-36608495D01*
X102114143Y-37408495D02*
X102114143Y-36608495D01*
X102114143Y-36608495D02*
X102369381Y-36608495D01*
X102369381Y-36608495D02*
X102433191Y-36646590D01*
X102433191Y-36646590D02*
X102465096Y-36684685D01*
X102465096Y-36684685D02*
X102497000Y-36760876D01*
X102497000Y-36760876D02*
X102497000Y-36875161D01*
X102497000Y-36875161D02*
X102465096Y-36951352D01*
X102465096Y-36951352D02*
X102433191Y-36989447D01*
X102433191Y-36989447D02*
X102369381Y-37027542D01*
X102369381Y-37027542D02*
X102114143Y-37027542D01*
X103071286Y-36875161D02*
X103071286Y-37408495D01*
X102911762Y-36570400D02*
X102752239Y-37141828D01*
X102752239Y-37141828D02*
X103167000Y-37141828D01*
X60114895Y-49132618D02*
X59314895Y-49132618D01*
X59314895Y-49132618D02*
X59314895Y-48973094D01*
X59314895Y-48973094D02*
X59352990Y-48877380D01*
X59352990Y-48877380D02*
X59429180Y-48813570D01*
X59429180Y-48813570D02*
X59505371Y-48781665D01*
X59505371Y-48781665D02*
X59657752Y-48749761D01*
X59657752Y-48749761D02*
X59772038Y-48749761D01*
X59772038Y-48749761D02*
X59924419Y-48781665D01*
X59924419Y-48781665D02*
X60000609Y-48813570D01*
X60000609Y-48813570D02*
X60076800Y-48877380D01*
X60076800Y-48877380D02*
X60114895Y-48973094D01*
X60114895Y-48973094D02*
X60114895Y-49132618D01*
X59391085Y-48494522D02*
X59352990Y-48462618D01*
X59352990Y-48462618D02*
X59314895Y-48398808D01*
X59314895Y-48398808D02*
X59314895Y-48239284D01*
X59314895Y-48239284D02*
X59352990Y-48175475D01*
X59352990Y-48175475D02*
X59391085Y-48143570D01*
X59391085Y-48143570D02*
X59467276Y-48111665D01*
X59467276Y-48111665D02*
X59543466Y-48111665D01*
X59543466Y-48111665D02*
X59657752Y-48143570D01*
X59657752Y-48143570D02*
X60114895Y-48526427D01*
X60114895Y-48526427D02*
X60114895Y-48111665D01*
X59314895Y-47696904D02*
X59314895Y-47633094D01*
X59314895Y-47633094D02*
X59352990Y-47569285D01*
X59352990Y-47569285D02*
X59391085Y-47537380D01*
X59391085Y-47537380D02*
X59467276Y-47505475D01*
X59467276Y-47505475D02*
X59619657Y-47473570D01*
X59619657Y-47473570D02*
X59810133Y-47473570D01*
X59810133Y-47473570D02*
X59962514Y-47505475D01*
X59962514Y-47505475D02*
X60038704Y-47537380D01*
X60038704Y-47537380D02*
X60076800Y-47569285D01*
X60076800Y-47569285D02*
X60114895Y-47633094D01*
X60114895Y-47633094D02*
X60114895Y-47696904D01*
X60114895Y-47696904D02*
X60076800Y-47760713D01*
X60076800Y-47760713D02*
X60038704Y-47792618D01*
X60038704Y-47792618D02*
X59962514Y-47824523D01*
X59962514Y-47824523D02*
X59810133Y-47856427D01*
X59810133Y-47856427D02*
X59619657Y-47856427D01*
X59619657Y-47856427D02*
X59467276Y-47824523D01*
X59467276Y-47824523D02*
X59391085Y-47792618D01*
X59391085Y-47792618D02*
X59352990Y-47760713D01*
X59352990Y-47760713D02*
X59314895Y-47696904D01*
X60114895Y-46835475D02*
X60114895Y-47218332D01*
X60114895Y-47026904D02*
X59314895Y-47026904D01*
X59314895Y-47026904D02*
X59429180Y-47090713D01*
X59429180Y-47090713D02*
X59505371Y-47154523D01*
X59505371Y-47154523D02*
X59543466Y-47218332D01*
X52668809Y-73064895D02*
X53051666Y-73064895D01*
X52860238Y-73864895D02*
X52860238Y-73064895D01*
X53274999Y-73864895D02*
X53274999Y-73064895D01*
X53274999Y-73064895D02*
X53530237Y-73064895D01*
X53530237Y-73064895D02*
X53594047Y-73102990D01*
X53594047Y-73102990D02*
X53625952Y-73141085D01*
X53625952Y-73141085D02*
X53657856Y-73217276D01*
X53657856Y-73217276D02*
X53657856Y-73331561D01*
X53657856Y-73331561D02*
X53625952Y-73407752D01*
X53625952Y-73407752D02*
X53594047Y-73445847D01*
X53594047Y-73445847D02*
X53530237Y-73483942D01*
X53530237Y-73483942D02*
X53274999Y-73483942D01*
X54295952Y-73864895D02*
X53913095Y-73864895D01*
X54104523Y-73864895D02*
X54104523Y-73064895D01*
X54104523Y-73064895D02*
X54040714Y-73179180D01*
X54040714Y-73179180D02*
X53976904Y-73255371D01*
X53976904Y-73255371D02*
X53913095Y-73293466D01*
X54519285Y-73064895D02*
X54965951Y-73064895D01*
X54965951Y-73064895D02*
X54678809Y-73864895D01*
X77489523Y-18064895D02*
X77489523Y-18712514D01*
X77489523Y-18712514D02*
X77521428Y-18788704D01*
X77521428Y-18788704D02*
X77553333Y-18826800D01*
X77553333Y-18826800D02*
X77617142Y-18864895D01*
X77617142Y-18864895D02*
X77744761Y-18864895D01*
X77744761Y-18864895D02*
X77808571Y-18826800D01*
X77808571Y-18826800D02*
X77840476Y-18788704D01*
X77840476Y-18788704D02*
X77872380Y-18712514D01*
X77872380Y-18712514D02*
X77872380Y-18064895D01*
X78542381Y-18864895D02*
X78159524Y-18864895D01*
X78350952Y-18864895D02*
X78350952Y-18064895D01*
X78350952Y-18064895D02*
X78287143Y-18179180D01*
X78287143Y-18179180D02*
X78223333Y-18255371D01*
X78223333Y-18255371D02*
X78159524Y-18293466D01*
X66288704Y-46749761D02*
X66326800Y-46781665D01*
X66326800Y-46781665D02*
X66364895Y-46877380D01*
X66364895Y-46877380D02*
X66364895Y-46941189D01*
X66364895Y-46941189D02*
X66326800Y-47036903D01*
X66326800Y-47036903D02*
X66250609Y-47100713D01*
X66250609Y-47100713D02*
X66174419Y-47132618D01*
X66174419Y-47132618D02*
X66022038Y-47164522D01*
X66022038Y-47164522D02*
X65907752Y-47164522D01*
X65907752Y-47164522D02*
X65755371Y-47132618D01*
X65755371Y-47132618D02*
X65679180Y-47100713D01*
X65679180Y-47100713D02*
X65602990Y-47036903D01*
X65602990Y-47036903D02*
X65564895Y-46941189D01*
X65564895Y-46941189D02*
X65564895Y-46877380D01*
X65564895Y-46877380D02*
X65602990Y-46781665D01*
X65602990Y-46781665D02*
X65641085Y-46749761D01*
X65641085Y-46494522D02*
X65602990Y-46462618D01*
X65602990Y-46462618D02*
X65564895Y-46398808D01*
X65564895Y-46398808D02*
X65564895Y-46239284D01*
X65564895Y-46239284D02*
X65602990Y-46175475D01*
X65602990Y-46175475D02*
X65641085Y-46143570D01*
X65641085Y-46143570D02*
X65717276Y-46111665D01*
X65717276Y-46111665D02*
X65793466Y-46111665D01*
X65793466Y-46111665D02*
X65907752Y-46143570D01*
X65907752Y-46143570D02*
X66364895Y-46526427D01*
X66364895Y-46526427D02*
X66364895Y-46111665D01*
X66364895Y-45473570D02*
X66364895Y-45856427D01*
X66364895Y-45664999D02*
X65564895Y-45664999D01*
X65564895Y-45664999D02*
X65679180Y-45728808D01*
X65679180Y-45728808D02*
X65755371Y-45792618D01*
X65755371Y-45792618D02*
X65793466Y-45856427D01*
X66364895Y-44835475D02*
X66364895Y-45218332D01*
X66364895Y-45026904D02*
X65564895Y-45026904D01*
X65564895Y-45026904D02*
X65679180Y-45090713D01*
X65679180Y-45090713D02*
X65755371Y-45154523D01*
X65755371Y-45154523D02*
X65793466Y-45218332D01*
X80615265Y-27122091D02*
X80583361Y-27160187D01*
X80583361Y-27160187D02*
X80487646Y-27198282D01*
X80487646Y-27198282D02*
X80423837Y-27198282D01*
X80423837Y-27198282D02*
X80328123Y-27160187D01*
X80328123Y-27160187D02*
X80264313Y-27083996D01*
X80264313Y-27083996D02*
X80232408Y-27007806D01*
X80232408Y-27007806D02*
X80200504Y-26855425D01*
X80200504Y-26855425D02*
X80200504Y-26741139D01*
X80200504Y-26741139D02*
X80232408Y-26588758D01*
X80232408Y-26588758D02*
X80264313Y-26512567D01*
X80264313Y-26512567D02*
X80328123Y-26436377D01*
X80328123Y-26436377D02*
X80423837Y-26398282D01*
X80423837Y-26398282D02*
X80487646Y-26398282D01*
X80487646Y-26398282D02*
X80583361Y-26436377D01*
X80583361Y-26436377D02*
X80615265Y-26474472D01*
X80870504Y-26474472D02*
X80902408Y-26436377D01*
X80902408Y-26436377D02*
X80966218Y-26398282D01*
X80966218Y-26398282D02*
X81125742Y-26398282D01*
X81125742Y-26398282D02*
X81189551Y-26436377D01*
X81189551Y-26436377D02*
X81221456Y-26474472D01*
X81221456Y-26474472D02*
X81253361Y-26550663D01*
X81253361Y-26550663D02*
X81253361Y-26626853D01*
X81253361Y-26626853D02*
X81221456Y-26741139D01*
X81221456Y-26741139D02*
X80838599Y-27198282D01*
X80838599Y-27198282D02*
X81253361Y-27198282D01*
X82115095Y-36608495D02*
X82497952Y-36608495D01*
X82306524Y-37408495D02*
X82306524Y-36608495D01*
X82721285Y-37408495D02*
X82721285Y-36608495D01*
X82721285Y-36608495D02*
X82976523Y-36608495D01*
X82976523Y-36608495D02*
X83040333Y-36646590D01*
X83040333Y-36646590D02*
X83072238Y-36684685D01*
X83072238Y-36684685D02*
X83104142Y-36760876D01*
X83104142Y-36760876D02*
X83104142Y-36875161D01*
X83104142Y-36875161D02*
X83072238Y-36951352D01*
X83072238Y-36951352D02*
X83040333Y-36989447D01*
X83040333Y-36989447D02*
X82976523Y-37027542D01*
X82976523Y-37027542D02*
X82721285Y-37027542D01*
X83710333Y-36608495D02*
X83391285Y-36608495D01*
X83391285Y-36608495D02*
X83359381Y-36989447D01*
X83359381Y-36989447D02*
X83391285Y-36951352D01*
X83391285Y-36951352D02*
X83455095Y-36913257D01*
X83455095Y-36913257D02*
X83614619Y-36913257D01*
X83614619Y-36913257D02*
X83678428Y-36951352D01*
X83678428Y-36951352D02*
X83710333Y-36989447D01*
X83710333Y-36989447D02*
X83742238Y-37065638D01*
X83742238Y-37065638D02*
X83742238Y-37256114D01*
X83742238Y-37256114D02*
X83710333Y-37332304D01*
X83710333Y-37332304D02*
X83678428Y-37370400D01*
X83678428Y-37370400D02*
X83614619Y-37408495D01*
X83614619Y-37408495D02*
X83455095Y-37408495D01*
X83455095Y-37408495D02*
X83391285Y-37370400D01*
X83391285Y-37370400D02*
X83359381Y-37332304D01*
X79014020Y-27188704D02*
X78982116Y-27226800D01*
X78982116Y-27226800D02*
X78886401Y-27264895D01*
X78886401Y-27264895D02*
X78822592Y-27264895D01*
X78822592Y-27264895D02*
X78726878Y-27226800D01*
X78726878Y-27226800D02*
X78663068Y-27150609D01*
X78663068Y-27150609D02*
X78631163Y-27074419D01*
X78631163Y-27074419D02*
X78599259Y-26922038D01*
X78599259Y-26922038D02*
X78599259Y-26807752D01*
X78599259Y-26807752D02*
X78631163Y-26655371D01*
X78631163Y-26655371D02*
X78663068Y-26579180D01*
X78663068Y-26579180D02*
X78726878Y-26502990D01*
X78726878Y-26502990D02*
X78822592Y-26464895D01*
X78822592Y-26464895D02*
X78886401Y-26464895D01*
X78886401Y-26464895D02*
X78982116Y-26502990D01*
X78982116Y-26502990D02*
X79014020Y-26541085D01*
X79652116Y-27264895D02*
X79269259Y-27264895D01*
X79460687Y-27264895D02*
X79460687Y-26464895D01*
X79460687Y-26464895D02*
X79396878Y-26579180D01*
X79396878Y-26579180D02*
X79333068Y-26655371D01*
X79333068Y-26655371D02*
X79269259Y-26693466D01*
X66114895Y-54132618D02*
X65314895Y-54132618D01*
X65314895Y-54132618D02*
X65314895Y-53973094D01*
X65314895Y-53973094D02*
X65352990Y-53877380D01*
X65352990Y-53877380D02*
X65429180Y-53813570D01*
X65429180Y-53813570D02*
X65505371Y-53781665D01*
X65505371Y-53781665D02*
X65657752Y-53749761D01*
X65657752Y-53749761D02*
X65772038Y-53749761D01*
X65772038Y-53749761D02*
X65924419Y-53781665D01*
X65924419Y-53781665D02*
X66000609Y-53813570D01*
X66000609Y-53813570D02*
X66076800Y-53877380D01*
X66076800Y-53877380D02*
X66114895Y-53973094D01*
X66114895Y-53973094D02*
X66114895Y-54132618D01*
X65391085Y-53494522D02*
X65352990Y-53462618D01*
X65352990Y-53462618D02*
X65314895Y-53398808D01*
X65314895Y-53398808D02*
X65314895Y-53239284D01*
X65314895Y-53239284D02*
X65352990Y-53175475D01*
X65352990Y-53175475D02*
X65391085Y-53143570D01*
X65391085Y-53143570D02*
X65467276Y-53111665D01*
X65467276Y-53111665D02*
X65543466Y-53111665D01*
X65543466Y-53111665D02*
X65657752Y-53143570D01*
X65657752Y-53143570D02*
X66114895Y-53526427D01*
X66114895Y-53526427D02*
X66114895Y-53111665D01*
X65314895Y-52696904D02*
X65314895Y-52633094D01*
X65314895Y-52633094D02*
X65352990Y-52569285D01*
X65352990Y-52569285D02*
X65391085Y-52537380D01*
X65391085Y-52537380D02*
X65467276Y-52505475D01*
X65467276Y-52505475D02*
X65619657Y-52473570D01*
X65619657Y-52473570D02*
X65810133Y-52473570D01*
X65810133Y-52473570D02*
X65962514Y-52505475D01*
X65962514Y-52505475D02*
X66038704Y-52537380D01*
X66038704Y-52537380D02*
X66076800Y-52569285D01*
X66076800Y-52569285D02*
X66114895Y-52633094D01*
X66114895Y-52633094D02*
X66114895Y-52696904D01*
X66114895Y-52696904D02*
X66076800Y-52760713D01*
X66076800Y-52760713D02*
X66038704Y-52792618D01*
X66038704Y-52792618D02*
X65962514Y-52824523D01*
X65962514Y-52824523D02*
X65810133Y-52856427D01*
X65810133Y-52856427D02*
X65619657Y-52856427D01*
X65619657Y-52856427D02*
X65467276Y-52824523D01*
X65467276Y-52824523D02*
X65391085Y-52792618D01*
X65391085Y-52792618D02*
X65352990Y-52760713D01*
X65352990Y-52760713D02*
X65314895Y-52696904D01*
X65314895Y-52250237D02*
X65314895Y-51835475D01*
X65314895Y-51835475D02*
X65619657Y-52058809D01*
X65619657Y-52058809D02*
X65619657Y-51963094D01*
X65619657Y-51963094D02*
X65657752Y-51899285D01*
X65657752Y-51899285D02*
X65695847Y-51867380D01*
X65695847Y-51867380D02*
X65772038Y-51835475D01*
X65772038Y-51835475D02*
X65962514Y-51835475D01*
X65962514Y-51835475D02*
X66038704Y-51867380D01*
X66038704Y-51867380D02*
X66076800Y-51899285D01*
X66076800Y-51899285D02*
X66114895Y-51963094D01*
X66114895Y-51963094D02*
X66114895Y-52154523D01*
X66114895Y-52154523D02*
X66076800Y-52218332D01*
X66076800Y-52218332D02*
X66038704Y-52250237D01*
X79311342Y-21007899D02*
X79088009Y-20626946D01*
X78928485Y-21007899D02*
X78928485Y-20207899D01*
X78928485Y-20207899D02*
X79183723Y-20207899D01*
X79183723Y-20207899D02*
X79247533Y-20245994D01*
X79247533Y-20245994D02*
X79279438Y-20284089D01*
X79279438Y-20284089D02*
X79311342Y-20360280D01*
X79311342Y-20360280D02*
X79311342Y-20474565D01*
X79311342Y-20474565D02*
X79279438Y-20550756D01*
X79279438Y-20550756D02*
X79247533Y-20588851D01*
X79247533Y-20588851D02*
X79183723Y-20626946D01*
X79183723Y-20626946D02*
X78928485Y-20626946D01*
X79949438Y-21007899D02*
X79566581Y-21007899D01*
X79758009Y-21007899D02*
X79758009Y-20207899D01*
X79758009Y-20207899D02*
X79694200Y-20322184D01*
X79694200Y-20322184D02*
X79630390Y-20398375D01*
X79630390Y-20398375D02*
X79566581Y-20436470D01*
X95043667Y-36608495D02*
X95426524Y-36608495D01*
X95235096Y-37408495D02*
X95235096Y-36608495D01*
X95649857Y-37408495D02*
X95649857Y-36608495D01*
X95649857Y-36608495D02*
X95905095Y-36608495D01*
X95905095Y-36608495D02*
X95968905Y-36646590D01*
X95968905Y-36646590D02*
X96000810Y-36684685D01*
X96000810Y-36684685D02*
X96032714Y-36760876D01*
X96032714Y-36760876D02*
X96032714Y-36875161D01*
X96032714Y-36875161D02*
X96000810Y-36951352D01*
X96000810Y-36951352D02*
X95968905Y-36989447D01*
X95968905Y-36989447D02*
X95905095Y-37027542D01*
X95905095Y-37027542D02*
X95649857Y-37027542D01*
X96256048Y-36608495D02*
X96670810Y-36608495D01*
X96670810Y-36608495D02*
X96447476Y-36913257D01*
X96447476Y-36913257D02*
X96543191Y-36913257D01*
X96543191Y-36913257D02*
X96607000Y-36951352D01*
X96607000Y-36951352D02*
X96638905Y-36989447D01*
X96638905Y-36989447D02*
X96670810Y-37065638D01*
X96670810Y-37065638D02*
X96670810Y-37256114D01*
X96670810Y-37256114D02*
X96638905Y-37332304D01*
X96638905Y-37332304D02*
X96607000Y-37370400D01*
X96607000Y-37370400D02*
X96543191Y-37408495D01*
X96543191Y-37408495D02*
X96351762Y-37408495D01*
X96351762Y-37408495D02*
X96287953Y-37370400D01*
X96287953Y-37370400D02*
X96256048Y-37332304D01*
X20835476Y-22314895D02*
X21218333Y-22314895D01*
X21026905Y-23114895D02*
X21026905Y-22314895D01*
X21441666Y-23114895D02*
X21441666Y-22314895D01*
X21441666Y-22314895D02*
X21696904Y-22314895D01*
X21696904Y-22314895D02*
X21760714Y-22352990D01*
X21760714Y-22352990D02*
X21792619Y-22391085D01*
X21792619Y-22391085D02*
X21824523Y-22467276D01*
X21824523Y-22467276D02*
X21824523Y-22581561D01*
X21824523Y-22581561D02*
X21792619Y-22657752D01*
X21792619Y-22657752D02*
X21760714Y-22695847D01*
X21760714Y-22695847D02*
X21696904Y-22733942D01*
X21696904Y-22733942D02*
X21441666Y-22733942D01*
X22462619Y-23114895D02*
X22079762Y-23114895D01*
X22271190Y-23114895D02*
X22271190Y-22314895D01*
X22271190Y-22314895D02*
X22207381Y-22429180D01*
X22207381Y-22429180D02*
X22143571Y-22505371D01*
X22143571Y-22505371D02*
X22079762Y-22543466D01*
X23100714Y-23114895D02*
X22717857Y-23114895D01*
X22909285Y-23114895D02*
X22909285Y-22314895D01*
X22909285Y-22314895D02*
X22845476Y-22429180D01*
X22845476Y-22429180D02*
X22781666Y-22505371D01*
X22781666Y-22505371D02*
X22717857Y-22543466D01*
X58335476Y-73064895D02*
X58718333Y-73064895D01*
X58526905Y-73864895D02*
X58526905Y-73064895D01*
X58941666Y-73864895D02*
X58941666Y-73064895D01*
X58941666Y-73064895D02*
X59196904Y-73064895D01*
X59196904Y-73064895D02*
X59260714Y-73102990D01*
X59260714Y-73102990D02*
X59292619Y-73141085D01*
X59292619Y-73141085D02*
X59324523Y-73217276D01*
X59324523Y-73217276D02*
X59324523Y-73331561D01*
X59324523Y-73331561D02*
X59292619Y-73407752D01*
X59292619Y-73407752D02*
X59260714Y-73445847D01*
X59260714Y-73445847D02*
X59196904Y-73483942D01*
X59196904Y-73483942D02*
X58941666Y-73483942D01*
X59962619Y-73864895D02*
X59579762Y-73864895D01*
X59771190Y-73864895D02*
X59771190Y-73064895D01*
X59771190Y-73064895D02*
X59707381Y-73179180D01*
X59707381Y-73179180D02*
X59643571Y-73255371D01*
X59643571Y-73255371D02*
X59579762Y-73293466D01*
X60281666Y-73864895D02*
X60409285Y-73864895D01*
X60409285Y-73864895D02*
X60473095Y-73826800D01*
X60473095Y-73826800D02*
X60504999Y-73788704D01*
X60504999Y-73788704D02*
X60568809Y-73674419D01*
X60568809Y-73674419D02*
X60600714Y-73522038D01*
X60600714Y-73522038D02*
X60600714Y-73217276D01*
X60600714Y-73217276D02*
X60568809Y-73141085D01*
X60568809Y-73141085D02*
X60536904Y-73102990D01*
X60536904Y-73102990D02*
X60473095Y-73064895D01*
X60473095Y-73064895D02*
X60345476Y-73064895D01*
X60345476Y-73064895D02*
X60281666Y-73102990D01*
X60281666Y-73102990D02*
X60249761Y-73141085D01*
X60249761Y-73141085D02*
X60217857Y-73217276D01*
X60217857Y-73217276D02*
X60217857Y-73407752D01*
X60217857Y-73407752D02*
X60249761Y-73483942D01*
X60249761Y-73483942D02*
X60281666Y-73522038D01*
X60281666Y-73522038D02*
X60345476Y-73560133D01*
X60345476Y-73560133D02*
X60473095Y-73560133D01*
X60473095Y-73560133D02*
X60536904Y-73522038D01*
X60536904Y-73522038D02*
X60568809Y-73483942D01*
X60568809Y-73483942D02*
X60600714Y-73407752D01*
D12*
%TO.C,SW1*%
X86150000Y-23600000D02*
X86150000Y-17400000D01*
X86150000Y-23600000D02*
X86250000Y-23600000D01*
X86250000Y-17400000D02*
X86150000Y-17400000D01*
X87750000Y-17400000D02*
X90750000Y-17400000D01*
X87750000Y-23600000D02*
X90750000Y-23600000D01*
X92350000Y-17400000D02*
X92250000Y-17400000D01*
X92350000Y-23600000D02*
X92250000Y-23600000D01*
X92350000Y-23600000D02*
X92350000Y-17400000D01*
%TO.C,C201*%
X53059420Y-16740000D02*
X53340580Y-16740000D01*
X53059420Y-17760000D02*
X53340580Y-17760000D01*
%TO.C,C106*%
X45109420Y-66490000D02*
X45390580Y-66490000D01*
X45109420Y-67510000D02*
X45390580Y-67510000D01*
%TO.C,R109*%
X35647742Y-65827500D02*
X36122258Y-65827500D01*
X35647742Y-66872500D02*
X36122258Y-66872500D01*
%TO.C,R105*%
X45012742Y-70707500D02*
X45487258Y-70707500D01*
X45012742Y-71752500D02*
X45487258Y-71752500D01*
%TO.C,R201*%
X48512742Y-16727500D02*
X48987258Y-16727500D01*
X48512742Y-17772500D02*
X48987258Y-17772500D01*
%TO.C,D202*%
X65110000Y-49500000D02*
X61100000Y-49500000D01*
X65110000Y-51500000D02*
X61100000Y-51500000D01*
X65110000Y-51500000D02*
X65110000Y-49500000D01*
D13*
%TO.C,U201*%
X34500000Y-16500000D02*
X33500000Y-16500000D01*
X35500000Y-12000000D02*
X44500000Y-12000000D01*
X35500000Y-14480000D02*
X35500000Y-12000000D01*
X35500000Y-21000000D02*
X35500000Y-18520000D01*
X44500000Y-12000000D02*
X44500000Y-14480000D01*
X44500000Y-18520000D02*
X44500000Y-21000000D01*
X44500000Y-21000000D02*
X35500000Y-21000000D01*
X46000000Y-17000000D02*
X46000000Y-16000000D01*
X46500000Y-16500000D02*
X45500000Y-16500000D01*
D12*
%TO.C,D101*%
X33375000Y-68585000D02*
X35660000Y-68585000D01*
X35660000Y-67115000D02*
X33375000Y-67115000D01*
X35660000Y-68585000D02*
X35660000Y-67115000D01*
%TO.C,C209*%
X57859420Y-52740000D02*
X58140580Y-52740000D01*
X57859420Y-53760000D02*
X58140580Y-53760000D01*
%TO.C,J201*%
X123790000Y-31940000D02*
X123790000Y-38910000D01*
X123790000Y-38910000D02*
X124240000Y-38910000D01*
X124240000Y-31940000D02*
X123790000Y-31940000D01*
X127760000Y-31940000D02*
X128210000Y-31940000D01*
X127760000Y-38910000D02*
X128210000Y-38910000D01*
X128210000Y-31940000D02*
X128210000Y-32890000D01*
X128210000Y-32890000D02*
X129700000Y-32890000D01*
X128210000Y-38910000D02*
X128210000Y-37960000D01*
D13*
%TO.C,TP6*%
X90662857Y-39250000D02*
G75*
G02*
X88122857Y-39250000I-1270000J0D01*
G01*
X88122857Y-39250000D02*
G75*
G02*
X90662857Y-39250000I1270000J0D01*
G01*
D12*
%TO.C,R107*%
X35687742Y-70327500D02*
X36162258Y-70327500D01*
X35687742Y-71372500D02*
X36162258Y-71372500D01*
%TO.C,C208*%
X57859420Y-51240000D02*
X58140580Y-51240000D01*
X57859420Y-52260000D02*
X58140580Y-52260000D01*
%TO.C,C3*%
X82015000Y-29188748D02*
X82015000Y-29711252D01*
X83485000Y-29188748D02*
X83485000Y-29711252D01*
%TO.C,C107*%
X45109420Y-64990000D02*
X45390580Y-64990000D01*
X45109420Y-66010000D02*
X45390580Y-66010000D01*
%TO.C,C212*%
X58240000Y-41640580D02*
X58240000Y-41359420D01*
X59260000Y-41640580D02*
X59260000Y-41359420D01*
%TO.C,J1*%
X82370000Y-14290000D02*
X83750000Y-14290000D01*
X82370000Y-15670000D02*
X82370000Y-14290000D01*
X82370000Y-16940000D02*
X82370000Y-27210000D01*
X82370000Y-16940000D02*
X85130000Y-16940000D01*
X82370000Y-27210000D02*
X85130000Y-27210000D01*
X85130000Y-16940000D02*
X85130000Y-27210000D01*
%TO.C,TP18*%
X55966667Y-71300000D02*
X57366667Y-71300000D01*
X55966667Y-72700000D02*
X55966667Y-71300000D01*
X57366667Y-71300000D02*
X57366667Y-72700000D01*
X57366667Y-72700000D02*
X55966667Y-72700000D01*
%TO.C,C202*%
X54609420Y-38490000D02*
X54890580Y-38490000D01*
X54609420Y-39510000D02*
X54890580Y-39510000D01*
%TO.C,R205*%
X120737258Y-22227500D02*
X120262742Y-22227500D01*
X120737258Y-23272500D02*
X120262742Y-23272500D01*
%TO.C,J102*%
X50290000Y-59090000D02*
X50290000Y-60040000D01*
X50290000Y-65110000D02*
X48800000Y-65110000D01*
X50290000Y-66060000D02*
X50290000Y-65110000D01*
X50740000Y-59090000D02*
X50290000Y-59090000D01*
X50740000Y-66060000D02*
X50290000Y-66060000D01*
X54260000Y-66060000D02*
X54710000Y-66060000D01*
X54710000Y-59090000D02*
X54260000Y-59090000D01*
X54710000Y-66060000D02*
X54710000Y-59090000D01*
%TO.C,C203*%
X57859420Y-43740000D02*
X58140580Y-43740000D01*
X57859420Y-44760000D02*
X58140580Y-44760000D01*
%TO.C,C105*%
X41390580Y-62990000D02*
X41109420Y-62990000D01*
X41390580Y-64010000D02*
X41109420Y-64010000D01*
%TO.C,C206*%
X57859420Y-48240000D02*
X58140580Y-48240000D01*
X57859420Y-49260000D02*
X58140580Y-49260000D01*
%TO.C,J202*%
X18540000Y-59880000D02*
X18540000Y-58500000D01*
X19920000Y-59880000D02*
X18540000Y-59880000D01*
X21190000Y-57120000D02*
X31460000Y-57120000D01*
X21190000Y-59880000D02*
X21190000Y-57120000D01*
X21190000Y-59880000D02*
X31460000Y-59880000D01*
X31460000Y-59880000D02*
X31460000Y-57120000D01*
%TO.C,C204*%
X57859420Y-45240000D02*
X58140580Y-45240000D01*
X57859420Y-46260000D02*
X58140580Y-46260000D01*
%TO.C,C207*%
X57859420Y-49740000D02*
X58140580Y-49740000D01*
X57859420Y-50760000D02*
X58140580Y-50760000D01*
%TO.C,Q201*%
X59490000Y-35440000D02*
X61010000Y-35440000D01*
X59490000Y-35490000D02*
X59490000Y-35440000D01*
X59490000Y-37390000D02*
X59490000Y-36610000D01*
X59490000Y-38560000D02*
X59490000Y-38510000D01*
X61010000Y-35440000D02*
X61010000Y-36440000D01*
X61010000Y-37560000D02*
X61010000Y-38560000D01*
X61010000Y-38560000D02*
X59490000Y-38560000D01*
X59190000Y-36950000D02*
X58710000Y-36950000D01*
X58950000Y-36620000D01*
X59190000Y-36950000D01*
G36*
X59190000Y-36950000D02*
G01*
X58710000Y-36950000D01*
X58950000Y-36620000D01*
X59190000Y-36950000D01*
G37*
D13*
%TO.C,TP12*%
X51020000Y-26750000D02*
G75*
G02*
X48480000Y-26750000I-1270000J0D01*
G01*
X48480000Y-26750000D02*
G75*
G02*
X51020000Y-26750000I1270000J0D01*
G01*
D12*
%TO.C,C103*%
X48515000Y-68238748D02*
X48515000Y-68761252D01*
X49985000Y-68238748D02*
X49985000Y-68761252D01*
%TO.C,R202*%
X56727500Y-41262742D02*
X56727500Y-41737258D01*
X57772500Y-41262742D02*
X57772500Y-41737258D01*
%TO.C,J203*%
X46740000Y-32990000D02*
X48460000Y-32990000D01*
X46740000Y-52510000D02*
X46740000Y-32990000D01*
X48460000Y-32990000D02*
X48460000Y-33440000D01*
X48460000Y-33440000D02*
X52110000Y-33440000D01*
X48460000Y-52060000D02*
X48460000Y-52510000D01*
X48460000Y-52510000D02*
X46740000Y-52510000D01*
X52110000Y-33440000D02*
X52110000Y-35590000D01*
X52110000Y-48910000D02*
X52110000Y-52060000D01*
X52110000Y-52060000D02*
X48460000Y-52060000D01*
X52000000Y-36530000D02*
X51760000Y-36200000D01*
X52240000Y-36200000D01*
X52000000Y-36530000D01*
G36*
X52000000Y-36530000D02*
G01*
X51760000Y-36200000D01*
X52240000Y-36200000D01*
X52000000Y-36530000D01*
G37*
%TO.C,TP16*%
X50300000Y-71300000D02*
X51700000Y-71300000D01*
X50300000Y-72700000D02*
X50300000Y-71300000D01*
X51700000Y-71300000D02*
X51700000Y-72700000D01*
X51700000Y-72700000D02*
X50300000Y-72700000D01*
%TO.C,TP1*%
X24200000Y-76750000D02*
G75*
G02*
X22800000Y-76750000I-700000J0D01*
G01*
X22800000Y-76750000D02*
G75*
G02*
X24200000Y-76750000I700000J0D01*
G01*
%TO.C,R103*%
X42477500Y-71512742D02*
X42477500Y-71987258D01*
X43522500Y-71512742D02*
X43522500Y-71987258D01*
%TO.C,R108*%
X35687742Y-71827500D02*
X36162258Y-71827500D01*
X35687742Y-72872500D02*
X36162258Y-72872500D01*
%TO.C,R206*%
X45477500Y-18512742D02*
X45477500Y-18987258D01*
X46522500Y-18512742D02*
X46522500Y-18987258D01*
%TO.C,TP103*%
X27200000Y-76750000D02*
G75*
G02*
X25800000Y-76750000I-700000J0D01*
G01*
X25800000Y-76750000D02*
G75*
G02*
X27200000Y-76750000I700000J0D01*
G01*
D13*
%TO.C,TP13*%
X46270000Y-26750000D02*
G75*
G02*
X43730000Y-26750000I-1270000J0D01*
G01*
X43730000Y-26750000D02*
G75*
G02*
X46270000Y-26750000I1270000J0D01*
G01*
D12*
%TO.C,D1*%
X71765000Y-28302500D02*
X71765000Y-30587500D01*
X73235000Y-28302500D02*
X71765000Y-28302500D01*
X73235000Y-30587500D02*
X73235000Y-28302500D01*
%TO.C,R104*%
X45487258Y-69207500D02*
X45012742Y-69207500D01*
X45487258Y-70252500D02*
X45012742Y-70252500D01*
%TO.C,R203*%
X56727500Y-35012742D02*
X56727500Y-35487258D01*
X57772500Y-35012742D02*
X57772500Y-35487258D01*
%TO.C,C205*%
X57859420Y-46740000D02*
X58140580Y-46740000D01*
X57859420Y-47760000D02*
X58140580Y-47760000D01*
%TO.C,D2*%
X75765000Y-28302500D02*
X75765000Y-30587500D01*
X77235000Y-28302500D02*
X75765000Y-28302500D01*
X77235000Y-30587500D02*
X77235000Y-28302500D01*
D14*
%TO.C,L101*%
X44963950Y-64481900D02*
X45415650Y-64481900D01*
X45415650Y-62018100D02*
X44963950Y-62018100D01*
X42764100Y-63250000D02*
G75*
G02*
X42611700Y-63250000I-76200J0D01*
G01*
X42611700Y-63250000D02*
G75*
G02*
X42764100Y-63250000I76200J0D01*
G01*
D12*
%TO.C,TP101*%
X34450000Y-76750000D02*
G75*
G02*
X33050000Y-76750000I-700000J0D01*
G01*
X33050000Y-76750000D02*
G75*
G02*
X34450000Y-76750000I700000J0D01*
G01*
D15*
%TO.C,S201*%
X48750000Y-11900000D02*
X48750000Y-12050000D01*
X48750000Y-15600000D02*
X48750000Y-15450000D01*
X53650000Y-11900000D02*
X48750000Y-11900000D01*
X53650000Y-12050000D02*
X53650000Y-11900000D01*
X53650000Y-15450000D02*
X53650000Y-15600000D01*
X53650000Y-15600000D02*
X48750000Y-15600000D01*
X49600000Y-15150000D02*
G75*
G02*
X49400000Y-15150000I-100000J0D01*
G01*
X49400000Y-15150000D02*
G75*
G02*
X49600000Y-15150000I100000J0D01*
G01*
D13*
%TO.C,TP9*%
X33270000Y-20500000D02*
G75*
G02*
X30730000Y-20500000I-1270000J0D01*
G01*
X30730000Y-20500000D02*
G75*
G02*
X33270000Y-20500000I1270000J0D01*
G01*
%TO.C,TP8*%
X110055714Y-39250000D02*
G75*
G02*
X107515714Y-39250000I-1270000J0D01*
G01*
X107515714Y-39250000D02*
G75*
G02*
X110055714Y-39250000I1270000J0D01*
G01*
D12*
%TO.C,C210*%
X57859420Y-54240000D02*
X58140580Y-54240000D01*
X57859420Y-55260000D02*
X58140580Y-55260000D01*
D13*
%TO.C,TP14*%
X41520000Y-26750000D02*
G75*
G02*
X38980000Y-26750000I-1270000J0D01*
G01*
X38980000Y-26750000D02*
G75*
G02*
X41520000Y-26750000I1270000J0D01*
G01*
%TO.C,TP7*%
X116520000Y-39250000D02*
G75*
G02*
X113980000Y-39250000I-1270000J0D01*
G01*
X113980000Y-39250000D02*
G75*
G02*
X116520000Y-39250000I1270000J0D01*
G01*
D12*
%TO.C,R3*%
X71977500Y-32987258D02*
X71977500Y-32512742D01*
X73022500Y-32987258D02*
X73022500Y-32512742D01*
%TO.C,R5*%
X77487258Y-31552500D02*
X77012742Y-31552500D01*
X77487258Y-32597500D02*
X77012742Y-32597500D01*
D13*
%TO.C,L201*%
X62920000Y-43500000D02*
X63080000Y-43500000D01*
X62920000Y-46500000D02*
X63080000Y-46500000D01*
D12*
%TO.C,U101*%
X38565000Y-65315000D02*
X39040000Y-65315000D01*
X38565000Y-65790000D02*
X38565000Y-65315000D01*
X38565000Y-69535000D02*
X38565000Y-69060000D01*
X39040000Y-69535000D02*
X38565000Y-69535000D01*
X42310000Y-65315000D02*
X42785000Y-65315000D01*
X42785000Y-65315000D02*
X42785000Y-65790000D01*
X42785000Y-69060000D02*
X42785000Y-69535000D01*
X42785000Y-69535000D02*
X42310000Y-69535000D01*
X38035000Y-66175000D02*
X37705000Y-66415000D01*
X37705000Y-65935000D01*
X38035000Y-66175000D01*
G36*
X38035000Y-66175000D02*
G01*
X37705000Y-66415000D01*
X37705000Y-65935000D01*
X38035000Y-66175000D01*
G37*
%TO.C,R2*%
X70227500Y-29512742D02*
X70227500Y-29987258D01*
X71272500Y-29512742D02*
X71272500Y-29987258D01*
%TO.C,C104*%
X36065580Y-64340000D02*
X35784420Y-64340000D01*
X36065580Y-65360000D02*
X35784420Y-65360000D01*
%TO.C,R4*%
X74477500Y-29512742D02*
X74477500Y-29987258D01*
X75522500Y-29512742D02*
X75522500Y-29987258D01*
%TO.C,R204*%
X111940000Y-31662258D02*
X111940000Y-31187742D01*
X112985000Y-31662258D02*
X112985000Y-31187742D01*
D13*
%TO.C,U202*%
X102750000Y-13150000D02*
X102750000Y-15900000D01*
X102750000Y-13150000D02*
X105500000Y-13150000D01*
X102750000Y-28650000D02*
X102750000Y-25900000D01*
X102750000Y-28650000D02*
X105500000Y-28650000D01*
X118250000Y-13150000D02*
X115500000Y-13150000D01*
X118250000Y-13150000D02*
X118250000Y-15900000D01*
X118250000Y-28650000D02*
X115500000Y-28650000D01*
X118250000Y-28650000D02*
X118250000Y-25900000D01*
D15*
X102100000Y-17100000D02*
G75*
G02*
X101900000Y-17100000I-100000J0D01*
G01*
X101900000Y-17100000D02*
G75*
G02*
X102100000Y-17100000I100000J0D01*
G01*
D13*
%TO.C,TP10*%
X28520000Y-20500000D02*
G75*
G02*
X25980000Y-20500000I-1270000J0D01*
G01*
X25980000Y-20500000D02*
G75*
G02*
X28520000Y-20500000I1270000J0D01*
G01*
D12*
%TO.C,TP102*%
X30950000Y-76750000D02*
G75*
G02*
X29550000Y-76750000I-700000J0D01*
G01*
X29550000Y-76750000D02*
G75*
G02*
X30950000Y-76750000I700000J0D01*
G01*
%TO.C,J101*%
X43830000Y-78000000D02*
X43830000Y-76300000D01*
X53170000Y-78000000D02*
X53170000Y-76300000D01*
D13*
%TO.C,TP2*%
X71270000Y-39250000D02*
G75*
G02*
X68730000Y-39250000I-1270000J0D01*
G01*
X68730000Y-39250000D02*
G75*
G02*
X71270000Y-39250000I1270000J0D01*
G01*
D12*
%TO.C,R102*%
X41727500Y-76237258D02*
X41727500Y-75762742D01*
X42772500Y-76237258D02*
X42772500Y-75762742D01*
D13*
%TO.C,TP15*%
X77734286Y-39250000D02*
G75*
G02*
X75194286Y-39250000I-1270000J0D01*
G01*
X75194286Y-39250000D02*
G75*
G02*
X77734286Y-39250000I1270000J0D01*
G01*
%TO.C,TP4*%
X103591429Y-39250000D02*
G75*
G02*
X101051429Y-39250000I-1270000J0D01*
G01*
X101051429Y-39250000D02*
G75*
G02*
X103591429Y-39250000I1270000J0D01*
G01*
D12*
%TO.C,R106*%
X35687742Y-68827500D02*
X36162258Y-68827500D01*
X35687742Y-69872500D02*
X36162258Y-69872500D01*
%TO.C,D201*%
X60390000Y-47000000D02*
X60390000Y-49000000D01*
X60390000Y-47000000D02*
X64400000Y-47000000D01*
X60390000Y-49000000D02*
X64400000Y-49000000D01*
%TO.C,TP17*%
X53133333Y-71300000D02*
X54533333Y-71300000D01*
X53133333Y-72700000D02*
X53133333Y-71300000D01*
X54533333Y-71300000D02*
X54533333Y-72700000D01*
X54533333Y-72700000D02*
X53133333Y-72700000D01*
D13*
%TO.C,U1*%
X62250000Y-11800000D02*
X76250000Y-11800000D01*
X62250000Y-18410000D02*
X62250000Y-11800000D01*
X62250000Y-27390000D02*
X62250000Y-27800000D01*
X62250000Y-27800000D02*
X76250000Y-27800000D01*
X76250000Y-11800000D02*
X76250000Y-18410000D01*
X76250000Y-27800000D02*
X76250000Y-27390000D01*
D15*
X61050000Y-19010000D02*
G75*
G02*
X60850000Y-19010000I-100000J0D01*
G01*
X60850000Y-19010000D02*
G75*
G02*
X61050000Y-19010000I100000J0D01*
G01*
D12*
%TO.C,C211*%
X65490000Y-48609420D02*
X65490000Y-48890580D01*
X66510000Y-48609420D02*
X66510000Y-48890580D01*
%TO.C,R101*%
X54227500Y-76237258D02*
X54227500Y-75762742D01*
X55272500Y-76237258D02*
X55272500Y-75762742D01*
%TO.C,C2*%
X80240000Y-29084420D02*
X80240000Y-29365580D01*
X81260000Y-29084420D02*
X81260000Y-29365580D01*
D13*
%TO.C,TP5*%
X84198571Y-39250000D02*
G75*
G02*
X81658571Y-39250000I-1270000J0D01*
G01*
X81658571Y-39250000D02*
G75*
G02*
X84198571Y-39250000I1270000J0D01*
G01*
D12*
%TO.C,C1*%
X78740000Y-29084420D02*
X78740000Y-29365580D01*
X79760000Y-29084420D02*
X79760000Y-29365580D01*
%TO.C,D203*%
X60390000Y-52000000D02*
X60390000Y-54000000D01*
X60390000Y-52000000D02*
X64400000Y-52000000D01*
X60390000Y-54000000D02*
X64400000Y-54000000D01*
%TO.C,C102*%
X36515000Y-62511252D02*
X36515000Y-61988748D01*
X37985000Y-62511252D02*
X37985000Y-61988748D01*
%TO.C,R1*%
X78977500Y-23237258D02*
X78977500Y-22762742D01*
X80022500Y-23237258D02*
X80022500Y-22762742D01*
D13*
%TO.C,TP3*%
X97127143Y-39250000D02*
G75*
G02*
X94587143Y-39250000I-1270000J0D01*
G01*
X94587143Y-39250000D02*
G75*
G02*
X97127143Y-39250000I1270000J0D01*
G01*
%TO.C,TP11*%
X23770000Y-20500000D02*
G75*
G02*
X21230000Y-20500000I-1270000J0D01*
G01*
X21230000Y-20500000D02*
G75*
G02*
X23770000Y-20500000I1270000J0D01*
G01*
D12*
%TO.C,TP19*%
X58800000Y-71300000D02*
X60200000Y-71300000D01*
X58800000Y-72700000D02*
X58800000Y-71300000D01*
X60200000Y-71300000D02*
X60200000Y-72700000D01*
X60200000Y-72700000D02*
X58800000Y-72700000D01*
%TO.C,C101*%
X38490000Y-62115580D02*
X38490000Y-61834420D01*
X39510000Y-62115580D02*
X39510000Y-61834420D01*
%TD*%
%LPC*%
D16*
%TO.C,U202*%
X104850000Y-17900000D02*
X102950000Y-17900000D01*
X102950000Y-16300000D01*
X104850000Y-16300000D01*
X104850000Y-17900000D01*
G36*
X104850000Y-17900000D02*
G01*
X102950000Y-17900000D01*
X102950000Y-16300000D01*
X104850000Y-16300000D01*
X104850000Y-17900000D01*
G37*
X104850000Y-19800000D02*
X102950000Y-19800000D01*
X102950000Y-18200000D01*
X104850000Y-18200000D01*
X104850000Y-19800000D01*
G36*
X104850000Y-19800000D02*
G01*
X102950000Y-19800000D01*
X102950000Y-18200000D01*
X104850000Y-18200000D01*
X104850000Y-19800000D01*
G37*
X104850000Y-21700000D02*
X102950000Y-21700000D01*
X102950000Y-20100000D01*
X104850000Y-20100000D01*
X104850000Y-21700000D01*
G36*
X104850000Y-21700000D02*
G01*
X102950000Y-21700000D01*
X102950000Y-20100000D01*
X104850000Y-20100000D01*
X104850000Y-21700000D01*
G37*
X104850000Y-23600000D02*
X102950000Y-23600000D01*
X102950000Y-22000000D01*
X104850000Y-22000000D01*
X104850000Y-23600000D01*
G36*
X104850000Y-23600000D02*
G01*
X102950000Y-23600000D01*
X102950000Y-22000000D01*
X104850000Y-22000000D01*
X104850000Y-23600000D01*
G37*
X104850000Y-25500000D02*
X102950000Y-25500000D01*
X102950000Y-23900000D01*
X104850000Y-23900000D01*
X104850000Y-25500000D01*
G36*
X104850000Y-25500000D02*
G01*
X102950000Y-25500000D01*
X102950000Y-23900000D01*
X104850000Y-23900000D01*
X104850000Y-25500000D01*
G37*
X107500000Y-15250000D02*
X105900000Y-15250000D01*
X105900000Y-13350000D01*
X107500000Y-13350000D01*
X107500000Y-15250000D01*
G36*
X107500000Y-15250000D02*
G01*
X105900000Y-15250000D01*
X105900000Y-13350000D01*
X107500000Y-13350000D01*
X107500000Y-15250000D01*
G37*
X107500000Y-28450000D02*
X105900000Y-28450000D01*
X105900000Y-26550000D01*
X107500000Y-26550000D01*
X107500000Y-28450000D01*
G36*
X107500000Y-28450000D02*
G01*
X105900000Y-28450000D01*
X105900000Y-26550000D01*
X107500000Y-26550000D01*
X107500000Y-28450000D01*
G37*
X109400000Y-15250000D02*
X107800000Y-15250000D01*
X107800000Y-13350000D01*
X109400000Y-13350000D01*
X109400000Y-15250000D01*
G36*
X109400000Y-15250000D02*
G01*
X107800000Y-15250000D01*
X107800000Y-13350000D01*
X109400000Y-13350000D01*
X109400000Y-15250000D01*
G37*
X109400000Y-28450000D02*
X107800000Y-28450000D01*
X107800000Y-26550000D01*
X109400000Y-26550000D01*
X109400000Y-28450000D01*
G36*
X109400000Y-28450000D02*
G01*
X107800000Y-28450000D01*
X107800000Y-26550000D01*
X109400000Y-26550000D01*
X109400000Y-28450000D01*
G37*
X111300000Y-15250000D02*
X109700000Y-15250000D01*
X109700000Y-13350000D01*
X111300000Y-13350000D01*
X111300000Y-15250000D01*
G36*
X111300000Y-15250000D02*
G01*
X109700000Y-15250000D01*
X109700000Y-13350000D01*
X111300000Y-13350000D01*
X111300000Y-15250000D01*
G37*
X111300000Y-28450000D02*
X109700000Y-28450000D01*
X109700000Y-26550000D01*
X111300000Y-26550000D01*
X111300000Y-28450000D01*
G36*
X111300000Y-28450000D02*
G01*
X109700000Y-28450000D01*
X109700000Y-26550000D01*
X111300000Y-26550000D01*
X111300000Y-28450000D01*
G37*
X113200000Y-15250000D02*
X111600000Y-15250000D01*
X111600000Y-13350000D01*
X113200000Y-13350000D01*
X113200000Y-15250000D01*
G36*
X113200000Y-15250000D02*
G01*
X111600000Y-15250000D01*
X111600000Y-13350000D01*
X113200000Y-13350000D01*
X113200000Y-15250000D01*
G37*
X113200000Y-28450000D02*
X111600000Y-28450000D01*
X111600000Y-26550000D01*
X113200000Y-26550000D01*
X113200000Y-28450000D01*
G36*
X113200000Y-28450000D02*
G01*
X111600000Y-28450000D01*
X111600000Y-26550000D01*
X113200000Y-26550000D01*
X113200000Y-28450000D01*
G37*
X115100000Y-15250000D02*
X113500000Y-15250000D01*
X113500000Y-13350000D01*
X115100000Y-13350000D01*
X115100000Y-15250000D01*
G36*
X115100000Y-15250000D02*
G01*
X113500000Y-15250000D01*
X113500000Y-13350000D01*
X115100000Y-13350000D01*
X115100000Y-15250000D01*
G37*
X115100000Y-28450000D02*
X113500000Y-28450000D01*
X113500000Y-26550000D01*
X115100000Y-26550000D01*
X115100000Y-28450000D01*
G36*
X115100000Y-28450000D02*
G01*
X113500000Y-28450000D01*
X113500000Y-26550000D01*
X115100000Y-26550000D01*
X115100000Y-28450000D01*
G37*
X118050000Y-17900000D02*
X116150000Y-17900000D01*
X116150000Y-16300000D01*
X118050000Y-16300000D01*
X118050000Y-17900000D01*
G36*
X118050000Y-17900000D02*
G01*
X116150000Y-17900000D01*
X116150000Y-16300000D01*
X118050000Y-16300000D01*
X118050000Y-17900000D01*
G37*
X118050000Y-19800000D02*
X116150000Y-19800000D01*
X116150000Y-18200000D01*
X118050000Y-18200000D01*
X118050000Y-19800000D01*
G36*
X118050000Y-19800000D02*
G01*
X116150000Y-19800000D01*
X116150000Y-18200000D01*
X118050000Y-18200000D01*
X118050000Y-19800000D01*
G37*
X118050000Y-21700000D02*
X116150000Y-21700000D01*
X116150000Y-20100000D01*
X118050000Y-20100000D01*
X118050000Y-21700000D01*
G36*
X118050000Y-21700000D02*
G01*
X116150000Y-21700000D01*
X116150000Y-20100000D01*
X118050000Y-20100000D01*
X118050000Y-21700000D01*
G37*
X118050000Y-23600000D02*
X116150000Y-23600000D01*
X116150000Y-22000000D01*
X118050000Y-22000000D01*
X118050000Y-23600000D01*
G36*
X118050000Y-23600000D02*
G01*
X116150000Y-23600000D01*
X116150000Y-22000000D01*
X118050000Y-22000000D01*
X118050000Y-23600000D01*
G37*
X118050000Y-25500000D02*
X116150000Y-25500000D01*
X116150000Y-23900000D01*
X118050000Y-23900000D01*
X118050000Y-25500000D01*
G36*
X118050000Y-25500000D02*
G01*
X116150000Y-25500000D01*
X116150000Y-23900000D01*
X118050000Y-23900000D01*
X118050000Y-25500000D01*
G37*
%TD*%
D17*
%TO.C,SW1*%
X87000000Y-25050000D03*
X87000000Y-15950000D03*
X91500000Y-25050000D03*
X91500000Y-15950000D03*
%TD*%
D18*
%TO.C,C201*%
X52425000Y-17250000D03*
X53975000Y-17250000D03*
%TD*%
%TO.C,C106*%
X44475000Y-67000000D03*
X46025000Y-67000000D03*
%TD*%
D19*
%TO.C,R109*%
X35060000Y-66350000D03*
X36710000Y-66350000D03*
%TD*%
%TO.C,R105*%
X44425000Y-71230000D03*
X46075000Y-71230000D03*
%TD*%
%TO.C,R201*%
X47925000Y-17250000D03*
X49575000Y-17250000D03*
%TD*%
D20*
%TO.C,D202*%
X64400000Y-50500000D03*
X61100000Y-50500000D03*
%TD*%
D21*
%TO.C,H3*%
X16930000Y-76930000D03*
%TD*%
%TO.C,H4*%
X16670000Y-16140000D03*
%TD*%
D22*
%TO.C,U201*%
X35650000Y-16500000D03*
X44350000Y-16500000D03*
%TD*%
D23*
%TO.C,D101*%
X34962500Y-67850000D03*
X33387500Y-67850000D03*
%TD*%
D18*
%TO.C,C209*%
X57225000Y-53250000D03*
X58775000Y-53250000D03*
%TD*%
D24*
%TO.C,J201*%
X128900000Y-33550000D03*
X128900000Y-34800000D03*
X128900000Y-36050000D03*
X128900000Y-37300000D03*
D25*
X126000000Y-31000000D03*
X126000000Y-39850000D03*
%TD*%
D26*
%TO.C,TP6*%
X89392857Y-39250000D03*
%TD*%
D19*
%TO.C,R107*%
X35100000Y-70850000D03*
X36750000Y-70850000D03*
%TD*%
D18*
%TO.C,C208*%
X57225000Y-51750000D03*
X58775000Y-51750000D03*
%TD*%
D21*
%TO.C,H1*%
X127250000Y-16250000D03*
%TD*%
D27*
%TO.C,C3*%
X82750000Y-28500000D03*
X82750000Y-30400000D03*
%TD*%
D18*
%TO.C,C107*%
X44475000Y-65500000D03*
X46025000Y-65500000D03*
%TD*%
D28*
%TO.C,C212*%
X58750000Y-42275000D03*
X58750000Y-40725000D03*
%TD*%
D29*
%TO.C,J1*%
X83750000Y-15670000D03*
D30*
X83750000Y-18210000D03*
X83750000Y-20750000D03*
X83750000Y-23290000D03*
X83750000Y-25830000D03*
%TD*%
D31*
%TO.C,TP18*%
X56666667Y-72000000D03*
%TD*%
D18*
%TO.C,C202*%
X53975000Y-39000000D03*
X55525000Y-39000000D03*
%TD*%
D32*
%TO.C,R205*%
X121325000Y-22750000D03*
X119675000Y-22750000D03*
%TD*%
D33*
%TO.C,J102*%
X49600000Y-64450000D03*
X49600000Y-63200000D03*
X49600000Y-61950000D03*
X49600000Y-60700000D03*
D34*
X52500000Y-67000000D03*
X52500000Y-58150000D03*
%TD*%
D18*
%TO.C,C203*%
X57225000Y-44250000D03*
X58775000Y-44250000D03*
%TD*%
D21*
%TO.C,H2*%
X64250000Y-77000000D03*
%TD*%
D35*
%TO.C,C105*%
X42025000Y-63500000D03*
X40475000Y-63500000D03*
%TD*%
D18*
%TO.C,C206*%
X57225000Y-48750000D03*
X58775000Y-48750000D03*
%TD*%
D29*
%TO.C,J202*%
X19920000Y-58500000D03*
D30*
X22460000Y-58500000D03*
X25000000Y-58500000D03*
X27540000Y-58500000D03*
X30080000Y-58500000D03*
%TD*%
D18*
%TO.C,C204*%
X57225000Y-45750000D03*
X58775000Y-45750000D03*
%TD*%
%TO.C,C207*%
X57225000Y-50250000D03*
X58775000Y-50250000D03*
%TD*%
D36*
%TO.C,Q201*%
X59312500Y-36050000D03*
X59312500Y-37950000D03*
X61187500Y-37000000D03*
%TD*%
D26*
%TO.C,TP12*%
X49750000Y-26750000D03*
%TD*%
D27*
%TO.C,C103*%
X49250000Y-67550000D03*
X49250000Y-69450000D03*
%TD*%
D37*
%TO.C,R202*%
X57250000Y-40675000D03*
X57250000Y-42325000D03*
%TD*%
D38*
%TO.C,J203*%
X52000000Y-37000000D03*
X52000000Y-37500000D03*
X52000000Y-38000000D03*
X52000000Y-38500000D03*
X52000000Y-39000000D03*
X52000000Y-39500000D03*
X52000000Y-40000000D03*
X52000000Y-40500000D03*
X52000000Y-41000000D03*
X52000000Y-41500000D03*
X52000000Y-42000000D03*
X52000000Y-42500000D03*
X52000000Y-43000000D03*
X52000000Y-43500000D03*
X52000000Y-44000000D03*
X52000000Y-44500000D03*
X52000000Y-45000000D03*
X52000000Y-45500000D03*
X52000000Y-46000000D03*
X52000000Y-46500000D03*
X52000000Y-47000000D03*
X52000000Y-47500000D03*
X52000000Y-48000000D03*
X52000000Y-48500000D03*
D39*
X50875000Y-34750000D03*
D40*
X50875000Y-50750000D03*
%TD*%
D31*
%TO.C,TP16*%
X51000000Y-72000000D03*
%TD*%
D41*
%TO.C,TP1*%
X23500000Y-76750000D03*
%TD*%
D37*
%TO.C,R103*%
X43000000Y-70925000D03*
X43000000Y-72575000D03*
%TD*%
D19*
%TO.C,R108*%
X35100000Y-72350000D03*
X36750000Y-72350000D03*
%TD*%
D37*
%TO.C,R206*%
X46000000Y-17925000D03*
X46000000Y-19575000D03*
%TD*%
D41*
%TO.C,TP103*%
X26500000Y-76750000D03*
%TD*%
D26*
%TO.C,TP13*%
X45000000Y-26750000D03*
%TD*%
D42*
%TO.C,D1*%
X72500000Y-29000000D03*
X72500000Y-30575000D03*
%TD*%
D32*
%TO.C,R104*%
X46075000Y-69730000D03*
X44425000Y-69730000D03*
%TD*%
D37*
%TO.C,R203*%
X57250000Y-34425000D03*
X57250000Y-36075000D03*
%TD*%
D18*
%TO.C,C205*%
X57225000Y-47250000D03*
X58775000Y-47250000D03*
%TD*%
D42*
%TO.C,D2*%
X76500000Y-29000000D03*
X76500000Y-30575000D03*
%TD*%
D43*
%TO.C,L101*%
X44250000Y-63250000D03*
X46129600Y-63250000D03*
%TD*%
D41*
%TO.C,TP101*%
X33750000Y-76750000D03*
%TD*%
D44*
%TO.C,S201*%
X51200000Y-15125000D03*
X51200000Y-12375000D03*
D45*
X48400000Y-14600000D03*
X48400000Y-12900000D03*
X54000000Y-14600000D03*
X54000000Y-12900000D03*
%TD*%
D26*
%TO.C,TP9*%
X32000000Y-20500000D03*
%TD*%
%TO.C,TP8*%
X108785714Y-39250000D03*
%TD*%
D18*
%TO.C,C210*%
X57225000Y-54750000D03*
X58775000Y-54750000D03*
%TD*%
D26*
%TO.C,TP14*%
X40250000Y-26750000D03*
%TD*%
%TO.C,TP7*%
X115250000Y-39250000D03*
%TD*%
D46*
%TO.C,R3*%
X72500000Y-33575000D03*
X72500000Y-31925000D03*
%TD*%
D32*
%TO.C,R5*%
X78075000Y-32075000D03*
X76425000Y-32075000D03*
%TD*%
D47*
%TO.C,L201*%
X61800000Y-45000000D03*
X64200000Y-45000000D03*
%TD*%
D48*
%TO.C,U101*%
X38712500Y-66175000D03*
X38712500Y-66675000D03*
X38712500Y-67175000D03*
X38712500Y-67675000D03*
X38712500Y-68175000D03*
X38712500Y-68675000D03*
D49*
X39425000Y-69387500D03*
X39925000Y-69387500D03*
X40425000Y-69387500D03*
X40925000Y-69387500D03*
X41425000Y-69387500D03*
X41925000Y-69387500D03*
D48*
X42637500Y-68675000D03*
X42637500Y-68175000D03*
X42637500Y-67675000D03*
X42637500Y-67175000D03*
X42637500Y-66675000D03*
X42637500Y-66175000D03*
D49*
X41925000Y-65462500D03*
X41425000Y-65462500D03*
X40925000Y-65462500D03*
X40425000Y-65462500D03*
X39925000Y-65462500D03*
X39425000Y-65462500D03*
D50*
X40675000Y-67425000D03*
%TD*%
D37*
%TO.C,R2*%
X70750000Y-28925000D03*
X70750000Y-30575000D03*
%TD*%
D35*
%TO.C,C104*%
X36700000Y-64850000D03*
X35150000Y-64850000D03*
%TD*%
D37*
%TO.C,R4*%
X75000000Y-28925000D03*
X75000000Y-30575000D03*
%TD*%
D46*
%TO.C,R204*%
X112462500Y-32250000D03*
X112462500Y-30600000D03*
%TD*%
D26*
%TO.C,TP10*%
X27250000Y-20500000D03*
%TD*%
D41*
%TO.C,TP102*%
X30250000Y-76750000D03*
%TD*%
D51*
%TO.C,J101*%
X48000000Y-75170000D03*
D52*
X50020000Y-75170000D03*
D53*
X51250000Y-75170000D03*
D54*
X49000000Y-75170000D03*
D55*
X46980000Y-75170000D03*
D56*
X45750000Y-75170000D03*
D57*
X44180000Y-75250000D03*
X44180000Y-79050000D03*
X52820000Y-75250000D03*
X52820000Y-79050000D03*
%TD*%
D26*
%TO.C,TP2*%
X70000000Y-39250000D03*
%TD*%
D46*
%TO.C,R102*%
X42250000Y-76825000D03*
X42250000Y-75175000D03*
%TD*%
D26*
%TO.C,TP15*%
X76464286Y-39250000D03*
%TD*%
%TO.C,TP4*%
X102321429Y-39250000D03*
%TD*%
D19*
%TO.C,R106*%
X35100000Y-69350000D03*
X36750000Y-69350000D03*
%TD*%
D58*
%TO.C,D201*%
X61100000Y-48000000D03*
X64400000Y-48000000D03*
%TD*%
D31*
%TO.C,TP17*%
X53833333Y-72000000D03*
%TD*%
D59*
%TO.C,U1*%
X62250000Y-19000000D03*
X62250000Y-20100000D03*
X62250000Y-21200000D03*
X62250000Y-22300000D03*
X62250000Y-23400000D03*
X62250000Y-24500000D03*
X62250000Y-25600000D03*
X62250000Y-26700000D03*
X76250000Y-26700000D03*
X76250000Y-25600000D03*
X76250000Y-24500000D03*
X76250000Y-23400000D03*
X76250000Y-22300000D03*
X76250000Y-21200000D03*
X76250000Y-20100000D03*
X76250000Y-19000000D03*
D60*
X67000000Y-19800000D03*
X67000000Y-21000000D03*
X67000000Y-22200000D03*
X67000000Y-23400000D03*
X67000000Y-24600000D03*
X67000000Y-25800000D03*
X68500000Y-19800000D03*
X68500000Y-21000000D03*
X68500000Y-22200000D03*
X68500000Y-23400000D03*
X68500000Y-24600000D03*
X68500000Y-25800000D03*
X70000000Y-19800000D03*
X70000000Y-21000000D03*
X70000000Y-22200000D03*
X70000000Y-23400000D03*
X70000000Y-24600000D03*
X70000000Y-25800000D03*
X71500000Y-19800000D03*
X71500000Y-21000000D03*
X71500000Y-22200000D03*
X71500000Y-23400000D03*
X71500000Y-24600000D03*
X71500000Y-25800000D03*
%TD*%
D61*
%TO.C,C211*%
X66000000Y-47975000D03*
X66000000Y-49525000D03*
%TD*%
D46*
%TO.C,R101*%
X54750000Y-76825000D03*
X54750000Y-75175000D03*
%TD*%
D61*
%TO.C,C2*%
X80750000Y-28450000D03*
X80750000Y-30000000D03*
%TD*%
D26*
%TO.C,TP5*%
X82928571Y-39250000D03*
%TD*%
D61*
%TO.C,C1*%
X79250000Y-28450000D03*
X79250000Y-30000000D03*
%TD*%
D58*
%TO.C,D203*%
X61100000Y-53000000D03*
X64400000Y-53000000D03*
%TD*%
D62*
%TO.C,C102*%
X37250000Y-63200000D03*
X37250000Y-61300000D03*
%TD*%
D46*
%TO.C,R1*%
X79500000Y-23825000D03*
X79500000Y-22175000D03*
%TD*%
D26*
%TO.C,TP3*%
X95857143Y-39250000D03*
%TD*%
%TO.C,TP11*%
X22500000Y-20500000D03*
%TD*%
D31*
%TO.C,TP19*%
X59500000Y-72000000D03*
%TD*%
D28*
%TO.C,C101*%
X39000000Y-62750000D03*
X39000000Y-61200000D03*
%TD*%
%LPD*%
M02*
