%TF.GenerationSoftware,KiCad,Pcbnew,9.0.7*%
%TF.CreationDate,2026-03-20T00:38:03-04:00*%
%TF.ProjectId,WallNet_Main,57616c6c-4e65-4745-9f4d-61696e2e6b69,rev?*%
%TF.SameCoordinates,Original*%
%TF.FileFunction,Soldermask,Top*%
%TF.FilePolarity,Negative*%
%FSLAX46Y46*%
G04 Gerber Fmt 4.6, Leading zero omitted, Abs format (unit mm)*
G04 Created by KiCad (PCBNEW 9.0.7) date 2026-03-20 00:38:03*
%MOMM*%
%LPD*%
G01*
G04 APERTURE LIST*
G04 Aperture macros list*
%AMRoundRect*
0 Rectangle with rounded corners*
0 $1 Rounding radius*
0 $2 $3 $4 $5 $6 $7 $8 $9 X,Y pos of 4 corners*
0 Add a 4 corners polygon primitive as box body*
4,1,4,$2,$3,$4,$5,$6,$7,$8,$9,$2,$3,0*
0 Add four circle primitives for the rounded corners*
1,1,$1+$1,$2,$3*
1,1,$1+$1,$4,$5*
1,1,$1+$1,$6,$7*
1,1,$1+$1,$8,$9*
0 Add four rect primitives between the rounded corners*
20,1,$1+$1,$2,$3,$4,$5,0*
20,1,$1+$1,$4,$5,$6,$7,0*
20,1,$1+$1,$6,$7,$8,$9,0*
20,1,$1+$1,$8,$9,$2,$3,0*%
%AMFreePoly0*
4,1,7,1.050000,-0.975000,-0.250000,-0.975000,-0.250000,-0.625000,-1.050000,-0.625000,-1.050000,0.975000,1.050000,0.975000,1.050000,-0.975000,1.050000,-0.975000,$1*%
%AMFreePoly1*
4,1,7,1.050000,-0.625000,0.250000,-0.625000,0.250000,-0.975000,-1.050000,-0.975000,-1.050000,0.975000,1.050000,0.975000,1.050000,-0.625000,1.050000,-0.625000,$1*%
G04 Aperture macros list end*
%ADD10C,0.010000*%
%ADD11RoundRect,0.250000X0.450000X-0.800000X0.450000X0.800000X-0.450000X0.800000X-0.450000X-0.800000X0*%
%ADD12RoundRect,0.225000X-0.225000X-0.250000X0.225000X-0.250000X0.225000X0.250000X-0.225000X0.250000X0*%
%ADD13RoundRect,0.200000X-0.200000X-0.275000X0.200000X-0.275000X0.200000X0.275000X-0.200000X0.275000X0*%
%ADD14RoundRect,0.225000X0.225000X0.375000X-0.225000X0.375000X-0.225000X-0.375000X0.225000X-0.375000X0*%
%ADD15C,4.300000*%
%ADD16RoundRect,0.102000X0.650000X1.700000X-0.650000X1.700000X-0.650000X-1.700000X0.650000X-1.700000X0*%
%ADD17RoundRect,0.218750X0.218750X0.256250X-0.218750X0.256250X-0.218750X-0.256250X0.218750X-0.256250X0*%
%ADD18RoundRect,0.200000X-0.600000X0.200000X-0.600000X-0.200000X0.600000X-0.200000X0.600000X0.200000X0*%
%ADD19RoundRect,0.250001X-1.249999X0.799999X-1.249999X-0.799999X1.249999X-0.799999X1.249999X0.799999X0*%
%ADD20C,1.734000*%
%ADD21RoundRect,0.250000X-0.475000X0.250000X-0.475000X-0.250000X0.475000X-0.250000X0.475000X0.250000X0*%
%ADD22RoundRect,0.225000X0.250000X-0.225000X0.250000X0.225000X-0.250000X0.225000X-0.250000X-0.225000X0*%
%ADD23R,1.700000X1.700000*%
%ADD24C,1.700000*%
%ADD25R,1.000000X1.000000*%
%ADD26RoundRect,0.200000X0.200000X0.275000X-0.200000X0.275000X-0.200000X-0.275000X0.200000X-0.275000X0*%
%ADD27RoundRect,0.200000X0.600000X-0.200000X0.600000X0.200000X-0.600000X0.200000X-0.600000X-0.200000X0*%
%ADD28RoundRect,0.250001X1.249999X-0.799999X1.249999X0.799999X-1.249999X0.799999X-1.249999X-0.799999X0*%
%ADD29RoundRect,0.225000X0.225000X0.250000X-0.225000X0.250000X-0.225000X-0.250000X0.225000X-0.250000X0*%
%ADD30RoundRect,0.150000X-0.587500X-0.150000X0.587500X-0.150000X0.587500X0.150000X-0.587500X0.150000X0*%
%ADD31RoundRect,0.200000X-0.275000X0.200000X-0.275000X-0.200000X0.275000X-0.200000X0.275000X0.200000X0*%
%ADD32RoundRect,0.075000X-0.475000X0.075000X-0.475000X-0.075000X0.475000X-0.075000X0.475000X0.075000X0*%
%ADD33FreePoly0,270.000000*%
%ADD34FreePoly1,270.000000*%
%ADD35C,1.000000*%
%ADD36RoundRect,0.218750X-0.256250X0.218750X-0.256250X-0.218750X0.256250X-0.218750X0.256250X0.218750X0*%
%ADD37R,0.812800X2.209800*%
%ADD38C,0.750000*%
%ADD39RoundRect,0.102000X0.600000X0.500000X-0.600000X0.500000X-0.600000X-0.500000X0.600000X-0.500000X0*%
%ADD40RoundRect,0.200000X0.275000X-0.200000X0.275000X0.200000X-0.275000X0.200000X-0.275000X-0.200000X0*%
%ADD41RoundRect,0.102000X-0.800000X-1.500000X0.800000X-1.500000X0.800000X1.500000X-0.800000X1.500000X0*%
%ADD42RoundRect,0.062500X-0.350000X-0.062500X0.350000X-0.062500X0.350000X0.062500X-0.350000X0.062500X0*%
%ADD43RoundRect,0.062500X-0.062500X-0.350000X0.062500X-0.350000X0.062500X0.350000X-0.062500X0.350000X0*%
%ADD44R,2.700000X2.700000*%
%ADD45RoundRect,0.175000X-0.175000X-0.425000X0.175000X-0.425000X0.175000X0.425000X-0.175000X0.425000X0*%
%ADD46RoundRect,0.190000X0.190000X0.410000X-0.190000X0.410000X-0.190000X-0.410000X0.190000X-0.410000X0*%
%ADD47RoundRect,0.200000X0.200000X0.400000X-0.200000X0.400000X-0.200000X-0.400000X0.200000X-0.400000X0*%
%ADD48RoundRect,0.175000X0.175000X0.425000X-0.175000X0.425000X-0.175000X-0.425000X0.175000X-0.425000X0*%
%ADD49RoundRect,0.190000X-0.190000X-0.410000X0.190000X-0.410000X0.190000X0.410000X-0.190000X0.410000X0*%
%ADD50RoundRect,0.200000X-0.200000X-0.400000X0.200000X-0.400000X0.200000X0.400000X-0.200000X0.400000X0*%
%ADD51O,1.100000X1.700000*%
%ADD52RoundRect,0.225000X-0.225000X-0.375000X0.225000X-0.375000X0.225000X0.375000X-0.225000X0.375000X0*%
%ADD53RoundRect,0.102000X-0.750000X-0.350000X0.750000X-0.350000X0.750000X0.350000X-0.750000X0.350000X0*%
%ADD54C,0.804000*%
%ADD55RoundRect,0.225000X-0.250000X0.225000X-0.250000X-0.225000X0.250000X-0.225000X0.250000X0.225000X0*%
%ADD56RoundRect,0.250000X0.475000X-0.250000X0.475000X0.250000X-0.475000X0.250000X-0.475000X-0.250000X0*%
G04 APERTURE END LIST*
D10*
%TO.C,U202*%
X104850000Y-17900000D02*
X102950000Y-17900000D01*
X102950000Y-16300000D01*
X104850000Y-16300000D01*
X104850000Y-17900000D01*
G36*
X104850000Y-17900000D02*
G01*
X102950000Y-17900000D01*
X102950000Y-16300000D01*
X104850000Y-16300000D01*
X104850000Y-17900000D01*
G37*
X104850000Y-19800000D02*
X102950000Y-19800000D01*
X102950000Y-18200000D01*
X104850000Y-18200000D01*
X104850000Y-19800000D01*
G36*
X104850000Y-19800000D02*
G01*
X102950000Y-19800000D01*
X102950000Y-18200000D01*
X104850000Y-18200000D01*
X104850000Y-19800000D01*
G37*
X104850000Y-21700000D02*
X102950000Y-21700000D01*
X102950000Y-20100000D01*
X104850000Y-20100000D01*
X104850000Y-21700000D01*
G36*
X104850000Y-21700000D02*
G01*
X102950000Y-21700000D01*
X102950000Y-20100000D01*
X104850000Y-20100000D01*
X104850000Y-21700000D01*
G37*
X104850000Y-23600000D02*
X102950000Y-23600000D01*
X102950000Y-22000000D01*
X104850000Y-22000000D01*
X104850000Y-23600000D01*
G36*
X104850000Y-23600000D02*
G01*
X102950000Y-23600000D01*
X102950000Y-22000000D01*
X104850000Y-22000000D01*
X104850000Y-23600000D01*
G37*
X104850000Y-25500000D02*
X102950000Y-25500000D01*
X102950000Y-23900000D01*
X104850000Y-23900000D01*
X104850000Y-25500000D01*
G36*
X104850000Y-25500000D02*
G01*
X102950000Y-25500000D01*
X102950000Y-23900000D01*
X104850000Y-23900000D01*
X104850000Y-25500000D01*
G37*
X107500000Y-15250000D02*
X105900000Y-15250000D01*
X105900000Y-13350000D01*
X107500000Y-13350000D01*
X107500000Y-15250000D01*
G36*
X107500000Y-15250000D02*
G01*
X105900000Y-15250000D01*
X105900000Y-13350000D01*
X107500000Y-13350000D01*
X107500000Y-15250000D01*
G37*
X107500000Y-28450000D02*
X105900000Y-28450000D01*
X105900000Y-26550000D01*
X107500000Y-26550000D01*
X107500000Y-28450000D01*
G36*
X107500000Y-28450000D02*
G01*
X105900000Y-28450000D01*
X105900000Y-26550000D01*
X107500000Y-26550000D01*
X107500000Y-28450000D01*
G37*
X109400000Y-15250000D02*
X107800000Y-15250000D01*
X107800000Y-13350000D01*
X109400000Y-13350000D01*
X109400000Y-15250000D01*
G36*
X109400000Y-15250000D02*
G01*
X107800000Y-15250000D01*
X107800000Y-13350000D01*
X109400000Y-13350000D01*
X109400000Y-15250000D01*
G37*
X109400000Y-28450000D02*
X107800000Y-28450000D01*
X107800000Y-26550000D01*
X109400000Y-26550000D01*
X109400000Y-28450000D01*
G36*
X109400000Y-28450000D02*
G01*
X107800000Y-28450000D01*
X107800000Y-26550000D01*
X109400000Y-26550000D01*
X109400000Y-28450000D01*
G37*
X111300000Y-15250000D02*
X109700000Y-15250000D01*
X109700000Y-13350000D01*
X111300000Y-13350000D01*
X111300000Y-15250000D01*
G36*
X111300000Y-15250000D02*
G01*
X109700000Y-15250000D01*
X109700000Y-13350000D01*
X111300000Y-13350000D01*
X111300000Y-15250000D01*
G37*
X111300000Y-28450000D02*
X109700000Y-28450000D01*
X109700000Y-26550000D01*
X111300000Y-26550000D01*
X111300000Y-28450000D01*
G36*
X111300000Y-28450000D02*
G01*
X109700000Y-28450000D01*
X109700000Y-26550000D01*
X111300000Y-26550000D01*
X111300000Y-28450000D01*
G37*
X113200000Y-15250000D02*
X111600000Y-15250000D01*
X111600000Y-13350000D01*
X113200000Y-13350000D01*
X113200000Y-15250000D01*
G36*
X113200000Y-15250000D02*
G01*
X111600000Y-15250000D01*
X111600000Y-13350000D01*
X113200000Y-13350000D01*
X113200000Y-15250000D01*
G37*
X113200000Y-28450000D02*
X111600000Y-28450000D01*
X111600000Y-26550000D01*
X113200000Y-26550000D01*
X113200000Y-28450000D01*
G36*
X113200000Y-28450000D02*
G01*
X111600000Y-28450000D01*
X111600000Y-26550000D01*
X113200000Y-26550000D01*
X113200000Y-28450000D01*
G37*
X115100000Y-15250000D02*
X113500000Y-15250000D01*
X113500000Y-13350000D01*
X115100000Y-13350000D01*
X115100000Y-15250000D01*
G36*
X115100000Y-15250000D02*
G01*
X113500000Y-15250000D01*
X113500000Y-13350000D01*
X115100000Y-13350000D01*
X115100000Y-15250000D01*
G37*
X115100000Y-28450000D02*
X113500000Y-28450000D01*
X113500000Y-26550000D01*
X115100000Y-26550000D01*
X115100000Y-28450000D01*
G36*
X115100000Y-28450000D02*
G01*
X113500000Y-28450000D01*
X113500000Y-26550000D01*
X115100000Y-26550000D01*
X115100000Y-28450000D01*
G37*
X118050000Y-17900000D02*
X116150000Y-17900000D01*
X116150000Y-16300000D01*
X118050000Y-16300000D01*
X118050000Y-17900000D01*
G36*
X118050000Y-17900000D02*
G01*
X116150000Y-17900000D01*
X116150000Y-16300000D01*
X118050000Y-16300000D01*
X118050000Y-17900000D01*
G37*
X118050000Y-19800000D02*
X116150000Y-19800000D01*
X116150000Y-18200000D01*
X118050000Y-18200000D01*
X118050000Y-19800000D01*
G36*
X118050000Y-19800000D02*
G01*
X116150000Y-19800000D01*
X116150000Y-18200000D01*
X118050000Y-18200000D01*
X118050000Y-19800000D01*
G37*
X118050000Y-21700000D02*
X116150000Y-21700000D01*
X116150000Y-20100000D01*
X118050000Y-20100000D01*
X118050000Y-21700000D01*
G36*
X118050000Y-21700000D02*
G01*
X116150000Y-21700000D01*
X116150000Y-20100000D01*
X118050000Y-20100000D01*
X118050000Y-21700000D01*
G37*
X118050000Y-23600000D02*
X116150000Y-23600000D01*
X116150000Y-22000000D01*
X118050000Y-22000000D01*
X118050000Y-23600000D01*
G36*
X118050000Y-23600000D02*
G01*
X116150000Y-23600000D01*
X116150000Y-22000000D01*
X118050000Y-22000000D01*
X118050000Y-23600000D01*
G37*
X118050000Y-25500000D02*
X116150000Y-25500000D01*
X116150000Y-23900000D01*
X118050000Y-23900000D01*
X118050000Y-25500000D01*
G36*
X118050000Y-25500000D02*
G01*
X116150000Y-25500000D01*
X116150000Y-23900000D01*
X118050000Y-23900000D01*
X118050000Y-25500000D01*
G37*
%TD*%
D11*
%TO.C,SW1*%
X87000000Y-25050000D03*
X87000000Y-15950000D03*
X91500000Y-25050000D03*
X91500000Y-15950000D03*
%TD*%
D12*
%TO.C,C201*%
X52425000Y-17250000D03*
X53975000Y-17250000D03*
%TD*%
%TO.C,C106*%
X44475000Y-67000000D03*
X46025000Y-67000000D03*
%TD*%
D13*
%TO.C,R109*%
X35060000Y-66350000D03*
X36710000Y-66350000D03*
%TD*%
%TO.C,R105*%
X44425000Y-71230000D03*
X46075000Y-71230000D03*
%TD*%
%TO.C,R201*%
X47925000Y-17250000D03*
X49575000Y-17250000D03*
%TD*%
D14*
%TO.C,D202*%
X64400000Y-50500000D03*
X61100000Y-50500000D03*
%TD*%
D15*
%TO.C,H3*%
X16930000Y-76930000D03*
%TD*%
%TO.C,H4*%
X16670000Y-16140000D03*
%TD*%
D16*
%TO.C,U201*%
X35650000Y-16500000D03*
X44350000Y-16500000D03*
%TD*%
D17*
%TO.C,D101*%
X34962500Y-67850000D03*
X33387500Y-67850000D03*
%TD*%
D12*
%TO.C,C209*%
X57225000Y-53250000D03*
X58775000Y-53250000D03*
%TD*%
D18*
%TO.C,J201*%
X128900000Y-33550000D03*
X128900000Y-34800000D03*
X128900000Y-36050000D03*
X128900000Y-37300000D03*
D19*
X126000000Y-31000000D03*
X126000000Y-39850000D03*
%TD*%
D20*
%TO.C,TP6*%
X89392857Y-39250000D03*
%TD*%
D13*
%TO.C,R107*%
X35100000Y-70850000D03*
X36750000Y-70850000D03*
%TD*%
D12*
%TO.C,C208*%
X57225000Y-51750000D03*
X58775000Y-51750000D03*
%TD*%
D15*
%TO.C,H1*%
X127250000Y-16250000D03*
%TD*%
D21*
%TO.C,C3*%
X82750000Y-28500000D03*
X82750000Y-30400000D03*
%TD*%
D12*
%TO.C,C107*%
X44475000Y-65500000D03*
X46025000Y-65500000D03*
%TD*%
D22*
%TO.C,C212*%
X58750000Y-42275000D03*
X58750000Y-40725000D03*
%TD*%
D23*
%TO.C,J1*%
X83750000Y-15670000D03*
D24*
X83750000Y-18210000D03*
X83750000Y-20750000D03*
X83750000Y-23290000D03*
X83750000Y-25830000D03*
%TD*%
D25*
%TO.C,TP18*%
X56666667Y-72000000D03*
%TD*%
D12*
%TO.C,C202*%
X53975000Y-39000000D03*
X55525000Y-39000000D03*
%TD*%
D26*
%TO.C,R205*%
X121325000Y-22750000D03*
X119675000Y-22750000D03*
%TD*%
D27*
%TO.C,J102*%
X49600000Y-64450000D03*
X49600000Y-63200000D03*
X49600000Y-61950000D03*
X49600000Y-60700000D03*
D28*
X52500000Y-67000000D03*
X52500000Y-58150000D03*
%TD*%
D12*
%TO.C,C203*%
X57225000Y-44250000D03*
X58775000Y-44250000D03*
%TD*%
D15*
%TO.C,H2*%
X64250000Y-77000000D03*
%TD*%
D29*
%TO.C,C105*%
X42025000Y-63500000D03*
X40475000Y-63500000D03*
%TD*%
D12*
%TO.C,C206*%
X57225000Y-48750000D03*
X58775000Y-48750000D03*
%TD*%
D23*
%TO.C,J202*%
X19920000Y-58500000D03*
D24*
X22460000Y-58500000D03*
X25000000Y-58500000D03*
X27540000Y-58500000D03*
X30080000Y-58500000D03*
%TD*%
D12*
%TO.C,C204*%
X57225000Y-45750000D03*
X58775000Y-45750000D03*
%TD*%
%TO.C,C207*%
X57225000Y-50250000D03*
X58775000Y-50250000D03*
%TD*%
D30*
%TO.C,Q201*%
X59312500Y-36050000D03*
X59312500Y-37950000D03*
X61187500Y-37000000D03*
%TD*%
D20*
%TO.C,TP12*%
X49750000Y-26750000D03*
%TD*%
D21*
%TO.C,C103*%
X49250000Y-67550000D03*
X49250000Y-69450000D03*
%TD*%
D31*
%TO.C,R202*%
X57250000Y-40675000D03*
X57250000Y-42325000D03*
%TD*%
D32*
%TO.C,J203*%
X52000000Y-37000000D03*
X52000000Y-37500000D03*
X52000000Y-38000000D03*
X52000000Y-38500000D03*
X52000000Y-39000000D03*
X52000000Y-39500000D03*
X52000000Y-40000000D03*
X52000000Y-40500000D03*
X52000000Y-41000000D03*
X52000000Y-41500000D03*
X52000000Y-42000000D03*
X52000000Y-42500000D03*
X52000000Y-43000000D03*
X52000000Y-43500000D03*
X52000000Y-44000000D03*
X52000000Y-44500000D03*
X52000000Y-45000000D03*
X52000000Y-45500000D03*
X52000000Y-46000000D03*
X52000000Y-46500000D03*
X52000000Y-47000000D03*
X52000000Y-47500000D03*
X52000000Y-48000000D03*
X52000000Y-48500000D03*
D33*
X50875000Y-34750000D03*
D34*
X50875000Y-50750000D03*
%TD*%
D25*
%TO.C,TP16*%
X51000000Y-72000000D03*
%TD*%
D35*
%TO.C,TP1*%
X23500000Y-76750000D03*
%TD*%
D31*
%TO.C,R103*%
X43000000Y-70925000D03*
X43000000Y-72575000D03*
%TD*%
D13*
%TO.C,R108*%
X35100000Y-72350000D03*
X36750000Y-72350000D03*
%TD*%
D31*
%TO.C,R206*%
X46000000Y-17925000D03*
X46000000Y-19575000D03*
%TD*%
D35*
%TO.C,TP103*%
X26500000Y-76750000D03*
%TD*%
D20*
%TO.C,TP13*%
X45000000Y-26750000D03*
%TD*%
D36*
%TO.C,D1*%
X72500000Y-29000000D03*
X72500000Y-30575000D03*
%TD*%
D26*
%TO.C,R104*%
X46075000Y-69730000D03*
X44425000Y-69730000D03*
%TD*%
D31*
%TO.C,R203*%
X57250000Y-34425000D03*
X57250000Y-36075000D03*
%TD*%
D12*
%TO.C,C205*%
X57225000Y-47250000D03*
X58775000Y-47250000D03*
%TD*%
D36*
%TO.C,D2*%
X76500000Y-29000000D03*
X76500000Y-30575000D03*
%TD*%
D37*
%TO.C,L101*%
X44250000Y-63250000D03*
X46129600Y-63250000D03*
%TD*%
D35*
%TO.C,TP101*%
X33750000Y-76750000D03*
%TD*%
D38*
%TO.C,S201*%
X51200000Y-15125000D03*
X51200000Y-12375000D03*
D39*
X48400000Y-14600000D03*
X48400000Y-12900000D03*
X54000000Y-14600000D03*
X54000000Y-12900000D03*
%TD*%
D20*
%TO.C,TP9*%
X32000000Y-20500000D03*
%TD*%
%TO.C,TP8*%
X108785714Y-39250000D03*
%TD*%
D12*
%TO.C,C210*%
X57225000Y-54750000D03*
X58775000Y-54750000D03*
%TD*%
D20*
%TO.C,TP14*%
X40250000Y-26750000D03*
%TD*%
%TO.C,TP7*%
X115250000Y-39250000D03*
%TD*%
D40*
%TO.C,R3*%
X72500000Y-33575000D03*
X72500000Y-31925000D03*
%TD*%
D26*
%TO.C,R5*%
X78075000Y-32075000D03*
X76425000Y-32075000D03*
%TD*%
D41*
%TO.C,L201*%
X61800000Y-45000000D03*
X64200000Y-45000000D03*
%TD*%
D42*
%TO.C,U101*%
X38712500Y-66175000D03*
X38712500Y-66675000D03*
X38712500Y-67175000D03*
X38712500Y-67675000D03*
X38712500Y-68175000D03*
X38712500Y-68675000D03*
D43*
X39425000Y-69387500D03*
X39925000Y-69387500D03*
X40425000Y-69387500D03*
X40925000Y-69387500D03*
X41425000Y-69387500D03*
X41925000Y-69387500D03*
D42*
X42637500Y-68675000D03*
X42637500Y-68175000D03*
X42637500Y-67675000D03*
X42637500Y-67175000D03*
X42637500Y-66675000D03*
X42637500Y-66175000D03*
D43*
X41925000Y-65462500D03*
X41425000Y-65462500D03*
X40925000Y-65462500D03*
X40425000Y-65462500D03*
X39925000Y-65462500D03*
X39425000Y-65462500D03*
D44*
X40675000Y-67425000D03*
%TD*%
D31*
%TO.C,R2*%
X70750000Y-28925000D03*
X70750000Y-30575000D03*
%TD*%
D29*
%TO.C,C104*%
X36700000Y-64850000D03*
X35150000Y-64850000D03*
%TD*%
D31*
%TO.C,R4*%
X75000000Y-28925000D03*
X75000000Y-30575000D03*
%TD*%
D40*
%TO.C,R204*%
X112462500Y-32250000D03*
X112462500Y-30600000D03*
%TD*%
D20*
%TO.C,TP10*%
X27250000Y-20500000D03*
%TD*%
D35*
%TO.C,TP102*%
X30250000Y-76750000D03*
%TD*%
D45*
%TO.C,J101*%
X48000000Y-75170000D03*
D46*
X50020000Y-75170000D03*
D47*
X51250000Y-75170000D03*
D48*
X49000000Y-75170000D03*
D49*
X46980000Y-75170000D03*
D50*
X45750000Y-75170000D03*
D51*
X44180000Y-75250000D03*
X44180000Y-79050000D03*
X52820000Y-75250000D03*
X52820000Y-79050000D03*
%TD*%
D20*
%TO.C,TP2*%
X70000000Y-39250000D03*
%TD*%
D40*
%TO.C,R102*%
X42250000Y-76825000D03*
X42250000Y-75175000D03*
%TD*%
D20*
%TO.C,TP15*%
X76464286Y-39250000D03*
%TD*%
%TO.C,TP4*%
X102321429Y-39250000D03*
%TD*%
D13*
%TO.C,R106*%
X35100000Y-69350000D03*
X36750000Y-69350000D03*
%TD*%
D52*
%TO.C,D201*%
X61100000Y-48000000D03*
X64400000Y-48000000D03*
%TD*%
D25*
%TO.C,TP17*%
X53833333Y-72000000D03*
%TD*%
D53*
%TO.C,U1*%
X62250000Y-19000000D03*
X62250000Y-20100000D03*
X62250000Y-21200000D03*
X62250000Y-22300000D03*
X62250000Y-23400000D03*
X62250000Y-24500000D03*
X62250000Y-25600000D03*
X62250000Y-26700000D03*
X76250000Y-26700000D03*
X76250000Y-25600000D03*
X76250000Y-24500000D03*
X76250000Y-23400000D03*
X76250000Y-22300000D03*
X76250000Y-21200000D03*
X76250000Y-20100000D03*
X76250000Y-19000000D03*
D54*
X67000000Y-19800000D03*
X67000000Y-21000000D03*
X67000000Y-22200000D03*
X67000000Y-23400000D03*
X67000000Y-24600000D03*
X67000000Y-25800000D03*
X68500000Y-19800000D03*
X68500000Y-21000000D03*
X68500000Y-22200000D03*
X68500000Y-23400000D03*
X68500000Y-24600000D03*
X68500000Y-25800000D03*
X70000000Y-19800000D03*
X70000000Y-21000000D03*
X70000000Y-22200000D03*
X70000000Y-23400000D03*
X70000000Y-24600000D03*
X70000000Y-25800000D03*
X71500000Y-19800000D03*
X71500000Y-21000000D03*
X71500000Y-22200000D03*
X71500000Y-23400000D03*
X71500000Y-24600000D03*
X71500000Y-25800000D03*
%TD*%
D55*
%TO.C,C211*%
X66000000Y-47975000D03*
X66000000Y-49525000D03*
%TD*%
D40*
%TO.C,R101*%
X54750000Y-76825000D03*
X54750000Y-75175000D03*
%TD*%
D55*
%TO.C,C2*%
X80750000Y-28450000D03*
X80750000Y-30000000D03*
%TD*%
D20*
%TO.C,TP5*%
X82928571Y-39250000D03*
%TD*%
D55*
%TO.C,C1*%
X79250000Y-28450000D03*
X79250000Y-30000000D03*
%TD*%
D52*
%TO.C,D203*%
X61100000Y-53000000D03*
X64400000Y-53000000D03*
%TD*%
D56*
%TO.C,C102*%
X37250000Y-63200000D03*
X37250000Y-61300000D03*
%TD*%
D40*
%TO.C,R1*%
X79500000Y-23825000D03*
X79500000Y-22175000D03*
%TD*%
D20*
%TO.C,TP3*%
X95857143Y-39250000D03*
%TD*%
%TO.C,TP11*%
X22500000Y-20500000D03*
%TD*%
D25*
%TO.C,TP19*%
X59500000Y-72000000D03*
%TD*%
D22*
%TO.C,C101*%
X39000000Y-62750000D03*
X39000000Y-61200000D03*
%TD*%
M02*
