M48
; DRILL file {KiCad 9.0.7} date 2026-03-20T00:40:06-0400
; FORMAT={-:-/ absolute / metric / decimal}
; #@! TF.CreationDate,2026-03-20T00:40:06-04:00
; #@! TF.GenerationSoftware,Kicad,Pcbnew,9.0.7
; #@! TF.FileFunction,Plated,1,4,PTH
FMAT,2
METRIC
; #@! TA.AperFunction,Plated,PTH,ViaDrill
T1C0.380
; #@! TA.AperFunction,Plated,PTH,ComponentDrill
T2C0.600
; #@! TA.AperFunction,Plated,PTH,ComponentDrill
T3C1.000
; #@! TA.AperFunction,Plated,PTH,ComponentDrill
T4C1.020
%
G90
G05
T1
X22.5Y-16.5
X23.5Y-70.25
X26.5Y-75.5
X27.25Y-16.5
X29.0Y-65.5
X30.25Y-75.5
X32.25Y-16.5
X33.387Y-69.1
X36.75Y-68.25
X37.25Y-58.279
X37.492Y-69.988
X37.898Y-72.263
X38.5Y-65.0
X38.747Y-32.165
X38.823Y-56.758
X38.827Y-32.914
X39.0Y-74.0
X39.5Y-33.25
X40.0Y-16.5
X40.0Y-66.75
X40.25Y-70.75
X41.5Y-68.25
X41.75Y-62.5
X42.5Y-29.0
X42.75Y-34.75
X42.75Y-50.75
X43.25Y-65.5
X43.5Y-67.175
X46.75Y-15.75
X47.25Y-69.75
X47.25Y-72.5
X48.0Y-29.0
X48.0Y-68.675
X51.0Y-40.5
X51.0Y-45.0
X51.0Y-70.75
X53.25Y-41.0
X53.75Y-21.75
X53.782Y-41.532
X54.0Y-70.75
X54.25Y-22.75
X54.314Y-42.064
X54.75Y-23.75
X54.75Y-44.5
X54.846Y-42.596
X55.25Y-24.5
X55.378Y-43.128
X55.75Y-25.5
X55.75Y-51.0
X55.91Y-43.66
X56.112Y-49.137
X56.25Y-26.75
X56.75Y-70.75
X57.25Y-37.95
X57.25Y-39.0
X57.25Y-43.0
X57.5Y-29.0
X59.5Y-70.75
X60.0Y-44.25
X60.0Y-46.5
X60.0Y-48.75
X60.0Y-50.75
X60.25Y-39.5
X61.25Y-42.25
X61.5Y-29.0
X62.5Y-41.0
X66.25Y-21.75
X66.325Y-24.075
X66.35Y-22.85
X66.494Y-25.243
X67.0Y-26.75
X67.0Y-36.0
X68.5Y-26.75
X68.5Y-36.0
X70.0Y-26.75
X70.25Y-35.5
X73.0Y-23.5
X74.25Y-21.75
X74.471Y-34.371
X74.5Y-24.0
X75.0Y-19.25
X75.0Y-24.75
X75.25Y-34.971
X77.5Y-23.0
X77.5Y-33.842
X78.25Y-25.5
X81.75Y-26.7
X82.25Y-13.0
X83.0Y-35.5
X89.5Y-36.029
X91.0Y-31.75
X96.0Y-13.17
X98.5Y-16.0
X99.0Y-31.75
X101.5Y-12.642
X101.5Y-13.699
X102.321Y-33.842
X105.5Y-17.0
X105.5Y-19.0
X105.5Y-21.0
X105.5Y-22.75
X105.5Y-24.75
X106.0Y-30.75
X106.75Y-15.75
X106.75Y-26.0
X108.75Y-34.971
X110.75Y-36.029
X112.4Y-29.25
X112.5Y-16.0
X113.712Y-32.425
X114.25Y-15.75
X114.5Y-26.0
X115.0Y-34.371
X115.5Y-17.25
X115.5Y-35.5
X115.75Y-24.75
X118.75Y-22.75
X122.25Y-22.75
X130.25Y-36.0
T3
X19.92Y-58.5
X22.46Y-58.5
X25.0Y-58.5
X27.54Y-58.5
X30.08Y-58.5
X83.75Y-15.67
X83.75Y-18.21
X83.75Y-20.75
X83.75Y-23.29
X83.75Y-25.83
T4
X22.5Y-20.5
X27.25Y-20.5
X32.0Y-20.5
X40.25Y-26.75
X45.0Y-26.75
X49.75Y-26.75
X70.0Y-39.25
X76.464Y-39.25
X82.929Y-39.25
X89.393Y-39.25
X95.857Y-39.25
X102.321Y-39.25
X108.786Y-39.25
X115.25Y-39.25
T2
X44.18Y-74.95G85X44.18Y-75.55
G05
X44.18Y-78.75G85X44.18Y-79.35
G05
X52.82Y-74.95G85X52.82Y-75.55
G05
X52.82Y-78.75G85X52.82Y-79.35
G05
M30
